<?xml version="1.0" encoding="UTF-8" standalone="no"?>
<!DOCTYPE svg PUBLIC "-//W3C//DTD SVG 1.1//EN"
 "http://www.w3.org/Graphics/SVG/1.1/DTD/svg11.dtd">
<!-- Generated by graphviz version 2.47.0 (20210316.0004)
 -->
<!-- Title: dependencies Pages: 1 -->
<svg width="504pt" height="284pt"
 viewBox="0.00 0.00 504.00 284.00" xmlns="http://www.w3.org/2000/svg" xmlns:xlink="http://www.w3.org/1999/xlink">
<g id="graph0" class="graph" transform="scale(1 1) rotate(0) translate(4 280)">
<title>dependencies</title>
<polygon fill="white" stroke="transparent" points="-4,4 -4,-280 500,-280 500,4 -4,4"/>
<text text-anchor="start" x="227.01" y="-42.4" font-family="sans-serif" font-weight="bold" font-size="14.00">Legend</text>
<polygon fill="#ffffb3" stroke="transparent" points="14,-10 14,-30 34,-30 34,-10 14,-10"/>
<text text-anchor="start" x="37.63" y="-15.4" font-family="sans-serif" font-size="14.00"> &#160;Declarations</text>
<polygon fill="#8dd3c7" stroke="transparent" points="127,-10 127,-30 147,-30 147,-10 127,-10"/>
<text text-anchor="start" x="150.73" y="-15.4" font-family="sans-serif" font-size="14.00"> &#160;Module</text>
<polygon fill="#80b1d3" stroke="transparent" points="213,-10 213,-30 233,-30 233,-10 213,-10"/>
<text text-anchor="start" x="236.78" y="-15.4" font-family="sans-serif" font-size="14.00"> &#160;Bootstrap</text>
<polygon fill="#fdb462" stroke="transparent" points="310,-10 310,-30 330,-30 330,-10 310,-10"/>
<text text-anchor="start" x="333.67" y="-15.4" font-family="sans-serif" font-size="14.00"> &#160;Providers</text>
<polygon fill="#fb8072" stroke="transparent" points="406,-10 406,-30 426,-30 426,-10 406,-10"/>
<text text-anchor="start" x="429.73" y="-15.4" font-family="sans-serif" font-size="14.00"> &#160;Exports</text>
<g id="clust1" class="cluster">
<title>cluster_ExportationModule</title>
<polygon fill="none" stroke="black" stroke-dasharray="1,5" points="38,-70 38,-268 458,-268 458,-70 38,-70"/>
</g>
<g id="clust4" class="cluster">
<title>cluster_ExportationModule_exports</title>
<polygon fill="none" stroke="black" points="169,-208 169,-260 313,-260 313,-208 169,-208"/>
</g>
<g id="clust6" class="cluster">
<title>cluster_ExportationModule_providers</title>
<polygon fill="none" stroke="black" points="46,-78 46,-130 450,-130 450,-78 46,-78"/>
</g>
<!-- ExportationService  -->
<g id="node1" class="node">
<title>ExportationService </title>
<polygon fill="#fb8072" stroke="black" points="304.58,-252 177.42,-252 177.42,-216 304.58,-216 304.58,-252"/>
<text text-anchor="middle" x="241" y="-229.8" font-family="Times,serif" font-size="14.00">ExportationService </text>
</g>
<!-- ExportationModule -->
<g id="node2" class="node">
<title>ExportationModule</title>
<polygon fill="#8dd3c7" stroke="black" points="303.65,-187 300.65,-191 279.65,-191 276.65,-187 178.35,-187 178.35,-151 303.65,-151 303.65,-187"/>
<text text-anchor="middle" x="241" y="-164.8" font-family="Times,serif" font-size="14.00">ExportationModule</text>
</g>
<!-- ExportationModule&#45;&gt;ExportationService  -->
<g id="edge1" class="edge">
<title>ExportationModule&#45;&gt;ExportationService </title>
<path fill="none" stroke="black" stroke-dasharray="5,2" d="M241,-187.11C241,-187.11 241,-205.99 241,-205.99"/>
<polygon fill="black" stroke="black" points="237.5,-205.99 241,-215.99 244.5,-205.99 237.5,-205.99"/>
</g>
<!-- ExportationRepository -->
<g id="node3" class="node">
<title>ExportationRepository</title>
<ellipse fill="#fdb462" stroke="black" cx="343" cy="-104" rx="99.02" ry="18"/>
<text text-anchor="middle" x="343" y="-99.8" font-family="Times,serif" font-size="14.00">ExportationRepository</text>
</g>
<!-- ExportationRepository&#45;&gt;ExportationModule -->
<g id="edge2" class="edge">
<title>ExportationRepository&#45;&gt;ExportationModule</title>
<path fill="none" stroke="black" d="M273.91,-117.15C273.91,-117.15 273.91,-140.69 273.91,-140.69"/>
<polygon fill="black" stroke="black" points="270.41,-140.69 273.91,-150.69 277.41,-140.69 270.41,-140.69"/>
</g>
<!-- ExportationService -->
<g id="node4" class="node">
<title>ExportationService</title>
<ellipse fill="#fdb462" stroke="black" cx="140" cy="-104" rx="85.67" ry="18"/>
<text text-anchor="middle" x="140" y="-99.8" font-family="Times,serif" font-size="14.00">ExportationService</text>
</g>
<!-- ExportationService&#45;&gt;ExportationModule -->
<g id="edge3" class="edge">
<title>ExportationService&#45;&gt;ExportationModule</title>
<path fill="none" stroke="black" d="M201.88,-116.53C201.88,-116.53 201.88,-140.85 201.88,-140.85"/>
<polygon fill="black" stroke="black" points="198.38,-140.85 201.88,-150.85 205.38,-140.85 198.38,-140.85"/>
</g>
</g>
</svg>
