<?xml version="1.0" encoding="UTF-8" standalone="no"?>
<!DOCTYPE svg PUBLIC "-//W3C//DTD SVG 1.1//EN"
 "http://www.w3.org/Graphics/SVG/1.1/DTD/svg11.dtd">
<!-- Generated by graphviz version 2.47.0 (20210316.0004)
 -->
<!-- Title: dependencies Pages: 1 -->
<svg width="1252pt" height="284pt"
 viewBox="0.00 0.00 1252.00 284.00" xmlns="http://www.w3.org/2000/svg" xmlns:xlink="http://www.w3.org/1999/xlink">
<g id="graph0" class="graph" transform="scale(1 1) rotate(0) translate(4 280)">
<title>dependencies</title>
<polygon fill="white" stroke="transparent" points="-4,4 -4,-280 1248,-280 1248,4 -4,4"/>
<text text-anchor="start" x="601.01" y="-42.4" font-family="sans-serif" font-weight="bold" font-size="14.00">Legend</text>
<polygon fill="#ffffb3" stroke="transparent" points="388,-10 388,-30 408,-30 408,-10 388,-10"/>
<text text-anchor="start" x="411.63" y="-15.4" font-family="sans-serif" font-size="14.00"> &#160;Declarations</text>
<polygon fill="#8dd3c7" stroke="transparent" points="501,-10 501,-30 521,-30 521,-10 501,-10"/>
<text text-anchor="start" x="524.73" y="-15.4" font-family="sans-serif" font-size="14.00"> &#160;Module</text>
<polygon fill="#80b1d3" stroke="transparent" points="587,-10 587,-30 607,-30 607,-10 587,-10"/>
<text text-anchor="start" x="610.78" y="-15.4" font-family="sans-serif" font-size="14.00"> &#160;Bootstrap</text>
<polygon fill="#fdb462" stroke="transparent" points="684,-10 684,-30 704,-30 704,-10 684,-10"/>
<text text-anchor="start" x="707.67" y="-15.4" font-family="sans-serif" font-size="14.00"> &#160;Providers</text>
<polygon fill="#fb8072" stroke="transparent" points="780,-10 780,-30 800,-30 800,-10 780,-10"/>
<text text-anchor="start" x="803.73" y="-15.4" font-family="sans-serif" font-size="14.00"> &#160;Exports</text>
<g id="clust1" class="cluster">
<title>cluster_ExamModule</title>
<polygon fill="none" stroke="black" stroke-dasharray="1,5" points="8,-70 8,-268 1236,-268 1236,-70 8,-70"/>
</g>
<g id="clust3" class="cluster">
<title>cluster_ExamModule_imports</title>
<polygon fill="none" stroke="black" points="994,-78 994,-130 1228,-130 1228,-78 994,-78"/>
</g>
<g id="clust6" class="cluster">
<title>cluster_ExamModule_providers</title>
<polygon fill="none" stroke="black" points="16,-78 16,-130 986,-130 986,-78 16,-78"/>
</g>
<g id="clust4" class="cluster">
<title>cluster_ExamModule_exports</title>
<polygon fill="none" stroke="black" points="561,-208 561,-260 845,-260 845,-208 561,-208"/>
</g>
<!-- AuxiliaryModule -->
<g id="node1" class="node">
<title>AuxiliaryModule</title>
<polygon fill="#8dd3c7" stroke="black" points="1219.7,-122 1216.7,-126 1195.7,-126 1192.7,-122 1106.3,-122 1106.3,-86 1219.7,-86 1219.7,-122"/>
<text text-anchor="middle" x="1163" y="-99.8" font-family="Times,serif" font-size="14.00">AuxiliaryModule</text>
</g>
<!-- ExamModule -->
<g id="node3" class="node">
<title>ExamModule</title>
<polygon fill="#8dd3c7" stroke="black" points="733.21,-187 730.21,-191 709.21,-191 706.21,-187 640.79,-187 640.79,-151 733.21,-151 733.21,-187"/>
<text text-anchor="middle" x="687" y="-164.8" font-family="Times,serif" font-size="14.00">ExamModule</text>
</g>
<!-- AuxiliaryModule&#45;&gt;ExamModule -->
<g id="edge1" class="edge">
<title>AuxiliaryModule&#45;&gt;ExamModule</title>
<path fill="none" stroke="black" d="M1163,-122.29C1163,-144.21 1163,-178 1163,-178 1163,-178 743.51,-178 743.51,-178"/>
<polygon fill="black" stroke="black" points="743.51,-174.5 733.51,-178 743.51,-181.5 743.51,-174.5"/>
</g>
<!-- InfraModule -->
<g id="node2" class="node">
<title>InfraModule</title>
<polygon fill="#8dd3c7" stroke="black" points="1088.25,-122 1085.25,-126 1064.25,-126 1061.25,-122 1001.75,-122 1001.75,-86 1088.25,-86 1088.25,-122"/>
<text text-anchor="middle" x="1045" y="-99.8" font-family="Times,serif" font-size="14.00">InfraModule</text>
</g>
<!-- InfraModule&#45;&gt;ExamModule -->
<g id="edge2" class="edge">
<title>InfraModule&#45;&gt;ExamModule</title>
<path fill="none" stroke="black" d="M1045,-122.11C1045,-141.34 1045,-169 1045,-169 1045,-169 743.44,-169 743.44,-169"/>
<polygon fill="black" stroke="black" points="743.44,-165.5 733.44,-169 743.44,-172.5 743.44,-165.5"/>
</g>
<!-- ExamAgreementService  -->
<g id="node4" class="node">
<title>ExamAgreementService </title>
<polygon fill="#fb8072" stroke="black" points="837.33,-252 680.67,-252 680.67,-216 837.33,-216 837.33,-252"/>
<text text-anchor="middle" x="759" y="-229.8" font-family="Times,serif" font-size="14.00">ExamAgreementService </text>
</g>
<!-- ExamModule&#45;&gt;ExamAgreementService  -->
<g id="edge3" class="edge">
<title>ExamModule&#45;&gt;ExamAgreementService </title>
<path fill="none" stroke="black" stroke-dasharray="5,2" d="M706.97,-187.11C706.97,-187.11 706.97,-205.99 706.97,-205.99"/>
<polygon fill="black" stroke="black" points="703.47,-205.99 706.97,-215.99 710.47,-205.99 703.47,-205.99"/>
</g>
<!-- ExamService  -->
<g id="node5" class="node">
<title>ExamService </title>
<polygon fill="#fb8072" stroke="black" points="663.14,-252 568.86,-252 568.86,-216 663.14,-216 663.14,-252"/>
<text text-anchor="middle" x="616" y="-229.8" font-family="Times,serif" font-size="14.00">ExamService </text>
</g>
<!-- ExamModule&#45;&gt;ExamService  -->
<g id="edge4" class="edge">
<title>ExamModule&#45;&gt;ExamService </title>
<path fill="none" stroke="black" stroke-dasharray="5,2" d="M651.98,-187.11C651.98,-187.11 651.98,-205.99 651.98,-205.99"/>
<polygon fill="black" stroke="black" points="648.48,-205.99 651.98,-215.99 655.48,-205.99 648.48,-205.99"/>
</g>
<!-- ExamAgreementService -->
<g id="node6" class="node">
<title>ExamAgreementService</title>
<ellipse fill="#fdb462" stroke="black" cx="873" cy="-104" rx="105.34" ry="18"/>
<text text-anchor="middle" x="873" y="-99.8" font-family="Times,serif" font-size="14.00">ExamAgreementService</text>
</g>
<!-- ExamAgreementService&#45;&gt;ExamModule -->
<g id="edge5" class="edge">
<title>ExamAgreementService&#45;&gt;ExamModule</title>
<path fill="none" stroke="black" d="M802.37,-117.56C802.37,-134.13 802.37,-160 802.37,-160 802.37,-160 743.26,-160 743.26,-160"/>
<polygon fill="black" stroke="black" points="743.26,-156.5 733.26,-160 743.26,-163.5 743.26,-156.5"/>
</g>
<!-- ExamService -->
<g id="node7" class="node">
<title>ExamService</title>
<ellipse fill="#fdb462" stroke="black" cx="687" cy="-104" rx="62.54" ry="18"/>
<text text-anchor="middle" x="687" y="-99.8" font-family="Times,serif" font-size="14.00">ExamService</text>
</g>
<!-- ExamService&#45;&gt;ExamModule -->
<g id="edge6" class="edge">
<title>ExamService&#45;&gt;ExamModule</title>
<path fill="none" stroke="black" d="M687,-122.11C687,-122.11 687,-140.99 687,-140.99"/>
<polygon fill="black" stroke="black" points="683.5,-140.99 687,-150.99 690.5,-140.99 683.5,-140.99"/>
</g>
<!-- ExamTargetNodeFactory -->
<g id="node8" class="node">
<title>ExamTargetNodeFactory</title>
<ellipse fill="#fdb462" stroke="black" cx="497" cy="-104" rx="109.35" ry="18"/>
<text text-anchor="middle" x="497" y="-99.8" font-family="Times,serif" font-size="14.00">ExamTargetNodeFactory</text>
</g>
<!-- ExamTargetNodeFactory&#45;&gt;ExamModule -->
<g id="edge7" class="edge">
<title>ExamTargetNodeFactory&#45;&gt;ExamModule</title>
<path fill="none" stroke="black" d="M587.55,-114.27C587.55,-130.44 587.55,-160 587.55,-160 587.55,-160 630.77,-160 630.77,-160"/>
<polygon fill="black" stroke="black" points="630.77,-163.5 640.77,-160 630.77,-156.5 630.77,-163.5"/>
</g>
<!-- ExamTargetService -->
<g id="node9" class="node">
<title>ExamTargetService</title>
<ellipse fill="#fdb462" stroke="black" cx="282" cy="-104" rx="87.94" ry="18"/>
<text text-anchor="middle" x="282" y="-99.8" font-family="Times,serif" font-size="14.00">ExamTargetService</text>
</g>
<!-- ExamTargetService&#45;&gt;ExamModule -->
<g id="edge8" class="edge">
<title>ExamTargetService&#45;&gt;ExamModule</title>
<path fill="none" stroke="black" d="M282,-122.11C282,-141.34 282,-169 282,-169 282,-169 630.54,-169 630.54,-169"/>
<polygon fill="black" stroke="black" points="630.54,-172.5 640.54,-169 630.54,-165.5 630.54,-172.5"/>
</g>
<!-- ExamTargetTree -->
<g id="node10" class="node">
<title>ExamTargetTree</title>
<ellipse fill="#fdb462" stroke="black" cx="100" cy="-104" rx="76.4" ry="18"/>
<text text-anchor="middle" x="100" y="-99.8" font-family="Times,serif" font-size="14.00">ExamTargetTree</text>
</g>
<!-- ExamTargetTree&#45;&gt;ExamModule -->
<g id="edge9" class="edge">
<title>ExamTargetTree&#45;&gt;ExamModule</title>
<path fill="none" stroke="black" d="M100,-122.29C100,-144.21 100,-178 100,-178 100,-178 630.45,-178 630.45,-178"/>
<polygon fill="black" stroke="black" points="630.45,-181.5 640.45,-178 630.45,-174.5 630.45,-181.5"/>
</g>
</g>
</svg>
