<?xml version="1.0" encoding="UTF-8" standalone="no"?>
<!DOCTYPE svg PUBLIC "-//W3C//DTD SVG 1.1//EN"
 "http://www.w3.org/Graphics/SVG/1.1/DTD/svg11.dtd">
<!-- Generated by graphviz version 2.47.0 (20210316.0004)
 -->
<!-- Title: dependencies Pages: 1 -->
<svg width="1010pt" height="284pt"
 viewBox="0.00 0.00 1010.00 284.00" xmlns="http://www.w3.org/2000/svg" xmlns:xlink="http://www.w3.org/1999/xlink">
<g id="graph0" class="graph" transform="scale(1 1) rotate(0) translate(4 280)">
<title>dependencies</title>
<polygon fill="white" stroke="transparent" points="-4,4 -4,-280 1006,-280 1006,4 -4,4"/>
<text text-anchor="start" x="480.01" y="-42.4" font-family="sans-serif" font-weight="bold" font-size="14.00">Legend</text>
<polygon fill="#ffffb3" stroke="transparent" points="267,-10 267,-30 287,-30 287,-10 267,-10"/>
<text text-anchor="start" x="290.63" y="-15.4" font-family="sans-serif" font-size="14.00"> &#160;Declarations</text>
<polygon fill="#8dd3c7" stroke="transparent" points="380,-10 380,-30 400,-30 400,-10 380,-10"/>
<text text-anchor="start" x="403.73" y="-15.4" font-family="sans-serif" font-size="14.00"> &#160;Module</text>
<polygon fill="#80b1d3" stroke="transparent" points="466,-10 466,-30 486,-30 486,-10 466,-10"/>
<text text-anchor="start" x="489.78" y="-15.4" font-family="sans-serif" font-size="14.00"> &#160;Bootstrap</text>
<polygon fill="#fdb462" stroke="transparent" points="563,-10 563,-30 583,-30 583,-10 563,-10"/>
<text text-anchor="start" x="586.67" y="-15.4" font-family="sans-serif" font-size="14.00"> &#160;Providers</text>
<polygon fill="#fb8072" stroke="transparent" points="659,-10 659,-30 679,-30 679,-10 659,-10"/>
<text text-anchor="start" x="682.73" y="-15.4" font-family="sans-serif" font-size="14.00"> &#160;Exports</text>
<g id="clust1" class="cluster">
<title>cluster_ExamModule</title>
<polygon fill="none" stroke="black" stroke-dasharray="1,5" points="8,-70 8,-268 994,-268 994,-70 8,-70"/>
</g>
<g id="clust6" class="cluster">
<title>cluster_ExamModule_providers</title>
<polygon fill="none" stroke="black" points="16,-78 16,-130 986,-130 986,-78 16,-78"/>
</g>
<g id="clust4" class="cluster">
<title>cluster_ExamModule_exports</title>
<polygon fill="none" stroke="black" points="371,-208 371,-260 655,-260 655,-208 371,-208"/>
</g>
<!-- ExamAgreementService  -->
<g id="node1" class="node">
<title>ExamAgreementService </title>
<polygon fill="#fb8072" stroke="black" points="647.33,-252 490.67,-252 490.67,-216 647.33,-216 647.33,-252"/>
<text text-anchor="middle" x="569" y="-229.8" font-family="Times,serif" font-size="14.00">ExamAgreementService </text>
</g>
<!-- ExamService  -->
<g id="node2" class="node">
<title>ExamService </title>
<polygon fill="#fb8072" stroke="black" points="473.14,-252 378.86,-252 378.86,-216 473.14,-216 473.14,-252"/>
<text text-anchor="middle" x="426" y="-229.8" font-family="Times,serif" font-size="14.00">ExamService </text>
</g>
<!-- ExamModule -->
<g id="node3" class="node">
<title>ExamModule</title>
<polygon fill="#8dd3c7" stroke="black" points="543.21,-187 540.21,-191 519.21,-191 516.21,-187 450.79,-187 450.79,-151 543.21,-151 543.21,-187"/>
<text text-anchor="middle" x="497" y="-164.8" font-family="Times,serif" font-size="14.00">ExamModule</text>
</g>
<!-- ExamModule&#45;&gt;ExamAgreementService  -->
<g id="edge1" class="edge">
<title>ExamModule&#45;&gt;ExamAgreementService </title>
<path fill="none" stroke="black" stroke-dasharray="5,2" d="M516.97,-187.11C516.97,-187.11 516.97,-205.99 516.97,-205.99"/>
<polygon fill="black" stroke="black" points="513.47,-205.99 516.97,-215.99 520.47,-205.99 513.47,-205.99"/>
</g>
<!-- ExamModule&#45;&gt;ExamService  -->
<g id="edge2" class="edge">
<title>ExamModule&#45;&gt;ExamService </title>
<path fill="none" stroke="black" stroke-dasharray="5,2" d="M461.98,-187.11C461.98,-187.11 461.98,-205.99 461.98,-205.99"/>
<polygon fill="black" stroke="black" points="458.48,-205.99 461.98,-215.99 465.48,-205.99 458.48,-205.99"/>
</g>
<!-- ExamAgreementService -->
<g id="node4" class="node">
<title>ExamAgreementService</title>
<ellipse fill="#fdb462" stroke="black" cx="873" cy="-104" rx="105.34" ry="18"/>
<text text-anchor="middle" x="873" y="-99.8" font-family="Times,serif" font-size="14.00">ExamAgreementService</text>
</g>
<!-- ExamAgreementService&#45;&gt;ExamModule -->
<g id="edge3" class="edge">
<title>ExamAgreementService&#45;&gt;ExamModule</title>
<path fill="none" stroke="black" d="M873,-122.28C873,-143.32 873,-175 873,-175 873,-175 553.1,-175 553.1,-175"/>
<polygon fill="black" stroke="black" points="553.11,-171.5 543.1,-175 553.1,-178.5 553.11,-171.5"/>
</g>
<!-- ExamService -->
<g id="node5" class="node">
<title>ExamService</title>
<ellipse fill="#fdb462" stroke="black" cx="687" cy="-104" rx="62.54" ry="18"/>
<text text-anchor="middle" x="687" y="-99.8" font-family="Times,serif" font-size="14.00">ExamService</text>
</g>
<!-- ExamService&#45;&gt;ExamModule -->
<g id="edge4" class="edge">
<title>ExamService&#45;&gt;ExamModule</title>
<path fill="none" stroke="black" d="M635.82,-114.55C635.82,-131.52 635.82,-163 635.82,-163 635.82,-163 553.23,-163 553.23,-163"/>
<polygon fill="black" stroke="black" points="553.23,-159.5 543.23,-163 553.23,-166.5 553.23,-159.5"/>
</g>
<!-- ExamTargetNodeFactory -->
<g id="node6" class="node">
<title>ExamTargetNodeFactory</title>
<ellipse fill="#fdb462" stroke="black" cx="497" cy="-104" rx="109.35" ry="18"/>
<text text-anchor="middle" x="497" y="-99.8" font-family="Times,serif" font-size="14.00">ExamTargetNodeFactory</text>
</g>
<!-- ExamTargetNodeFactory&#45;&gt;ExamModule -->
<g id="edge5" class="edge">
<title>ExamTargetNodeFactory&#45;&gt;ExamModule</title>
<path fill="none" stroke="black" d="M497,-122.11C497,-122.11 497,-140.99 497,-140.99"/>
<polygon fill="black" stroke="black" points="493.5,-140.99 497,-150.99 500.5,-140.99 493.5,-140.99"/>
</g>
<!-- ExamTargetService -->
<g id="node7" class="node">
<title>ExamTargetService</title>
<ellipse fill="#fdb462" stroke="black" cx="282" cy="-104" rx="87.94" ry="18"/>
<text text-anchor="middle" x="282" y="-99.8" font-family="Times,serif" font-size="14.00">ExamTargetService</text>
</g>
<!-- ExamTargetService&#45;&gt;ExamModule -->
<g id="edge6" class="edge">
<title>ExamTargetService&#45;&gt;ExamModule</title>
<path fill="none" stroke="black" d="M282,-122.02C282,-139.37 282,-163 282,-163 282,-163 440.88,-163 440.88,-163"/>
<polygon fill="black" stroke="black" points="440.88,-166.5 450.88,-163 440.88,-159.5 440.88,-166.5"/>
</g>
<!-- ExamTargetTree -->
<g id="node8" class="node">
<title>ExamTargetTree</title>
<ellipse fill="#fdb462" stroke="black" cx="100" cy="-104" rx="76.4" ry="18"/>
<text text-anchor="middle" x="100" y="-99.8" font-family="Times,serif" font-size="14.00">ExamTargetTree</text>
</g>
<!-- ExamTargetTree&#45;&gt;ExamModule -->
<g id="edge7" class="edge">
<title>ExamTargetTree&#45;&gt;ExamModule</title>
<path fill="none" stroke="black" d="M100,-122.28C100,-143.32 100,-175 100,-175 100,-175 440.68,-175 440.68,-175"/>
<polygon fill="black" stroke="black" points="440.68,-178.5 450.68,-175 440.68,-171.5 440.68,-178.5"/>
</g>
</g>
</svg>
