<?xml version="1.0" encoding="UTF-8" standalone="no"?>
<!DOCTYPE svg PUBLIC "-//W3C//DTD SVG 1.1//EN"
 "http://www.w3.org/Graphics/SVG/1.1/DTD/svg11.dtd">
<!-- Generated by graphviz version 2.47.0 (20210316.0004)
 -->
<!-- Title: dependencies Pages: 1 -->
<svg width="603pt" height="284pt"
 viewBox="0.00 0.00 603.00 284.00" xmlns="http://www.w3.org/2000/svg" xmlns:xlink="http://www.w3.org/1999/xlink">
<g id="graph0" class="graph" transform="scale(1 1) rotate(0) translate(4 280)">
<title>dependencies</title>
<polygon fill="white" stroke="transparent" points="-4,4 -4,-280 599,-280 599,4 -4,4"/>
<text text-anchor="start" x="276.51" y="-42.4" font-family="sans-serif" font-weight="bold" font-size="14.00">Legend</text>
<polygon fill="#ffffb3" stroke="transparent" points="63.5,-10 63.5,-30 83.5,-30 83.5,-10 63.5,-10"/>
<text text-anchor="start" x="87.13" y="-15.4" font-family="sans-serif" font-size="14.00"> &#160;Declarations</text>
<polygon fill="#8dd3c7" stroke="transparent" points="176.5,-10 176.5,-30 196.5,-30 196.5,-10 176.5,-10"/>
<text text-anchor="start" x="200.23" y="-15.4" font-family="sans-serif" font-size="14.00"> &#160;Module</text>
<polygon fill="#80b1d3" stroke="transparent" points="262.5,-10 262.5,-30 282.5,-30 282.5,-10 262.5,-10"/>
<text text-anchor="start" x="286.28" y="-15.4" font-family="sans-serif" font-size="14.00"> &#160;Bootstrap</text>
<polygon fill="#fdb462" stroke="transparent" points="359.5,-10 359.5,-30 379.5,-30 379.5,-10 359.5,-10"/>
<text text-anchor="start" x="383.17" y="-15.4" font-family="sans-serif" font-size="14.00"> &#160;Providers</text>
<polygon fill="#fb8072" stroke="transparent" points="455.5,-10 455.5,-30 475.5,-30 475.5,-10 455.5,-10"/>
<text text-anchor="start" x="479.23" y="-15.4" font-family="sans-serif" font-size="14.00"> &#160;Exports</text>
<g id="clust1" class="cluster">
<title>cluster_ExamModule</title>
<polygon fill="none" stroke="black" stroke-dasharray="1,5" points="8,-70 8,-268 587,-268 587,-70 8,-70"/>
</g>
<g id="clust4" class="cluster">
<title>cluster_ExamModule_exports</title>
<polygon fill="none" stroke="black" points="154,-208 154,-260 438,-260 438,-208 154,-208"/>
</g>
<g id="clust6" class="cluster">
<title>cluster_ExamModule_providers</title>
<polygon fill="none" stroke="black" points="16,-78 16,-130 579,-130 579,-78 16,-78"/>
</g>
<!-- ExamAgreementService  -->
<g id="node1" class="node">
<title>ExamAgreementService </title>
<polygon fill="#fb8072" stroke="black" points="430.33,-252 273.67,-252 273.67,-216 430.33,-216 430.33,-252"/>
<text text-anchor="middle" x="352" y="-229.8" font-family="Times,serif" font-size="14.00">ExamAgreementService </text>
</g>
<!-- ExamService  -->
<g id="node2" class="node">
<title>ExamService </title>
<polygon fill="#fb8072" stroke="black" points="256.14,-252 161.86,-252 161.86,-216 256.14,-216 256.14,-252"/>
<text text-anchor="middle" x="209" y="-229.8" font-family="Times,serif" font-size="14.00">ExamService </text>
</g>
<!-- ExamModule -->
<g id="node3" class="node">
<title>ExamModule</title>
<polygon fill="#8dd3c7" stroke="black" points="326.21,-187 323.21,-191 302.21,-191 299.21,-187 233.79,-187 233.79,-151 326.21,-151 326.21,-187"/>
<text text-anchor="middle" x="280" y="-164.8" font-family="Times,serif" font-size="14.00">ExamModule</text>
</g>
<!-- ExamModule&#45;&gt;ExamAgreementService  -->
<g id="edge1" class="edge">
<title>ExamModule&#45;&gt;ExamAgreementService </title>
<path fill="none" stroke="black" stroke-dasharray="5,2" d="M299.97,-187.11C299.97,-187.11 299.97,-205.99 299.97,-205.99"/>
<polygon fill="black" stroke="black" points="296.47,-205.99 299.97,-215.99 303.47,-205.99 296.47,-205.99"/>
</g>
<!-- ExamModule&#45;&gt;ExamService  -->
<g id="edge2" class="edge">
<title>ExamModule&#45;&gt;ExamService </title>
<path fill="none" stroke="black" stroke-dasharray="5,2" d="M244.98,-187.11C244.98,-187.11 244.98,-205.99 244.98,-205.99"/>
<polygon fill="black" stroke="black" points="241.48,-205.99 244.98,-215.99 248.48,-205.99 241.48,-205.99"/>
</g>
<!-- ExamAgreementService -->
<g id="node4" class="node">
<title>ExamAgreementService</title>
<ellipse fill="#fdb462" stroke="black" cx="466" cy="-104" rx="105.34" ry="18"/>
<text text-anchor="middle" x="466" y="-99.8" font-family="Times,serif" font-size="14.00">ExamAgreementService</text>
</g>
<!-- ExamAgreementService&#45;&gt;ExamModule -->
<g id="edge3" class="edge">
<title>ExamAgreementService&#45;&gt;ExamModule</title>
<path fill="none" stroke="black" d="M395.37,-117.47C395.37,-136.51 395.37,-169 395.37,-169 395.37,-169 336.26,-169 336.26,-169"/>
<polygon fill="black" stroke="black" points="336.26,-165.5 326.26,-169 336.26,-172.5 336.26,-165.5"/>
</g>
<!-- ExamService -->
<g id="node5" class="node">
<title>ExamService</title>
<ellipse fill="#fdb462" stroke="black" cx="280" cy="-104" rx="62.54" ry="18"/>
<text text-anchor="middle" x="280" y="-99.8" font-family="Times,serif" font-size="14.00">ExamService</text>
</g>
<!-- ExamService&#45;&gt;ExamModule -->
<g id="edge4" class="edge">
<title>ExamService&#45;&gt;ExamModule</title>
<path fill="none" stroke="black" d="M280,-122.11C280,-122.11 280,-140.99 280,-140.99"/>
<polygon fill="black" stroke="black" points="276.5,-140.99 280,-150.99 283.5,-140.99 276.5,-140.99"/>
</g>
<!-- ExamTargetService -->
<g id="node6" class="node">
<title>ExamTargetService</title>
<ellipse fill="#fdb462" stroke="black" cx="112" cy="-104" rx="87.94" ry="18"/>
<text text-anchor="middle" x="112" y="-99.8" font-family="Times,serif" font-size="14.00">ExamTargetService</text>
</g>
<!-- ExamTargetService&#45;&gt;ExamModule -->
<g id="edge5" class="edge">
<title>ExamTargetService&#45;&gt;ExamModule</title>
<path fill="none" stroke="black" d="M180.83,-115.32C180.83,-133.95 180.83,-169 180.83,-169 180.83,-169 223.61,-169 223.61,-169"/>
<polygon fill="black" stroke="black" points="223.61,-172.5 233.61,-169 223.61,-165.5 223.61,-172.5"/>
</g>
</g>
</svg>
