<?xml version="1.0" encoding="UTF-8" standalone="no"?>
<!DOCTYPE svg PUBLIC "-//W3C//DTD SVG 1.1//EN"
 "http://www.w3.org/Graphics/SVG/1.1/DTD/svg11.dtd">
<!-- Generated by graphviz version 2.47.0 (20210316.0004)
 -->
<!-- Title: dependencies Pages: 1 -->
<svg width="504pt" height="284pt"
 viewBox="0.00 0.00 504.00 284.00" xmlns="http://www.w3.org/2000/svg" xmlns:xlink="http://www.w3.org/1999/xlink">
<g id="graph0" class="graph" transform="scale(1 1) rotate(0) translate(4 280)">
<title>dependencies</title>
<polygon fill="white" stroke="transparent" points="-4,4 -4,-280 500,-280 500,4 -4,4"/>
<text text-anchor="start" x="227.01" y="-42.4" font-family="sans-serif" font-weight="bold" font-size="14.00">Legend</text>
<polygon fill="#ffffb3" stroke="transparent" points="14,-10 14,-30 34,-30 34,-10 14,-10"/>
<text text-anchor="start" x="37.63" y="-15.4" font-family="sans-serif" font-size="14.00"> &#160;Declarations</text>
<polygon fill="#8dd3c7" stroke="transparent" points="127,-10 127,-30 147,-30 147,-10 127,-10"/>
<text text-anchor="start" x="150.73" y="-15.4" font-family="sans-serif" font-size="14.00"> &#160;Module</text>
<polygon fill="#80b1d3" stroke="transparent" points="213,-10 213,-30 233,-30 233,-10 213,-10"/>
<text text-anchor="start" x="236.78" y="-15.4" font-family="sans-serif" font-size="14.00"> &#160;Bootstrap</text>
<polygon fill="#fdb462" stroke="transparent" points="310,-10 310,-30 330,-30 330,-10 310,-10"/>
<text text-anchor="start" x="333.67" y="-15.4" font-family="sans-serif" font-size="14.00"> &#160;Providers</text>
<polygon fill="#fb8072" stroke="transparent" points="406,-10 406,-30 426,-30 426,-10 406,-10"/>
<text text-anchor="start" x="429.73" y="-15.4" font-family="sans-serif" font-size="14.00"> &#160;Exports</text>
<g id="clust1" class="cluster">
<title>cluster_ExamModule</title>
<polygon fill="none" stroke="black" stroke-dasharray="1,5" points="72.5,-70 72.5,-268 423.5,-268 423.5,-70 72.5,-70"/>
</g>
<g id="clust4" class="cluster">
<title>cluster_ExamModule_exports</title>
<polygon fill="none" stroke="black" points="205.5,-208 205.5,-260 315.5,-260 315.5,-208 205.5,-208"/>
</g>
<g id="clust6" class="cluster">
<title>cluster_ExamModule_providers</title>
<polygon fill="none" stroke="black" points="80.5,-78 80.5,-130 415.5,-130 415.5,-78 80.5,-78"/>
</g>
<!-- ExamService  -->
<g id="node1" class="node">
<title>ExamService </title>
<polygon fill="#fb8072" stroke="black" points="307.64,-252 213.36,-252 213.36,-216 307.64,-216 307.64,-252"/>
<text text-anchor="middle" x="260.5" y="-229.8" font-family="Times,serif" font-size="14.00">ExamService </text>
</g>
<!-- ExamModule -->
<g id="node2" class="node">
<title>ExamModule</title>
<polygon fill="#8dd3c7" stroke="black" points="306.71,-187 303.71,-191 282.71,-191 279.71,-187 214.29,-187 214.29,-151 306.71,-151 306.71,-187"/>
<text text-anchor="middle" x="260.5" y="-164.8" font-family="Times,serif" font-size="14.00">ExamModule</text>
</g>
<!-- ExamModule&#45;&gt;ExamService  -->
<g id="edge1" class="edge">
<title>ExamModule&#45;&gt;ExamService </title>
<path fill="none" stroke="black" stroke-dasharray="5,2" d="M260.5,-187.11C260.5,-187.11 260.5,-205.99 260.5,-205.99"/>
<polygon fill="black" stroke="black" points="257,-205.99 260.5,-215.99 264,-205.99 257,-205.99"/>
</g>
<!-- ExamService -->
<g id="node3" class="node">
<title>ExamService</title>
<ellipse fill="#fdb462" stroke="black" cx="344.5" cy="-104" rx="62.54" ry="18"/>
<text text-anchor="middle" x="344.5" y="-99.8" font-family="Times,serif" font-size="14.00">ExamService</text>
</g>
<!-- ExamService&#45;&gt;ExamModule -->
<g id="edge2" class="edge">
<title>ExamService&#45;&gt;ExamModule</title>
<path fill="none" stroke="black" d="M294.29,-114.73C294.29,-114.73 294.29,-140.87 294.29,-140.87"/>
<polygon fill="black" stroke="black" points="290.79,-140.87 294.29,-150.87 297.79,-140.87 290.79,-140.87"/>
</g>
<!-- ExamTargetService -->
<g id="node4" class="node">
<title>ExamTargetService</title>
<ellipse fill="#fdb462" stroke="black" cx="176.5" cy="-104" rx="87.94" ry="18"/>
<text text-anchor="middle" x="176.5" y="-99.8" font-family="Times,serif" font-size="14.00">ExamTargetService</text>
</g>
<!-- ExamTargetService&#45;&gt;ExamModule -->
<g id="edge3" class="edge">
<title>ExamTargetService&#45;&gt;ExamModule</title>
<path fill="none" stroke="black" d="M239.31,-116.84C239.31,-116.84 239.31,-140.52 239.31,-140.52"/>
<polygon fill="black" stroke="black" points="235.81,-140.52 239.31,-150.52 242.81,-140.52 235.81,-140.52"/>
</g>
</g>
</svg>
