<?xml version="1.0" encoding="UTF-8" standalone="no"?>
<!DOCTYPE svg PUBLIC "-//W3C//DTD SVG 1.1//EN"
 "http://www.w3.org/Graphics/SVG/1.1/DTD/svg11.dtd">
<!-- Generated by graphviz version 2.47.0 (20210316.0004)
 -->
<!-- Title: dependencies Pages: 1 -->
<svg width="1148pt" height="284pt"
 viewBox="0.00 0.00 1148.00 284.00" xmlns="http://www.w3.org/2000/svg" xmlns:xlink="http://www.w3.org/1999/xlink">
<g id="graph0" class="graph" transform="scale(1 1) rotate(0) translate(4 280)">
<title>dependencies</title>
<polygon fill="white" stroke="transparent" points="-4,4 -4,-280 1144,-280 1144,4 -4,4"/>
<text text-anchor="start" x="549.01" y="-42.4" font-family="sans-serif" font-weight="bold" font-size="14.00">Legend</text>
<polygon fill="#ffffb3" stroke="transparent" points="336,-10 336,-30 356,-30 356,-10 336,-10"/>
<text text-anchor="start" x="359.63" y="-15.4" font-family="sans-serif" font-size="14.00"> &#160;Declarations</text>
<polygon fill="#8dd3c7" stroke="transparent" points="449,-10 449,-30 469,-30 469,-10 449,-10"/>
<text text-anchor="start" x="472.73" y="-15.4" font-family="sans-serif" font-size="14.00"> &#160;Module</text>
<polygon fill="#80b1d3" stroke="transparent" points="535,-10 535,-30 555,-30 555,-10 535,-10"/>
<text text-anchor="start" x="558.78" y="-15.4" font-family="sans-serif" font-size="14.00"> &#160;Bootstrap</text>
<polygon fill="#fdb462" stroke="transparent" points="632,-10 632,-30 652,-30 652,-10 632,-10"/>
<text text-anchor="start" x="655.67" y="-15.4" font-family="sans-serif" font-size="14.00"> &#160;Providers</text>
<polygon fill="#fb8072" stroke="transparent" points="728,-10 728,-30 748,-30 748,-10 728,-10"/>
<text text-anchor="start" x="751.73" y="-15.4" font-family="sans-serif" font-size="14.00"> &#160;Exports</text>
<g id="clust1" class="cluster">
<title>cluster_ExamModule</title>
<polygon fill="none" stroke="black" stroke-dasharray="1,5" points="8,-70 8,-268 1132,-268 1132,-70 8,-70"/>
</g>
<g id="clust3" class="cluster">
<title>cluster_ExamModule_imports</title>
<polygon fill="none" stroke="black" points="994,-78 994,-130 1124,-130 1124,-78 994,-78"/>
</g>
<g id="clust4" class="cluster">
<title>cluster_ExamModule_exports</title>
<polygon fill="none" stroke="black" points="466,-208 466,-260 750,-260 750,-208 466,-208"/>
</g>
<g id="clust6" class="cluster">
<title>cluster_ExamModule_providers</title>
<polygon fill="none" stroke="black" points="16,-78 16,-130 986,-130 986,-78 16,-78"/>
</g>
<!-- AuxiliaryModule -->
<g id="node1" class="node">
<title>AuxiliaryModule</title>
<polygon fill="#8dd3c7" stroke="black" points="1115.7,-122 1112.7,-126 1091.7,-126 1088.7,-122 1002.3,-122 1002.3,-86 1115.7,-86 1115.7,-122"/>
<text text-anchor="middle" x="1059" y="-99.8" font-family="Times,serif" font-size="14.00">AuxiliaryModule</text>
</g>
<!-- ExamModule -->
<g id="node2" class="node">
<title>ExamModule</title>
<polygon fill="#8dd3c7" stroke="black" points="638.21,-187 635.21,-191 614.21,-191 611.21,-187 545.79,-187 545.79,-151 638.21,-151 638.21,-187"/>
<text text-anchor="middle" x="592" y="-164.8" font-family="Times,serif" font-size="14.00">ExamModule</text>
</g>
<!-- AuxiliaryModule&#45;&gt;ExamModule -->
<g id="edge1" class="edge">
<title>AuxiliaryModule&#45;&gt;ExamModule</title>
<path fill="none" stroke="black" d="M1059,-122.28C1059,-143.32 1059,-175 1059,-175 1059,-175 648.49,-175 648.49,-175"/>
<polygon fill="black" stroke="black" points="648.49,-171.5 638.49,-175 648.49,-178.5 648.49,-171.5"/>
</g>
<!-- ExamAgreementService  -->
<g id="node3" class="node">
<title>ExamAgreementService </title>
<polygon fill="#fb8072" stroke="black" points="742.33,-252 585.67,-252 585.67,-216 742.33,-216 742.33,-252"/>
<text text-anchor="middle" x="664" y="-229.8" font-family="Times,serif" font-size="14.00">ExamAgreementService </text>
</g>
<!-- ExamModule&#45;&gt;ExamAgreementService  -->
<g id="edge2" class="edge">
<title>ExamModule&#45;&gt;ExamAgreementService </title>
<path fill="none" stroke="black" stroke-dasharray="5,2" d="M611.97,-187.11C611.97,-187.11 611.97,-205.99 611.97,-205.99"/>
<polygon fill="black" stroke="black" points="608.47,-205.99 611.97,-215.99 615.47,-205.99 608.47,-205.99"/>
</g>
<!-- ExamService  -->
<g id="node4" class="node">
<title>ExamService </title>
<polygon fill="#fb8072" stroke="black" points="568.14,-252 473.86,-252 473.86,-216 568.14,-216 568.14,-252"/>
<text text-anchor="middle" x="521" y="-229.8" font-family="Times,serif" font-size="14.00">ExamService </text>
</g>
<!-- ExamModule&#45;&gt;ExamService  -->
<g id="edge3" class="edge">
<title>ExamModule&#45;&gt;ExamService </title>
<path fill="none" stroke="black" stroke-dasharray="5,2" d="M556.98,-187.11C556.98,-187.11 556.98,-205.99 556.98,-205.99"/>
<polygon fill="black" stroke="black" points="553.48,-205.99 556.98,-215.99 560.48,-205.99 553.48,-205.99"/>
</g>
<!-- ExamAgreementService -->
<g id="node5" class="node">
<title>ExamAgreementService</title>
<ellipse fill="#fdb462" stroke="black" cx="873" cy="-104" rx="105.34" ry="18"/>
<text text-anchor="middle" x="873" y="-99.8" font-family="Times,serif" font-size="14.00">ExamAgreementService</text>
</g>
<!-- ExamAgreementService&#45;&gt;ExamModule -->
<g id="edge4" class="edge">
<title>ExamAgreementService&#45;&gt;ExamModule</title>
<path fill="none" stroke="black" d="M873,-122.02C873,-139.37 873,-163 873,-163 873,-163 648.4,-163 648.4,-163"/>
<polygon fill="black" stroke="black" points="648.4,-159.5 638.4,-163 648.4,-166.5 648.4,-159.5"/>
</g>
<!-- ExamService -->
<g id="node6" class="node">
<title>ExamService</title>
<ellipse fill="#fdb462" stroke="black" cx="687" cy="-104" rx="62.54" ry="18"/>
<text text-anchor="middle" x="687" y="-99.8" font-family="Times,serif" font-size="14.00">ExamService</text>
</g>
<!-- ExamService&#45;&gt;ExamModule -->
<g id="edge5" class="edge">
<title>ExamService&#45;&gt;ExamModule</title>
<path fill="none" stroke="black" d="M631.29,-112.23C631.29,-112.23 631.29,-140.76 631.29,-140.76"/>
<polygon fill="black" stroke="black" points="627.79,-140.76 631.29,-150.76 634.79,-140.76 627.79,-140.76"/>
</g>
<!-- ExamTargetNodeFactory -->
<g id="node7" class="node">
<title>ExamTargetNodeFactory</title>
<ellipse fill="#fdb462" stroke="black" cx="497" cy="-104" rx="109.35" ry="18"/>
<text text-anchor="middle" x="497" y="-99.8" font-family="Times,serif" font-size="14.00">ExamTargetNodeFactory</text>
</g>
<!-- ExamTargetNodeFactory&#45;&gt;ExamModule -->
<g id="edge6" class="edge">
<title>ExamTargetNodeFactory&#45;&gt;ExamModule</title>
<path fill="none" stroke="black" d="M576.04,-116.53C576.04,-116.53 576.04,-140.85 576.04,-140.85"/>
<polygon fill="black" stroke="black" points="572.54,-140.85 576.04,-150.85 579.54,-140.85 572.54,-140.85"/>
</g>
<!-- ExamTargetService -->
<g id="node8" class="node">
<title>ExamTargetService</title>
<ellipse fill="#fdb462" stroke="black" cx="282" cy="-104" rx="87.94" ry="18"/>
<text text-anchor="middle" x="282" y="-99.8" font-family="Times,serif" font-size="14.00">ExamTargetService</text>
</g>
<!-- ExamTargetService&#45;&gt;ExamModule -->
<g id="edge7" class="edge">
<title>ExamTargetService&#45;&gt;ExamModule</title>
<path fill="none" stroke="black" d="M282,-122.02C282,-139.37 282,-163 282,-163 282,-163 535.59,-163 535.59,-163"/>
<polygon fill="black" stroke="black" points="535.59,-166.5 545.59,-163 535.59,-159.5 535.59,-166.5"/>
</g>
<!-- ExamTargetTree -->
<g id="node9" class="node">
<title>ExamTargetTree</title>
<ellipse fill="#fdb462" stroke="black" cx="100" cy="-104" rx="76.4" ry="18"/>
<text text-anchor="middle" x="100" y="-99.8" font-family="Times,serif" font-size="14.00">ExamTargetTree</text>
</g>
<!-- ExamTargetTree&#45;&gt;ExamModule -->
<g id="edge8" class="edge">
<title>ExamTargetTree&#45;&gt;ExamModule</title>
<path fill="none" stroke="black" d="M100,-122.28C100,-143.32 100,-175 100,-175 100,-175 535.71,-175 535.71,-175"/>
<polygon fill="black" stroke="black" points="535.71,-178.5 545.71,-175 535.71,-171.5 535.71,-178.5"/>
</g>
</g>
</svg>
