<?xml version="1.0" encoding="UTF-8" standalone="no"?>
<!DOCTYPE svg PUBLIC "-//W3C//DTD SVG 1.1//EN"
 "http://www.w3.org/Graphics/SVG/1.1/DTD/svg11.dtd">
<!-- Generated by graphviz version 2.47.0 (20210316.0004)
 -->
<!-- Title: dependencies Pages: 1 -->
<svg width="504pt" height="211pt"
 viewBox="0.00 0.00 504.00 211.00" xmlns="http://www.w3.org/2000/svg" xmlns:xlink="http://www.w3.org/1999/xlink">
<g id="graph0" class="graph" transform="scale(1 1) rotate(0) translate(4 207)">
<title>dependencies</title>
<polygon fill="white" stroke="transparent" points="-4,4 -4,-207 500,-207 500,4 -4,4"/>
<text text-anchor="start" x="227.01" y="-42.4" font-family="sans-serif" font-weight="bold" font-size="14.00">Legend</text>
<polygon fill="#ffffb3" stroke="transparent" points="14,-10 14,-30 34,-30 34,-10 14,-10"/>
<text text-anchor="start" x="37.63" y="-15.4" font-family="sans-serif" font-size="14.00"> &#160;Declarations</text>
<polygon fill="#8dd3c7" stroke="transparent" points="127,-10 127,-30 147,-30 147,-10 127,-10"/>
<text text-anchor="start" x="150.73" y="-15.4" font-family="sans-serif" font-size="14.00"> &#160;Module</text>
<polygon fill="#80b1d3" stroke="transparent" points="213,-10 213,-30 233,-30 233,-10 213,-10"/>
<text text-anchor="start" x="236.78" y="-15.4" font-family="sans-serif" font-size="14.00"> &#160;Bootstrap</text>
<polygon fill="#fdb462" stroke="transparent" points="310,-10 310,-30 330,-30 330,-10 310,-10"/>
<text text-anchor="start" x="333.67" y="-15.4" font-family="sans-serif" font-size="14.00"> &#160;Providers</text>
<polygon fill="#fb8072" stroke="transparent" points="406,-10 406,-30 426,-30 426,-10 406,-10"/>
<text text-anchor="start" x="429.73" y="-15.4" font-family="sans-serif" font-size="14.00"> &#160;Exports</text>
<g id="clust1" class="cluster">
<title>cluster_QuestionGroupModule</title>
<polygon fill="none" stroke="black" stroke-dasharray="1,5" points="10,-70 10,-195 486,-195 486,-70 10,-70"/>
</g>
<g id="clust3" class="cluster">
<title>cluster_QuestionGroupModule_imports</title>
<polygon fill="none" stroke="black" points="242,-78 242,-130 478,-130 478,-78 242,-78"/>
</g>
<g id="clust6" class="cluster">
<title>cluster_QuestionGroupModule_providers</title>
<polygon fill="none" stroke="black" points="18,-78 18,-130 234,-130 234,-78 18,-78"/>
</g>
<!-- ExamModule -->
<g id="node1" class="node">
<title>ExamModule</title>
<polygon fill="#8dd3c7" stroke="black" points="470.21,-122 467.21,-126 446.21,-126 443.21,-122 377.79,-122 377.79,-86 470.21,-86 470.21,-122"/>
<text text-anchor="middle" x="424" y="-99.8" font-family="Times,serif" font-size="14.00">ExamModule</text>
</g>
<!-- QuestionGroupModule -->
<g id="node3" class="node">
<title>QuestionGroupModule</title>
<polygon fill="#8dd3c7" stroke="black" points="377.86,-187 374.86,-191 353.86,-191 350.86,-187 232.14,-187 232.14,-151 377.86,-151 377.86,-187"/>
<text text-anchor="middle" x="305" y="-164.8" font-family="Times,serif" font-size="14.00">QuestionGroupModule</text>
</g>
<!-- ExamModule&#45;&gt;QuestionGroupModule -->
<g id="edge1" class="edge">
<title>ExamModule&#45;&gt;QuestionGroupModule</title>
<path fill="none" stroke="black" d="M377.57,-104C372.41,-104 368.97,-104 368.97,-104 368.97,-104 368.97,-140.89 368.97,-140.89"/>
<polygon fill="black" stroke="black" points="365.47,-140.89 368.97,-150.89 372.47,-140.89 365.47,-140.89"/>
</g>
<!-- QuestionModule -->
<g id="node2" class="node">
<title>QuestionModule</title>
<polygon fill="#8dd3c7" stroke="black" points="360.1,-122 357.1,-126 336.1,-126 333.1,-122 249.9,-122 249.9,-86 360.1,-86 360.1,-122"/>
<text text-anchor="middle" x="305" y="-99.8" font-family="Times,serif" font-size="14.00">QuestionModule</text>
</g>
<!-- QuestionModule&#45;&gt;QuestionGroupModule -->
<g id="edge2" class="edge">
<title>QuestionModule&#45;&gt;QuestionGroupModule</title>
<path fill="none" stroke="black" d="M305,-122.11C305,-122.11 305,-140.99 305,-140.99"/>
<polygon fill="black" stroke="black" points="301.5,-140.99 305,-150.99 308.5,-140.99 301.5,-140.99"/>
</g>
<!-- QuestionGroupService -->
<g id="node4" class="node">
<title>QuestionGroupService</title>
<ellipse fill="#fdb462" stroke="black" cx="126" cy="-104" rx="99.56" ry="18"/>
<text text-anchor="middle" x="126" y="-99.8" font-family="Times,serif" font-size="14.00">QuestionGroupService</text>
</g>
<!-- QuestionGroupService&#45;&gt;QuestionGroupModule -->
<g id="edge3" class="edge">
<title>QuestionGroupService&#45;&gt;QuestionGroupModule</title>
<path fill="none" stroke="black" d="M225.97,-104C235.11,-104 241.01,-104 241.01,-104 241.01,-104 241.01,-140.89 241.01,-140.89"/>
<polygon fill="black" stroke="black" points="237.51,-140.89 241.01,-150.89 244.51,-140.89 237.51,-140.89"/>
</g>
</g>
</svg>
