<?xml version="1.0" encoding="UTF-8" standalone="no"?>
<!DOCTYPE svg PUBLIC "-//W3C//DTD SVG 1.1//EN"
 "http://www.w3.org/Graphics/SVG/1.1/DTD/svg11.dtd">
<!-- Generated by graphviz version 2.47.0 (20210316.0004)
 -->
<!-- Title: dependencies Pages: 1 -->
<svg width="504pt" height="211pt"
 viewBox="0.00 0.00 504.00 211.00" xmlns="http://www.w3.org/2000/svg" xmlns:xlink="http://www.w3.org/1999/xlink">
<g id="graph0" class="graph" transform="scale(1 1) rotate(0) translate(4 207)">
<title>dependencies</title>
<polygon fill="white" stroke="transparent" points="-4,4 -4,-207 500,-207 500,4 -4,4"/>
<text text-anchor="start" x="227.01" y="-42.4" font-family="sans-serif" font-weight="bold" font-size="14.00">Legend</text>
<polygon fill="#ffffb3" stroke="transparent" points="14,-10 14,-30 34,-30 34,-10 14,-10"/>
<text text-anchor="start" x="37.63" y="-15.4" font-family="sans-serif" font-size="14.00"> &#160;Declarations</text>
<polygon fill="#8dd3c7" stroke="transparent" points="127,-10 127,-30 147,-30 147,-10 127,-10"/>
<text text-anchor="start" x="150.73" y="-15.4" font-family="sans-serif" font-size="14.00"> &#160;Module</text>
<polygon fill="#80b1d3" stroke="transparent" points="213,-10 213,-30 233,-30 233,-10 213,-10"/>
<text text-anchor="start" x="236.78" y="-15.4" font-family="sans-serif" font-size="14.00"> &#160;Bootstrap</text>
<polygon fill="#fdb462" stroke="transparent" points="310,-10 310,-30 330,-30 330,-10 310,-10"/>
<text text-anchor="start" x="333.67" y="-15.4" font-family="sans-serif" font-size="14.00"> &#160;Providers</text>
<polygon fill="#fb8072" stroke="transparent" points="406,-10 406,-30 426,-30 426,-10 406,-10"/>
<text text-anchor="start" x="429.73" y="-15.4" font-family="sans-serif" font-size="14.00"> &#160;Exports</text>
<g id="clust1" class="cluster">
<title>cluster_QuestionGroupModule</title>
<polygon fill="none" stroke="black" stroke-dasharray="1,5" points="10,-70 10,-195 486,-195 486,-70 10,-70"/>
</g>
<g id="clust6" class="cluster">
<title>cluster_QuestionGroupModule_providers</title>
<polygon fill="none" stroke="black" points="262,-78 262,-130 478,-130 478,-78 262,-78"/>
</g>
<g id="clust3" class="cluster">
<title>cluster_QuestionGroupModule_imports</title>
<polygon fill="none" stroke="black" points="18,-78 18,-130 254,-130 254,-78 18,-78"/>
</g>
<!-- ExamModule -->
<g id="node1" class="node">
<title>ExamModule</title>
<polygon fill="#8dd3c7" stroke="black" points="246.21,-122 243.21,-126 222.21,-126 219.21,-122 153.79,-122 153.79,-86 246.21,-86 246.21,-122"/>
<text text-anchor="middle" x="200" y="-99.8" font-family="Times,serif" font-size="14.00">ExamModule</text>
</g>
<!-- QuestionGroupModule -->
<g id="node3" class="node">
<title>QuestionGroupModule</title>
<polygon fill="#8dd3c7" stroke="black" points="272.86,-187 269.86,-191 248.86,-191 245.86,-187 127.14,-187 127.14,-151 272.86,-151 272.86,-187"/>
<text text-anchor="middle" x="200" y="-164.8" font-family="Times,serif" font-size="14.00">QuestionGroupModule</text>
</g>
<!-- ExamModule&#45;&gt;QuestionGroupModule -->
<g id="edge1" class="edge">
<title>ExamModule&#45;&gt;QuestionGroupModule</title>
<path fill="none" stroke="black" d="M200,-122.11C200,-122.11 200,-140.99 200,-140.99"/>
<polygon fill="black" stroke="black" points="196.5,-140.99 200,-150.99 203.5,-140.99 196.5,-140.99"/>
</g>
<!-- QuestionModule -->
<g id="node2" class="node">
<title>QuestionModule</title>
<polygon fill="#8dd3c7" stroke="black" points="136.1,-122 133.1,-126 112.1,-126 109.1,-122 25.9,-122 25.9,-86 136.1,-86 136.1,-122"/>
<text text-anchor="middle" x="81" y="-99.8" font-family="Times,serif" font-size="14.00">QuestionModule</text>
</g>
<!-- QuestionModule&#45;&gt;QuestionGroupModule -->
<g id="edge2" class="edge">
<title>QuestionModule&#45;&gt;QuestionGroupModule</title>
<path fill="none" stroke="black" d="M131.56,-122.11C131.56,-122.11 131.56,-140.99 131.56,-140.99"/>
<polygon fill="black" stroke="black" points="128.06,-140.99 131.56,-150.99 135.06,-140.99 128.06,-140.99"/>
</g>
<!-- QuestionGroupService -->
<g id="node4" class="node">
<title>QuestionGroupService</title>
<ellipse fill="#fdb462" stroke="black" cx="370" cy="-104" rx="99.56" ry="18"/>
<text text-anchor="middle" x="370" y="-99.8" font-family="Times,serif" font-size="14.00">QuestionGroupService</text>
</g>
<!-- QuestionGroupService&#45;&gt;QuestionGroupModule -->
<g id="edge3" class="edge">
<title>QuestionGroupService&#45;&gt;QuestionGroupModule</title>
<path fill="none" stroke="black" d="M270.24,-104C262.9,-104 258.29,-104 258.29,-104 258.29,-104 258.29,-140.89 258.29,-140.89"/>
<polygon fill="black" stroke="black" points="254.79,-140.89 258.29,-150.89 261.79,-140.89 254.79,-140.89"/>
</g>
</g>
</svg>
