<?xml version="1.0" encoding="UTF-8" standalone="no"?>
<!DOCTYPE svg PUBLIC "-//W3C//DTD SVG 1.1//EN"
 "http://www.w3.org/Graphics/SVG/1.1/DTD/svg11.dtd">
<!-- Generated by graphviz version 2.47.0 (20210316.0004)
 -->
<!-- Title: dependencies Pages: 1 -->
<svg width="671pt" height="284pt"
 viewBox="0.00 0.00 671.00 284.00" xmlns="http://www.w3.org/2000/svg" xmlns:xlink="http://www.w3.org/1999/xlink">
<g id="graph0" class="graph" transform="scale(1 1) rotate(0) translate(4 280)">
<title>dependencies</title>
<polygon fill="white" stroke="transparent" points="-4,4 -4,-280 667,-280 667,4 -4,4"/>
<text text-anchor="start" x="310.51" y="-42.4" font-family="sans-serif" font-weight="bold" font-size="14.00">Legend</text>
<polygon fill="#ffffb3" stroke="transparent" points="97.5,-10 97.5,-30 117.5,-30 117.5,-10 97.5,-10"/>
<text text-anchor="start" x="121.13" y="-15.4" font-family="sans-serif" font-size="14.00"> &#160;Declarations</text>
<polygon fill="#8dd3c7" stroke="transparent" points="210.5,-10 210.5,-30 230.5,-30 230.5,-10 210.5,-10"/>
<text text-anchor="start" x="234.23" y="-15.4" font-family="sans-serif" font-size="14.00"> &#160;Module</text>
<polygon fill="#80b1d3" stroke="transparent" points="296.5,-10 296.5,-30 316.5,-30 316.5,-10 296.5,-10"/>
<text text-anchor="start" x="320.28" y="-15.4" font-family="sans-serif" font-size="14.00"> &#160;Bootstrap</text>
<polygon fill="#fdb462" stroke="transparent" points="393.5,-10 393.5,-30 413.5,-30 413.5,-10 393.5,-10"/>
<text text-anchor="start" x="417.17" y="-15.4" font-family="sans-serif" font-size="14.00"> &#160;Providers</text>
<polygon fill="#fb8072" stroke="transparent" points="489.5,-10 489.5,-30 509.5,-30 509.5,-10 489.5,-10"/>
<text text-anchor="start" x="513.23" y="-15.4" font-family="sans-serif" font-size="14.00"> &#160;Exports</text>
<g id="clust1" class="cluster">
<title>cluster_QuestionGroupModule</title>
<polygon fill="none" stroke="black" stroke-dasharray="1,5" points="8,-70 8,-268 655,-268 655,-70 8,-70"/>
</g>
<g id="clust3" class="cluster">
<title>cluster_QuestionGroupModule_imports</title>
<polygon fill="none" stroke="black" points="407,-78 407,-130 647,-130 647,-78 407,-78"/>
</g>
<g id="clust6" class="cluster">
<title>cluster_QuestionGroupModule_providers</title>
<polygon fill="none" stroke="black" points="16,-78 16,-130 399,-130 399,-78 16,-78"/>
</g>
<g id="clust4" class="cluster">
<title>cluster_QuestionGroupModule_exports</title>
<polygon fill="none" stroke="black" points="312,-208 312,-260 440,-260 440,-208 312,-208"/>
</g>
<!-- AuxiliaryModule -->
<g id="node1" class="node">
<title>AuxiliaryModule</title>
<polygon fill="#8dd3c7" stroke="black" points="638.7,-122 635.7,-126 614.7,-126 611.7,-122 525.3,-122 525.3,-86 638.7,-86 638.7,-122"/>
<text text-anchor="middle" x="582" y="-99.8" font-family="Times,serif" font-size="14.00">AuxiliaryModule</text>
</g>
<!-- QuestionGroupModule -->
<g id="node3" class="node">
<title>QuestionGroupModule</title>
<polygon fill="#8dd3c7" stroke="black" points="448.86,-187 445.86,-191 424.86,-191 421.86,-187 303.14,-187 303.14,-151 448.86,-151 448.86,-187"/>
<text text-anchor="middle" x="376" y="-164.8" font-family="Times,serif" font-size="14.00">QuestionGroupModule</text>
</g>
<!-- AuxiliaryModule&#45;&gt;QuestionGroupModule -->
<g id="edge1" class="edge">
<title>AuxiliaryModule&#45;&gt;QuestionGroupModule</title>
<path fill="none" stroke="black" d="M582,-122.11C582,-141.34 582,-169 582,-169 582,-169 458.92,-169 458.92,-169"/>
<polygon fill="black" stroke="black" points="458.92,-165.5 448.92,-169 458.92,-172.5 458.92,-165.5"/>
</g>
<!-- ExamModule -->
<g id="node2" class="node">
<title>ExamModule</title>
<polygon fill="#8dd3c7" stroke="black" points="507.21,-122 504.21,-126 483.21,-126 480.21,-122 414.79,-122 414.79,-86 507.21,-86 507.21,-122"/>
<text text-anchor="middle" x="461" y="-99.8" font-family="Times,serif" font-size="14.00">ExamModule</text>
</g>
<!-- ExamModule&#45;&gt;QuestionGroupModule -->
<g id="edge2" class="edge">
<title>ExamModule&#45;&gt;QuestionGroupModule</title>
<path fill="none" stroke="black" d="M431.91,-122.11C431.91,-122.11 431.91,-140.99 431.91,-140.99"/>
<polygon fill="black" stroke="black" points="428.41,-140.99 431.91,-150.99 435.41,-140.99 428.41,-140.99"/>
</g>
<!-- QuestionService  -->
<g id="node4" class="node">
<title>QuestionService </title>
<polygon fill="#fb8072" stroke="black" points="432.02,-252 319.98,-252 319.98,-216 432.02,-216 432.02,-252"/>
<text text-anchor="middle" x="376" y="-229.8" font-family="Times,serif" font-size="14.00">QuestionService </text>
</g>
<!-- QuestionGroupModule&#45;&gt;QuestionService  -->
<g id="edge3" class="edge">
<title>QuestionGroupModule&#45;&gt;QuestionService </title>
<path fill="none" stroke="black" stroke-dasharray="5,2" d="M376,-187.11C376,-187.11 376,-205.99 376,-205.99"/>
<polygon fill="black" stroke="black" points="372.5,-205.99 376,-215.99 379.5,-205.99 372.5,-205.99"/>
</g>
<!-- QuestionGroupService -->
<g id="node5" class="node">
<title>QuestionGroupService</title>
<ellipse fill="#fdb462" stroke="black" cx="291" cy="-104" rx="99.56" ry="18"/>
<text text-anchor="middle" x="291" y="-99.8" font-family="Times,serif" font-size="14.00">QuestionGroupService</text>
</g>
<!-- QuestionGroupService&#45;&gt;QuestionGroupModule -->
<g id="edge4" class="edge">
<title>QuestionGroupService&#45;&gt;QuestionGroupModule</title>
<path fill="none" stroke="black" d="M346.8,-119.08C346.8,-119.08 346.8,-140.76 346.8,-140.76"/>
<polygon fill="black" stroke="black" points="343.3,-140.76 346.8,-150.76 350.3,-140.76 343.3,-140.76"/>
</g>
<!-- QuestionService -->
<g id="node6" class="node">
<title>QuestionService</title>
<ellipse fill="#fdb462" stroke="black" cx="99" cy="-104" rx="74.72" ry="18"/>
<text text-anchor="middle" x="99" y="-99.8" font-family="Times,serif" font-size="14.00">QuestionService</text>
</g>
<!-- QuestionService&#45;&gt;QuestionGroupModule -->
<g id="edge5" class="edge">
<title>QuestionService&#45;&gt;QuestionGroupModule</title>
<path fill="none" stroke="black" d="M99,-122.11C99,-141.34 99,-169 99,-169 99,-169 292.86,-169 292.86,-169"/>
<polygon fill="black" stroke="black" points="292.86,-172.5 302.86,-169 292.86,-165.5 292.86,-172.5"/>
</g>
</g>
</svg>
