<?xml version="1.0" encoding="UTF-8" standalone="no"?>
<!DOCTYPE svg PUBLIC "-//W3C//DTD SVG 1.1//EN"
 "http://www.w3.org/Graphics/SVG/1.1/DTD/svg11.dtd">
<!-- Generated by graphviz version 2.47.0 (20210316.0004)
 -->
<!-- Title: dependencies Pages: 1 -->
<svg width="539pt" height="284pt"
 viewBox="0.00 0.00 539.00 284.00" xmlns="http://www.w3.org/2000/svg" xmlns:xlink="http://www.w3.org/1999/xlink">
<g id="graph0" class="graph" transform="scale(1 1) rotate(0) translate(4 280)">
<title>dependencies</title>
<polygon fill="white" stroke="transparent" points="-4,4 -4,-280 535,-280 535,4 -4,4"/>
<text text-anchor="start" x="244.51" y="-42.4" font-family="sans-serif" font-weight="bold" font-size="14.00">Legend</text>
<polygon fill="#ffffb3" stroke="transparent" points="31.5,-10 31.5,-30 51.5,-30 51.5,-10 31.5,-10"/>
<text text-anchor="start" x="55.13" y="-15.4" font-family="sans-serif" font-size="14.00"> &#160;Declarations</text>
<polygon fill="#8dd3c7" stroke="transparent" points="144.5,-10 144.5,-30 164.5,-30 164.5,-10 144.5,-10"/>
<text text-anchor="start" x="168.23" y="-15.4" font-family="sans-serif" font-size="14.00"> &#160;Module</text>
<polygon fill="#80b1d3" stroke="transparent" points="230.5,-10 230.5,-30 250.5,-30 250.5,-10 230.5,-10"/>
<text text-anchor="start" x="254.28" y="-15.4" font-family="sans-serif" font-size="14.00"> &#160;Bootstrap</text>
<polygon fill="#fdb462" stroke="transparent" points="327.5,-10 327.5,-30 347.5,-30 347.5,-10 327.5,-10"/>
<text text-anchor="start" x="351.17" y="-15.4" font-family="sans-serif" font-size="14.00"> &#160;Providers</text>
<polygon fill="#fb8072" stroke="transparent" points="423.5,-10 423.5,-30 443.5,-30 443.5,-10 423.5,-10"/>
<text text-anchor="start" x="447.23" y="-15.4" font-family="sans-serif" font-size="14.00"> &#160;Exports</text>
<g id="clust1" class="cluster">
<title>cluster_QuestionGroupModule</title>
<polygon fill="none" stroke="black" stroke-dasharray="1,5" points="8,-70 8,-268 523,-268 523,-70 8,-70"/>
</g>
<g id="clust3" class="cluster">
<title>cluster_QuestionGroupModule_imports</title>
<polygon fill="none" stroke="black" points="407,-78 407,-130 515,-130 515,-78 407,-78"/>
</g>
<g id="clust4" class="cluster">
<title>cluster_QuestionGroupModule_exports</title>
<polygon fill="none" stroke="black" points="227,-208 227,-260 355,-260 355,-208 227,-208"/>
</g>
<g id="clust6" class="cluster">
<title>cluster_QuestionGroupModule_providers</title>
<polygon fill="none" stroke="black" points="16,-78 16,-130 399,-130 399,-78 16,-78"/>
</g>
<!-- ExamModule -->
<g id="node1" class="node">
<title>ExamModule</title>
<polygon fill="#8dd3c7" stroke="black" points="507.21,-122 504.21,-126 483.21,-126 480.21,-122 414.79,-122 414.79,-86 507.21,-86 507.21,-122"/>
<text text-anchor="middle" x="461" y="-99.8" font-family="Times,serif" font-size="14.00">ExamModule</text>
</g>
<!-- QuestionGroupModule -->
<g id="node2" class="node">
<title>QuestionGroupModule</title>
<polygon fill="#8dd3c7" stroke="black" points="363.86,-187 360.86,-191 339.86,-191 336.86,-187 218.14,-187 218.14,-151 363.86,-151 363.86,-187"/>
<text text-anchor="middle" x="291" y="-164.8" font-family="Times,serif" font-size="14.00">QuestionGroupModule</text>
</g>
<!-- ExamModule&#45;&gt;QuestionGroupModule -->
<g id="edge1" class="edge">
<title>ExamModule&#45;&gt;QuestionGroupModule</title>
<path fill="none" stroke="black" d="M461,-122.11C461,-141.34 461,-169 461,-169 461,-169 374.08,-169 374.08,-169"/>
<polygon fill="black" stroke="black" points="374.08,-165.5 364.08,-169 374.08,-172.5 374.08,-165.5"/>
</g>
<!-- QuestionService  -->
<g id="node3" class="node">
<title>QuestionService </title>
<polygon fill="#fb8072" stroke="black" points="347.02,-252 234.98,-252 234.98,-216 347.02,-216 347.02,-252"/>
<text text-anchor="middle" x="291" y="-229.8" font-family="Times,serif" font-size="14.00">QuestionService </text>
</g>
<!-- QuestionGroupModule&#45;&gt;QuestionService  -->
<g id="edge2" class="edge">
<title>QuestionGroupModule&#45;&gt;QuestionService </title>
<path fill="none" stroke="black" stroke-dasharray="5,2" d="M291,-187.11C291,-187.11 291,-205.99 291,-205.99"/>
<polygon fill="black" stroke="black" points="287.5,-205.99 291,-215.99 294.5,-205.99 287.5,-205.99"/>
</g>
<!-- QuestionGroupService -->
<g id="node4" class="node">
<title>QuestionGroupService</title>
<ellipse fill="#fdb462" stroke="black" cx="291" cy="-104" rx="99.56" ry="18"/>
<text text-anchor="middle" x="291" y="-99.8" font-family="Times,serif" font-size="14.00">QuestionGroupService</text>
</g>
<!-- QuestionGroupService&#45;&gt;QuestionGroupModule -->
<g id="edge3" class="edge">
<title>QuestionGroupService&#45;&gt;QuestionGroupModule</title>
<path fill="none" stroke="black" d="M291,-122.11C291,-122.11 291,-140.99 291,-140.99"/>
<polygon fill="black" stroke="black" points="287.5,-140.99 291,-150.99 294.5,-140.99 287.5,-140.99"/>
</g>
<!-- QuestionService -->
<g id="node5" class="node">
<title>QuestionService</title>
<ellipse fill="#fdb462" stroke="black" cx="99" cy="-104" rx="74.72" ry="18"/>
<text text-anchor="middle" x="99" y="-99.8" font-family="Times,serif" font-size="14.00">QuestionService</text>
</g>
<!-- QuestionService&#45;&gt;QuestionGroupModule -->
<g id="edge4" class="edge">
<title>QuestionService&#45;&gt;QuestionGroupModule</title>
<path fill="none" stroke="black" d="M99,-122.11C99,-141.34 99,-169 99,-169 99,-169 207.87,-169 207.87,-169"/>
<polygon fill="black" stroke="black" points="207.87,-172.5 217.87,-169 207.87,-165.5 207.87,-172.5"/>
</g>
</g>
</svg>
