<?xml version="1.0" encoding="UTF-8" standalone="no"?>
<!DOCTYPE svg PUBLIC "-//W3C//DTD SVG 1.1//EN"
 "http://www.w3.org/Graphics/SVG/1.1/DTD/svg11.dtd">
<!-- Generated by graphviz version 2.47.0 (20210316.0004)
 -->
<!-- Title: dependencies Pages: 1 -->
<svg width="671pt" height="284pt"
 viewBox="0.00 0.00 671.00 284.00" xmlns="http://www.w3.org/2000/svg" xmlns:xlink="http://www.w3.org/1999/xlink">
<g id="graph0" class="graph" transform="scale(1 1) rotate(0) translate(4 280)">
<title>dependencies</title>
<polygon fill="white" stroke="transparent" points="-4,4 -4,-280 667,-280 667,4 -4,4"/>
<text text-anchor="start" x="310.51" y="-42.4" font-family="sans-serif" font-weight="bold" font-size="14.00">Legend</text>
<polygon fill="#ffffb3" stroke="transparent" points="97.5,-10 97.5,-30 117.5,-30 117.5,-10 97.5,-10"/>
<text text-anchor="start" x="121.13" y="-15.4" font-family="sans-serif" font-size="14.00"> &#160;Declarations</text>
<polygon fill="#8dd3c7" stroke="transparent" points="210.5,-10 210.5,-30 230.5,-30 230.5,-10 210.5,-10"/>
<text text-anchor="start" x="234.23" y="-15.4" font-family="sans-serif" font-size="14.00"> &#160;Module</text>
<polygon fill="#80b1d3" stroke="transparent" points="296.5,-10 296.5,-30 316.5,-30 316.5,-10 296.5,-10"/>
<text text-anchor="start" x="320.28" y="-15.4" font-family="sans-serif" font-size="14.00"> &#160;Bootstrap</text>
<polygon fill="#fdb462" stroke="transparent" points="393.5,-10 393.5,-30 413.5,-30 413.5,-10 393.5,-10"/>
<text text-anchor="start" x="417.17" y="-15.4" font-family="sans-serif" font-size="14.00"> &#160;Providers</text>
<polygon fill="#fb8072" stroke="transparent" points="489.5,-10 489.5,-30 509.5,-30 509.5,-10 489.5,-10"/>
<text text-anchor="start" x="513.23" y="-15.4" font-family="sans-serif" font-size="14.00"> &#160;Exports</text>
<g id="clust1" class="cluster">
<title>cluster_QuestionGroupModule</title>
<polygon fill="none" stroke="black" stroke-dasharray="1,5" points="8,-70 8,-268 655,-268 655,-70 8,-70"/>
</g>
<g id="clust4" class="cluster">
<title>cluster_QuestionGroupModule_exports</title>
<polygon fill="none" stroke="black" points="205,-208 205,-260 333,-260 333,-208 205,-208"/>
</g>
<g id="clust6" class="cluster">
<title>cluster_QuestionGroupModule_providers</title>
<polygon fill="none" stroke="black" points="264,-78 264,-130 647,-130 647,-78 264,-78"/>
</g>
<g id="clust3" class="cluster">
<title>cluster_QuestionGroupModule_imports</title>
<polygon fill="none" stroke="black" points="16,-78 16,-130 256,-130 256,-78 16,-78"/>
</g>
<!-- AuxiliaryModule -->
<g id="node1" class="node">
<title>AuxiliaryModule</title>
<polygon fill="#8dd3c7" stroke="black" points="247.7,-122 244.7,-126 223.7,-126 220.7,-122 134.3,-122 134.3,-86 247.7,-86 247.7,-122"/>
<text text-anchor="middle" x="191" y="-99.8" font-family="Times,serif" font-size="14.00">AuxiliaryModule</text>
</g>
<!-- QuestionGroupModule -->
<g id="node3" class="node">
<title>QuestionGroupModule</title>
<polygon fill="#8dd3c7" stroke="black" points="341.86,-187 338.86,-191 317.86,-191 314.86,-187 196.14,-187 196.14,-151 341.86,-151 341.86,-187"/>
<text text-anchor="middle" x="269" y="-164.8" font-family="Times,serif" font-size="14.00">QuestionGroupModule</text>
</g>
<!-- AuxiliaryModule&#45;&gt;QuestionGroupModule -->
<g id="edge1" class="edge">
<title>AuxiliaryModule&#45;&gt;QuestionGroupModule</title>
<path fill="none" stroke="black" d="M221.83,-122.11C221.83,-122.11 221.83,-140.99 221.83,-140.99"/>
<polygon fill="black" stroke="black" points="218.33,-140.99 221.83,-150.99 225.33,-140.99 218.33,-140.99"/>
</g>
<!-- ExamModule -->
<g id="node2" class="node">
<title>ExamModule</title>
<polygon fill="#8dd3c7" stroke="black" points="116.21,-122 113.21,-126 92.21,-126 89.21,-122 23.79,-122 23.79,-86 116.21,-86 116.21,-122"/>
<text text-anchor="middle" x="70" y="-99.8" font-family="Times,serif" font-size="14.00">ExamModule</text>
</g>
<!-- ExamModule&#45;&gt;QuestionGroupModule -->
<g id="edge2" class="edge">
<title>ExamModule&#45;&gt;QuestionGroupModule</title>
<path fill="none" stroke="black" d="M70,-122.11C70,-141.34 70,-169 70,-169 70,-169 186.03,-169 186.03,-169"/>
<polygon fill="black" stroke="black" points="186.03,-172.5 196.03,-169 186.03,-165.5 186.03,-172.5"/>
</g>
<!-- QuestionService  -->
<g id="node4" class="node">
<title>QuestionService </title>
<polygon fill="#fb8072" stroke="black" points="325.02,-252 212.98,-252 212.98,-216 325.02,-216 325.02,-252"/>
<text text-anchor="middle" x="269" y="-229.8" font-family="Times,serif" font-size="14.00">QuestionService </text>
</g>
<!-- QuestionGroupModule&#45;&gt;QuestionService  -->
<g id="edge3" class="edge">
<title>QuestionGroupModule&#45;&gt;QuestionService </title>
<path fill="none" stroke="black" stroke-dasharray="5,2" d="M269,-187.11C269,-187.11 269,-205.99 269,-205.99"/>
<polygon fill="black" stroke="black" points="265.5,-205.99 269,-215.99 272.5,-205.99 265.5,-205.99"/>
</g>
<!-- QuestionGroupService -->
<g id="node5" class="node">
<title>QuestionGroupService</title>
<ellipse fill="#fdb462" stroke="black" cx="539" cy="-104" rx="99.56" ry="18"/>
<text text-anchor="middle" x="539" y="-99.8" font-family="Times,serif" font-size="14.00">QuestionGroupService</text>
</g>
<!-- QuestionGroupService&#45;&gt;QuestionGroupModule -->
<g id="edge4" class="edge">
<title>QuestionGroupService&#45;&gt;QuestionGroupModule</title>
<path fill="none" stroke="black" d="M539,-122.11C539,-141.34 539,-169 539,-169 539,-169 352.07,-169 352.07,-169"/>
<polygon fill="black" stroke="black" points="352.07,-165.5 342.07,-169 352.07,-172.5 352.07,-165.5"/>
</g>
<!-- QuestionService -->
<g id="node6" class="node">
<title>QuestionService</title>
<ellipse fill="#fdb462" stroke="black" cx="347" cy="-104" rx="74.72" ry="18"/>
<text text-anchor="middle" x="347" y="-99.8" font-family="Times,serif" font-size="14.00">QuestionService</text>
</g>
<!-- QuestionService&#45;&gt;QuestionGroupModule -->
<g id="edge5" class="edge">
<title>QuestionService&#45;&gt;QuestionGroupModule</title>
<path fill="none" stroke="black" d="M307.04,-119.4C307.04,-119.4 307.04,-140.94 307.04,-140.94"/>
<polygon fill="black" stroke="black" points="303.54,-140.94 307.04,-150.94 310.54,-140.94 303.54,-140.94"/>
</g>
</g>
</svg>
