<?xml version="1.0" encoding="UTF-8" standalone="no"?>
<!DOCTYPE svg PUBLIC "-//W3C//DTD SVG 1.1//EN"
 "http://www.w3.org/Graphics/SVG/1.1/DTD/svg11.dtd">
<!-- Generated by graphviz version 2.47.0 (20210316.0004)
 -->
<!-- Title: dependencies Pages: 1 -->
<svg width="633pt" height="284pt"
 viewBox="0.00 0.00 633.00 284.00" xmlns="http://www.w3.org/2000/svg" xmlns:xlink="http://www.w3.org/1999/xlink">
<g id="graph0" class="graph" transform="scale(1 1) rotate(0) translate(4 280)">
<title>dependencies</title>
<polygon fill="white" stroke="transparent" points="-4,4 -4,-280 629,-280 629,4 -4,4"/>
<text text-anchor="start" x="291.51" y="-42.4" font-family="sans-serif" font-weight="bold" font-size="14.00">Legend</text>
<polygon fill="#ffffb3" stroke="transparent" points="78.5,-10 78.5,-30 98.5,-30 98.5,-10 78.5,-10"/>
<text text-anchor="start" x="102.13" y="-15.4" font-family="sans-serif" font-size="14.00"> &#160;Declarations</text>
<polygon fill="#8dd3c7" stroke="transparent" points="191.5,-10 191.5,-30 211.5,-30 211.5,-10 191.5,-10"/>
<text text-anchor="start" x="215.23" y="-15.4" font-family="sans-serif" font-size="14.00"> &#160;Module</text>
<polygon fill="#80b1d3" stroke="transparent" points="277.5,-10 277.5,-30 297.5,-30 297.5,-10 277.5,-10"/>
<text text-anchor="start" x="301.28" y="-15.4" font-family="sans-serif" font-size="14.00"> &#160;Bootstrap</text>
<polygon fill="#fdb462" stroke="transparent" points="374.5,-10 374.5,-30 394.5,-30 394.5,-10 374.5,-10"/>
<text text-anchor="start" x="398.17" y="-15.4" font-family="sans-serif" font-size="14.00"> &#160;Providers</text>
<polygon fill="#fb8072" stroke="transparent" points="470.5,-10 470.5,-30 490.5,-30 490.5,-10 470.5,-10"/>
<text text-anchor="start" x="494.23" y="-15.4" font-family="sans-serif" font-size="14.00"> &#160;Exports</text>
<g id="clust1" class="cluster">
<title>cluster_AuthModule</title>
<polygon fill="none" stroke="black" stroke-dasharray="1,5" points="8,-70 8,-268 617,-268 617,-70 8,-70"/>
</g>
<g id="clust3" class="cluster">
<title>cluster_AuthModule_imports</title>
<polygon fill="none" stroke="black" points="405,-78 405,-130 609,-130 609,-78 405,-78"/>
</g>
<g id="clust4" class="cluster">
<title>cluster_AuthModule_exports</title>
<polygon fill="none" stroke="black" points="186,-208 186,-260 490,-260 490,-208 186,-208"/>
</g>
<g id="clust6" class="cluster">
<title>cluster_AuthModule_providers</title>
<polygon fill="none" stroke="black" points="16,-78 16,-130 397,-130 397,-78 16,-78"/>
</g>
<!-- CaslModule -->
<g id="node1" class="node">
<title>CaslModule</title>
<polygon fill="#8dd3c7" stroke="black" points="601.44,-122 598.44,-126 577.44,-126 574.44,-122 516.56,-122 516.56,-86 601.44,-86 601.44,-122"/>
<text text-anchor="middle" x="559" y="-99.8" font-family="Times,serif" font-size="14.00">CaslModule</text>
</g>
<!-- AuthModule -->
<g id="node3" class="node">
<title>AuthModule</title>
<polygon fill="#8dd3c7" stroke="black" points="373.55,-187 370.55,-191 349.55,-191 346.55,-187 286.45,-187 286.45,-151 373.55,-151 373.55,-187"/>
<text text-anchor="middle" x="330" y="-164.8" font-family="Times,serif" font-size="14.00">AuthModule</text>
</g>
<!-- CaslModule&#45;&gt;AuthModule -->
<g id="edge1" class="edge">
<title>CaslModule&#45;&gt;AuthModule</title>
<path fill="none" stroke="black" d="M559,-122.11C559,-141.34 559,-169 559,-169 559,-169 383.61,-169 383.61,-169"/>
<polygon fill="black" stroke="black" points="383.61,-165.5 373.61,-169 383.61,-172.5 383.61,-165.5"/>
</g>
<!-- UserModule -->
<g id="node2" class="node">
<title>UserModule</title>
<polygon fill="#8dd3c7" stroke="black" points="498.98,-122 495.98,-126 474.98,-126 471.98,-122 413.02,-122 413.02,-86 498.98,-86 498.98,-122"/>
<text text-anchor="middle" x="456" y="-99.8" font-family="Times,serif" font-size="14.00">UserModule</text>
</g>
<!-- UserModule&#45;&gt;AuthModule -->
<g id="edge2" class="edge">
<title>UserModule&#45;&gt;AuthModule</title>
<path fill="none" stroke="black" d="M447.37,-122.03C447.37,-138.4 447.37,-160 447.37,-160 447.37,-160 383.71,-160 383.71,-160"/>
<polygon fill="black" stroke="black" points="383.71,-156.5 373.71,-160 383.71,-163.5 383.71,-156.5"/>
</g>
<!-- AuthService  -->
<g id="node4" class="node">
<title>AuthService </title>
<polygon fill="#fb8072" stroke="black" points="481.98,-252 392.02,-252 392.02,-216 481.98,-216 481.98,-252"/>
<text text-anchor="middle" x="437" y="-229.8" font-family="Times,serif" font-size="14.00">AuthService </text>
</g>
<!-- AuthModule&#45;&gt;AuthService  -->
<g id="edge3" class="edge">
<title>AuthModule&#45;&gt;AuthService </title>
<path fill="none" stroke="black" stroke-dasharray="5,2" d="M373.93,-178C389.23,-178 402.64,-178 402.64,-178 402.64,-178 402.64,-205.97 402.64,-205.97"/>
<polygon fill="black" stroke="black" points="399.14,-205.97 402.64,-215.97 406.14,-205.97 399.14,-205.97"/>
</g>
<!-- CaslModule  -->
<g id="node5" class="node">
<title>CaslModule </title>
<polygon fill="#fb8072" stroke="black" points="373.94,-252 286.06,-252 286.06,-216 373.94,-216 373.94,-252"/>
<text text-anchor="middle" x="330" y="-229.8" font-family="Times,serif" font-size="14.00">CaslModule </text>
</g>
<!-- AuthModule&#45;&gt;CaslModule  -->
<g id="edge4" class="edge">
<title>AuthModule&#45;&gt;CaslModule </title>
<path fill="none" stroke="black" stroke-dasharray="5,2" d="M330,-187.11C330,-187.11 330,-205.99 330,-205.99"/>
<polygon fill="black" stroke="black" points="326.5,-205.99 330,-215.99 333.5,-205.99 326.5,-205.99"/>
</g>
<!-- JwtGuard  -->
<g id="node6" class="node">
<title>JwtGuard </title>
<polygon fill="#fb8072" stroke="black" points="267.92,-252 194.08,-252 194.08,-216 267.92,-216 267.92,-252"/>
<text text-anchor="middle" x="231" y="-229.8" font-family="Times,serif" font-size="14.00">JwtGuard </text>
</g>
<!-- AuthModule&#45;&gt;JwtGuard  -->
<g id="edge5" class="edge">
<title>AuthModule&#45;&gt;JwtGuard </title>
<path fill="none" stroke="black" stroke-dasharray="5,2" d="M286.23,-178C272.22,-178 260.27,-178 260.27,-178 260.27,-178 260.27,-205.97 260.27,-205.97"/>
<polygon fill="black" stroke="black" points="256.77,-205.97 260.27,-215.97 263.77,-205.97 256.77,-205.97"/>
</g>
<!-- AuthService -->
<g id="node7" class="node">
<title>AuthService</title>
<ellipse fill="#fdb462" stroke="black" cx="330" cy="-104" rx="59.11" ry="18"/>
<text text-anchor="middle" x="330" y="-99.8" font-family="Times,serif" font-size="14.00">AuthService</text>
</g>
<!-- AuthService&#45;&gt;AuthModule -->
<g id="edge6" class="edge">
<title>AuthService&#45;&gt;AuthModule</title>
<path fill="none" stroke="black" d="M330,-122.11C330,-122.11 330,-140.99 330,-140.99"/>
<polygon fill="black" stroke="black" points="326.5,-140.99 330,-150.99 333.5,-140.99 326.5,-140.99"/>
</g>
<!-- JwtGuard -->
<g id="node8" class="node">
<title>JwtGuard</title>
<ellipse fill="#fdb462" stroke="black" cx="204" cy="-104" rx="48.65" ry="18"/>
<text text-anchor="middle" x="204" y="-99.8" font-family="Times,serif" font-size="14.00">JwtGuard</text>
</g>
<!-- JwtGuard&#45;&gt;AuthModule -->
<g id="edge7" class="edge">
<title>JwtGuard&#45;&gt;AuthModule</title>
<path fill="none" stroke="black" d="M223.31,-120.8C223.31,-137.3 223.31,-160 223.31,-160 223.31,-160 276.3,-160 276.3,-160"/>
<polygon fill="black" stroke="black" points="276.3,-163.5 286.3,-160 276.3,-156.5 276.3,-163.5"/>
</g>
<!-- JwtStrategy -->
<g id="node9" class="node">
<title>JwtStrategy</title>
<ellipse fill="#fdb462" stroke="black" cx="81" cy="-104" rx="56.76" ry="18"/>
<text text-anchor="middle" x="81" y="-99.8" font-family="Times,serif" font-size="14.00">JwtStrategy</text>
</g>
<!-- JwtStrategy&#45;&gt;AuthModule -->
<g id="edge8" class="edge">
<title>JwtStrategy&#45;&gt;AuthModule</title>
<path fill="none" stroke="black" d="M81,-122.11C81,-141.34 81,-169 81,-169 81,-169 276.34,-169 276.34,-169"/>
<polygon fill="black" stroke="black" points="276.34,-172.5 286.34,-169 276.34,-165.5 276.34,-172.5"/>
</g>
</g>
</svg>
