<?xml version="1.0" encoding="UTF-8" standalone="no"?>
<!DOCTYPE svg PUBLIC "-//W3C//DTD SVG 1.1//EN"
 "http://www.w3.org/Graphics/SVG/1.1/DTD/svg11.dtd">
<!-- Generated by graphviz version 2.47.0 (20210316.0004)
 -->
<!-- Title: dependencies Pages: 1 -->
<svg width="504pt" height="284pt"
 viewBox="0.00 0.00 504.00 284.00" xmlns="http://www.w3.org/2000/svg" xmlns:xlink="http://www.w3.org/1999/xlink">
<g id="graph0" class="graph" transform="scale(1 1) rotate(0) translate(4 280)">
<title>dependencies</title>
<polygon fill="white" stroke="transparent" points="-4,4 -4,-280 500,-280 500,4 -4,4"/>
<text text-anchor="start" x="227.01" y="-42.4" font-family="sans-serif" font-weight="bold" font-size="14.00">Legend</text>
<polygon fill="#ffffb3" stroke="transparent" points="14,-10 14,-30 34,-30 34,-10 14,-10"/>
<text text-anchor="start" x="37.63" y="-15.4" font-family="sans-serif" font-size="14.00"> &#160;Declarations</text>
<polygon fill="#8dd3c7" stroke="transparent" points="127,-10 127,-30 147,-30 147,-10 127,-10"/>
<text text-anchor="start" x="150.73" y="-15.4" font-family="sans-serif" font-size="14.00"> &#160;Module</text>
<polygon fill="#80b1d3" stroke="transparent" points="213,-10 213,-30 233,-30 233,-10 213,-10"/>
<text text-anchor="start" x="236.78" y="-15.4" font-family="sans-serif" font-size="14.00"> &#160;Bootstrap</text>
<polygon fill="#fdb462" stroke="transparent" points="310,-10 310,-30 330,-30 330,-10 310,-10"/>
<text text-anchor="start" x="333.67" y="-15.4" font-family="sans-serif" font-size="14.00"> &#160;Providers</text>
<polygon fill="#fb8072" stroke="transparent" points="406,-10 406,-30 426,-30 426,-10 406,-10"/>
<text text-anchor="start" x="429.73" y="-15.4" font-family="sans-serif" font-size="14.00"> &#160;Exports</text>
<g id="clust1" class="cluster">
<title>cluster_CoreModule</title>
<polygon fill="none" stroke="black" stroke-dasharray="1,5" points="94,-70 94,-268 402,-268 402,-70 94,-70"/>
</g>
<g id="clust6" class="cluster">
<title>cluster_CoreModule_providers</title>
<polygon fill="none" stroke="black" points="155,-78 155,-130 341,-130 341,-78 155,-78"/>
</g>
<g id="clust4" class="cluster">
<title>cluster_CoreModule_exports</title>
<polygon fill="none" stroke="black" points="102,-208 102,-260 394,-260 394,-208 102,-208"/>
</g>
<!-- HttpExceptionFilter  -->
<g id="node1" class="node">
<title>HttpExceptionFilter </title>
<polygon fill="#fb8072" stroke="black" points="385.98,-252 254.02,-252 254.02,-216 385.98,-216 385.98,-252"/>
<text text-anchor="middle" x="320" y="-229.8" font-family="Times,serif" font-size="14.00">HttpExceptionFilter </text>
</g>
<!-- PayloadInterceptor  -->
<g id="node2" class="node">
<title>PayloadInterceptor </title>
<polygon fill="#fb8072" stroke="black" points="236.01,-252 109.99,-252 109.99,-216 236.01,-216 236.01,-252"/>
<text text-anchor="middle" x="173" y="-229.8" font-family="Times,serif" font-size="14.00">PayloadInterceptor </text>
</g>
<!-- CoreModule -->
<g id="node3" class="node">
<title>CoreModule</title>
<polygon fill="#8dd3c7" stroke="black" points="291.26,-187 288.26,-191 267.26,-191 264.26,-187 204.74,-187 204.74,-151 291.26,-151 291.26,-187"/>
<text text-anchor="middle" x="248" y="-164.8" font-family="Times,serif" font-size="14.00">CoreModule</text>
</g>
<!-- CoreModule&#45;&gt;HttpExceptionFilter  -->
<g id="edge1" class="edge">
<title>CoreModule&#45;&gt;HttpExceptionFilter </title>
<path fill="none" stroke="black" stroke-dasharray="5,2" d="M272.82,-187.11C272.82,-187.11 272.82,-205.99 272.82,-205.99"/>
<polygon fill="black" stroke="black" points="269.32,-205.99 272.82,-215.99 276.32,-205.99 269.32,-205.99"/>
</g>
<!-- CoreModule&#45;&gt;PayloadInterceptor  -->
<g id="edge2" class="edge">
<title>CoreModule&#45;&gt;PayloadInterceptor </title>
<path fill="none" stroke="black" stroke-dasharray="5,2" d="M220.31,-187.11C220.31,-187.11 220.31,-205.99 220.31,-205.99"/>
<polygon fill="black" stroke="black" points="216.81,-205.99 220.31,-215.99 223.81,-205.99 216.81,-205.99"/>
</g>
<!-- PayloadInterceptor -->
<g id="node4" class="node">
<title>PayloadInterceptor</title>
<ellipse fill="#fdb462" stroke="black" cx="248" cy="-104" rx="84.51" ry="18"/>
<text text-anchor="middle" x="248" y="-99.8" font-family="Times,serif" font-size="14.00">PayloadInterceptor</text>
</g>
<!-- PayloadInterceptor&#45;&gt;CoreModule -->
<g id="edge3" class="edge">
<title>PayloadInterceptor&#45;&gt;CoreModule</title>
<path fill="none" stroke="black" d="M248,-122.11C248,-122.11 248,-140.99 248,-140.99"/>
<polygon fill="black" stroke="black" points="244.5,-140.99 248,-150.99 251.5,-140.99 244.5,-140.99"/>
</g>
</g>
</svg>
