<?xml version="1.0" encoding="UTF-8" standalone="no"?>
<!DOCTYPE svg PUBLIC "-//W3C//DTD SVG 1.1//EN"
 "http://www.w3.org/Graphics/SVG/1.1/DTD/svg11.dtd">
<!-- Generated by graphviz version 2.47.0 (20210316.0004)
 -->
<!-- Title: dependencies Pages: 1 -->
<svg width="504pt" height="211pt"
 viewBox="0.00 0.00 504.00 211.00" xmlns="http://www.w3.org/2000/svg" xmlns:xlink="http://www.w3.org/1999/xlink">
<g id="graph0" class="graph" transform="scale(1 1) rotate(0) translate(4 207)">
<title>dependencies</title>
<polygon fill="white" stroke="transparent" points="-4,4 -4,-207 500,-207 500,4 -4,4"/>
<text text-anchor="start" x="227.01" y="-42.4" font-family="sans-serif" font-weight="bold" font-size="14.00">Legend</text>
<polygon fill="#ffffb3" stroke="transparent" points="14,-10 14,-30 34,-30 34,-10 14,-10"/>
<text text-anchor="start" x="37.63" y="-15.4" font-family="sans-serif" font-size="14.00"> &#160;Declarations</text>
<polygon fill="#8dd3c7" stroke="transparent" points="127,-10 127,-30 147,-30 147,-10 127,-10"/>
<text text-anchor="start" x="150.73" y="-15.4" font-family="sans-serif" font-size="14.00"> &#160;Module</text>
<polygon fill="#80b1d3" stroke="transparent" points="213,-10 213,-30 233,-30 233,-10 213,-10"/>
<text text-anchor="start" x="236.78" y="-15.4" font-family="sans-serif" font-size="14.00"> &#160;Bootstrap</text>
<polygon fill="#fdb462" stroke="transparent" points="310,-10 310,-30 330,-30 330,-10 310,-10"/>
<text text-anchor="start" x="333.67" y="-15.4" font-family="sans-serif" font-size="14.00"> &#160;Providers</text>
<polygon fill="#fb8072" stroke="transparent" points="406,-10 406,-30 426,-30 426,-10 406,-10"/>
<text text-anchor="start" x="429.73" y="-15.4" font-family="sans-serif" font-size="14.00"> &#160;Exports</text>
<g id="clust1" class="cluster">
<title>cluster_AnswerModule</title>
<polygon fill="none" stroke="black" stroke-dasharray="1,5" points="22,-70 22,-195 474,-195 474,-70 22,-70"/>
</g>
<g id="clust6" class="cluster">
<title>cluster_AnswerModule_providers</title>
<polygon fill="none" stroke="black" points="310,-78 310,-130 466,-130 466,-78 310,-78"/>
</g>
<g id="clust3" class="cluster">
<title>cluster_AnswerModule_imports</title>
<polygon fill="none" stroke="black" points="30,-78 30,-130 302,-130 302,-78 30,-78"/>
</g>
<!-- ExamModule -->
<g id="node1" class="node">
<title>ExamModule</title>
<polygon fill="#8dd3c7" stroke="black" points="294.21,-122 291.21,-126 270.21,-126 267.21,-122 201.79,-122 201.79,-86 294.21,-86 294.21,-122"/>
<text text-anchor="middle" x="248" y="-99.8" font-family="Times,serif" font-size="14.00">ExamModule</text>
</g>
<!-- AnswerModule -->
<g id="node3" class="node">
<title>AnswerModule</title>
<polygon fill="#8dd3c7" stroke="black" points="299.58,-187 296.58,-191 275.58,-191 272.58,-187 196.42,-187 196.42,-151 299.58,-151 299.58,-187"/>
<text text-anchor="middle" x="248" y="-164.8" font-family="Times,serif" font-size="14.00">AnswerModule</text>
</g>
<!-- ExamModule&#45;&gt;AnswerModule -->
<g id="edge1" class="edge">
<title>ExamModule&#45;&gt;AnswerModule</title>
<path fill="none" stroke="black" d="M248,-122.11C248,-122.11 248,-140.99 248,-140.99"/>
<polygon fill="black" stroke="black" points="244.5,-140.99 248,-150.99 251.5,-140.99 244.5,-140.99"/>
</g>
<!-- QuestionGroupModule -->
<g id="node2" class="node">
<title>QuestionGroupModule</title>
<polygon fill="#8dd3c7" stroke="black" points="183.86,-122 180.86,-126 159.86,-126 156.86,-122 38.14,-122 38.14,-86 183.86,-86 183.86,-122"/>
<text text-anchor="middle" x="111" y="-99.8" font-family="Times,serif" font-size="14.00">QuestionGroupModule</text>
</g>
<!-- QuestionGroupModule&#45;&gt;AnswerModule -->
<g id="edge2" class="edge">
<title>QuestionGroupModule&#45;&gt;AnswerModule</title>
<path fill="none" stroke="black" d="M111,-122.11C111,-141.34 111,-169 111,-169 111,-169 186.21,-169 186.21,-169"/>
<polygon fill="black" stroke="black" points="186.21,-172.5 196.21,-169 186.21,-165.5 186.21,-172.5"/>
</g>
<!-- AnswerService -->
<g id="node4" class="node">
<title>AnswerService</title>
<ellipse fill="#fdb462" stroke="black" cx="388" cy="-104" rx="70.04" ry="18"/>
<text text-anchor="middle" x="388" y="-99.8" font-family="Times,serif" font-size="14.00">AnswerService</text>
</g>
<!-- AnswerService&#45;&gt;AnswerModule -->
<g id="edge3" class="edge">
<title>AnswerService&#45;&gt;AnswerModule</title>
<path fill="none" stroke="black" d="M388,-122.11C388,-141.34 388,-169 388,-169 388,-169 309.73,-169 309.73,-169"/>
<polygon fill="black" stroke="black" points="309.73,-165.5 299.73,-169 309.73,-172.5 309.73,-165.5"/>
</g>
</g>
</svg>
