<?xml version="1.0" encoding="UTF-8" standalone="no"?>
<!DOCTYPE svg PUBLIC "-//W3C//DTD SVG 1.1//EN"
 "http://www.w3.org/Graphics/SVG/1.1/DTD/svg11.dtd">
<!-- Generated by graphviz version 2.47.0 (20210316.0004)
 -->
<!-- Title: dependencies Pages: 1 -->
<svg width="504pt" height="211pt"
 viewBox="0.00 0.00 504.00 211.00" xmlns="http://www.w3.org/2000/svg" xmlns:xlink="http://www.w3.org/1999/xlink">
<g id="graph0" class="graph" transform="scale(1 1) rotate(0) translate(4 207)">
<title>dependencies</title>
<polygon fill="white" stroke="transparent" points="-4,4 -4,-207 500,-207 500,4 -4,4"/>
<text text-anchor="start" x="227.01" y="-42.4" font-family="sans-serif" font-weight="bold" font-size="14.00">Legend</text>
<polygon fill="#ffffb3" stroke="transparent" points="14,-10 14,-30 34,-30 34,-10 14,-10"/>
<text text-anchor="start" x="37.63" y="-15.4" font-family="sans-serif" font-size="14.00"> &#160;Declarations</text>
<polygon fill="#8dd3c7" stroke="transparent" points="127,-10 127,-30 147,-30 147,-10 127,-10"/>
<text text-anchor="start" x="150.73" y="-15.4" font-family="sans-serif" font-size="14.00"> &#160;Module</text>
<polygon fill="#80b1d3" stroke="transparent" points="213,-10 213,-30 233,-30 233,-10 213,-10"/>
<text text-anchor="start" x="236.78" y="-15.4" font-family="sans-serif" font-size="14.00"> &#160;Bootstrap</text>
<polygon fill="#fdb462" stroke="transparent" points="310,-10 310,-30 330,-30 330,-10 310,-10"/>
<text text-anchor="start" x="333.67" y="-15.4" font-family="sans-serif" font-size="14.00"> &#160;Providers</text>
<polygon fill="#fb8072" stroke="transparent" points="406,-10 406,-30 426,-30 426,-10 406,-10"/>
<text text-anchor="start" x="429.73" y="-15.4" font-family="sans-serif" font-size="14.00"> &#160;Exports</text>
<g id="clust1" class="cluster">
<title>cluster_AnswerModule</title>
<polygon fill="none" stroke="black" stroke-dasharray="1,5" points="77,-70 77,-195 419,-195 419,-70 77,-70"/>
</g>
<g id="clust3" class="cluster">
<title>cluster_AnswerModule_imports</title>
<polygon fill="none" stroke="black" points="249,-78 249,-130 411,-130 411,-78 249,-78"/>
</g>
<g id="clust6" class="cluster">
<title>cluster_AnswerModule_providers</title>
<polygon fill="none" stroke="black" points="85,-78 85,-130 241,-130 241,-78 85,-78"/>
</g>
<!-- QuestionGroupModule -->
<g id="node1" class="node">
<title>QuestionGroupModule</title>
<polygon fill="#8dd3c7" stroke="black" points="402.86,-122 399.86,-126 378.86,-126 375.86,-122 257.14,-122 257.14,-86 402.86,-86 402.86,-122"/>
<text text-anchor="middle" x="330" y="-99.8" font-family="Times,serif" font-size="14.00">QuestionGroupModule</text>
</g>
<!-- AnswerModule -->
<g id="node2" class="node">
<title>AnswerModule</title>
<polygon fill="#8dd3c7" stroke="black" points="297.58,-187 294.58,-191 273.58,-191 270.58,-187 194.42,-187 194.42,-151 297.58,-151 297.58,-187"/>
<text text-anchor="middle" x="246" y="-164.8" font-family="Times,serif" font-size="14.00">AnswerModule</text>
</g>
<!-- QuestionGroupModule&#45;&gt;AnswerModule -->
<g id="edge1" class="edge">
<title>QuestionGroupModule&#45;&gt;AnswerModule</title>
<path fill="none" stroke="black" d="M277.3,-122.11C277.3,-122.11 277.3,-140.99 277.3,-140.99"/>
<polygon fill="black" stroke="black" points="273.8,-140.99 277.3,-150.99 280.8,-140.99 273.8,-140.99"/>
</g>
<!-- AnswerService -->
<g id="node3" class="node">
<title>AnswerService</title>
<ellipse fill="#fdb462" stroke="black" cx="163" cy="-104" rx="70.04" ry="18"/>
<text text-anchor="middle" x="163" y="-99.8" font-family="Times,serif" font-size="14.00">AnswerService</text>
</g>
<!-- AnswerService&#45;&gt;AnswerModule -->
<g id="edge2" class="edge">
<title>AnswerService&#45;&gt;AnswerModule</title>
<path fill="none" stroke="black" d="M213.74,-116.53C213.74,-116.53 213.74,-140.85 213.74,-140.85"/>
<polygon fill="black" stroke="black" points="210.24,-140.85 213.74,-150.85 217.24,-140.85 210.24,-140.85"/>
</g>
</g>
</svg>
