<?xml version="1.0" encoding="UTF-8" standalone="no"?>
<!DOCTYPE svg PUBLIC "-//W3C//DTD SVG 1.1//EN"
 "http://www.w3.org/Graphics/SVG/1.1/DTD/svg11.dtd">
<!-- Generated by graphviz version 2.47.0 (20210316.0004)
 -->
<!-- Title: dependencies Pages: 1 -->
<svg width="4049pt" height="439pt"
 viewBox="0.00 0.00 4049.00 439.00" xmlns="http://www.w3.org/2000/svg" xmlns:xlink="http://www.w3.org/1999/xlink">
<g id="graph0" class="graph" transform="scale(1 1) rotate(0) translate(4 435)">
<title>dependencies</title>
<polygon fill="white" stroke="transparent" points="-4,4 -4,-435 4045,-435 4045,4 -4,4"/>
<text text-anchor="start" x="1999.51" y="-42.4" font-family="sans-serif" font-weight="bold" font-size="14.00">Legend</text>
<polygon fill="#ffffb3" stroke="transparent" points="1786.5,-10 1786.5,-30 1806.5,-30 1806.5,-10 1786.5,-10"/>
<text text-anchor="start" x="1810.13" y="-15.4" font-family="sans-serif" font-size="14.00"> &#160;Declarations</text>
<polygon fill="#8dd3c7" stroke="transparent" points="1899.5,-10 1899.5,-30 1919.5,-30 1919.5,-10 1899.5,-10"/>
<text text-anchor="start" x="1923.23" y="-15.4" font-family="sans-serif" font-size="14.00"> &#160;Module</text>
<polygon fill="#80b1d3" stroke="transparent" points="1985.5,-10 1985.5,-30 2005.5,-30 2005.5,-10 1985.5,-10"/>
<text text-anchor="start" x="2009.28" y="-15.4" font-family="sans-serif" font-size="14.00"> &#160;Bootstrap</text>
<polygon fill="#fdb462" stroke="transparent" points="2082.5,-10 2082.5,-30 2102.5,-30 2102.5,-10 2082.5,-10"/>
<text text-anchor="start" x="2106.17" y="-15.4" font-family="sans-serif" font-size="14.00"> &#160;Providers</text>
<polygon fill="#fb8072" stroke="transparent" points="2178.5,-10 2178.5,-30 2198.5,-30 2198.5,-10 2178.5,-10"/>
<text text-anchor="start" x="2202.23" y="-15.4" font-family="sans-serif" font-size="14.00"> &#160;Exports</text>
<g id="clust1" class="cluster">
<title>cluster_AnswerModule</title>
<polygon fill="none" stroke="black" stroke-dasharray="1,5" points="2972,-146 2972,-358 3326,-358 3326,-146 2972,-146"/>
</g>
<g id="clust3" class="cluster">
<title>cluster_AnswerModule_imports</title>
<polygon fill="none" stroke="black" points="3144,-154 3144,-282 3306,-282 3306,-154 3144,-154"/>
</g>
<g id="clust6" class="cluster">
<title>cluster_AnswerModule_providers</title>
<polygon fill="none" stroke="black" points="2980,-230 2980,-282 3136,-282 3136,-230 2980,-230"/>
</g>
<g id="clust7" class="cluster">
<title>cluster_AppModule</title>
<polygon fill="none" stroke="black" stroke-dasharray="1,5" points="967,-222 967,-423 1543,-423 1543,-222 967,-222"/>
</g>
<g id="clust9" class="cluster">
<title>cluster_AppModule_imports</title>
<polygon fill="none" stroke="black" points="975,-230 975,-358 1535,-358 1535,-230 975,-230"/>
</g>
<g id="clust13" class="cluster">
<title>cluster_AuthModule</title>
<polygon fill="none" stroke="black" stroke-dasharray="1,5" points="2069,-222 2069,-290 2886,-290 2886,-222 2069,-222"/>
</g>
<g id="clust15" class="cluster">
<title>cluster_AuthModule_imports</title>
<polygon fill="none" stroke="black" points="2778,-230 2778,-282 2878,-282 2878,-230 2778,-230"/>
</g>
<g id="clust16" class="cluster">
<title>cluster_AuthModule_exports</title>
<polygon fill="none" stroke="black" points="2466,-230 2466,-282 2770,-282 2770,-230 2466,-230"/>
</g>
<g id="clust18" class="cluster">
<title>cluster_AuthModule_providers</title>
<polygon fill="none" stroke="black" points="2077,-230 2077,-282 2458,-282 2458,-230 2077,-230"/>
</g>
<g id="clust19" class="cluster">
<title>cluster_AuxiliaryModule</title>
<polygon fill="none" stroke="black" stroke-dasharray="1,5" points="8,-146 8,-214 609,-214 609,-146 8,-146"/>
</g>
<g id="clust22" class="cluster">
<title>cluster_AuxiliaryModule_exports</title>
<polygon fill="none" stroke="black" points="349,-154 349,-206 601,-206 601,-154 349,-154"/>
</g>
<g id="clust24" class="cluster">
<title>cluster_AuxiliaryModule_providers</title>
<polygon fill="none" stroke="black" points="16,-154 16,-206 341,-206 341,-154 16,-154"/>
</g>
<g id="clust25" class="cluster">
<title>cluster_CaslModule</title>
<polygon fill="none" stroke="black" stroke-dasharray="1,5" points="2069,-146 2069,-214 2421,-214 2421,-146 2069,-146"/>
</g>
<g id="clust28" class="cluster">
<title>cluster_CaslModule_exports</title>
<polygon fill="none" stroke="black" points="2271,-154 2271,-206 2413,-206 2413,-154 2271,-154"/>
</g>
<g id="clust30" class="cluster">
<title>cluster_CaslModule_providers</title>
<polygon fill="none" stroke="black" points="2077,-154 2077,-206 2263,-206 2263,-154 2077,-154"/>
</g>
<g id="clust31" class="cluster">
<title>cluster_CoreModule</title>
<polygon fill="none" stroke="black" stroke-dasharray="1,5" points="617,-146 617,-214 969,-214 969,-146 617,-146"/>
</g>
<g id="clust34" class="cluster">
<title>cluster_CoreModule_exports</title>
<polygon fill="none" stroke="black" points="819,-154 819,-206 961,-206 961,-154 819,-154"/>
</g>
<g id="clust36" class="cluster">
<title>cluster_CoreModule_providers</title>
<polygon fill="none" stroke="black" points="625,-154 625,-206 811,-206 811,-154 625,-154"/>
</g>
<g id="clust37" class="cluster">
<title>cluster_ExamModule</title>
<polygon fill="none" stroke="black" stroke-dasharray="1,5" points="2573,-70 2573,-138 3851,-138 3851,-70 2573,-70"/>
</g>
<g id="clust40" class="cluster">
<title>cluster_ExamModule_exports</title>
<polygon fill="none" stroke="black" points="3559,-78 3559,-130 3843,-130 3843,-78 3559,-78"/>
</g>
<g id="clust42" class="cluster">
<title>cluster_ExamModule_providers</title>
<polygon fill="none" stroke="black" points="2581,-78 2581,-130 3551,-130 3551,-78 2581,-78"/>
</g>
<g id="clust43" class="cluster">
<title>cluster_FirebaseAdminModule</title>
<polygon fill="none" stroke="black" stroke-dasharray="1,5" points="3859,-70 3859,-290 4033,-290 4033,-70 3859,-70"/>
</g>
<g id="clust46" class="cluster">
<title>cluster_FirebaseAdminModule_exports</title>
<polygon fill="none" stroke="black" points="3885,-230 3885,-282 4007,-282 4007,-230 3885,-230"/>
</g>
<g id="clust48" class="cluster">
<title>cluster_FirebaseAdminModule_providers</title>
<polygon fill="none" stroke="black" points="3867,-78 3867,-130 4025,-130 4025,-78 3867,-78"/>
</g>
<g id="clust49" class="cluster">
<title>cluster_FirebaseModule</title>
<polygon fill="none" stroke="black" stroke-dasharray="1,5" points="1551,-70 1551,-290 2061,-290 2061,-70 1551,-70"/>
</g>
<g id="clust52" class="cluster">
<title>cluster_FirebaseModule_exports</title>
<polygon fill="none" stroke="black" points="1594,-230 1594,-282 1968,-282 1968,-230 1594,-230"/>
</g>
<g id="clust54" class="cluster">
<title>cluster_FirebaseModule_providers</title>
<polygon fill="none" stroke="black" points="1559,-78 1559,-130 2053,-130 2053,-78 1559,-78"/>
</g>
<g id="clust55" class="cluster">
<title>cluster_InfraModule</title>
<polygon fill="none" stroke="black" stroke-dasharray="1,5" points="813,-298 813,-366 959,-366 959,-298 813,-298"/>
</g>
<g id="clust58" class="cluster">
<title>cluster_InfraModule_exports</title>
<polygon fill="none" stroke="black" points="821,-306 821,-358 951,-358 951,-306 821,-306"/>
</g>
<g id="clust61" class="cluster">
<title>cluster_LoggerModule</title>
<polygon fill="none" stroke="black" stroke-dasharray="1,5" points="977,-146 977,-214 1275,-214 1275,-146 977,-146"/>
</g>
<g id="clust64" class="cluster">
<title>cluster_LoggerModule_exports</title>
<polygon fill="none" stroke="black" points="1147,-154 1147,-206 1267,-206 1267,-154 1147,-154"/>
</g>
<g id="clust66" class="cluster">
<title>cluster_LoggerModule_providers</title>
<polygon fill="none" stroke="black" points="985,-154 985,-206 1139,-206 1139,-154 985,-154"/>
</g>
<g id="clust67" class="cluster">
<title>cluster_QuestionGroupModule</title>
<polygon fill="none" stroke="black" stroke-dasharray="1,5" points="2429,-146 2429,-214 2964,-214 2964,-146 2429,-146"/>
</g>
<g id="clust70" class="cluster">
<title>cluster_QuestionGroupModule_exports</title>
<polygon fill="none" stroke="black" points="2828,-154 2828,-206 2956,-206 2956,-154 2828,-154"/>
</g>
<g id="clust72" class="cluster">
<title>cluster_QuestionGroupModule_providers</title>
<polygon fill="none" stroke="black" points="2437,-154 2437,-206 2820,-206 2820,-154 2437,-154"/>
</g>
<g id="clust73" class="cluster">
<title>cluster_UserModule</title>
<polygon fill="none" stroke="black" stroke-dasharray="1,5" points="1283,-146 1283,-214 1543,-214 1543,-146 1283,-146"/>
</g>
<g id="clust76" class="cluster">
<title>cluster_UserModule_exports</title>
<polygon fill="none" stroke="black" points="1431,-154 1431,-206 1535,-206 1535,-154 1431,-154"/>
</g>
<g id="clust78" class="cluster">
<title>cluster_UserModule_providers</title>
<polygon fill="none" stroke="black" points="1291,-154 1291,-206 1423,-206 1423,-154 1291,-154"/>
</g>
<!-- ExamModule -->
<g id="node1" class="node">
<title>ExamModule</title>
<polygon fill="#8dd3c7" stroke="black" points="3298.21,-198 3295.21,-202 3274.21,-202 3271.21,-198 3205.79,-198 3205.79,-162 3298.21,-162 3298.21,-198"/>
<text text-anchor="middle" x="3252" y="-175.8" font-family="Times,serif" font-size="14.00">ExamModule</text>
</g>
<!-- QuestionGroupModule -->
<g id="node2" class="node">
<title>QuestionGroupModule</title>
<polygon fill="#8dd3c7" stroke="black" points="3297.86,-274 3294.86,-278 3273.86,-278 3270.86,-274 3152.14,-274 3152.14,-238 3297.86,-238 3297.86,-274"/>
<text text-anchor="middle" x="3225" y="-251.8" font-family="Times,serif" font-size="14.00">QuestionGroupModule</text>
</g>
<!-- ExamModule&#45;&gt;QuestionGroupModule -->
<g id="edge46" class="edge">
<title>ExamModule&#45;&gt;QuestionGroupModule</title>
<path fill="none" stroke="black" d="M3251.91,-198.01C3251.91,-198.01 3251.91,-227.85 3251.91,-227.85"/>
<polygon fill="black" stroke="black" points="3248.41,-227.85 3251.91,-237.85 3255.41,-227.85 3248.41,-227.85"/>
</g>
<!-- AnswerModule -->
<g id="node3" class="node">
<title>AnswerModule</title>
<polygon fill="#8dd3c7" stroke="black" points="3131.58,-350 3128.58,-354 3107.58,-354 3104.58,-350 3028.42,-350 3028.42,-314 3131.58,-314 3131.58,-350"/>
<text text-anchor="middle" x="3080" y="-327.8" font-family="Times,serif" font-size="14.00">AnswerModule</text>
</g>
<!-- ExamModule&#45;&gt;AnswerModule -->
<g id="edge1" class="edge">
<title>ExamModule&#45;&gt;AnswerModule</title>
<path fill="none" stroke="black" d="M3205.59,-191C3175.47,-191 3141.8,-191 3141.8,-191 3141.8,-191 3141.8,-326 3141.8,-326 3141.8,-326 3140.78,-326 3140.78,-326"/>
<polygon fill="black" stroke="black" points="3141.6,-322.5 3131.6,-326 3141.6,-329.5 3141.6,-322.5"/>
</g>
<!-- AppModule -->
<g id="node11" class="node">
<title>AppModule</title>
<polygon fill="#8dd3c7" stroke="black" points="1461.66,-415 1458.66,-419 1437.66,-419 1434.66,-415 1378.34,-415 1378.34,-379 1461.66,-379 1461.66,-415"/>
<text text-anchor="middle" x="1420" y="-392.8" font-family="Times,serif" font-size="14.00">AppModule</text>
</g>
<!-- ExamModule&#45;&gt;AppModule -->
<g id="edge8" class="edge">
<title>ExamModule&#45;&gt;AppModule</title>
<path fill="none" stroke="black" d="M3205.82,-177C3125.93,-177 2970.4,-177 2970.4,-177 2970.4,-177 2970.4,-388 2970.4,-388 2970.4,-388 1471.87,-388 1471.87,-388"/>
<polygon fill="black" stroke="black" points="1471.87,-384.5 1461.87,-388 1471.87,-391.5 1471.87,-384.5"/>
</g>
<!-- ExamAgreementService  -->
<g id="node27" class="node">
<title>ExamAgreementService </title>
<polygon fill="#fb8072" stroke="black" points="3835.33,-122 3678.67,-122 3678.67,-86 3835.33,-86 3835.33,-122"/>
<text text-anchor="middle" x="3757" y="-99.8" font-family="Times,serif" font-size="14.00">ExamAgreementService </text>
</g>
<!-- ExamModule&#45;&gt;ExamAgreementService  -->
<g id="edge29" class="edge">
<title>ExamModule&#45;&gt;ExamAgreementService </title>
<path fill="none" stroke="black" stroke-dasharray="5,2" d="M3298.15,-189C3422.82,-189 3757,-189 3757,-189 3757,-189 3757,-132.03 3757,-132.03"/>
<polygon fill="black" stroke="black" points="3760.5,-132.03 3757,-122.03 3753.5,-132.03 3760.5,-132.03"/>
</g>
<!-- ExamService  -->
<g id="node28" class="node">
<title>ExamService </title>
<polygon fill="#fb8072" stroke="black" points="3661.14,-122 3566.86,-122 3566.86,-86 3661.14,-86 3661.14,-122"/>
<text text-anchor="middle" x="3614" y="-99.8" font-family="Times,serif" font-size="14.00">ExamService </text>
</g>
<!-- ExamModule&#45;&gt;ExamService  -->
<g id="edge30" class="edge">
<title>ExamModule&#45;&gt;ExamService </title>
<path fill="none" stroke="black" stroke-dasharray="5,2" d="M3298.22,-180C3395.81,-180 3614,-180 3614,-180 3614,-180 3614,-132.01 3614,-132.01"/>
<polygon fill="black" stroke="black" points="3617.5,-132.01 3614,-122.01 3610.5,-132.01 3617.5,-132.01"/>
</g>
<!-- QuestionGroupModule&#45;&gt;AnswerModule -->
<g id="edge2" class="edge">
<title>QuestionGroupModule&#45;&gt;AnswerModule</title>
<path fill="none" stroke="black" d="M3200.69,-274.2C3200.69,-298.36 3200.69,-338 3200.69,-338 3200.69,-338 3141.88,-338 3141.88,-338"/>
<polygon fill="black" stroke="black" points="3141.88,-334.5 3131.88,-338 3141.88,-341.5 3141.88,-334.5"/>
</g>
<!-- QuestionGroupModule&#45;&gt;AppModule -->
<g id="edge11" class="edge">
<title>QuestionGroupModule&#45;&gt;AppModule</title>
<path fill="none" stroke="black" d="M3249.31,-274.09C3249.31,-313.99 3249.31,-406 3249.31,-406 3249.31,-406 1472.08,-406 1472.08,-406"/>
<polygon fill="black" stroke="black" points="1472.08,-402.5 1462.08,-406 1472.08,-409.5 1472.08,-402.5"/>
</g>
<!-- QuestionService  -->
<g id="node45" class="node">
<title>QuestionService </title>
<polygon fill="#fb8072" stroke="black" points="2948.02,-198 2835.98,-198 2835.98,-162 2948.02,-162 2948.02,-198"/>
<text text-anchor="middle" x="2892" y="-175.8" font-family="Times,serif" font-size="14.00">QuestionService </text>
</g>
<!-- QuestionGroupModule&#45;&gt;QuestionService  -->
<g id="edge47" class="edge">
<title>QuestionGroupModule&#45;&gt;QuestionService </title>
<path fill="none" stroke="black" stroke-dasharray="5,2" d="M3163.53,-237.83C3163.53,-216.5 3163.53,-184 3163.53,-184 3163.53,-184 2958.26,-184 2958.26,-184"/>
<polygon fill="black" stroke="black" points="2958.26,-180.5 2948.26,-184 2958.26,-187.5 2958.26,-180.5"/>
</g>
<!-- AnswerModule&#45;&gt;AppModule -->
<g id="edge4" class="edge">
<title>AnswerModule&#45;&gt;AppModule</title>
<path fill="none" stroke="black" d="M3080,-350.11C3080,-369.34 3080,-397 3080,-397 3080,-397 1471.86,-397 1471.86,-397"/>
<polygon fill="black" stroke="black" points="1471.86,-393.5 1461.86,-397 1471.86,-400.5 1471.86,-393.5"/>
</g>
<!-- AnswerService -->
<g id="node4" class="node">
<title>AnswerService</title>
<ellipse fill="#fdb462" stroke="black" cx="3058" cy="-256" rx="70.04" ry="18"/>
<text text-anchor="middle" x="3058" y="-251.8" font-family="Times,serif" font-size="14.00">AnswerService</text>
</g>
<!-- AnswerService&#45;&gt;AnswerModule -->
<g id="edge3" class="edge">
<title>AnswerService&#45;&gt;AnswerModule</title>
<path fill="none" stroke="black" d="M3078.24,-273.25C3078.24,-273.25 3078.24,-303.76 3078.24,-303.76"/>
<polygon fill="black" stroke="black" points="3074.74,-303.76 3078.24,-313.76 3081.74,-303.76 3074.74,-303.76"/>
</g>
<!-- AuthModule -->
<g id="node5" class="node">
<title>AuthModule</title>
<polygon fill="#8dd3c7" stroke="black" points="1526.55,-350 1523.55,-354 1502.55,-354 1499.55,-350 1439.45,-350 1439.45,-314 1526.55,-314 1526.55,-350"/>
<text text-anchor="middle" x="1483" y="-327.8" font-family="Times,serif" font-size="14.00">AuthModule</text>
</g>
<!-- AuthModule&#45;&gt;AppModule -->
<g id="edge5" class="edge">
<title>AuthModule&#45;&gt;AppModule</title>
<path fill="none" stroke="black" d="M1450.53,-350.11C1450.53,-350.11 1450.53,-368.99 1450.53,-368.99"/>
<polygon fill="black" stroke="black" points="1447.03,-368.99 1450.53,-378.99 1454.03,-368.99 1447.03,-368.99"/>
</g>
<!-- AuthService  -->
<g id="node13" class="node">
<title>AuthService </title>
<polygon fill="#fb8072" stroke="black" points="2761.98,-274 2672.02,-274 2672.02,-238 2761.98,-238 2761.98,-274"/>
<text text-anchor="middle" x="2717" y="-251.8" font-family="Times,serif" font-size="14.00">AuthService </text>
</g>
<!-- AuthModule&#45;&gt;AuthService  -->
<g id="edge15" class="edge">
<title>AuthModule&#45;&gt;AuthService </title>
<path fill="none" stroke="black" stroke-dasharray="5,2" d="M1526.56,-341C1745.67,-341 2717,-341 2717,-341 2717,-341 2717,-284.03 2717,-284.03"/>
<polygon fill="black" stroke="black" points="2720.5,-284.03 2717,-274.03 2713.5,-284.03 2720.5,-284.03"/>
</g>
<!-- CaslModule  -->
<g id="node14" class="node">
<title>CaslModule </title>
<polygon fill="#fb8072" stroke="black" points="2653.94,-274 2566.06,-274 2566.06,-238 2653.94,-238 2653.94,-274"/>
<text text-anchor="middle" x="2610" y="-251.8" font-family="Times,serif" font-size="14.00">CaslModule </text>
</g>
<!-- AuthModule&#45;&gt;CaslModule  -->
<g id="edge16" class="edge">
<title>AuthModule&#45;&gt;CaslModule </title>
<path fill="none" stroke="black" stroke-dasharray="5,2" d="M1526.83,-337C1734.58,-337 2610,-337 2610,-337 2610,-337 2610,-284.38 2610,-284.38"/>
<polygon fill="black" stroke="black" points="2613.5,-284.38 2610,-274.38 2606.5,-284.38 2613.5,-284.38"/>
</g>
<!-- JwtGuard  -->
<g id="node15" class="node">
<title>JwtGuard </title>
<polygon fill="#fb8072" stroke="black" points="2547.92,-274 2474.08,-274 2474.08,-238 2547.92,-238 2547.92,-274"/>
<text text-anchor="middle" x="2511" y="-251.8" font-family="Times,serif" font-size="14.00">JwtGuard </text>
</g>
<!-- AuthModule&#45;&gt;JwtGuard  -->
<g id="edge17" class="edge">
<title>AuthModule&#45;&gt;JwtGuard </title>
<path fill="none" stroke="black" stroke-dasharray="5,2" d="M1526.84,-332C1723.06,-332 2511,-332 2511,-332 2511,-332 2511,-284.01 2511,-284.01"/>
<polygon fill="black" stroke="black" points="2514.5,-284.01 2511,-274.01 2507.5,-284.01 2514.5,-284.01"/>
</g>
<!-- AuxiliaryModule -->
<g id="node6" class="node">
<title>AuxiliaryModule</title>
<polygon fill="#8dd3c7" stroke="black" points="1096.7,-274 1093.7,-278 1072.7,-278 1069.7,-274 983.3,-274 983.3,-238 1096.7,-238 1096.7,-274"/>
<text text-anchor="middle" x="1040" y="-251.8" font-family="Times,serif" font-size="14.00">AuxiliaryModule</text>
</g>
<!-- AuxiliaryModule&#45;&gt;AppModule -->
<g id="edge6" class="edge">
<title>AuxiliaryModule&#45;&gt;AppModule</title>
<path fill="none" stroke="black" d="M1040,-274.09C1040,-313.99 1040,-406 1040,-406 1040,-406 1368.25,-406 1368.25,-406"/>
<polygon fill="black" stroke="black" points="1368.25,-409.5 1378.25,-406 1368.25,-402.5 1368.25,-409.5"/>
</g>
<!-- ProfessorService  -->
<g id="node19" class="node">
<title>ProfessorService </title>
<polygon fill="#fb8072" stroke="black" points="593.35,-198 478.65,-198 478.65,-162 593.35,-162 593.35,-198"/>
<text text-anchor="middle" x="536" y="-175.8" font-family="Times,serif" font-size="14.00">ProfessorService </text>
</g>
<!-- AuxiliaryModule&#45;&gt;ProfessorService  -->
<g id="edge21" class="edge">
<title>AuxiliaryModule&#45;&gt;ProfessorService </title>
<path fill="none" stroke="black" stroke-dasharray="5,2" d="M983.16,-246C851.36,-246 536,-246 536,-246 536,-246 536,-208.03 536,-208.03"/>
<polygon fill="black" stroke="black" points="539.5,-208.03 536,-198.03 532.5,-208.03 539.5,-208.03"/>
</g>
<!-- StudentService  -->
<g id="node20" class="node">
<title>StudentService </title>
<polygon fill="#fb8072" stroke="black" points="461.26,-198 356.74,-198 356.74,-162 461.26,-162 461.26,-198"/>
<text text-anchor="middle" x="409" y="-175.8" font-family="Times,serif" font-size="14.00">StudentService </text>
</g>
<!-- AuxiliaryModule&#45;&gt;StudentService  -->
<g id="edge22" class="edge">
<title>AuxiliaryModule&#45;&gt;StudentService </title>
<path fill="none" stroke="black" stroke-dasharray="5,2" d="M983.17,-253C828.07,-253 409,-253 409,-253 409,-253 409,-208.04 409,-208.04"/>
<polygon fill="black" stroke="black" points="412.5,-208.04 409,-198.04 405.5,-208.04 412.5,-208.04"/>
</g>
<!-- CoreModule -->
<g id="node7" class="node">
<title>CoreModule</title>
<polygon fill="#8dd3c7" stroke="black" points="1201.26,-274 1198.26,-278 1177.26,-278 1174.26,-274 1114.74,-274 1114.74,-238 1201.26,-238 1201.26,-274"/>
<text text-anchor="middle" x="1158" y="-251.8" font-family="Times,serif" font-size="14.00">CoreModule</text>
</g>
<!-- CoreModule&#45;&gt;AppModule -->
<g id="edge7" class="edge">
<title>CoreModule&#45;&gt;AppModule</title>
<path fill="none" stroke="black" d="M1158,-274.14C1158,-312.23 1158,-397 1158,-397 1158,-397 1368.2,-397 1368.2,-397"/>
<polygon fill="black" stroke="black" points="1368.2,-400.5 1378.2,-397 1368.2,-393.5 1368.2,-400.5"/>
</g>
<!-- PayloadInterceptor  -->
<g id="node25" class="node">
<title>PayloadInterceptor </title>
<polygon fill="#fb8072" stroke="black" points="953.01,-198 826.99,-198 826.99,-162 953.01,-162 953.01,-198"/>
<text text-anchor="middle" x="890" y="-175.8" font-family="Times,serif" font-size="14.00">PayloadInterceptor </text>
</g>
<!-- CoreModule&#45;&gt;PayloadInterceptor  -->
<g id="edge27" class="edge">
<title>CoreModule&#45;&gt;PayloadInterceptor </title>
<path fill="none" stroke="black" stroke-dasharray="5,2" d="M1122.8,-237.94C1122.8,-233.51 1122.8,-230 1122.8,-230 1122.8,-230 947.89,-230 947.89,-230 947.89,-230 947.89,-208.05 947.89,-208.05"/>
<polygon fill="black" stroke="black" points="951.39,-208.05 947.89,-198.05 944.39,-208.05 951.39,-208.05"/>
</g>
<!-- InfraModule -->
<g id="node8" class="node">
<title>InfraModule</title>
<polygon fill="#8dd3c7" stroke="black" points="1423.25,-274 1420.25,-278 1399.25,-278 1396.25,-274 1336.75,-274 1336.75,-238 1423.25,-238 1423.25,-274"/>
<text text-anchor="middle" x="1380" y="-251.8" font-family="Times,serif" font-size="14.00">InfraModule</text>
</g>
<!-- InfraModule&#45;&gt;AppModule -->
<g id="edge9" class="edge">
<title>InfraModule&#45;&gt;AppModule</title>
<path fill="none" stroke="black" d="M1400.77,-274.14C1400.77,-274.14 1400.77,-368.93 1400.77,-368.93"/>
<polygon fill="black" stroke="black" points="1397.27,-368.92 1400.77,-378.93 1404.27,-368.93 1397.27,-368.92"/>
</g>
<!-- UploaderService  -->
<g id="node42" class="node">
<title>UploaderService </title>
<polygon fill="#fb8072" stroke="black" points="942.57,-350 829.43,-350 829.43,-314 942.57,-314 942.57,-350"/>
<text text-anchor="middle" x="886" y="-327.8" font-family="Times,serif" font-size="14.00">UploaderService </text>
</g>
<!-- InfraModule&#45;&gt;UploaderService  -->
<g id="edge43" class="edge">
<title>InfraModule&#45;&gt;UploaderService </title>
<path fill="none" stroke="black" stroke-dasharray="5,2" d="M1357.4,-274.01C1357.4,-296.49 1357.4,-332 1357.4,-332 1357.4,-332 952.86,-332 952.86,-332"/>
<polygon fill="black" stroke="black" points="952.86,-328.5 942.86,-332 952.86,-335.5 952.86,-328.5"/>
</g>
<!-- LoggerModule -->
<g id="node9" class="node">
<title>LoggerModule</title>
<polygon fill="#8dd3c7" stroke="black" points="1318.98,-274 1315.98,-278 1294.98,-278 1291.98,-274 1219.02,-274 1219.02,-238 1318.98,-238 1318.98,-274"/>
<text text-anchor="middle" x="1269" y="-251.8" font-family="Times,serif" font-size="14.00">LoggerModule</text>
</g>
<!-- LoggerModule&#45;&gt;AppModule -->
<g id="edge10" class="edge">
<title>LoggerModule&#45;&gt;AppModule</title>
<path fill="none" stroke="black" d="M1269,-274.08C1269,-310.23 1269,-388 1269,-388 1269,-388 1368.34,-388 1368.34,-388"/>
<polygon fill="black" stroke="black" points="1368.34,-391.5 1378.34,-388 1368.34,-384.5 1368.34,-391.5"/>
</g>
<!-- CustomLogger  -->
<g id="node43" class="node">
<title>CustomLogger </title>
<polygon fill="#fb8072" stroke="black" points="1258.99,-198 1155.01,-198 1155.01,-162 1258.99,-162 1258.99,-198"/>
<text text-anchor="middle" x="1207" y="-175.8" font-family="Times,serif" font-size="14.00">CustomLogger </text>
</g>
<!-- LoggerModule&#45;&gt;CustomLogger  -->
<g id="edge44" class="edge">
<title>LoggerModule&#45;&gt;CustomLogger </title>
<path fill="none" stroke="black" stroke-dasharray="5,2" d="M1245.5,-237.99C1245.5,-237.99 1245.5,-208.15 1245.5,-208.15"/>
<polygon fill="black" stroke="black" points="1249,-208.15 1245.5,-198.15 1242,-208.15 1249,-208.15"/>
</g>
<!-- UserModule -->
<g id="node10" class="node">
<title>UserModule</title>
<polygon fill="#8dd3c7" stroke="black" points="1526.98,-274 1523.98,-278 1502.98,-278 1499.98,-274 1441.02,-274 1441.02,-238 1526.98,-238 1526.98,-274"/>
<text text-anchor="middle" x="1484" y="-251.8" font-family="Times,serif" font-size="14.00">UserModule</text>
</g>
<!-- UserModule&#45;&gt;AuthModule -->
<g id="edge14" class="edge">
<title>UserModule&#45;&gt;AuthModule</title>
<path fill="none" stroke="black" d="M1483.89,-274.01C1483.89,-274.01 1483.89,-303.85 1483.89,-303.85"/>
<polygon fill="black" stroke="black" points="1480.39,-303.85 1483.89,-313.85 1487.39,-303.85 1480.39,-303.85"/>
</g>
<!-- UserModule&#45;&gt;AppModule -->
<g id="edge12" class="edge">
<title>UserModule&#45;&gt;AppModule</title>
<path fill="none" stroke="black" d="M1440.89,-262C1433.74,-262 1428.6,-262 1428.6,-262 1428.6,-262 1428.6,-368.79 1428.6,-368.79"/>
<polygon fill="black" stroke="black" points="1425.1,-368.79 1428.6,-378.79 1432.1,-368.79 1425.1,-368.79"/>
</g>
<!-- UserService  -->
<g id="node48" class="node">
<title>UserService </title>
<polygon fill="#fb8072" stroke="black" points="1526.9,-198 1439.1,-198 1439.1,-162 1526.9,-162 1526.9,-198"/>
<text text-anchor="middle" x="1483" y="-175.8" font-family="Times,serif" font-size="14.00">UserService </text>
</g>
<!-- UserModule&#45;&gt;UserService  -->
<g id="edge50" class="edge">
<title>UserModule&#45;&gt;UserService </title>
<path fill="none" stroke="black" stroke-dasharray="5,2" d="M1483.98,-237.99C1483.98,-237.99 1483.98,-208.15 1483.98,-208.15"/>
<polygon fill="black" stroke="black" points="1487.48,-208.15 1483.98,-198.15 1480.48,-208.15 1487.48,-208.15"/>
</g>
<!-- CaslModule -->
<g id="node12" class="node">
<title>CaslModule</title>
<polygon fill="#8dd3c7" stroke="black" points="2870.44,-274 2867.44,-278 2846.44,-278 2843.44,-274 2785.56,-274 2785.56,-238 2870.44,-238 2870.44,-274"/>
<text text-anchor="middle" x="2828" y="-251.8" font-family="Times,serif" font-size="14.00">CaslModule</text>
</g>
<!-- CaslModule&#45;&gt;AuthModule -->
<g id="edge13" class="edge">
<title>CaslModule&#45;&gt;AuthModule</title>
<path fill="none" stroke="black" d="M2828,-274.21C2828,-300.51 2828,-346 2828,-346 2828,-346 1536.61,-346 1536.61,-346"/>
<polygon fill="black" stroke="black" points="1536.61,-342.5 1526.61,-346 1536.61,-349.5 1536.61,-342.5"/>
</g>
<!-- CaslAbilityFactory  -->
<g id="node23" class="node">
<title>CaslAbilityFactory </title>
<polygon fill="#fb8072" stroke="black" points="2405.32,-198 2278.68,-198 2278.68,-162 2405.32,-162 2405.32,-198"/>
<text text-anchor="middle" x="2342" y="-175.8" font-family="Times,serif" font-size="14.00">CaslAbilityFactory </text>
</g>
<!-- CaslModule&#45;&gt;CaslAbilityFactory  -->
<g id="edge25" class="edge">
<title>CaslModule&#45;&gt;CaslAbilityFactory </title>
<path fill="none" stroke="black" stroke-dasharray="5,2" d="M2798.66,-237.85C2798.66,-225.73 2798.66,-212 2798.66,-212 2798.66,-212 2368.55,-212 2368.55,-212 2368.55,-212 2368.55,-208.24 2368.55,-208.24"/>
<polygon fill="black" stroke="black" points="2372.05,-208.24 2368.55,-198.24 2365.05,-208.24 2372.05,-208.24"/>
</g>
<!-- AuthService -->
<g id="node16" class="node">
<title>AuthService</title>
<ellipse fill="#fdb462" stroke="black" cx="2391" cy="-256" rx="59.11" ry="18"/>
<text text-anchor="middle" x="2391" y="-251.8" font-family="Times,serif" font-size="14.00">AuthService</text>
</g>
<!-- AuthService&#45;&gt;AuthModule -->
<g id="edge18" class="edge">
<title>AuthService&#45;&gt;AuthModule</title>
<path fill="none" stroke="black" d="M2391,-274.17C2391,-295.5 2391,-328 2391,-328 2391,-328 1536.79,-328 1536.79,-328"/>
<polygon fill="black" stroke="black" points="1536.79,-324.5 1526.79,-328 1536.79,-331.5 1536.79,-324.5"/>
</g>
<!-- JwtGuard -->
<g id="node17" class="node">
<title>JwtGuard</title>
<ellipse fill="#fdb462" stroke="black" cx="2265" cy="-256" rx="48.65" ry="18"/>
<text text-anchor="middle" x="2265" y="-251.8" font-family="Times,serif" font-size="14.00">JwtGuard</text>
</g>
<!-- JwtGuard&#45;&gt;AuthModule -->
<g id="edge19" class="edge">
<title>JwtGuard&#45;&gt;AuthModule</title>
<path fill="none" stroke="black" d="M2265,-274.31C2265,-294.15 2265,-323 2265,-323 2265,-323 1536.72,-323 1536.72,-323"/>
<polygon fill="black" stroke="black" points="1536.72,-319.5 1526.72,-323 1536.72,-326.5 1536.72,-319.5"/>
</g>
<!-- JwtStrategy -->
<g id="node18" class="node">
<title>JwtStrategy</title>
<ellipse fill="#fdb462" stroke="black" cx="2142" cy="-256" rx="56.76" ry="18"/>
<text text-anchor="middle" x="2142" y="-251.8" font-family="Times,serif" font-size="14.00">JwtStrategy</text>
</g>
<!-- JwtStrategy&#45;&gt;AuthModule -->
<g id="edge20" class="edge">
<title>JwtStrategy&#45;&gt;AuthModule</title>
<path fill="none" stroke="black" d="M2142,-274.22C2142,-292.83 2142,-319 2142,-319 2142,-319 1536.75,-319 1536.75,-319"/>
<polygon fill="black" stroke="black" points="1536.75,-315.5 1526.75,-319 1536.75,-322.5 1536.75,-315.5"/>
</g>
<!-- ProfessorService -->
<g id="node21" class="node">
<title>ProfessorService</title>
<ellipse fill="#fdb462" stroke="black" cx="257" cy="-180" rx="76.42" ry="18"/>
<text text-anchor="middle" x="257" y="-175.8" font-family="Times,serif" font-size="14.00">ProfessorService</text>
</g>
<!-- ProfessorService&#45;&gt;AuxiliaryModule -->
<g id="edge23" class="edge">
<title>ProfessorService&#45;&gt;AuxiliaryModule</title>
<path fill="none" stroke="black" d="M257,-198.15C257,-221.76 257,-260 257,-260 257,-260 973.37,-260 973.37,-260"/>
<polygon fill="black" stroke="black" points="973.37,-263.5 983.37,-260 973.37,-256.5 973.37,-263.5"/>
</g>
<!-- StudentService -->
<g id="node22" class="node">
<title>StudentService</title>
<ellipse fill="#fdb462" stroke="black" cx="93" cy="-180" rx="69.5" ry="18"/>
<text text-anchor="middle" x="93" y="-175.8" font-family="Times,serif" font-size="14.00">StudentService</text>
</g>
<!-- StudentService&#45;&gt;AuxiliaryModule -->
<g id="edge24" class="edge">
<title>StudentService&#45;&gt;AuxiliaryModule</title>
<path fill="none" stroke="black" d="M93,-198.03C93,-223.51 93,-267 93,-267 93,-267 973.25,-267 973.25,-267"/>
<polygon fill="black" stroke="black" points="973.25,-270.5 983.25,-267 973.25,-263.5 973.25,-270.5"/>
</g>
<!-- CaslAbilityFactory -->
<g id="node24" class="node">
<title>CaslAbilityFactory</title>
<ellipse fill="#fdb462" stroke="black" cx="2170" cy="-180" rx="85.13" ry="18"/>
<text text-anchor="middle" x="2170" y="-175.8" font-family="Times,serif" font-size="14.00">CaslAbilityFactory</text>
</g>
<!-- CaslAbilityFactory&#45;&gt;CaslModule -->
<g id="edge26" class="edge">
<title>CaslAbilityFactory&#45;&gt;CaslModule</title>
<path fill="none" stroke="black" d="M2235.74,-191.79C2235.74,-202.29 2235.74,-216 2235.74,-216 2235.74,-216 2792.22,-216 2792.22,-216 2792.22,-216 2792.22,-227.87 2792.22,-227.87"/>
<polygon fill="black" stroke="black" points="2788.72,-227.87 2792.22,-237.87 2795.72,-227.87 2788.72,-227.87"/>
</g>
<!-- PayloadInterceptor -->
<g id="node26" class="node">
<title>PayloadInterceptor</title>
<ellipse fill="#fdb462" stroke="black" cx="718" cy="-180" rx="84.51" ry="18"/>
<text text-anchor="middle" x="718" y="-175.8" font-family="Times,serif" font-size="14.00">PayloadInterceptor</text>
</g>
<!-- PayloadInterceptor&#45;&gt;CoreModule -->
<g id="edge28" class="edge">
<title>PayloadInterceptor&#45;&gt;CoreModule</title>
<path fill="none" stroke="black" d="M718,-198.28C718,-213.95 718,-234 718,-234 718,-234 1118.71,-234 1118.71,-234 1118.71,-234 1118.71,-234.38 1118.71,-234.38"/>
<polygon fill="black" stroke="black" points="1115.21,-227.83 1118.71,-237.83 1122.21,-227.83 1115.21,-227.83"/>
</g>
<!-- ExamAgreementService -->
<g id="node29" class="node">
<title>ExamAgreementService</title>
<ellipse fill="#fdb462" stroke="black" cx="3438" cy="-104" rx="105.34" ry="18"/>
<text text-anchor="middle" x="3438" y="-99.8" font-family="Times,serif" font-size="14.00">ExamAgreementService</text>
</g>
<!-- ExamAgreementService&#45;&gt;ExamModule -->
<g id="edge31" class="edge">
<title>ExamAgreementService&#45;&gt;ExamModule</title>
<path fill="none" stroke="black" d="M3438,-122.31C3438,-142.15 3438,-171 3438,-171 3438,-171 3308.46,-171 3308.46,-171"/>
<polygon fill="black" stroke="black" points="3308.46,-167.5 3298.46,-171 3308.46,-174.5 3308.46,-167.5"/>
</g>
<!-- ExamService -->
<g id="node30" class="node">
<title>ExamService</title>
<ellipse fill="#fdb462" stroke="black" cx="3252" cy="-104" rx="62.54" ry="18"/>
<text text-anchor="middle" x="3252" y="-99.8" font-family="Times,serif" font-size="14.00">ExamService</text>
</g>
<!-- ExamService&#45;&gt;ExamModule -->
<g id="edge32" class="edge">
<title>ExamService&#45;&gt;ExamModule</title>
<path fill="none" stroke="black" d="M3275.05,-120.87C3275.05,-120.87 3275.05,-151.85 3275.05,-151.85"/>
<polygon fill="black" stroke="black" points="3271.55,-151.85 3275.05,-161.85 3278.55,-151.85 3271.55,-151.85"/>
</g>
<!-- ExamTargetNodeFactory -->
<g id="node31" class="node">
<title>ExamTargetNodeFactory</title>
<ellipse fill="#fdb462" stroke="black" cx="3062" cy="-104" rx="109.35" ry="18"/>
<text text-anchor="middle" x="3062" y="-99.8" font-family="Times,serif" font-size="14.00">ExamTargetNodeFactory</text>
</g>
<!-- ExamTargetNodeFactory&#45;&gt;ExamModule -->
<g id="edge33" class="edge">
<title>ExamTargetNodeFactory&#45;&gt;ExamModule</title>
<path fill="none" stroke="black" d="M3167.35,-108.75C3167.35,-123.88 3167.35,-170 3167.35,-170 3167.35,-170 3195.71,-170 3195.71,-170"/>
<polygon fill="black" stroke="black" points="3195.71,-173.5 3205.71,-170 3195.71,-166.5 3195.71,-173.5"/>
</g>
<!-- ExamTargetService -->
<g id="node32" class="node">
<title>ExamTargetService</title>
<ellipse fill="#fdb462" stroke="black" cx="2847" cy="-104" rx="87.94" ry="18"/>
<text text-anchor="middle" x="2847" y="-99.8" font-family="Times,serif" font-size="14.00">ExamTargetService</text>
</g>
<!-- ExamTargetService&#45;&gt;ExamModule -->
<g id="edge34" class="edge">
<title>ExamTargetService&#45;&gt;ExamModule</title>
<path fill="none" stroke="black" d="M2885.35,-120.37C2885.35,-128.25 2885.35,-136 2885.35,-136 2885.35,-136 3252,-136 3252,-136 3252,-136 3252,-151.85 3252,-151.85"/>
<polygon fill="black" stroke="black" points="3248.5,-151.85 3252,-161.85 3255.5,-151.85 3248.5,-151.85"/>
</g>
<!-- ExamTargetTree -->
<g id="node33" class="node">
<title>ExamTargetTree</title>
<ellipse fill="#fdb462" stroke="black" cx="2665" cy="-104" rx="76.4" ry="18"/>
<text text-anchor="middle" x="2665" y="-99.8" font-family="Times,serif" font-size="14.00">ExamTargetTree</text>
</g>
<!-- ExamTargetTree&#45;&gt;ExamModule -->
<g id="edge35" class="edge">
<title>ExamTargetTree&#45;&gt;ExamModule</title>
<path fill="none" stroke="black" d="M2676.96,-121.79C2676.96,-134.36 2676.96,-149 2676.96,-149 2676.96,-149 3228.95,-149 3228.95,-149 3228.95,-149 3228.95,-151.97 3228.95,-151.97"/>
<polygon fill="black" stroke="black" points="3225.45,-151.97 3228.95,-161.97 3232.45,-151.97 3225.45,-151.97"/>
</g>
<!-- FirebaseAdmin  -->
<g id="node34" class="node">
<title>FirebaseAdmin </title>
<polygon fill="#fb8072" stroke="black" points="3998.81,-274 3893.19,-274 3893.19,-238 3998.81,-238 3998.81,-274"/>
<text text-anchor="middle" x="3946" y="-251.8" font-family="Times,serif" font-size="14.00">FirebaseAdmin </text>
</g>
<!-- FirebaseAdminModule -->
<g id="node35" class="node">
<title>FirebaseAdminModule</title>
<polygon fill="#8dd3c7" stroke="black" points="4018.86,-198 4015.86,-202 3994.86,-202 3991.86,-198 3873.14,-198 3873.14,-162 4018.86,-162 4018.86,-198"/>
<text text-anchor="middle" x="3946" y="-175.8" font-family="Times,serif" font-size="14.00">FirebaseAdminModule</text>
</g>
<!-- FirebaseAdminModule&#45;&gt;FirebaseAdmin  -->
<g id="edge36" class="edge">
<title>FirebaseAdminModule&#45;&gt;FirebaseAdmin </title>
<path fill="none" stroke="black" stroke-dasharray="5,2" d="M3946,-198.01C3946,-198.01 3946,-227.85 3946,-227.85"/>
<polygon fill="black" stroke="black" points="3942.5,-227.85 3946,-237.85 3949.5,-227.85 3942.5,-227.85"/>
</g>
<!-- FirebaseAdmin -->
<g id="node36" class="node">
<title>FirebaseAdmin</title>
<ellipse fill="#fdb462" stroke="black" cx="3946" cy="-104" rx="70.64" ry="18"/>
<text text-anchor="middle" x="3946" y="-99.8" font-family="Times,serif" font-size="14.00">FirebaseAdmin</text>
</g>
<!-- FirebaseAdmin&#45;&gt;FirebaseAdminModule -->
<g id="edge37" class="edge">
<title>FirebaseAdmin&#45;&gt;FirebaseAdminModule</title>
<path fill="none" stroke="black" d="M3946,-122.01C3946,-122.01 3946,-151.85 3946,-151.85"/>
<polygon fill="black" stroke="black" points="3942.5,-151.85 3946,-161.85 3949.5,-151.85 3942.5,-151.85"/>
</g>
<!-- FirebaseAuthService  -->
<g id="node37" class="node">
<title>FirebaseAuthService </title>
<polygon fill="#fb8072" stroke="black" points="1738.4,-274 1601.6,-274 1601.6,-238 1738.4,-238 1738.4,-274"/>
<text text-anchor="middle" x="1670" y="-251.8" font-family="Times,serif" font-size="14.00">FirebaseAuthService </text>
</g>
<!-- FirebaseCloudMessagingService  -->
<g id="node38" class="node">
<title>FirebaseCloudMessagingService </title>
<polygon fill="#fb8072" stroke="black" points="1959.78,-274 1756.22,-274 1756.22,-238 1959.78,-238 1959.78,-274"/>
<text text-anchor="middle" x="1858" y="-251.8" font-family="Times,serif" font-size="14.00">FirebaseCloudMessagingService </text>
</g>
<!-- FirebaseModule -->
<g id="node39" class="node">
<title>FirebaseModule</title>
<polygon fill="#8dd3c7" stroke="black" points="1758.47,-198 1755.47,-202 1734.47,-202 1731.47,-198 1651.53,-198 1651.53,-162 1758.47,-162 1758.47,-198"/>
<text text-anchor="middle" x="1705" y="-175.8" font-family="Times,serif" font-size="14.00">FirebaseModule</text>
</g>
<!-- FirebaseModule&#45;&gt;InfraModule -->
<g id="edge42" class="edge">
<title>FirebaseModule&#45;&gt;InfraModule</title>
<path fill="none" stroke="black" d="M1680.49,-198.1C1680.49,-209.09 1680.49,-221 1680.49,-221 1680.49,-221 1419.3,-221 1419.3,-221 1419.3,-221 1419.3,-227.68 1419.3,-227.68"/>
<polygon fill="black" stroke="black" points="1415.8,-227.68 1419.3,-237.68 1422.8,-227.68 1415.8,-227.68"/>
</g>
<!-- FirebaseModule&#45;&gt;FirebaseAuthService  -->
<g id="edge38" class="edge">
<title>FirebaseModule&#45;&gt;FirebaseAuthService </title>
<path fill="none" stroke="black" stroke-dasharray="5,2" d="M1709.47,-198.01C1709.47,-198.01 1709.47,-227.85 1709.47,-227.85"/>
<polygon fill="black" stroke="black" points="1705.97,-227.85 1709.47,-237.85 1712.97,-227.85 1705.97,-227.85"/>
</g>
<!-- FirebaseModule&#45;&gt;FirebaseCloudMessagingService  -->
<g id="edge39" class="edge">
<title>FirebaseModule&#45;&gt;FirebaseCloudMessagingService </title>
<path fill="none" stroke="black" stroke-dasharray="5,2" d="M1747.28,-198.01C1747.28,-220.49 1747.28,-256 1747.28,-256 1747.28,-256 1748.15,-256 1748.15,-256"/>
<polygon fill="black" stroke="black" points="1745.97,-259.5 1755.97,-256 1745.97,-252.5 1745.97,-259.5"/>
</g>
<!-- FirebaseAuthService -->
<g id="node40" class="node">
<title>FirebaseAuthService</title>
<ellipse fill="#fdb462" stroke="black" cx="1953" cy="-104" rx="92.03" ry="18"/>
<text text-anchor="middle" x="1953" y="-99.8" font-family="Times,serif" font-size="14.00">FirebaseAuthService</text>
</g>
<!-- FirebaseAuthService&#45;&gt;FirebaseModule -->
<g id="edge40" class="edge">
<title>FirebaseAuthService&#45;&gt;FirebaseModule</title>
<path fill="none" stroke="black" d="M1910.44,-120.12C1910.44,-142.43 1910.44,-180 1910.44,-180 1910.44,-180 1768.71,-180 1768.71,-180"/>
<polygon fill="black" stroke="black" points="1768.71,-176.5 1758.71,-180 1768.71,-183.5 1768.71,-176.5"/>
</g>
<!-- FirebaseCloudMessagingService -->
<g id="node41" class="node">
<title>FirebaseCloudMessagingService</title>
<ellipse fill="#fdb462" stroke="black" cx="1705" cy="-104" rx="138.3" ry="18"/>
<text text-anchor="middle" x="1705" y="-99.8" font-family="Times,serif" font-size="14.00">FirebaseCloudMessagingService</text>
</g>
<!-- FirebaseCloudMessagingService&#45;&gt;FirebaseModule -->
<g id="edge41" class="edge">
<title>FirebaseCloudMessagingService&#45;&gt;FirebaseModule</title>
<path fill="none" stroke="black" d="M1705,-122.01C1705,-122.01 1705,-151.85 1705,-151.85"/>
<polygon fill="black" stroke="black" points="1701.5,-151.85 1705,-161.85 1708.5,-151.85 1701.5,-151.85"/>
</g>
<!-- CustomLogger -->
<g id="node44" class="node">
<title>CustomLogger</title>
<ellipse fill="#fdb462" stroke="black" cx="1062" cy="-180" rx="68.94" ry="18"/>
<text text-anchor="middle" x="1062" y="-175.8" font-family="Times,serif" font-size="14.00">CustomLogger</text>
</g>
<!-- CustomLogger&#45;&gt;LoggerModule -->
<g id="edge45" class="edge">
<title>CustomLogger&#45;&gt;LoggerModule</title>
<path fill="none" stroke="black" d="M1126.88,-186.26C1126.88,-198.62 1126.88,-225 1126.88,-225 1126.88,-225 1232.26,-225 1232.26,-225 1232.26,-225 1232.26,-227.97 1232.26,-227.97"/>
<polygon fill="black" stroke="black" points="1228.76,-227.97 1232.26,-237.97 1235.76,-227.97 1228.76,-227.97"/>
</g>
<!-- QuestionGroupService -->
<g id="node46" class="node">
<title>QuestionGroupService</title>
<ellipse fill="#fdb462" stroke="black" cx="2712" cy="-180" rx="99.56" ry="18"/>
<text text-anchor="middle" x="2712" y="-175.8" font-family="Times,serif" font-size="14.00">QuestionGroupService</text>
</g>
<!-- QuestionGroupService&#45;&gt;QuestionGroupModule -->
<g id="edge48" class="edge">
<title>QuestionGroupService&#45;&gt;QuestionGroupModule</title>
<path fill="none" stroke="black" d="M2805.09,-186.78C2805.09,-193.56 2805.09,-203 2805.09,-203 2805.09,-203 3159.71,-203 3159.71,-203 3159.71,-203 3159.71,-227.76 3159.71,-227.76"/>
<polygon fill="black" stroke="black" points="3156.21,-227.76 3159.71,-237.76 3163.21,-227.76 3156.21,-227.76"/>
</g>
<!-- QuestionService -->
<g id="node47" class="node">
<title>QuestionService</title>
<ellipse fill="#fdb462" stroke="black" cx="2520" cy="-180" rx="74.72" ry="18"/>
<text text-anchor="middle" x="2520" y="-175.8" font-family="Times,serif" font-size="14.00">QuestionService</text>
</g>
<!-- QuestionService&#45;&gt;QuestionGroupModule -->
<g id="edge49" class="edge">
<title>QuestionService&#45;&gt;QuestionGroupModule</title>
<path fill="none" stroke="black" d="M2580.45,-190.67C2580.45,-198.22 2580.45,-207 2580.45,-207 2580.45,-207 3155.89,-207 3155.89,-207 3155.89,-207 3155.89,-227.75 3155.89,-227.75"/>
<polygon fill="black" stroke="black" points="3152.39,-227.75 3155.89,-237.75 3159.39,-227.75 3152.39,-227.75"/>
</g>
<!-- UserService -->
<g id="node49" class="node">
<title>UserService</title>
<ellipse fill="#fdb462" stroke="black" cx="1357" cy="-180" rx="58.44" ry="18"/>
<text text-anchor="middle" x="1357" y="-175.8" font-family="Times,serif" font-size="14.00">UserService</text>
</g>
<!-- UserService&#45;&gt;UserModule -->
<g id="edge51" class="edge">
<title>UserService&#45;&gt;UserModule</title>
<path fill="none" stroke="black" d="M1415.23,-180C1425.94,-180 1433.82,-180 1433.82,-180 1433.82,-180 1433.82,-250 1433.82,-250 1433.82,-250 1434.52,-250 1434.52,-250"/>
<polygon fill="black" stroke="black" points="1430.8,-253.5 1440.8,-250 1430.8,-246.5 1430.8,-253.5"/>
</g>
</g>
</svg>
