<?xml version="1.0" encoding="UTF-8" standalone="no"?>
<!DOCTYPE svg PUBLIC "-//W3C//DTD SVG 1.1//EN"
 "http://www.w3.org/Graphics/SVG/1.1/DTD/svg11.dtd">
<!-- Generated by graphviz version 2.47.0 (20210316.0004)
 -->
<!-- Title: dependencies Pages: 1 -->
<svg width="4014pt" height="431pt"
 viewBox="0.00 0.00 4014.00 431.00" xmlns="http://www.w3.org/2000/svg" xmlns:xlink="http://www.w3.org/1999/xlink">
<g id="graph0" class="graph" transform="scale(1 1) rotate(0) translate(4 427)">
<title>dependencies</title>
<polygon fill="white" stroke="transparent" points="-4,4 -4,-427 4010,-427 4010,4 -4,4"/>
<text text-anchor="start" x="1982.01" y="-42.4" font-family="sans-serif" font-weight="bold" font-size="14.00">Legend</text>
<polygon fill="#ffffb3" stroke="transparent" points="1769,-10 1769,-30 1789,-30 1789,-10 1769,-10"/>
<text text-anchor="start" x="1792.63" y="-15.4" font-family="sans-serif" font-size="14.00"> &#160;Declarations</text>
<polygon fill="#8dd3c7" stroke="transparent" points="1882,-10 1882,-30 1902,-30 1902,-10 1882,-10"/>
<text text-anchor="start" x="1905.73" y="-15.4" font-family="sans-serif" font-size="14.00"> &#160;Module</text>
<polygon fill="#80b1d3" stroke="transparent" points="1968,-10 1968,-30 1988,-30 1988,-10 1968,-10"/>
<text text-anchor="start" x="1991.78" y="-15.4" font-family="sans-serif" font-size="14.00"> &#160;Bootstrap</text>
<polygon fill="#fdb462" stroke="transparent" points="2065,-10 2065,-30 2085,-30 2085,-10 2065,-10"/>
<text text-anchor="start" x="2088.67" y="-15.4" font-family="sans-serif" font-size="14.00"> &#160;Providers</text>
<polygon fill="#fb8072" stroke="transparent" points="2161,-10 2161,-30 2181,-30 2181,-10 2161,-10"/>
<text text-anchor="start" x="2184.73" y="-15.4" font-family="sans-serif" font-size="14.00"> &#160;Exports</text>
<g id="clust1" class="cluster">
<title>cluster_AnswerModule</title>
<polygon fill="none" stroke="black" stroke-dasharray="1,5" points="647,-70 647,-198 819,-198 819,-70 647,-70"/>
</g>
<g id="clust6" class="cluster">
<title>cluster_AnswerModule_providers</title>
<polygon fill="none" stroke="black" points="655,-78 655,-130 811,-130 811,-78 655,-78"/>
</g>
<g id="clust7" class="cluster">
<title>cluster_AppModule</title>
<polygon fill="none" stroke="black" stroke-dasharray="1,5" points="1380,-214 1380,-415 2066,-415 2066,-214 1380,-214"/>
</g>
<g id="clust9" class="cluster">
<title>cluster_AppModule_imports</title>
<polygon fill="none" stroke="black" points="1388,-222 1388,-350 2058,-350 2058,-222 1388,-222"/>
</g>
<g id="clust13" class="cluster">
<title>cluster_AuthModule</title>
<polygon fill="none" stroke="black" stroke-dasharray="1,5" points="2592,-214 2592,-282 3409,-282 3409,-214 2592,-214"/>
</g>
<g id="clust15" class="cluster">
<title>cluster_AuthModule_imports</title>
<polygon fill="none" stroke="black" points="3301,-222 3301,-274 3401,-274 3401,-222 3301,-222"/>
</g>
<g id="clust16" class="cluster">
<title>cluster_AuthModule_exports</title>
<polygon fill="none" stroke="black" points="2989,-222 2989,-274 3293,-274 3293,-222 2989,-222"/>
</g>
<g id="clust18" class="cluster">
<title>cluster_AuthModule_providers</title>
<polygon fill="none" stroke="black" points="2600,-222 2600,-274 2981,-274 2981,-222 2600,-222"/>
</g>
<g id="clust19" class="cluster">
<title>cluster_AuxiliaryModule</title>
<polygon fill="none" stroke="black" stroke-dasharray="1,5" points="1465,-138 1465,-206 2066,-206 2066,-138 1465,-138"/>
</g>
<g id="clust22" class="cluster">
<title>cluster_AuxiliaryModule_exports</title>
<polygon fill="none" stroke="black" points="1806,-146 1806,-198 2058,-198 2058,-146 1806,-146"/>
</g>
<g id="clust24" class="cluster">
<title>cluster_AuxiliaryModule_providers</title>
<polygon fill="none" stroke="black" points="1473,-146 1473,-198 1798,-198 1798,-146 1473,-146"/>
</g>
<g id="clust25" class="cluster">
<title>cluster_CaslModule</title>
<polygon fill="none" stroke="black" stroke-dasharray="1,5" points="3164,-138 3164,-206 3516,-206 3516,-138 3164,-138"/>
</g>
<g id="clust28" class="cluster">
<title>cluster_CaslModule_exports</title>
<polygon fill="none" stroke="black" points="3366,-146 3366,-198 3508,-198 3508,-146 3366,-146"/>
</g>
<g id="clust30" class="cluster">
<title>cluster_CaslModule_providers</title>
<polygon fill="none" stroke="black" points="3172,-146 3172,-198 3358,-198 3358,-146 3172,-146"/>
</g>
<g id="clust31" class="cluster">
<title>cluster_CoreModule</title>
<polygon fill="none" stroke="black" stroke-dasharray="1,5" points="8,-290 8,-358 360,-358 360,-290 8,-290"/>
</g>
<g id="clust34" class="cluster">
<title>cluster_CoreModule_exports</title>
<polygon fill="none" stroke="black" points="210,-298 210,-350 352,-350 352,-298 210,-298"/>
</g>
<g id="clust36" class="cluster">
<title>cluster_CoreModule_providers</title>
<polygon fill="none" stroke="black" points="16,-298 16,-350 202,-350 202,-298 16,-298"/>
</g>
<g id="clust37" class="cluster">
<title>cluster_ExamModule</title>
<polygon fill="none" stroke="black" stroke-dasharray="1,5" points="368,-290 368,-358 644,-358 644,-290 368,-290"/>
</g>
<g id="clust40" class="cluster">
<title>cluster_ExamModule_exports</title>
<polygon fill="none" stroke="black" points="526,-298 526,-350 636,-350 636,-298 526,-298"/>
</g>
<g id="clust42" class="cluster">
<title>cluster_ExamModule_providers</title>
<polygon fill="none" stroke="black" points="376,-298 376,-350 518,-350 518,-298 376,-298"/>
</g>
<g id="clust43" class="cluster">
<title>cluster_FirebaseAdminModule</title>
<polygon fill="none" stroke="black" stroke-dasharray="1,5" points="3824,-70 3824,-282 3998,-282 3998,-70 3824,-70"/>
</g>
<g id="clust46" class="cluster">
<title>cluster_FirebaseAdminModule_exports</title>
<polygon fill="none" stroke="black" points="3850,-222 3850,-274 3972,-274 3972,-222 3850,-222"/>
</g>
<g id="clust48" class="cluster">
<title>cluster_FirebaseAdminModule_providers</title>
<polygon fill="none" stroke="black" points="3832,-78 3832,-130 3990,-130 3990,-78 3832,-78"/>
</g>
<g id="clust49" class="cluster">
<title>cluster_FirebaseModule</title>
<polygon fill="none" stroke="black" stroke-dasharray="1,5" points="2074,-70 2074,-282 2584,-282 2584,-70 2074,-70"/>
</g>
<g id="clust52" class="cluster">
<title>cluster_FirebaseModule_exports</title>
<polygon fill="none" stroke="black" points="2100,-222 2100,-274 2474,-274 2474,-222 2100,-222"/>
</g>
<g id="clust54" class="cluster">
<title>cluster_FirebaseModule_providers</title>
<polygon fill="none" stroke="black" points="2082,-78 2082,-130 2576,-130 2576,-78 2082,-78"/>
</g>
<g id="clust55" class="cluster">
<title>cluster_InfraModule</title>
<polygon fill="none" stroke="black" stroke-dasharray="1,5" points="652,-290 652,-358 798,-358 798,-290 652,-290"/>
</g>
<g id="clust58" class="cluster">
<title>cluster_InfraModule_exports</title>
<polygon fill="none" stroke="black" points="660,-298 660,-350 790,-350 790,-298 660,-298"/>
</g>
<g id="clust61" class="cluster">
<title>cluster_LoggerModule</title>
<polygon fill="none" stroke="black" stroke-dasharray="1,5" points="806,-290 806,-358 1104,-358 1104,-290 806,-290"/>
</g>
<g id="clust64" class="cluster">
<title>cluster_LoggerModule_exports</title>
<polygon fill="none" stroke="black" points="976,-298 976,-350 1096,-350 1096,-298 976,-298"/>
</g>
<g id="clust66" class="cluster">
<title>cluster_LoggerModule_providers</title>
<polygon fill="none" stroke="black" points="814,-298 814,-350 968,-350 968,-298 814,-298"/>
</g>
<g id="clust67" class="cluster">
<title>cluster_QuestionGroupModule</title>
<polygon fill="none" stroke="black" stroke-dasharray="1,5" points="3417,-214 3417,-282 3816,-282 3816,-214 3417,-214"/>
</g>
<g id="clust72" class="cluster">
<title>cluster_QuestionGroupModule_providers</title>
<polygon fill="none" stroke="black" points="3425,-222 3425,-274 3808,-274 3808,-222 3425,-222"/>
</g>
<g id="clust73" class="cluster">
<title>cluster_UserModule</title>
<polygon fill="none" stroke="black" stroke-dasharray="1,5" points="1112,-290 1112,-358 1372,-358 1372,-290 1112,-290"/>
</g>
<g id="clust76" class="cluster">
<title>cluster_UserModule_exports</title>
<polygon fill="none" stroke="black" points="1260,-298 1260,-350 1364,-350 1364,-298 1260,-298"/>
</g>
<g id="clust78" class="cluster">
<title>cluster_UserModule_providers</title>
<polygon fill="none" stroke="black" points="1120,-298 1120,-350 1252,-350 1252,-298 1120,-298"/>
</g>
<!-- AnswerService -->
<g id="node1" class="node">
<title>AnswerService</title>
<ellipse fill="#fdb462" stroke="black" cx="733" cy="-104" rx="70.04" ry="18"/>
<text text-anchor="middle" x="733" y="-99.8" font-family="Times,serif" font-size="14.00">AnswerService</text>
</g>
<!-- AnswerModule -->
<g id="node2" class="node">
<title>AnswerModule</title>
<polygon fill="#8dd3c7" stroke="black" points="784.58,-190 781.58,-194 760.58,-194 757.58,-190 681.42,-190 681.42,-154 784.58,-154 784.58,-190"/>
<text text-anchor="middle" x="733" y="-167.8" font-family="Times,serif" font-size="14.00">AnswerModule</text>
</g>
<!-- AnswerService&#45;&gt;AnswerModule -->
<g id="edge1" class="edge">
<title>AnswerService&#45;&gt;AnswerModule</title>
<path fill="none" stroke="black" d="M733,-122.22C733,-122.22 733,-143.73 733,-143.73"/>
<polygon fill="black" stroke="black" points="729.5,-143.73 733,-153.73 736.5,-143.73 729.5,-143.73"/>
</g>
<!-- AuthModule -->
<g id="node3" class="node">
<title>AuthModule</title>
<polygon fill="#8dd3c7" stroke="black" points="1885.55,-342 1882.55,-346 1861.55,-346 1858.55,-342 1798.45,-342 1798.45,-306 1885.55,-306 1885.55,-342"/>
<text text-anchor="middle" x="1842" y="-319.8" font-family="Times,serif" font-size="14.00">AuthModule</text>
</g>
<!-- AppModule -->
<g id="node11" class="node">
<title>AppModule</title>
<polygon fill="#8dd3c7" stroke="black" points="1790.66,-407 1787.66,-411 1766.66,-411 1763.66,-407 1707.34,-407 1707.34,-371 1790.66,-371 1790.66,-407"/>
<text text-anchor="middle" x="1749" y="-384.8" font-family="Times,serif" font-size="14.00">AppModule</text>
</g>
<!-- AuthModule&#45;&gt;AppModule -->
<g id="edge2" class="edge">
<title>AuthModule&#45;&gt;AppModule</title>
<path fill="none" stroke="black" d="M1798.27,-324C1787.02,-324 1778.03,-324 1778.03,-324 1778.03,-324 1778.03,-360.89 1778.03,-360.89"/>
<polygon fill="black" stroke="black" points="1774.53,-360.89 1778.03,-370.89 1781.53,-360.89 1774.53,-360.89"/>
</g>
<!-- AuthService  -->
<g id="node13" class="node">
<title>AuthService </title>
<polygon fill="#fb8072" stroke="black" points="3284.98,-266 3195.02,-266 3195.02,-230 3284.98,-230 3284.98,-266"/>
<text text-anchor="middle" x="3240" y="-243.8" font-family="Times,serif" font-size="14.00">AuthService </text>
</g>
<!-- AuthModule&#45;&gt;AuthService  -->
<g id="edge12" class="edge">
<title>AuthModule&#45;&gt;AuthService </title>
<path fill="none" stroke="black" stroke-dasharray="5,2" d="M1861.34,-305.83C1861.34,-303.55 1861.34,-302 1861.34,-302 1861.34,-302 3240,-302 3240,-302 3240,-302 3240,-276.28 3240,-276.28"/>
<polygon fill="black" stroke="black" points="3243.5,-276.28 3240,-266.28 3236.5,-276.28 3243.5,-276.28"/>
</g>
<!-- CaslModule  -->
<g id="node14" class="node">
<title>CaslModule </title>
<polygon fill="#fb8072" stroke="black" points="3176.94,-266 3089.06,-266 3089.06,-230 3176.94,-230 3176.94,-266"/>
<text text-anchor="middle" x="3133" y="-243.8" font-family="Times,serif" font-size="14.00">CaslModule </text>
</g>
<!-- AuthModule&#45;&gt;CaslModule  -->
<g id="edge13" class="edge">
<title>AuthModule&#45;&gt;CaslModule </title>
<path fill="none" stroke="black" stroke-dasharray="5,2" d="M1856.45,-305.83C1856.45,-301.95 1856.45,-299 1856.45,-299 1856.45,-299 3133,-299 3133,-299 3133,-299 3133,-276.12 3133,-276.12"/>
<polygon fill="black" stroke="black" points="3136.5,-276.12 3133,-266.12 3129.5,-276.12 3136.5,-276.12"/>
</g>
<!-- JwtGuard  -->
<g id="node15" class="node">
<title>JwtGuard </title>
<polygon fill="#fb8072" stroke="black" points="3070.92,-266 2997.08,-266 2997.08,-230 3070.92,-230 3070.92,-266"/>
<text text-anchor="middle" x="3034" y="-243.8" font-family="Times,serif" font-size="14.00">JwtGuard </text>
</g>
<!-- AuthModule&#45;&gt;JwtGuard  -->
<g id="edge14" class="edge">
<title>AuthModule&#45;&gt;JwtGuard </title>
<path fill="none" stroke="black" stroke-dasharray="5,2" d="M1851.56,-305.84C1851.56,-300.96 1851.56,-297 1851.56,-297 1851.56,-297 3034,-297 3034,-297 3034,-297 3034,-276.25 3034,-276.25"/>
<polygon fill="black" stroke="black" points="3037.5,-276.25 3034,-266.25 3030.5,-276.25 3037.5,-276.25"/>
</g>
<!-- AuxiliaryModule -->
<g id="node4" class="node">
<title>AuxiliaryModule</title>
<polygon fill="#8dd3c7" stroke="black" points="2049.7,-266 2046.7,-270 2025.7,-270 2022.7,-266 1936.3,-266 1936.3,-230 2049.7,-230 2049.7,-266"/>
<text text-anchor="middle" x="1993" y="-243.8" font-family="Times,serif" font-size="14.00">AuxiliaryModule</text>
</g>
<!-- AuxiliaryModule&#45;&gt;AppModule -->
<g id="edge3" class="edge">
<title>AuxiliaryModule&#45;&gt;AppModule</title>
<path fill="none" stroke="black" d="M1993,-266.13C1993,-276.71 1993,-288 1993,-288 1993,-288 1765.22,-288 1765.22,-288 1765.22,-288 1765.22,-360.94 1765.22,-360.94"/>
<polygon fill="black" stroke="black" points="1761.72,-360.94 1765.22,-370.94 1768.72,-360.94 1761.72,-360.94"/>
</g>
<!-- ProfessorService  -->
<g id="node19" class="node">
<title>ProfessorService </title>
<polygon fill="#fb8072" stroke="black" points="1928.35,-190 1813.65,-190 1813.65,-154 1928.35,-154 1928.35,-190"/>
<text text-anchor="middle" x="1871" y="-167.8" font-family="Times,serif" font-size="14.00">ProfessorService </text>
</g>
<!-- AuxiliaryModule&#45;&gt;ProfessorService  -->
<g id="edge18" class="edge">
<title>AuxiliaryModule&#45;&gt;ProfessorService </title>
<path fill="none" stroke="black" stroke-dasharray="5,2" d="M1943.5,-229.99C1943.5,-207.51 1943.5,-172 1943.5,-172 1943.5,-172 1938.48,-172 1938.48,-172"/>
<polygon fill="black" stroke="black" points="1938.48,-168.5 1928.48,-172 1938.48,-175.5 1938.48,-168.5"/>
</g>
<!-- StudentService  -->
<g id="node20" class="node">
<title>StudentService </title>
<polygon fill="#fb8072" stroke="black" points="2050.26,-190 1945.74,-190 1945.74,-154 2050.26,-154 2050.26,-190"/>
<text text-anchor="middle" x="1998" y="-167.8" font-family="Times,serif" font-size="14.00">StudentService </text>
</g>
<!-- AuxiliaryModule&#45;&gt;StudentService  -->
<g id="edge19" class="edge">
<title>AuxiliaryModule&#45;&gt;StudentService </title>
<path fill="none" stroke="black" stroke-dasharray="5,2" d="M1997.74,-229.99C1997.74,-229.99 1997.74,-200.15 1997.74,-200.15"/>
<polygon fill="black" stroke="black" points="2001.24,-200.15 1997.74,-190.15 1994.24,-200.15 2001.24,-200.15"/>
</g>
<!-- CoreModule -->
<g id="node5" class="node">
<title>CoreModule</title>
<polygon fill="#8dd3c7" stroke="black" points="1482.26,-266 1479.26,-270 1458.26,-270 1455.26,-266 1395.74,-266 1395.74,-230 1482.26,-230 1482.26,-266"/>
<text text-anchor="middle" x="1439" y="-243.8" font-family="Times,serif" font-size="14.00">CoreModule</text>
</g>
<!-- CoreModule&#45;&gt;AppModule -->
<g id="edge4" class="edge">
<title>CoreModule&#45;&gt;AppModule</title>
<path fill="none" stroke="black" d="M1439,-266.09C1439,-305.99 1439,-398 1439,-398 1439,-398 1697.19,-398 1697.19,-398"/>
<polygon fill="black" stroke="black" points="1697.19,-401.5 1707.19,-398 1697.19,-394.5 1697.19,-401.5"/>
</g>
<!-- PayloadInterceptor  -->
<g id="node25" class="node">
<title>PayloadInterceptor </title>
<polygon fill="#fb8072" stroke="black" points="344.01,-342 217.99,-342 217.99,-306 344.01,-306 344.01,-342"/>
<text text-anchor="middle" x="281" y="-319.8" font-family="Times,serif" font-size="14.00">PayloadInterceptor </text>
</g>
<!-- CoreModule&#45;&gt;PayloadInterceptor  -->
<g id="edge24" class="edge">
<title>CoreModule&#45;&gt;PayloadInterceptor </title>
<path fill="none" stroke="black" stroke-dasharray="5,2" d="M1395.72,-254C1185.49,-254 281,-254 281,-254 281,-254 281,-295.97 281,-295.97"/>
<polygon fill="black" stroke="black" points="277.5,-295.97 281,-305.97 284.5,-295.97 277.5,-295.97"/>
</g>
<!-- ExamModule -->
<g id="node6" class="node">
<title>ExamModule</title>
<polygon fill="#8dd3c7" stroke="black" points="1592.21,-266 1589.21,-270 1568.21,-270 1565.21,-266 1499.79,-266 1499.79,-230 1592.21,-230 1592.21,-266"/>
<text text-anchor="middle" x="1546" y="-243.8" font-family="Times,serif" font-size="14.00">ExamModule</text>
</g>
<!-- QuestionGroupModule -->
<g id="node9" class="node">
<title>QuestionGroupModule</title>
<polygon fill="#8dd3c7" stroke="black" points="2049.86,-342 2046.86,-346 2025.86,-346 2022.86,-342 1904.14,-342 1904.14,-306 2049.86,-306 2049.86,-342"/>
<text text-anchor="middle" x="1977" y="-319.8" font-family="Times,serif" font-size="14.00">QuestionGroupModule</text>
</g>
<!-- ExamModule&#45;&gt;QuestionGroupModule -->
<g id="edge38" class="edge">
<title>ExamModule&#45;&gt;QuestionGroupModule</title>
<path fill="none" stroke="black" d="M1555.22,-266.07C1555.22,-275.46 1555.22,-285 1555.22,-285 1555.22,-285 1911.03,-285 1911.03,-285 1911.03,-285 1911.03,-295.87 1911.03,-295.87"/>
<polygon fill="black" stroke="black" points="1907.53,-295.87 1911.03,-305.87 1914.53,-295.87 1907.53,-295.87"/>
</g>
<!-- ExamModule&#45;&gt;AppModule -->
<g id="edge5" class="edge">
<title>ExamModule&#45;&gt;AppModule</title>
<path fill="none" stroke="black" d="M1573.66,-266.14C1573.66,-304.23 1573.66,-389 1573.66,-389 1573.66,-389 1697,-389 1697,-389"/>
<polygon fill="black" stroke="black" points="1697,-392.5 1707,-389 1697,-385.5 1697,-392.5"/>
</g>
<!-- ExamService  -->
<g id="node27" class="node">
<title>ExamService </title>
<polygon fill="#fb8072" stroke="black" points="628.14,-342 533.86,-342 533.86,-306 628.14,-306 628.14,-342"/>
<text text-anchor="middle" x="581" y="-319.8" font-family="Times,serif" font-size="14.00">ExamService </text>
</g>
<!-- ExamModule&#45;&gt;ExamService  -->
<g id="edge26" class="edge">
<title>ExamModule&#45;&gt;ExamService </title>
<path fill="none" stroke="black" stroke-dasharray="5,2" d="M1536.78,-266.12C1536.78,-268.97 1536.78,-271 1536.78,-271 1536.78,-271 581,-271 581,-271 581,-271 581,-295.76 581,-295.76"/>
<polygon fill="black" stroke="black" points="577.5,-295.76 581,-305.76 584.5,-295.76 577.5,-295.76"/>
</g>
<!-- InfraModule -->
<g id="node7" class="node">
<title>InfraModule</title>
<polygon fill="#8dd3c7" stroke="black" points="1696.25,-266 1693.25,-270 1672.25,-270 1669.25,-266 1609.75,-266 1609.75,-230 1696.25,-230 1696.25,-266"/>
<text text-anchor="middle" x="1653" y="-243.8" font-family="Times,serif" font-size="14.00">InfraModule</text>
</g>
<!-- InfraModule&#45;&gt;AppModule -->
<g id="edge6" class="edge">
<title>InfraModule&#45;&gt;AppModule</title>
<path fill="none" stroke="black" d="M1667.46,-266.08C1667.46,-302.23 1667.46,-380 1667.46,-380 1667.46,-380 1697.27,-380 1697.27,-380"/>
<polygon fill="black" stroke="black" points="1697.27,-383.5 1707.27,-380 1697.27,-376.5 1697.27,-383.5"/>
</g>
<!-- UploaderService  -->
<g id="node37" class="node">
<title>UploaderService </title>
<polygon fill="#fb8072" stroke="black" points="781.57,-342 668.43,-342 668.43,-306 781.57,-306 781.57,-342"/>
<text text-anchor="middle" x="725" y="-319.8" font-family="Times,serif" font-size="14.00">UploaderService </text>
</g>
<!-- InfraModule&#45;&gt;UploaderService  -->
<g id="edge35" class="edge">
<title>InfraModule&#45;&gt;UploaderService </title>
<path fill="none" stroke="black" stroke-dasharray="5,2" d="M1638.54,-266.06C1638.54,-270.49 1638.54,-274 1638.54,-274 1638.54,-274 731.62,-274 731.62,-274 731.62,-274 731.62,-295.95 731.62,-295.95"/>
<polygon fill="black" stroke="black" points="728.12,-295.95 731.62,-305.95 735.12,-295.95 728.12,-295.95"/>
</g>
<!-- LoggerModule -->
<g id="node8" class="node">
<title>LoggerModule</title>
<polygon fill="#8dd3c7" stroke="black" points="1813.98,-266 1810.98,-270 1789.98,-270 1786.98,-266 1714.02,-266 1714.02,-230 1813.98,-230 1813.98,-266"/>
<text text-anchor="middle" x="1764" y="-243.8" font-family="Times,serif" font-size="14.00">LoggerModule</text>
</g>
<!-- LoggerModule&#45;&gt;AppModule -->
<g id="edge7" class="edge">
<title>LoggerModule&#45;&gt;AppModule</title>
<path fill="none" stroke="black" d="M1752.42,-266.14C1752.42,-266.14 1752.42,-360.93 1752.42,-360.93"/>
<polygon fill="black" stroke="black" points="1748.92,-360.92 1752.42,-370.93 1755.92,-360.93 1748.92,-360.92"/>
</g>
<!-- CustomLogger  -->
<g id="node38" class="node">
<title>CustomLogger </title>
<polygon fill="#fb8072" stroke="black" points="1087.99,-342 984.01,-342 984.01,-306 1087.99,-306 1087.99,-342"/>
<text text-anchor="middle" x="1036" y="-319.8" font-family="Times,serif" font-size="14.00">CustomLogger </text>
</g>
<!-- LoggerModule&#45;&gt;CustomLogger  -->
<g id="edge36" class="edge">
<title>LoggerModule&#45;&gt;CustomLogger </title>
<path fill="none" stroke="black" stroke-dasharray="5,2" d="M1739.62,-266.14C1739.62,-272.46 1739.62,-278 1739.62,-278 1739.62,-278 1036,-278 1036,-278 1036,-278 1036,-295.82 1036,-295.82"/>
<polygon fill="black" stroke="black" points="1032.5,-295.82 1036,-305.82 1039.5,-295.82 1032.5,-295.82"/>
</g>
<!-- QuestionGroupModule&#45;&gt;AppModule -->
<g id="edge8" class="edge">
<title>QuestionGroupModule&#45;&gt;AppModule</title>
<path fill="none" stroke="black" d="M1977,-342.28C1977,-363.32 1977,-395 1977,-395 1977,-395 1800.82,-395 1800.82,-395"/>
<polygon fill="black" stroke="black" points="1800.82,-391.5 1790.82,-395 1800.82,-398.5 1800.82,-391.5"/>
</g>
<!-- UserModule -->
<g id="node10" class="node">
<title>UserModule</title>
<polygon fill="#8dd3c7" stroke="black" points="1917.98,-266 1914.98,-270 1893.98,-270 1890.98,-266 1832.02,-266 1832.02,-230 1917.98,-230 1917.98,-266"/>
<text text-anchor="middle" x="1875" y="-243.8" font-family="Times,serif" font-size="14.00">UserModule</text>
</g>
<!-- UserModule&#45;&gt;AuthModule -->
<g id="edge11" class="edge">
<title>UserModule&#45;&gt;AuthModule</title>
<path fill="none" stroke="black" d="M1846.67,-266.01C1846.67,-266.01 1846.67,-295.85 1846.67,-295.85"/>
<polygon fill="black" stroke="black" points="1843.17,-295.85 1846.67,-305.85 1850.17,-295.85 1843.17,-295.85"/>
</g>
<!-- UserModule&#45;&gt;AppModule -->
<g id="edge9" class="edge">
<title>UserModule&#45;&gt;AppModule</title>
<path fill="none" stroke="black" d="M1894.92,-266.21C1894.92,-303.06 1894.92,-383 1894.92,-383 1894.92,-383 1800.82,-383 1800.82,-383"/>
<polygon fill="black" stroke="black" points="1800.82,-379.5 1790.82,-383 1800.81,-386.5 1800.82,-379.5"/>
</g>
<!-- UserService  -->
<g id="node42" class="node">
<title>UserService </title>
<polygon fill="#fb8072" stroke="black" points="1355.9,-342 1268.1,-342 1268.1,-306 1355.9,-306 1355.9,-342"/>
<text text-anchor="middle" x="1312" y="-319.8" font-family="Times,serif" font-size="14.00">UserService </text>
</g>
<!-- UserModule&#45;&gt;UserService  -->
<g id="edge41" class="edge">
<title>UserModule&#45;&gt;UserService </title>
<path fill="none" stroke="black" stroke-dasharray="5,2" d="M1841.79,-266.32C1841.79,-274.79 1841.79,-283 1841.79,-283 1841.79,-283 1312,-283 1312,-283 1312,-283 1312,-295.9 1312,-295.9"/>
<polygon fill="black" stroke="black" points="1308.5,-295.9 1312,-305.9 1315.5,-295.9 1308.5,-295.9"/>
</g>
<!-- CaslModule -->
<g id="node12" class="node">
<title>CaslModule</title>
<polygon fill="#8dd3c7" stroke="black" points="3393.44,-266 3390.44,-270 3369.44,-270 3366.44,-266 3308.56,-266 3308.56,-230 3393.44,-230 3393.44,-266"/>
<text text-anchor="middle" x="3351" y="-243.8" font-family="Times,serif" font-size="14.00">CaslModule</text>
</g>
<!-- CaslModule&#45;&gt;AuthModule -->
<g id="edge10" class="edge">
<title>CaslModule&#45;&gt;AuthModule</title>
<path fill="none" stroke="black" d="M3351,-266.03C3351,-282.4 3351,-304 3351,-304 3351,-304 1880.89,-304 1880.89,-304 1880.89,-304 1880.89,-304.18 1880.89,-304.18"/>
<polygon fill="black" stroke="black" points="1877.39,-295.85 1880.89,-305.85 1884.39,-295.85 1877.39,-295.85"/>
</g>
<!-- CaslAbilityFactory  -->
<g id="node23" class="node">
<title>CaslAbilityFactory </title>
<polygon fill="#fb8072" stroke="black" points="3500.32,-190 3373.68,-190 3373.68,-154 3500.32,-154 3500.32,-190"/>
<text text-anchor="middle" x="3437" y="-167.8" font-family="Times,serif" font-size="14.00">CaslAbilityFactory </text>
</g>
<!-- CaslModule&#45;&gt;CaslAbilityFactory  -->
<g id="edge22" class="edge">
<title>CaslModule&#45;&gt;CaslAbilityFactory </title>
<path fill="none" stroke="black" stroke-dasharray="5,2" d="M3383.4,-229.99C3383.4,-229.99 3383.4,-200.15 3383.4,-200.15"/>
<polygon fill="black" stroke="black" points="3386.9,-200.15 3383.4,-190.15 3379.9,-200.15 3386.9,-200.15"/>
</g>
<!-- AuthService -->
<g id="node16" class="node">
<title>AuthService</title>
<ellipse fill="#fdb462" stroke="black" cx="2914" cy="-248" rx="59.11" ry="18"/>
<text text-anchor="middle" x="2914" y="-243.8" font-family="Times,serif" font-size="14.00">AuthService</text>
</g>
<!-- AuthService&#45;&gt;AuthModule -->
<g id="edge15" class="edge">
<title>AuthService&#45;&gt;AuthModule</title>
<path fill="none" stroke="black" d="M2914,-266.04C2914,-279.29 2914,-295 2914,-295 2914,-295 1876,-295 1876,-295 1876,-295 1876,-296.08 1876,-296.08"/>
<polygon fill="black" stroke="black" points="1872.5,-295.8 1876,-305.8 1879.5,-295.8 1872.5,-295.8"/>
</g>
<!-- JwtGuard -->
<g id="node17" class="node">
<title>JwtGuard</title>
<ellipse fill="#fdb462" stroke="black" cx="2788" cy="-248" rx="48.65" ry="18"/>
<text text-anchor="middle" x="2788" y="-243.8" font-family="Times,serif" font-size="14.00">JwtGuard</text>
</g>
<!-- JwtGuard&#45;&gt;AuthModule -->
<g id="edge16" class="edge">
<title>JwtGuard&#45;&gt;AuthModule</title>
<path fill="none" stroke="black" d="M2788,-266.15C2788,-278.27 2788,-292 2788,-292 2788,-292 1871.11,-292 1871.11,-292 1871.11,-292 1871.11,-295.76 1871.11,-295.76"/>
<polygon fill="black" stroke="black" points="1867.61,-295.76 1871.11,-305.76 1874.61,-295.76 1867.61,-295.76"/>
</g>
<!-- JwtStrategy -->
<g id="node18" class="node">
<title>JwtStrategy</title>
<ellipse fill="#fdb462" stroke="black" cx="2665" cy="-248" rx="56.76" ry="18"/>
<text text-anchor="middle" x="2665" y="-243.8" font-family="Times,serif" font-size="14.00">JwtStrategy</text>
</g>
<!-- JwtStrategy&#45;&gt;AuthModule -->
<g id="edge17" class="edge">
<title>JwtStrategy&#45;&gt;AuthModule</title>
<path fill="none" stroke="black" d="M2665,-266.06C2665,-277.44 2665,-290 2665,-290 2665,-290 1866.22,-290 1866.22,-290 1866.22,-290 1866.22,-295.81 1866.22,-295.81"/>
<polygon fill="black" stroke="black" points="1862.72,-295.81 1866.22,-305.81 1869.72,-295.81 1862.72,-295.81"/>
</g>
<!-- ProfessorService -->
<g id="node21" class="node">
<title>ProfessorService</title>
<ellipse fill="#fdb462" stroke="black" cx="1557" cy="-172" rx="76.42" ry="18"/>
<text text-anchor="middle" x="1557" y="-167.8" font-family="Times,serif" font-size="14.00">ProfessorService</text>
</g>
<!-- ProfessorService&#45;&gt;AuxiliaryModule -->
<g id="edge20" class="edge">
<title>ProfessorService&#45;&gt;AuxiliaryModule</title>
<path fill="none" stroke="black" d="M1621.54,-181.71C1621.54,-195.74 1621.54,-220 1621.54,-220 1621.54,-220 1938.77,-220 1938.77,-220 1938.77,-220 1938.77,-220.98 1938.77,-220.98"/>
<polygon fill="black" stroke="black" points="1935.27,-219.79 1938.77,-229.79 1942.27,-219.79 1935.27,-219.79"/>
</g>
<!-- StudentService -->
<g id="node22" class="node">
<title>StudentService</title>
<ellipse fill="#fdb462" stroke="black" cx="1721" cy="-172" rx="69.5" ry="18"/>
<text text-anchor="middle" x="1721" y="-167.8" font-family="Times,serif" font-size="14.00">StudentService</text>
</g>
<!-- StudentService&#45;&gt;AuxiliaryModule -->
<g id="edge21" class="edge">
<title>StudentService&#45;&gt;AuxiliaryModule</title>
<path fill="none" stroke="black" d="M1752.26,-188.34C1752.26,-198.64 1752.26,-210 1752.26,-210 1752.26,-210 1941.14,-210 1941.14,-210 1941.14,-210 1941.14,-219.89 1941.14,-219.89"/>
<polygon fill="black" stroke="black" points="1937.64,-219.89 1941.14,-229.89 1944.64,-219.89 1937.64,-219.89"/>
</g>
<!-- CaslAbilityFactory -->
<g id="node24" class="node">
<title>CaslAbilityFactory</title>
<ellipse fill="#fdb462" stroke="black" cx="3265" cy="-172" rx="85.13" ry="18"/>
<text text-anchor="middle" x="3265" y="-167.8" font-family="Times,serif" font-size="14.00">CaslAbilityFactory</text>
</g>
<!-- CaslAbilityFactory&#45;&gt;CaslModule -->
<g id="edge23" class="edge">
<title>CaslAbilityFactory&#45;&gt;CaslModule</title>
<path fill="none" stroke="black" d="M3329.42,-183.88C3329.42,-183.88 3329.42,-219.99 3329.42,-219.99"/>
<polygon fill="black" stroke="black" points="3325.92,-219.99 3329.42,-229.99 3332.92,-219.99 3325.92,-219.99"/>
</g>
<!-- PayloadInterceptor -->
<g id="node26" class="node">
<title>PayloadInterceptor</title>
<ellipse fill="#fdb462" stroke="black" cx="109" cy="-324" rx="84.51" ry="18"/>
<text text-anchor="middle" x="109" y="-319.8" font-family="Times,serif" font-size="14.00">PayloadInterceptor</text>
</g>
<!-- PayloadInterceptor&#45;&gt;CoreModule -->
<g id="edge25" class="edge">
<title>PayloadInterceptor&#45;&gt;CoreModule</title>
<path fill="none" stroke="black" d="M109,-305.8C109,-281.64 109,-242 109,-242 109,-242 1385.5,-242 1385.5,-242"/>
<polygon fill="black" stroke="black" points="1385.5,-245.5 1395.5,-242 1385.5,-238.5 1385.5,-245.5"/>
</g>
<!-- ExamService -->
<g id="node28" class="node">
<title>ExamService</title>
<ellipse fill="#fdb462" stroke="black" cx="447" cy="-324" rx="62.54" ry="18"/>
<text text-anchor="middle" x="447" y="-319.8" font-family="Times,serif" font-size="14.00">ExamService</text>
</g>
<!-- ExamService&#45;&gt;ExamModule -->
<g id="edge27" class="edge">
<title>ExamService&#45;&gt;ExamModule</title>
<path fill="none" stroke="black" d="M447,-305.99C447,-289.95 447,-269 447,-269 447,-269 1518.34,-269 1518.34,-269 1518.34,-269 1518.34,-268.71 1518.34,-268.71"/>
<polygon fill="black" stroke="black" points="1521.84,-276.08 1518.34,-266.08 1514.84,-276.08 1521.84,-276.08"/>
</g>
<!-- FirebaseAdmin  -->
<g id="node29" class="node">
<title>FirebaseAdmin </title>
<polygon fill="#fb8072" stroke="black" points="3963.81,-266 3858.19,-266 3858.19,-230 3963.81,-230 3963.81,-266"/>
<text text-anchor="middle" x="3911" y="-243.8" font-family="Times,serif" font-size="14.00">FirebaseAdmin </text>
</g>
<!-- FirebaseAdminModule -->
<g id="node30" class="node">
<title>FirebaseAdminModule</title>
<polygon fill="#8dd3c7" stroke="black" points="3983.86,-190 3980.86,-194 3959.86,-194 3956.86,-190 3838.14,-190 3838.14,-154 3983.86,-154 3983.86,-190"/>
<text text-anchor="middle" x="3911" y="-167.8" font-family="Times,serif" font-size="14.00">FirebaseAdminModule</text>
</g>
<!-- FirebaseAdminModule&#45;&gt;FirebaseAdmin  -->
<g id="edge28" class="edge">
<title>FirebaseAdminModule&#45;&gt;FirebaseAdmin </title>
<path fill="none" stroke="black" stroke-dasharray="5,2" d="M3911,-190.01C3911,-190.01 3911,-219.85 3911,-219.85"/>
<polygon fill="black" stroke="black" points="3907.5,-219.85 3911,-229.85 3914.5,-219.85 3907.5,-219.85"/>
</g>
<!-- FirebaseAdmin -->
<g id="node31" class="node">
<title>FirebaseAdmin</title>
<ellipse fill="#fdb462" stroke="black" cx="3911" cy="-104" rx="70.64" ry="18"/>
<text text-anchor="middle" x="3911" y="-99.8" font-family="Times,serif" font-size="14.00">FirebaseAdmin</text>
</g>
<!-- FirebaseAdmin&#45;&gt;FirebaseAdminModule -->
<g id="edge29" class="edge">
<title>FirebaseAdmin&#45;&gt;FirebaseAdminModule</title>
<path fill="none" stroke="black" d="M3911,-122.22C3911,-122.22 3911,-143.73 3911,-143.73"/>
<polygon fill="black" stroke="black" points="3907.5,-143.73 3911,-153.73 3914.5,-143.73 3907.5,-143.73"/>
</g>
<!-- FirebaseAuthService  -->
<g id="node32" class="node">
<title>FirebaseAuthService </title>
<polygon fill="#fb8072" stroke="black" points="2466.4,-266 2329.6,-266 2329.6,-230 2466.4,-230 2466.4,-266"/>
<text text-anchor="middle" x="2398" y="-243.8" font-family="Times,serif" font-size="14.00">FirebaseAuthService </text>
</g>
<!-- FirebaseCloudMessagingService  -->
<g id="node33" class="node">
<title>FirebaseCloudMessagingService </title>
<polygon fill="#fb8072" stroke="black" points="2311.78,-266 2108.22,-266 2108.22,-230 2311.78,-230 2311.78,-266"/>
<text text-anchor="middle" x="2210" y="-243.8" font-family="Times,serif" font-size="14.00">FirebaseCloudMessagingService </text>
</g>
<!-- FirebaseModule -->
<g id="node34" class="node">
<title>FirebaseModule</title>
<polygon fill="#8dd3c7" stroke="black" points="2281.47,-190 2278.47,-194 2257.47,-194 2254.47,-190 2174.53,-190 2174.53,-154 2281.47,-154 2281.47,-190"/>
<text text-anchor="middle" x="2228" y="-167.8" font-family="Times,serif" font-size="14.00">FirebaseModule</text>
</g>
<!-- FirebaseModule&#45;&gt;InfraModule -->
<g id="edge34" class="edge">
<title>FirebaseModule&#45;&gt;InfraModule</title>
<path fill="none" stroke="black" d="M2210.17,-190.21C2210.17,-195.55 2210.17,-200 2210.17,-200 2210.17,-200 1673.94,-200 1673.94,-200 1673.94,-200 1673.94,-219.85 1673.94,-219.85"/>
<polygon fill="black" stroke="black" points="1670.44,-219.85 1673.94,-229.85 1677.44,-219.85 1670.44,-219.85"/>
</g>
<!-- FirebaseModule&#45;&gt;FirebaseAuthService  -->
<g id="edge30" class="edge">
<title>FirebaseModule&#45;&gt;FirebaseAuthService </title>
<path fill="none" stroke="black" stroke-dasharray="5,2" d="M2281.62,-178C2313.53,-178 2347.85,-178 2347.85,-178 2347.85,-178 2347.85,-219.97 2347.85,-219.97"/>
<polygon fill="black" stroke="black" points="2344.35,-219.97 2347.85,-229.97 2351.35,-219.97 2344.35,-219.97"/>
</g>
<!-- FirebaseModule&#45;&gt;FirebaseCloudMessagingService  -->
<g id="edge31" class="edge">
<title>FirebaseModule&#45;&gt;FirebaseCloudMessagingService </title>
<path fill="none" stroke="black" stroke-dasharray="5,2" d="M2245.83,-190.01C2245.83,-190.01 2245.83,-219.85 2245.83,-219.85"/>
<polygon fill="black" stroke="black" points="2242.33,-219.85 2245.83,-229.85 2249.33,-219.85 2242.33,-219.85"/>
</g>
<!-- FirebaseAuthService -->
<g id="node35" class="node">
<title>FirebaseAuthService</title>
<ellipse fill="#fdb462" stroke="black" cx="2476" cy="-104" rx="92.03" ry="18"/>
<text text-anchor="middle" x="2476" y="-99.8" font-family="Times,serif" font-size="14.00">FirebaseAuthService</text>
</g>
<!-- FirebaseAuthService&#45;&gt;FirebaseModule -->
<g id="edge32" class="edge">
<title>FirebaseAuthService&#45;&gt;FirebaseModule</title>
<path fill="none" stroke="black" d="M2425.22,-119.33C2425.22,-137.69 2425.22,-166 2425.22,-166 2425.22,-166 2291.63,-166 2291.63,-166"/>
<polygon fill="black" stroke="black" points="2291.63,-162.5 2281.63,-166 2291.63,-169.5 2291.63,-162.5"/>
</g>
<!-- FirebaseCloudMessagingService -->
<g id="node36" class="node">
<title>FirebaseCloudMessagingService</title>
<ellipse fill="#fdb462" stroke="black" cx="2228" cy="-104" rx="138.3" ry="18"/>
<text text-anchor="middle" x="2228" y="-99.8" font-family="Times,serif" font-size="14.00">FirebaseCloudMessagingService</text>
</g>
<!-- FirebaseCloudMessagingService&#45;&gt;FirebaseModule -->
<g id="edge33" class="edge">
<title>FirebaseCloudMessagingService&#45;&gt;FirebaseModule</title>
<path fill="none" stroke="black" d="M2228,-122.22C2228,-122.22 2228,-143.73 2228,-143.73"/>
<polygon fill="black" stroke="black" points="2224.5,-143.73 2228,-153.73 2231.5,-143.73 2224.5,-143.73"/>
</g>
<!-- CustomLogger -->
<g id="node39" class="node">
<title>CustomLogger</title>
<ellipse fill="#fdb462" stroke="black" cx="891" cy="-324" rx="68.94" ry="18"/>
<text text-anchor="middle" x="891" y="-319.8" font-family="Times,serif" font-size="14.00">CustomLogger</text>
</g>
<!-- CustomLogger&#45;&gt;LoggerModule -->
<g id="edge37" class="edge">
<title>CustomLogger&#45;&gt;LoggerModule</title>
<path fill="none" stroke="black" d="M891,-305.85C891,-292.26 891,-276 891,-276 891,-276 1726.81,-276 1726.81,-276 1726.81,-276 1726.81,-275.02 1726.81,-275.02"/>
<polygon fill="black" stroke="black" points="1730.31,-276.21 1726.81,-266.21 1723.31,-276.21 1730.31,-276.21"/>
</g>
<!-- QuestionGroupService -->
<g id="node40" class="node">
<title>QuestionGroupService</title>
<ellipse fill="#fdb462" stroke="black" cx="3700" cy="-248" rx="99.56" ry="18"/>
<text text-anchor="middle" x="3700" y="-243.8" font-family="Times,serif" font-size="14.00">QuestionGroupService</text>
</g>
<!-- QuestionGroupService&#45;&gt;QuestionGroupModule -->
<g id="edge39" class="edge">
<title>QuestionGroupService&#45;&gt;QuestionGroupModule</title>
<path fill="none" stroke="black" d="M3700,-266.2C3700,-290.36 3700,-330 3700,-330 3700,-330 2059.93,-330 2059.93,-330"/>
<polygon fill="black" stroke="black" points="2059.93,-326.5 2049.93,-330 2059.93,-333.5 2059.93,-326.5"/>
</g>
<!-- QuestionService -->
<g id="node41" class="node">
<title>QuestionService</title>
<ellipse fill="#fdb462" stroke="black" cx="3508" cy="-248" rx="74.72" ry="18"/>
<text text-anchor="middle" x="3508" y="-243.8" font-family="Times,serif" font-size="14.00">QuestionService</text>
</g>
<!-- QuestionService&#45;&gt;QuestionGroupModule -->
<g id="edge40" class="edge">
<title>QuestionService&#45;&gt;QuestionGroupModule</title>
<path fill="none" stroke="black" d="M3508,-266.03C3508,-286.77 3508,-318 3508,-318 3508,-318 2060.07,-318 2060.07,-318"/>
<polygon fill="black" stroke="black" points="2060.07,-314.5 2050.07,-318 2060.07,-321.5 2060.07,-314.5"/>
</g>
<!-- UserService -->
<g id="node43" class="node">
<title>UserService</title>
<ellipse fill="#fdb462" stroke="black" cx="1186" cy="-324" rx="58.44" ry="18"/>
<text text-anchor="middle" x="1186" y="-319.8" font-family="Times,serif" font-size="14.00">UserService</text>
</g>
<!-- UserService&#45;&gt;UserModule -->
<g id="edge42" class="edge">
<title>UserService&#45;&gt;UserModule</title>
<path fill="none" stroke="black" d="M1186,-305.51C1186,-293.86 1186,-281 1186,-281 1186,-281 1836.9,-281 1836.9,-281 1836.9,-281 1836.9,-276.04 1836.9,-276.04"/>
<polygon fill="black" stroke="black" points="1840.4,-276.04 1836.9,-266.04 1833.4,-276.04 1840.4,-276.04"/>
</g>
</g>
</svg>
