<?xml version="1.0" encoding="UTF-8" standalone="no"?>
<!DOCTYPE svg PUBLIC "-//W3C//DTD SVG 1.1//EN"
 "http://www.w3.org/Graphics/SVG/1.1/DTD/svg11.dtd">
<!-- Generated by graphviz version 2.47.0 (20210316.0004)
 -->
<!-- Title: dependencies Pages: 1 -->
<svg width="4340pt" height="431pt"
 viewBox="0.00 0.00 4340.00 431.00" xmlns="http://www.w3.org/2000/svg" xmlns:xlink="http://www.w3.org/1999/xlink">
<g id="graph0" class="graph" transform="scale(1 1) rotate(0) translate(4 427)">
<title>dependencies</title>
<polygon fill="white" stroke="transparent" points="-4,4 -4,-427 4336,-427 4336,4 -4,4"/>
<text text-anchor="start" x="2145.01" y="-42.4" font-family="sans-serif" font-weight="bold" font-size="14.00">Legend</text>
<polygon fill="#ffffb3" stroke="transparent" points="1932,-10 1932,-30 1952,-30 1952,-10 1932,-10"/>
<text text-anchor="start" x="1955.63" y="-15.4" font-family="sans-serif" font-size="14.00"> &#160;Declarations</text>
<polygon fill="#8dd3c7" stroke="transparent" points="2045,-10 2045,-30 2065,-30 2065,-10 2045,-10"/>
<text text-anchor="start" x="2068.73" y="-15.4" font-family="sans-serif" font-size="14.00"> &#160;Module</text>
<polygon fill="#80b1d3" stroke="transparent" points="2131,-10 2131,-30 2151,-30 2151,-10 2131,-10"/>
<text text-anchor="start" x="2154.78" y="-15.4" font-family="sans-serif" font-size="14.00"> &#160;Bootstrap</text>
<polygon fill="#fdb462" stroke="transparent" points="2228,-10 2228,-30 2248,-30 2248,-10 2228,-10"/>
<text text-anchor="start" x="2251.67" y="-15.4" font-family="sans-serif" font-size="14.00"> &#160;Providers</text>
<polygon fill="#fb8072" stroke="transparent" points="2324,-10 2324,-30 2344,-30 2344,-10 2324,-10"/>
<text text-anchor="start" x="2347.73" y="-15.4" font-family="sans-serif" font-size="14.00"> &#160;Exports</text>
<g id="clust1" class="cluster">
<title>cluster_AnswerModule</title>
<polygon fill="none" stroke="black" stroke-dasharray="1,5" points="876,-70 876,-198 1048,-198 1048,-70 876,-70"/>
</g>
<g id="clust6" class="cluster">
<title>cluster_AnswerModule_providers</title>
<polygon fill="none" stroke="black" points="884,-78 884,-130 1040,-130 1040,-78 884,-78"/>
</g>
<g id="clust7" class="cluster">
<title>cluster_AppModule</title>
<polygon fill="none" stroke="black" stroke-dasharray="1,5" points="1705,-214 1705,-415 2392,-415 2392,-214 1705,-214"/>
</g>
<g id="clust9" class="cluster">
<title>cluster_AppModule_imports</title>
<polygon fill="none" stroke="black" points="1713,-222 1713,-350 2384,-350 2384,-222 1713,-222"/>
</g>
<g id="clust13" class="cluster">
<title>cluster_AuthModule</title>
<polygon fill="none" stroke="black" stroke-dasharray="1,5" points="2918,-214 2918,-282 3735,-282 3735,-214 2918,-214"/>
</g>
<g id="clust15" class="cluster">
<title>cluster_AuthModule_imports</title>
<polygon fill="none" stroke="black" points="3627,-222 3627,-274 3727,-274 3727,-222 3627,-222"/>
</g>
<g id="clust16" class="cluster">
<title>cluster_AuthModule_exports</title>
<polygon fill="none" stroke="black" points="3315,-222 3315,-274 3619,-274 3619,-222 3315,-222"/>
</g>
<g id="clust18" class="cluster">
<title>cluster_AuthModule_providers</title>
<polygon fill="none" stroke="black" points="2926,-222 2926,-274 3307,-274 3307,-222 2926,-222"/>
</g>
<g id="clust19" class="cluster">
<title>cluster_AuxiliaryModule</title>
<polygon fill="none" stroke="black" stroke-dasharray="1,5" points="8,-290 8,-358 609,-358 609,-290 8,-290"/>
</g>
<g id="clust22" class="cluster">
<title>cluster_AuxiliaryModule_exports</title>
<polygon fill="none" stroke="black" points="349,-298 349,-350 601,-350 601,-298 349,-298"/>
</g>
<g id="clust24" class="cluster">
<title>cluster_AuxiliaryModule_providers</title>
<polygon fill="none" stroke="black" points="16,-298 16,-350 341,-350 341,-298 16,-298"/>
</g>
<g id="clust25" class="cluster">
<title>cluster_CaslModule</title>
<polygon fill="none" stroke="black" stroke-dasharray="1,5" points="3490,-138 3490,-206 3842,-206 3842,-138 3490,-138"/>
</g>
<g id="clust28" class="cluster">
<title>cluster_CaslModule_exports</title>
<polygon fill="none" stroke="black" points="3692,-146 3692,-198 3834,-198 3834,-146 3692,-146"/>
</g>
<g id="clust30" class="cluster">
<title>cluster_CaslModule_providers</title>
<polygon fill="none" stroke="black" points="3498,-146 3498,-198 3684,-198 3684,-146 3498,-146"/>
</g>
<g id="clust31" class="cluster">
<title>cluster_CoreModule</title>
<polygon fill="none" stroke="black" stroke-dasharray="1,5" points="617,-290 617,-358 969,-358 969,-290 617,-290"/>
</g>
<g id="clust34" class="cluster">
<title>cluster_CoreModule_exports</title>
<polygon fill="none" stroke="black" points="819,-298 819,-350 961,-350 961,-298 819,-298"/>
</g>
<g id="clust36" class="cluster">
<title>cluster_CoreModule_providers</title>
<polygon fill="none" stroke="black" points="625,-298 625,-350 811,-350 811,-298 625,-298"/>
</g>
<g id="clust37" class="cluster">
<title>cluster_ExamModule</title>
<polygon fill="none" stroke="black" stroke-dasharray="1,5" points="1923,-138 1923,-206 2392,-206 2392,-138 1923,-138"/>
</g>
<g id="clust40" class="cluster">
<title>cluster_ExamModule_exports</title>
<polygon fill="none" stroke="black" points="2274,-146 2274,-198 2384,-198 2384,-146 2274,-146"/>
</g>
<g id="clust42" class="cluster">
<title>cluster_ExamModule_providers</title>
<polygon fill="none" stroke="black" points="1931,-146 1931,-198 2266,-198 2266,-146 1931,-146"/>
</g>
<g id="clust43" class="cluster">
<title>cluster_FirebaseAdminModule</title>
<polygon fill="none" stroke="black" stroke-dasharray="1,5" points="4150,-70 4150,-282 4324,-282 4324,-70 4150,-70"/>
</g>
<g id="clust46" class="cluster">
<title>cluster_FirebaseAdminModule_exports</title>
<polygon fill="none" stroke="black" points="4176,-222 4176,-274 4298,-274 4298,-222 4176,-222"/>
</g>
<g id="clust48" class="cluster">
<title>cluster_FirebaseAdminModule_providers</title>
<polygon fill="none" stroke="black" points="4158,-78 4158,-130 4316,-130 4316,-78 4158,-78"/>
</g>
<g id="clust49" class="cluster">
<title>cluster_FirebaseModule</title>
<polygon fill="none" stroke="black" stroke-dasharray="1,5" points="2400,-70 2400,-282 2910,-282 2910,-70 2400,-70"/>
</g>
<g id="clust52" class="cluster">
<title>cluster_FirebaseModule_exports</title>
<polygon fill="none" stroke="black" points="2426,-222 2426,-274 2800,-274 2800,-222 2426,-222"/>
</g>
<g id="clust54" class="cluster">
<title>cluster_FirebaseModule_providers</title>
<polygon fill="none" stroke="black" points="2408,-78 2408,-130 2902,-130 2902,-78 2408,-78"/>
</g>
<g id="clust55" class="cluster">
<title>cluster_InfraModule</title>
<polygon fill="none" stroke="black" stroke-dasharray="1,5" points="977,-290 977,-358 1123,-358 1123,-290 977,-290"/>
</g>
<g id="clust58" class="cluster">
<title>cluster_InfraModule_exports</title>
<polygon fill="none" stroke="black" points="985,-298 985,-350 1115,-350 1115,-298 985,-298"/>
</g>
<g id="clust61" class="cluster">
<title>cluster_LoggerModule</title>
<polygon fill="none" stroke="black" stroke-dasharray="1,5" points="1131,-290 1131,-358 1429,-358 1429,-290 1131,-290"/>
</g>
<g id="clust64" class="cluster">
<title>cluster_LoggerModule_exports</title>
<polygon fill="none" stroke="black" points="1301,-298 1301,-350 1421,-350 1421,-298 1301,-298"/>
</g>
<g id="clust66" class="cluster">
<title>cluster_LoggerModule_providers</title>
<polygon fill="none" stroke="black" points="1139,-298 1139,-350 1293,-350 1293,-298 1139,-298"/>
</g>
<g id="clust67" class="cluster">
<title>cluster_QuestionGroupModule</title>
<polygon fill="none" stroke="black" stroke-dasharray="1,5" points="3743,-214 3743,-282 4142,-282 4142,-214 3743,-214"/>
</g>
<g id="clust72" class="cluster">
<title>cluster_QuestionGroupModule_providers</title>
<polygon fill="none" stroke="black" points="3751,-222 3751,-274 4134,-274 4134,-222 3751,-222"/>
</g>
<g id="clust73" class="cluster">
<title>cluster_UserModule</title>
<polygon fill="none" stroke="black" stroke-dasharray="1,5" points="1437,-290 1437,-358 1697,-358 1697,-290 1437,-290"/>
</g>
<g id="clust76" class="cluster">
<title>cluster_UserModule_exports</title>
<polygon fill="none" stroke="black" points="1585,-298 1585,-350 1689,-350 1689,-298 1585,-298"/>
</g>
<g id="clust78" class="cluster">
<title>cluster_UserModule_providers</title>
<polygon fill="none" stroke="black" points="1445,-298 1445,-350 1577,-350 1577,-298 1445,-298"/>
</g>
<!-- AnswerService -->
<g id="node1" class="node">
<title>AnswerService</title>
<ellipse fill="#fdb462" stroke="black" cx="962" cy="-104" rx="70.04" ry="18"/>
<text text-anchor="middle" x="962" y="-99.8" font-family="Times,serif" font-size="14.00">AnswerService</text>
</g>
<!-- AnswerModule -->
<g id="node2" class="node">
<title>AnswerModule</title>
<polygon fill="#8dd3c7" stroke="black" points="1013.58,-190 1010.58,-194 989.58,-194 986.58,-190 910.42,-190 910.42,-154 1013.58,-154 1013.58,-190"/>
<text text-anchor="middle" x="962" y="-167.8" font-family="Times,serif" font-size="14.00">AnswerModule</text>
</g>
<!-- AnswerService&#45;&gt;AnswerModule -->
<g id="edge1" class="edge">
<title>AnswerService&#45;&gt;AnswerModule</title>
<path fill="none" stroke="black" d="M962,-122.22C962,-122.22 962,-143.73 962,-143.73"/>
<polygon fill="black" stroke="black" points="958.5,-143.73 962,-153.73 965.5,-143.73 958.5,-143.73"/>
</g>
<!-- AuthModule -->
<g id="node3" class="node">
<title>AuthModule</title>
<polygon fill="#8dd3c7" stroke="black" points="2211.55,-342 2208.55,-346 2187.55,-346 2184.55,-342 2124.45,-342 2124.45,-306 2211.55,-306 2211.55,-342"/>
<text text-anchor="middle" x="2168" y="-319.8" font-family="Times,serif" font-size="14.00">AuthModule</text>
</g>
<!-- AppModule -->
<g id="node11" class="node">
<title>AppModule</title>
<polygon fill="#8dd3c7" stroke="black" points="2116.66,-407 2113.66,-411 2092.66,-411 2089.66,-407 2033.34,-407 2033.34,-371 2116.66,-371 2116.66,-407"/>
<text text-anchor="middle" x="2075" y="-384.8" font-family="Times,serif" font-size="14.00">AppModule</text>
</g>
<!-- AuthModule&#45;&gt;AppModule -->
<g id="edge2" class="edge">
<title>AuthModule&#45;&gt;AppModule</title>
<path fill="none" stroke="black" d="M2124.17,-324C2114.82,-324 2107.69,-324 2107.69,-324 2107.69,-324 2107.69,-360.89 2107.69,-360.89"/>
<polygon fill="black" stroke="black" points="2104.19,-360.89 2107.69,-370.89 2111.19,-360.89 2104.19,-360.89"/>
</g>
<!-- AuthService  -->
<g id="node13" class="node">
<title>AuthService </title>
<polygon fill="#fb8072" stroke="black" points="3610.98,-266 3521.02,-266 3521.02,-230 3610.98,-230 3610.98,-266"/>
<text text-anchor="middle" x="3566" y="-243.8" font-family="Times,serif" font-size="14.00">AuthService </text>
</g>
<!-- AuthModule&#45;&gt;AuthService  -->
<g id="edge12" class="edge">
<title>AuthModule&#45;&gt;AuthService </title>
<path fill="none" stroke="black" stroke-dasharray="5,2" d="M2197.34,-305.88C2197.34,-303.03 2197.34,-301 2197.34,-301 2197.34,-301 3566,-301 3566,-301 3566,-301 3566,-276.24 3566,-276.24"/>
<polygon fill="black" stroke="black" points="3569.5,-276.24 3566,-266.24 3562.5,-276.24 3569.5,-276.24"/>
</g>
<!-- CaslModule  -->
<g id="node14" class="node">
<title>CaslModule </title>
<polygon fill="#fb8072" stroke="black" points="3502.94,-266 3415.06,-266 3415.06,-230 3502.94,-230 3502.94,-266"/>
<text text-anchor="middle" x="3459" y="-243.8" font-family="Times,serif" font-size="14.00">CaslModule </text>
</g>
<!-- AuthModule&#45;&gt;CaslModule  -->
<g id="edge13" class="edge">
<title>AuthModule&#45;&gt;CaslModule </title>
<path fill="none" stroke="black" stroke-dasharray="5,2" d="M2194.45,-305.83C2194.45,-301.95 2194.45,-299 2194.45,-299 2194.45,-299 3459,-299 3459,-299 3459,-299 3459,-276.12 3459,-276.12"/>
<polygon fill="black" stroke="black" points="3462.5,-276.12 3459,-266.12 3455.5,-276.12 3462.5,-276.12"/>
</g>
<!-- JwtGuard  -->
<g id="node15" class="node">
<title>JwtGuard </title>
<polygon fill="#fb8072" stroke="black" points="3396.92,-266 3323.08,-266 3323.08,-230 3396.92,-230 3396.92,-266"/>
<text text-anchor="middle" x="3360" y="-243.8" font-family="Times,serif" font-size="14.00">JwtGuard </text>
</g>
<!-- AuthModule&#45;&gt;JwtGuard  -->
<g id="edge14" class="edge">
<title>AuthModule&#45;&gt;JwtGuard </title>
<path fill="none" stroke="black" stroke-dasharray="5,2" d="M2191.56,-305.79C2191.56,-300.45 2191.56,-296 2191.56,-296 2191.56,-296 3360,-296 3360,-296 3360,-296 3360,-276.15 3360,-276.15"/>
<polygon fill="black" stroke="black" points="3363.5,-276.15 3360,-266.15 3356.5,-276.15 3363.5,-276.15"/>
</g>
<!-- AuxiliaryModule -->
<g id="node4" class="node">
<title>AuxiliaryModule</title>
<polygon fill="#8dd3c7" stroke="black" points="1834.7,-266 1831.7,-270 1810.7,-270 1807.7,-266 1721.3,-266 1721.3,-230 1834.7,-230 1834.7,-266"/>
<text text-anchor="middle" x="1778" y="-243.8" font-family="Times,serif" font-size="14.00">AuxiliaryModule</text>
</g>
<!-- AuxiliaryModule&#45;&gt;AppModule -->
<g id="edge3" class="edge">
<title>AuxiliaryModule&#45;&gt;AppModule</title>
<path fill="none" stroke="black" d="M1778,-266.03C1778,-305.28 1778,-395 1778,-395 1778,-395 2023.08,-395 2023.08,-395"/>
<polygon fill="black" stroke="black" points="2023.08,-398.5 2033.08,-395 2023.08,-391.5 2023.08,-398.5"/>
</g>
<!-- ProfessorService  -->
<g id="node19" class="node">
<title>ProfessorService </title>
<polygon fill="#fb8072" stroke="black" points="471.35,-342 356.65,-342 356.65,-306 471.35,-306 471.35,-342"/>
<text text-anchor="middle" x="414" y="-319.8" font-family="Times,serif" font-size="14.00">ProfessorService </text>
</g>
<!-- AuxiliaryModule&#45;&gt;ProfessorService  -->
<g id="edge18" class="edge">
<title>AuxiliaryModule&#45;&gt;ProfessorService </title>
<path fill="none" stroke="black" stroke-dasharray="5,2" d="M1721.13,-252C1462.98,-252 414,-252 414,-252 414,-252 414,-295.83 414,-295.83"/>
<polygon fill="black" stroke="black" points="410.5,-295.83 414,-305.83 417.5,-295.83 410.5,-295.83"/>
</g>
<!-- StudentService  -->
<g id="node20" class="node">
<title>StudentService </title>
<polygon fill="#fb8072" stroke="black" points="593.26,-342 488.74,-342 488.74,-306 593.26,-306 593.26,-342"/>
<text text-anchor="middle" x="541" y="-319.8" font-family="Times,serif" font-size="14.00">StudentService </text>
</g>
<!-- AuxiliaryModule&#45;&gt;StudentService  -->
<g id="edge19" class="edge">
<title>AuxiliaryModule&#45;&gt;StudentService </title>
<path fill="none" stroke="black" stroke-dasharray="5,2" d="M1721.23,-259C1478.59,-259 541,-259 541,-259 541,-259 541,-295.89 541,-295.89"/>
<polygon fill="black" stroke="black" points="537.5,-295.89 541,-305.89 544.5,-295.89 537.5,-295.89"/>
</g>
<!-- CoreModule -->
<g id="node5" class="node">
<title>CoreModule</title>
<polygon fill="#8dd3c7" stroke="black" points="1939.26,-266 1936.26,-270 1915.26,-270 1912.26,-266 1852.74,-266 1852.74,-230 1939.26,-230 1939.26,-266"/>
<text text-anchor="middle" x="1896" y="-243.8" font-family="Times,serif" font-size="14.00">CoreModule</text>
</g>
<!-- CoreModule&#45;&gt;AppModule -->
<g id="edge4" class="edge">
<title>CoreModule&#45;&gt;AppModule</title>
<path fill="none" stroke="black" d="M1917.69,-266.21C1917.69,-303.06 1917.69,-383 1917.69,-383 1917.69,-383 2023.26,-383 2023.26,-383"/>
<polygon fill="black" stroke="black" points="2023.26,-386.5 2033.26,-383 2023.26,-379.5 2023.26,-386.5"/>
</g>
<!-- PayloadInterceptor  -->
<g id="node25" class="node">
<title>PayloadInterceptor </title>
<polygon fill="#fb8072" stroke="black" points="953.01,-342 826.99,-342 826.99,-306 953.01,-306 953.01,-342"/>
<text text-anchor="middle" x="890" y="-319.8" font-family="Times,serif" font-size="14.00">PayloadInterceptor </text>
</g>
<!-- CoreModule&#45;&gt;PayloadInterceptor  -->
<g id="edge24" class="edge">
<title>CoreModule&#45;&gt;PayloadInterceptor </title>
<path fill="none" stroke="black" stroke-dasharray="5,2" d="M1896,-266.12C1896,-268.97 1896,-271 1896,-271 1896,-271 931.73,-271 931.73,-271 931.73,-271 931.73,-295.76 931.73,-295.76"/>
<polygon fill="black" stroke="black" points="928.23,-295.76 931.73,-305.76 935.23,-295.76 928.23,-295.76"/>
</g>
<!-- ExamModule -->
<g id="node6" class="node">
<title>ExamModule</title>
<polygon fill="#8dd3c7" stroke="black" points="2376.21,-266 2373.21,-270 2352.21,-270 2349.21,-266 2283.79,-266 2283.79,-230 2376.21,-230 2376.21,-266"/>
<text text-anchor="middle" x="2330" y="-243.8" font-family="Times,serif" font-size="14.00">ExamModule</text>
</g>
<!-- QuestionGroupModule -->
<g id="node9" class="node">
<title>QuestionGroupModule</title>
<polygon fill="#8dd3c7" stroke="black" points="2375.86,-342 2372.86,-346 2351.86,-346 2348.86,-342 2230.14,-342 2230.14,-306 2375.86,-306 2375.86,-342"/>
<text text-anchor="middle" x="2303" y="-319.8" font-family="Times,serif" font-size="14.00">QuestionGroupModule</text>
</g>
<!-- ExamModule&#45;&gt;QuestionGroupModule -->
<g id="edge39" class="edge">
<title>ExamModule&#45;&gt;QuestionGroupModule</title>
<path fill="none" stroke="black" d="M2345.25,-266.01C2345.25,-266.01 2345.25,-295.85 2345.25,-295.85"/>
<polygon fill="black" stroke="black" points="2341.75,-295.85 2345.25,-305.85 2348.75,-295.85 2341.75,-295.85"/>
</g>
<!-- ExamModule&#45;&gt;AppModule -->
<g id="edge5" class="edge">
<title>ExamModule&#45;&gt;AppModule</title>
<path fill="none" stroke="black" d="M2314.57,-266.11C2314.57,-275.9 2314.57,-286 2314.57,-286 2314.57,-286 2098.56,-286 2098.56,-286 2098.56,-286 2098.56,-360.59 2098.56,-360.59"/>
<polygon fill="black" stroke="black" points="2095.06,-360.59 2098.56,-370.59 2102.06,-360.59 2095.06,-360.59"/>
</g>
<!-- ExamService  -->
<g id="node27" class="node">
<title>ExamService </title>
<polygon fill="#fb8072" stroke="black" points="2376.14,-190 2281.86,-190 2281.86,-154 2376.14,-154 2376.14,-190"/>
<text text-anchor="middle" x="2329" y="-167.8" font-family="Times,serif" font-size="14.00">ExamService </text>
</g>
<!-- ExamModule&#45;&gt;ExamService  -->
<g id="edge26" class="edge">
<title>ExamModule&#45;&gt;ExamService </title>
<path fill="none" stroke="black" stroke-dasharray="5,2" d="M2345.34,-229.99C2345.34,-229.99 2345.34,-200.15 2345.34,-200.15"/>
<polygon fill="black" stroke="black" points="2348.84,-200.15 2345.34,-190.15 2341.84,-200.15 2348.84,-200.15"/>
</g>
<!-- InfraModule -->
<g id="node7" class="node">
<title>InfraModule</title>
<polygon fill="#8dd3c7" stroke="black" points="2044.25,-266 2041.25,-270 2020.25,-270 2017.25,-266 1957.75,-266 1957.75,-230 2044.25,-230 2044.25,-266"/>
<text text-anchor="middle" x="2001" y="-243.8" font-family="Times,serif" font-size="14.00">InfraModule</text>
</g>
<!-- InfraModule&#45;&gt;AppModule -->
<g id="edge6" class="edge">
<title>InfraModule&#45;&gt;AppModule</title>
<path fill="none" stroke="black" d="M2038.77,-266.14C2038.77,-266.14 2038.77,-360.93 2038.77,-360.93"/>
<polygon fill="black" stroke="black" points="2035.27,-360.92 2038.77,-370.93 2042.27,-360.93 2035.27,-360.92"/>
</g>
<!-- UploaderService  -->
<g id="node38" class="node">
<title>UploaderService </title>
<polygon fill="#fb8072" stroke="black" points="1106.57,-342 993.43,-342 993.43,-306 1106.57,-306 1106.57,-342"/>
<text text-anchor="middle" x="1050" y="-319.8" font-family="Times,serif" font-size="14.00">UploaderService </text>
</g>
<!-- InfraModule&#45;&gt;UploaderService  -->
<g id="edge36" class="edge">
<title>InfraModule&#45;&gt;UploaderService </title>
<path fill="none" stroke="black" stroke-dasharray="5,2" d="M1995.4,-266.06C1995.4,-270.49 1995.4,-274 1995.4,-274 1995.4,-274 1069.4,-274 1069.4,-274 1069.4,-274 1069.4,-295.95 1069.4,-295.95"/>
<polygon fill="black" stroke="black" points="1065.9,-295.95 1069.4,-305.95 1072.9,-295.95 1065.9,-295.95"/>
</g>
<!-- LoggerModule -->
<g id="node8" class="node">
<title>LoggerModule</title>
<polygon fill="#8dd3c7" stroke="black" points="2161.98,-266 2158.98,-270 2137.98,-270 2134.98,-266 2062.02,-266 2062.02,-230 2161.98,-230 2161.98,-266"/>
<text text-anchor="middle" x="2112" y="-243.8" font-family="Times,serif" font-size="14.00">LoggerModule</text>
</g>
<!-- LoggerModule&#45;&gt;AppModule -->
<g id="edge7" class="edge">
<title>LoggerModule&#45;&gt;AppModule</title>
<path fill="none" stroke="black" d="M2089.42,-266.14C2089.42,-266.14 2089.42,-360.93 2089.42,-360.93"/>
<polygon fill="black" stroke="black" points="2085.92,-360.92 2089.42,-370.93 2092.92,-360.93 2085.92,-360.92"/>
</g>
<!-- CustomLogger  -->
<g id="node39" class="node">
<title>CustomLogger </title>
<polygon fill="#fb8072" stroke="black" points="1412.99,-342 1309.01,-342 1309.01,-306 1412.99,-306 1412.99,-342"/>
<text text-anchor="middle" x="1361" y="-319.8" font-family="Times,serif" font-size="14.00">CustomLogger </text>
</g>
<!-- LoggerModule&#45;&gt;CustomLogger  -->
<g id="edge37" class="edge">
<title>LoggerModule&#45;&gt;CustomLogger </title>
<path fill="none" stroke="black" stroke-dasharray="5,2" d="M2080.28,-266.03C2080.28,-272.85 2080.28,-279 2080.28,-279 2080.28,-279 1361,-279 1361,-279 1361,-279 1361,-295.96 1361,-295.96"/>
<polygon fill="black" stroke="black" points="1357.5,-295.96 1361,-305.96 1364.5,-295.96 1357.5,-295.96"/>
</g>
<!-- QuestionGroupModule&#45;&gt;AppModule -->
<g id="edge8" class="edge">
<title>QuestionGroupModule&#45;&gt;AppModule</title>
<path fill="none" stroke="black" d="M2303,-342.28C2303,-363.32 2303,-395 2303,-395 2303,-395 2126.82,-395 2126.82,-395"/>
<polygon fill="black" stroke="black" points="2126.82,-391.5 2116.82,-395 2126.82,-398.5 2126.82,-391.5"/>
</g>
<!-- UserModule -->
<g id="node10" class="node">
<title>UserModule</title>
<polygon fill="#8dd3c7" stroke="black" points="2265.98,-266 2262.98,-270 2241.98,-270 2238.98,-266 2180.02,-266 2180.02,-230 2265.98,-230 2265.98,-266"/>
<text text-anchor="middle" x="2223" y="-243.8" font-family="Times,serif" font-size="14.00">UserModule</text>
</g>
<!-- UserModule&#45;&gt;AuthModule -->
<g id="edge11" class="edge">
<title>UserModule&#45;&gt;AuthModule</title>
<path fill="none" stroke="black" d="M2188.67,-266.01C2188.67,-266.01 2188.67,-295.85 2188.67,-295.85"/>
<polygon fill="black" stroke="black" points="2185.17,-295.85 2188.67,-305.85 2192.17,-295.85 2185.17,-295.85"/>
</g>
<!-- UserModule&#45;&gt;AppModule -->
<g id="edge9" class="edge">
<title>UserModule&#45;&gt;AppModule</title>
<path fill="none" stroke="black" d="M2220.92,-266.21C2220.92,-303.06 2220.92,-383 2220.92,-383 2220.92,-383 2126.82,-383 2126.82,-383"/>
<polygon fill="black" stroke="black" points="2126.82,-379.5 2116.82,-383 2126.81,-386.5 2126.82,-379.5"/>
</g>
<!-- UserService  -->
<g id="node43" class="node">
<title>UserService </title>
<polygon fill="#fb8072" stroke="black" points="1680.9,-342 1593.1,-342 1593.1,-306 1680.9,-306 1680.9,-342"/>
<text text-anchor="middle" x="1637" y="-319.8" font-family="Times,serif" font-size="14.00">UserService </text>
</g>
<!-- UserModule&#45;&gt;UserService  -->
<g id="edge42" class="edge">
<title>UserModule&#45;&gt;UserService </title>
<path fill="none" stroke="black" stroke-dasharray="5,2" d="M2185.79,-266.42C2185.79,-275.28 2185.79,-284 2185.79,-284 2185.79,-284 1637,-284 1637,-284 1637,-284 1637,-295.87 1637,-295.87"/>
<polygon fill="black" stroke="black" points="1633.5,-295.87 1637,-305.87 1640.5,-295.87 1633.5,-295.87"/>
</g>
<!-- CaslModule -->
<g id="node12" class="node">
<title>CaslModule</title>
<polygon fill="#8dd3c7" stroke="black" points="3719.44,-266 3716.44,-270 3695.44,-270 3692.44,-266 3634.56,-266 3634.56,-230 3719.44,-230 3719.44,-266"/>
<text text-anchor="middle" x="3677" y="-243.8" font-family="Times,serif" font-size="14.00">CaslModule</text>
</g>
<!-- CaslModule&#45;&gt;AuthModule -->
<g id="edge10" class="edge">
<title>CaslModule&#45;&gt;AuthModule</title>
<path fill="none" stroke="black" d="M3677,-266.03C3677,-282.4 3677,-304 3677,-304 3677,-304 2208.89,-304 2208.89,-304 2208.89,-304 2208.89,-304.18 2208.89,-304.18"/>
<polygon fill="black" stroke="black" points="2205.39,-295.85 2208.89,-305.85 2212.39,-295.85 2205.39,-295.85"/>
</g>
<!-- CaslAbilityFactory  -->
<g id="node23" class="node">
<title>CaslAbilityFactory </title>
<polygon fill="#fb8072" stroke="black" points="3826.32,-190 3699.68,-190 3699.68,-154 3826.32,-154 3826.32,-190"/>
<text text-anchor="middle" x="3763" y="-167.8" font-family="Times,serif" font-size="14.00">CaslAbilityFactory </text>
</g>
<!-- CaslModule&#45;&gt;CaslAbilityFactory  -->
<g id="edge22" class="edge">
<title>CaslModule&#45;&gt;CaslAbilityFactory </title>
<path fill="none" stroke="black" stroke-dasharray="5,2" d="M3709.4,-229.99C3709.4,-229.99 3709.4,-200.15 3709.4,-200.15"/>
<polygon fill="black" stroke="black" points="3712.9,-200.15 3709.4,-190.15 3705.9,-200.15 3712.9,-200.15"/>
</g>
<!-- AuthService -->
<g id="node16" class="node">
<title>AuthService</title>
<ellipse fill="#fdb462" stroke="black" cx="3240" cy="-248" rx="59.11" ry="18"/>
<text text-anchor="middle" x="3240" y="-243.8" font-family="Times,serif" font-size="14.00">AuthService</text>
</g>
<!-- AuthService&#45;&gt;AuthModule -->
<g id="edge15" class="edge">
<title>AuthService&#45;&gt;AuthModule</title>
<path fill="none" stroke="black" d="M3240,-266.18C3240,-279.04 3240,-294 3240,-294 3240,-294 2206,-294 2206,-294 2206,-294 2206,-295.86 2206,-295.86"/>
<polygon fill="black" stroke="black" points="2202.5,-295.86 2206,-305.86 2209.5,-295.86 2202.5,-295.86"/>
</g>
<!-- JwtGuard -->
<g id="node17" class="node">
<title>JwtGuard</title>
<ellipse fill="#fdb462" stroke="black" cx="3114" cy="-248" rx="48.65" ry="18"/>
<text text-anchor="middle" x="3114" y="-243.8" font-family="Times,serif" font-size="14.00">JwtGuard</text>
</g>
<!-- JwtGuard&#45;&gt;AuthModule -->
<g id="edge16" class="edge">
<title>JwtGuard&#45;&gt;AuthModule</title>
<path fill="none" stroke="black" d="M3114,-266.49C3114,-278.14 3114,-291 3114,-291 3114,-291 2203.11,-291 2203.11,-291 2203.11,-291 2203.11,-295.96 2203.11,-295.96"/>
<polygon fill="black" stroke="black" points="2199.61,-295.96 2203.11,-305.96 2206.61,-295.96 2199.61,-295.96"/>
</g>
<!-- JwtStrategy -->
<g id="node18" class="node">
<title>JwtStrategy</title>
<ellipse fill="#fdb462" stroke="black" cx="2991" cy="-248" rx="56.76" ry="18"/>
<text text-anchor="middle" x="2991" y="-243.8" font-family="Times,serif" font-size="14.00">JwtStrategy</text>
</g>
<!-- JwtStrategy&#45;&gt;AuthModule -->
<g id="edge17" class="edge">
<title>JwtStrategy&#45;&gt;AuthModule</title>
<path fill="none" stroke="black" d="M2991,-266.1C2991,-277.09 2991,-289 2991,-289 2991,-289 2200.22,-289 2200.22,-289 2200.22,-289 2200.22,-295.68 2200.22,-295.68"/>
<polygon fill="black" stroke="black" points="2196.72,-295.68 2200.22,-305.68 2203.72,-295.68 2196.72,-295.68"/>
</g>
<!-- ProfessorService -->
<g id="node21" class="node">
<title>ProfessorService</title>
<ellipse fill="#fdb462" stroke="black" cx="100" cy="-324" rx="76.42" ry="18"/>
<text text-anchor="middle" x="100" y="-319.8" font-family="Times,serif" font-size="14.00">ProfessorService</text>
</g>
<!-- ProfessorService&#45;&gt;AuxiliaryModule -->
<g id="edge20" class="edge">
<title>ProfessorService&#45;&gt;AuxiliaryModule</title>
<path fill="none" stroke="black" d="M100,-305.76C100,-280.52 100,-238 100,-238 100,-238 1711.21,-238 1711.21,-238"/>
<polygon fill="black" stroke="black" points="1711.21,-241.5 1721.21,-238 1711.21,-234.5 1711.21,-241.5"/>
</g>
<!-- StudentService -->
<g id="node22" class="node">
<title>StudentService</title>
<ellipse fill="#fdb462" stroke="black" cx="264" cy="-324" rx="69.5" ry="18"/>
<text text-anchor="middle" x="264" y="-319.8" font-family="Times,serif" font-size="14.00">StudentService</text>
</g>
<!-- StudentService&#45;&gt;AuxiliaryModule -->
<g id="edge21" class="edge">
<title>StudentService&#45;&gt;AuxiliaryModule</title>
<path fill="none" stroke="black" d="M264,-305.68C264,-282.34 264,-245 264,-245 264,-245 1710.96,-245 1710.96,-245"/>
<polygon fill="black" stroke="black" points="1710.96,-248.5 1720.96,-245 1710.96,-241.5 1710.96,-248.5"/>
</g>
<!-- CaslAbilityFactory -->
<g id="node24" class="node">
<title>CaslAbilityFactory</title>
<ellipse fill="#fdb462" stroke="black" cx="3591" cy="-172" rx="85.13" ry="18"/>
<text text-anchor="middle" x="3591" y="-167.8" font-family="Times,serif" font-size="14.00">CaslAbilityFactory</text>
</g>
<!-- CaslAbilityFactory&#45;&gt;CaslModule -->
<g id="edge23" class="edge">
<title>CaslAbilityFactory&#45;&gt;CaslModule</title>
<path fill="none" stroke="black" d="M3655.42,-183.88C3655.42,-183.88 3655.42,-219.99 3655.42,-219.99"/>
<polygon fill="black" stroke="black" points="3651.92,-219.99 3655.42,-229.99 3658.92,-219.99 3651.92,-219.99"/>
</g>
<!-- PayloadInterceptor -->
<g id="node26" class="node">
<title>PayloadInterceptor</title>
<ellipse fill="#fdb462" stroke="black" cx="718" cy="-324" rx="84.51" ry="18"/>
<text text-anchor="middle" x="718" y="-319.8" font-family="Times,serif" font-size="14.00">PayloadInterceptor</text>
</g>
<!-- PayloadInterceptor&#45;&gt;CoreModule -->
<g id="edge25" class="edge">
<title>PayloadInterceptor&#45;&gt;CoreModule</title>
<path fill="none" stroke="black" d="M718,-305.99C718,-289.95 718,-269 718,-269 718,-269 1874.31,-269 1874.31,-269 1874.31,-269 1874.31,-268.71 1874.31,-268.71"/>
<polygon fill="black" stroke="black" points="1877.81,-276.08 1874.31,-266.08 1870.81,-276.08 1877.81,-276.08"/>
</g>
<!-- ExamService -->
<g id="node28" class="node">
<title>ExamService</title>
<ellipse fill="#fdb462" stroke="black" cx="2195" cy="-172" rx="62.54" ry="18"/>
<text text-anchor="middle" x="2195" y="-167.8" font-family="Times,serif" font-size="14.00">ExamService</text>
</g>
<!-- ExamService&#45;&gt;ExamModule -->
<g id="edge27" class="edge">
<title>ExamService&#45;&gt;ExamModule</title>
<path fill="none" stroke="black" d="M2257.6,-172C2267.18,-172 2273.96,-172 2273.96,-172 2273.96,-172 2273.96,-248 2273.96,-248 2273.96,-248 2274.94,-248 2274.94,-248"/>
<polygon fill="black" stroke="black" points="2273.72,-251.5 2283.72,-248 2273.72,-244.5 2273.72,-251.5"/>
</g>
<!-- ExamTargetService -->
<g id="node29" class="node">
<title>ExamTargetService</title>
<ellipse fill="#fdb462" stroke="black" cx="2027" cy="-172" rx="87.94" ry="18"/>
<text text-anchor="middle" x="2027" y="-167.8" font-family="Times,serif" font-size="14.00">ExamTargetService</text>
</g>
<!-- ExamTargetService&#45;&gt;ExamModule -->
<g id="edge28" class="edge">
<title>ExamTargetService&#45;&gt;ExamModule</title>
<path fill="none" stroke="black" d="M2088.36,-185.26C2088.36,-198.53 2088.36,-217 2088.36,-217 2088.36,-217 2314.62,-217 2314.62,-217 2314.62,-217 2314.62,-219.97 2314.62,-219.97"/>
<polygon fill="black" stroke="black" points="2311.12,-219.97 2314.62,-229.97 2318.12,-219.97 2311.12,-219.97"/>
</g>
<!-- FirebaseAdmin  -->
<g id="node30" class="node">
<title>FirebaseAdmin </title>
<polygon fill="#fb8072" stroke="black" points="4289.81,-266 4184.19,-266 4184.19,-230 4289.81,-230 4289.81,-266"/>
<text text-anchor="middle" x="4237" y="-243.8" font-family="Times,serif" font-size="14.00">FirebaseAdmin </text>
</g>
<!-- FirebaseAdminModule -->
<g id="node31" class="node">
<title>FirebaseAdminModule</title>
<polygon fill="#8dd3c7" stroke="black" points="4309.86,-190 4306.86,-194 4285.86,-194 4282.86,-190 4164.14,-190 4164.14,-154 4309.86,-154 4309.86,-190"/>
<text text-anchor="middle" x="4237" y="-167.8" font-family="Times,serif" font-size="14.00">FirebaseAdminModule</text>
</g>
<!-- FirebaseAdminModule&#45;&gt;FirebaseAdmin  -->
<g id="edge29" class="edge">
<title>FirebaseAdminModule&#45;&gt;FirebaseAdmin </title>
<path fill="none" stroke="black" stroke-dasharray="5,2" d="M4237,-190.01C4237,-190.01 4237,-219.85 4237,-219.85"/>
<polygon fill="black" stroke="black" points="4233.5,-219.85 4237,-229.85 4240.5,-219.85 4233.5,-219.85"/>
</g>
<!-- FirebaseAdmin -->
<g id="node32" class="node">
<title>FirebaseAdmin</title>
<ellipse fill="#fdb462" stroke="black" cx="4237" cy="-104" rx="70.64" ry="18"/>
<text text-anchor="middle" x="4237" y="-99.8" font-family="Times,serif" font-size="14.00">FirebaseAdmin</text>
</g>
<!-- FirebaseAdmin&#45;&gt;FirebaseAdminModule -->
<g id="edge30" class="edge">
<title>FirebaseAdmin&#45;&gt;FirebaseAdminModule</title>
<path fill="none" stroke="black" d="M4237,-122.22C4237,-122.22 4237,-143.73 4237,-143.73"/>
<polygon fill="black" stroke="black" points="4233.5,-143.73 4237,-153.73 4240.5,-143.73 4233.5,-143.73"/>
</g>
<!-- FirebaseAuthService  -->
<g id="node33" class="node">
<title>FirebaseAuthService </title>
<polygon fill="#fb8072" stroke="black" points="2792.4,-266 2655.6,-266 2655.6,-230 2792.4,-230 2792.4,-266"/>
<text text-anchor="middle" x="2724" y="-243.8" font-family="Times,serif" font-size="14.00">FirebaseAuthService </text>
</g>
<!-- FirebaseCloudMessagingService  -->
<g id="node34" class="node">
<title>FirebaseCloudMessagingService </title>
<polygon fill="#fb8072" stroke="black" points="2637.78,-266 2434.22,-266 2434.22,-230 2637.78,-230 2637.78,-266"/>
<text text-anchor="middle" x="2536" y="-243.8" font-family="Times,serif" font-size="14.00">FirebaseCloudMessagingService </text>
</g>
<!-- FirebaseModule -->
<g id="node35" class="node">
<title>FirebaseModule</title>
<polygon fill="#8dd3c7" stroke="black" points="2607.47,-190 2604.47,-194 2583.47,-194 2580.47,-190 2500.53,-190 2500.53,-154 2607.47,-154 2607.47,-190"/>
<text text-anchor="middle" x="2554" y="-167.8" font-family="Times,serif" font-size="14.00">FirebaseModule</text>
</g>
<!-- FirebaseModule&#45;&gt;InfraModule -->
<g id="edge35" class="edge">
<title>FirebaseModule&#45;&gt;InfraModule</title>
<path fill="none" stroke="black" d="M2536.17,-190.24C2536.17,-197.43 2536.17,-204 2536.17,-204 2536.17,-204 2001,-204 2001,-204 2001,-204 2001,-219.85 2001,-219.85"/>
<polygon fill="black" stroke="black" points="1997.5,-219.85 2001,-229.85 2004.5,-219.85 1997.5,-219.85"/>
</g>
<!-- FirebaseModule&#45;&gt;FirebaseAuthService  -->
<g id="edge31" class="edge">
<title>FirebaseModule&#45;&gt;FirebaseAuthService </title>
<path fill="none" stroke="black" stroke-dasharray="5,2" d="M2607.62,-178C2639.53,-178 2673.85,-178 2673.85,-178 2673.85,-178 2673.85,-219.97 2673.85,-219.97"/>
<polygon fill="black" stroke="black" points="2670.35,-219.97 2673.85,-229.97 2677.35,-219.97 2670.35,-219.97"/>
</g>
<!-- FirebaseModule&#45;&gt;FirebaseCloudMessagingService  -->
<g id="edge32" class="edge">
<title>FirebaseModule&#45;&gt;FirebaseCloudMessagingService </title>
<path fill="none" stroke="black" stroke-dasharray="5,2" d="M2571.83,-190.01C2571.83,-190.01 2571.83,-219.85 2571.83,-219.85"/>
<polygon fill="black" stroke="black" points="2568.33,-219.85 2571.83,-229.85 2575.33,-219.85 2568.33,-219.85"/>
</g>
<!-- FirebaseAuthService -->
<g id="node36" class="node">
<title>FirebaseAuthService</title>
<ellipse fill="#fdb462" stroke="black" cx="2802" cy="-104" rx="92.03" ry="18"/>
<text text-anchor="middle" x="2802" y="-99.8" font-family="Times,serif" font-size="14.00">FirebaseAuthService</text>
</g>
<!-- FirebaseAuthService&#45;&gt;FirebaseModule -->
<g id="edge33" class="edge">
<title>FirebaseAuthService&#45;&gt;FirebaseModule</title>
<path fill="none" stroke="black" d="M2751.22,-119.33C2751.22,-137.69 2751.22,-166 2751.22,-166 2751.22,-166 2617.63,-166 2617.63,-166"/>
<polygon fill="black" stroke="black" points="2617.63,-162.5 2607.63,-166 2617.63,-169.5 2617.63,-162.5"/>
</g>
<!-- FirebaseCloudMessagingService -->
<g id="node37" class="node">
<title>FirebaseCloudMessagingService</title>
<ellipse fill="#fdb462" stroke="black" cx="2554" cy="-104" rx="138.3" ry="18"/>
<text text-anchor="middle" x="2554" y="-99.8" font-family="Times,serif" font-size="14.00">FirebaseCloudMessagingService</text>
</g>
<!-- FirebaseCloudMessagingService&#45;&gt;FirebaseModule -->
<g id="edge34" class="edge">
<title>FirebaseCloudMessagingService&#45;&gt;FirebaseModule</title>
<path fill="none" stroke="black" d="M2554,-122.22C2554,-122.22 2554,-143.73 2554,-143.73"/>
<polygon fill="black" stroke="black" points="2550.5,-143.73 2554,-153.73 2557.5,-143.73 2550.5,-143.73"/>
</g>
<!-- CustomLogger -->
<g id="node40" class="node">
<title>CustomLogger</title>
<ellipse fill="#fdb462" stroke="black" cx="1216" cy="-324" rx="68.94" ry="18"/>
<text text-anchor="middle" x="1216" y="-319.8" font-family="Times,serif" font-size="14.00">CustomLogger</text>
</g>
<!-- CustomLogger&#45;&gt;LoggerModule -->
<g id="edge38" class="edge">
<title>CustomLogger&#45;&gt;LoggerModule</title>
<path fill="none" stroke="black" d="M1216,-305.85C1216,-292.26 1216,-276 1216,-276 1216,-276 2071.15,-276 2071.15,-276 2071.15,-276 2071.15,-275.02 2071.15,-275.02"/>
<polygon fill="black" stroke="black" points="2074.65,-276.21 2071.15,-266.21 2067.65,-276.21 2074.65,-276.21"/>
</g>
<!-- QuestionGroupService -->
<g id="node41" class="node">
<title>QuestionGroupService</title>
<ellipse fill="#fdb462" stroke="black" cx="4026" cy="-248" rx="99.56" ry="18"/>
<text text-anchor="middle" x="4026" y="-243.8" font-family="Times,serif" font-size="14.00">QuestionGroupService</text>
</g>
<!-- QuestionGroupService&#45;&gt;QuestionGroupModule -->
<g id="edge40" class="edge">
<title>QuestionGroupService&#45;&gt;QuestionGroupModule</title>
<path fill="none" stroke="black" d="M4026,-266.2C4026,-290.36 4026,-330 4026,-330 4026,-330 2385.93,-330 2385.93,-330"/>
<polygon fill="black" stroke="black" points="2385.93,-326.5 2375.93,-330 2385.93,-333.5 2385.93,-326.5"/>
</g>
<!-- QuestionService -->
<g id="node42" class="node">
<title>QuestionService</title>
<ellipse fill="#fdb462" stroke="black" cx="3834" cy="-248" rx="74.72" ry="18"/>
<text text-anchor="middle" x="3834" y="-243.8" font-family="Times,serif" font-size="14.00">QuestionService</text>
</g>
<!-- QuestionService&#45;&gt;QuestionGroupModule -->
<g id="edge41" class="edge">
<title>QuestionService&#45;&gt;QuestionGroupModule</title>
<path fill="none" stroke="black" d="M3834,-266.03C3834,-286.77 3834,-318 3834,-318 3834,-318 2386.07,-318 2386.07,-318"/>
<polygon fill="black" stroke="black" points="2386.07,-314.5 2376.07,-318 2386.07,-321.5 2386.07,-314.5"/>
</g>
<!-- UserService -->
<g id="node44" class="node">
<title>UserService</title>
<ellipse fill="#fdb462" stroke="black" cx="1511" cy="-324" rx="58.44" ry="18"/>
<text text-anchor="middle" x="1511" y="-319.8" font-family="Times,serif" font-size="14.00">UserService</text>
</g>
<!-- UserService&#45;&gt;UserModule -->
<g id="edge43" class="edge">
<title>UserService&#45;&gt;UserModule</title>
<path fill="none" stroke="black" d="M1511,-305.51C1511,-293.86 1511,-281 1511,-281 1511,-281 2182.9,-281 2182.9,-281 2182.9,-281 2182.9,-276.04 2182.9,-276.04"/>
<polygon fill="black" stroke="black" points="2186.4,-276.04 2182.9,-266.04 2179.4,-276.04 2186.4,-276.04"/>
</g>
</g>
</svg>
