<?xml version="1.0" encoding="UTF-8" standalone="no"?>
<!DOCTYPE svg PUBLIC "-//W3C//DTD SVG 1.1//EN"
 "http://www.w3.org/Graphics/SVG/1.1/DTD/svg11.dtd">
<!-- Generated by graphviz version 2.47.0 (20210316.0004)
 -->
<!-- Title: dependencies Pages: 1 -->
<svg width="4024pt" height="431pt"
 viewBox="0.00 0.00 4024.00 431.00" xmlns="http://www.w3.org/2000/svg" xmlns:xlink="http://www.w3.org/1999/xlink">
<g id="graph0" class="graph" transform="scale(1 1) rotate(0) translate(4 427)">
<title>dependencies</title>
<polygon fill="white" stroke="transparent" points="-4,4 -4,-427 4020,-427 4020,4 -4,4"/>
<text text-anchor="start" x="1987.01" y="-42.4" font-family="sans-serif" font-weight="bold" font-size="14.00">Legend</text>
<polygon fill="#ffffb3" stroke="transparent" points="1774,-10 1774,-30 1794,-30 1794,-10 1774,-10"/>
<text text-anchor="start" x="1797.63" y="-15.4" font-family="sans-serif" font-size="14.00"> &#160;Declarations</text>
<polygon fill="#8dd3c7" stroke="transparent" points="1887,-10 1887,-30 1907,-30 1907,-10 1887,-10"/>
<text text-anchor="start" x="1910.73" y="-15.4" font-family="sans-serif" font-size="14.00"> &#160;Module</text>
<polygon fill="#80b1d3" stroke="transparent" points="1973,-10 1973,-30 1993,-30 1993,-10 1973,-10"/>
<text text-anchor="start" x="1996.78" y="-15.4" font-family="sans-serif" font-size="14.00"> &#160;Bootstrap</text>
<polygon fill="#fdb462" stroke="transparent" points="2070,-10 2070,-30 2090,-30 2090,-10 2070,-10"/>
<text text-anchor="start" x="2093.67" y="-15.4" font-family="sans-serif" font-size="14.00"> &#160;Providers</text>
<polygon fill="#fb8072" stroke="transparent" points="2166,-10 2166,-30 2186,-30 2186,-10 2166,-10"/>
<text text-anchor="start" x="2189.73" y="-15.4" font-family="sans-serif" font-size="14.00"> &#160;Exports</text>
<g id="clust1" class="cluster">
<title>cluster_AnswerModule</title>
<polygon fill="none" stroke="black" stroke-dasharray="1,5" points="8,-70 8,-198 180,-198 180,-70 8,-70"/>
</g>
<g id="clust6" class="cluster">
<title>cluster_AnswerModule_providers</title>
<polygon fill="none" stroke="black" points="16,-78 16,-130 172,-130 172,-78 16,-78"/>
</g>
<g id="clust7" class="cluster">
<title>cluster_AppModule</title>
<polygon fill="none" stroke="black" stroke-dasharray="1,5" points="1357,-214 1357,-415 2044,-415 2044,-214 1357,-214"/>
</g>
<g id="clust9" class="cluster">
<title>cluster_AppModule_imports</title>
<polygon fill="none" stroke="black" points="1365,-222 1365,-350 2036,-350 2036,-222 1365,-222"/>
</g>
<g id="clust13" class="cluster">
<title>cluster_AuthModule</title>
<polygon fill="none" stroke="black" stroke-dasharray="1,5" points="2602,-214 2602,-282 3419,-282 3419,-214 2602,-214"/>
</g>
<g id="clust15" class="cluster">
<title>cluster_AuthModule_imports</title>
<polygon fill="none" stroke="black" points="3311,-222 3311,-274 3411,-274 3411,-222 3311,-222"/>
</g>
<g id="clust16" class="cluster">
<title>cluster_AuthModule_exports</title>
<polygon fill="none" stroke="black" points="2999,-222 2999,-274 3303,-274 3303,-222 2999,-222"/>
</g>
<g id="clust18" class="cluster">
<title>cluster_AuthModule_providers</title>
<polygon fill="none" stroke="black" points="2610,-222 2610,-274 2991,-274 2991,-222 2610,-222"/>
</g>
<g id="clust19" class="cluster">
<title>cluster_AuxiliaryModule</title>
<polygon fill="none" stroke="black" stroke-dasharray="1,5" points="188,-138 188,-206 789,-206 789,-138 188,-138"/>
</g>
<g id="clust22" class="cluster">
<title>cluster_AuxiliaryModule_exports</title>
<polygon fill="none" stroke="black" points="529,-146 529,-198 781,-198 781,-146 529,-146"/>
</g>
<g id="clust24" class="cluster">
<title>cluster_AuxiliaryModule_providers</title>
<polygon fill="none" stroke="black" points="196,-146 196,-198 521,-198 521,-146 196,-146"/>
</g>
<g id="clust25" class="cluster">
<title>cluster_CaslModule</title>
<polygon fill="none" stroke="black" stroke-dasharray="1,5" points="3174,-138 3174,-206 3526,-206 3526,-138 3174,-138"/>
</g>
<g id="clust28" class="cluster">
<title>cluster_CaslModule_exports</title>
<polygon fill="none" stroke="black" points="3376,-146 3376,-198 3518,-198 3518,-146 3376,-146"/>
</g>
<g id="clust30" class="cluster">
<title>cluster_CaslModule_providers</title>
<polygon fill="none" stroke="black" points="3182,-146 3182,-198 3368,-198 3368,-146 3182,-146"/>
</g>
<g id="clust31" class="cluster">
<title>cluster_CoreModule</title>
<polygon fill="none" stroke="black" stroke-dasharray="1,5" points="269,-290 269,-358 621,-358 621,-290 269,-290"/>
</g>
<g id="clust34" class="cluster">
<title>cluster_CoreModule_exports</title>
<polygon fill="none" stroke="black" points="471,-298 471,-350 613,-350 613,-298 471,-298"/>
</g>
<g id="clust36" class="cluster">
<title>cluster_CoreModule_providers</title>
<polygon fill="none" stroke="black" points="277,-298 277,-350 463,-350 463,-298 277,-298"/>
</g>
<g id="clust37" class="cluster">
<title>cluster_ExamModule</title>
<polygon fill="none" stroke="black" stroke-dasharray="1,5" points="797,-138 797,-206 2076,-206 2076,-138 797,-138"/>
</g>
<g id="clust40" class="cluster">
<title>cluster_ExamModule_exports</title>
<polygon fill="none" stroke="black" points="1784,-146 1784,-198 2068,-198 2068,-146 1784,-146"/>
</g>
<g id="clust42" class="cluster">
<title>cluster_ExamModule_providers</title>
<polygon fill="none" stroke="black" points="805,-146 805,-198 1776,-198 1776,-146 805,-146"/>
</g>
<g id="clust43" class="cluster">
<title>cluster_FirebaseAdminModule</title>
<polygon fill="none" stroke="black" stroke-dasharray="1,5" points="3834,-70 3834,-282 4008,-282 4008,-70 3834,-70"/>
</g>
<g id="clust46" class="cluster">
<title>cluster_FirebaseAdminModule_exports</title>
<polygon fill="none" stroke="black" points="3860,-222 3860,-274 3982,-274 3982,-222 3860,-222"/>
</g>
<g id="clust48" class="cluster">
<title>cluster_FirebaseAdminModule_providers</title>
<polygon fill="none" stroke="black" points="3842,-78 3842,-130 4000,-130 4000,-78 3842,-78"/>
</g>
<g id="clust49" class="cluster">
<title>cluster_FirebaseModule</title>
<polygon fill="none" stroke="black" stroke-dasharray="1,5" points="2084,-70 2084,-282 2594,-282 2594,-70 2084,-70"/>
</g>
<g id="clust52" class="cluster">
<title>cluster_FirebaseModule_exports</title>
<polygon fill="none" stroke="black" points="2110,-222 2110,-274 2484,-274 2484,-222 2110,-222"/>
</g>
<g id="clust54" class="cluster">
<title>cluster_FirebaseModule_providers</title>
<polygon fill="none" stroke="black" points="2092,-78 2092,-130 2586,-130 2586,-78 2092,-78"/>
</g>
<g id="clust55" class="cluster">
<title>cluster_InfraModule</title>
<polygon fill="none" stroke="black" stroke-dasharray="1,5" points="629,-290 629,-358 775,-358 775,-290 629,-290"/>
</g>
<g id="clust58" class="cluster">
<title>cluster_InfraModule_exports</title>
<polygon fill="none" stroke="black" points="637,-298 637,-350 767,-350 767,-298 637,-298"/>
</g>
<g id="clust61" class="cluster">
<title>cluster_LoggerModule</title>
<polygon fill="none" stroke="black" stroke-dasharray="1,5" points="783,-290 783,-358 1081,-358 1081,-290 783,-290"/>
</g>
<g id="clust64" class="cluster">
<title>cluster_LoggerModule_exports</title>
<polygon fill="none" stroke="black" points="953,-298 953,-350 1073,-350 1073,-298 953,-298"/>
</g>
<g id="clust66" class="cluster">
<title>cluster_LoggerModule_providers</title>
<polygon fill="none" stroke="black" points="791,-298 791,-350 945,-350 945,-298 791,-298"/>
</g>
<g id="clust67" class="cluster">
<title>cluster_QuestionGroupModule</title>
<polygon fill="none" stroke="black" stroke-dasharray="1,5" points="3427,-214 3427,-282 3826,-282 3826,-214 3427,-214"/>
</g>
<g id="clust72" class="cluster">
<title>cluster_QuestionGroupModule_providers</title>
<polygon fill="none" stroke="black" points="3435,-222 3435,-274 3818,-274 3818,-222 3435,-222"/>
</g>
<g id="clust73" class="cluster">
<title>cluster_UserModule</title>
<polygon fill="none" stroke="black" stroke-dasharray="1,5" points="1089,-290 1089,-358 1349,-358 1349,-290 1089,-290"/>
</g>
<g id="clust76" class="cluster">
<title>cluster_UserModule_exports</title>
<polygon fill="none" stroke="black" points="1237,-298 1237,-350 1341,-350 1341,-298 1237,-298"/>
</g>
<g id="clust78" class="cluster">
<title>cluster_UserModule_providers</title>
<polygon fill="none" stroke="black" points="1097,-298 1097,-350 1229,-350 1229,-298 1097,-298"/>
</g>
<!-- AnswerService -->
<g id="node1" class="node">
<title>AnswerService</title>
<ellipse fill="#fdb462" stroke="black" cx="94" cy="-104" rx="70.04" ry="18"/>
<text text-anchor="middle" x="94" y="-99.8" font-family="Times,serif" font-size="14.00">AnswerService</text>
</g>
<!-- AnswerModule -->
<g id="node2" class="node">
<title>AnswerModule</title>
<polygon fill="#8dd3c7" stroke="black" points="145.58,-190 142.58,-194 121.58,-194 118.58,-190 42.42,-190 42.42,-154 145.58,-154 145.58,-190"/>
<text text-anchor="middle" x="94" y="-167.8" font-family="Times,serif" font-size="14.00">AnswerModule</text>
</g>
<!-- AnswerService&#45;&gt;AnswerModule -->
<g id="edge1" class="edge">
<title>AnswerService&#45;&gt;AnswerModule</title>
<path fill="none" stroke="black" d="M94,-122.22C94,-122.22 94,-143.73 94,-143.73"/>
<polygon fill="black" stroke="black" points="90.5,-143.73 94,-153.73 97.5,-143.73 90.5,-143.73"/>
</g>
<!-- AuthModule -->
<g id="node3" class="node">
<title>AuthModule</title>
<polygon fill="#8dd3c7" stroke="black" points="1863.55,-342 1860.55,-346 1839.55,-346 1836.55,-342 1776.45,-342 1776.45,-306 1863.55,-306 1863.55,-342"/>
<text text-anchor="middle" x="1820" y="-319.8" font-family="Times,serif" font-size="14.00">AuthModule</text>
</g>
<!-- AppModule -->
<g id="node11" class="node">
<title>AppModule</title>
<polygon fill="#8dd3c7" stroke="black" points="1768.66,-407 1765.66,-411 1744.66,-411 1741.66,-407 1685.34,-407 1685.34,-371 1768.66,-371 1768.66,-407"/>
<text text-anchor="middle" x="1727" y="-384.8" font-family="Times,serif" font-size="14.00">AppModule</text>
</g>
<!-- AuthModule&#45;&gt;AppModule -->
<g id="edge2" class="edge">
<title>AuthModule&#45;&gt;AppModule</title>
<path fill="none" stroke="black" d="M1776.15,-330C1765.63,-330 1757.36,-330 1757.36,-330 1757.36,-330 1757.36,-360.98 1757.36,-360.98"/>
<polygon fill="black" stroke="black" points="1753.86,-360.98 1757.36,-370.98 1760.86,-360.98 1753.86,-360.98"/>
</g>
<!-- AuthService  -->
<g id="node13" class="node">
<title>AuthService </title>
<polygon fill="#fb8072" stroke="black" points="3294.98,-266 3205.02,-266 3205.02,-230 3294.98,-230 3294.98,-266"/>
<text text-anchor="middle" x="3250" y="-243.8" font-family="Times,serif" font-size="14.00">AuthService </text>
</g>
<!-- AuthModule&#45;&gt;AuthService  -->
<g id="edge12" class="edge">
<title>AuthModule&#45;&gt;AuthService </title>
<path fill="none" stroke="black" stroke-dasharray="5,2" d="M1826.66,-305.81C1826.66,-302.46 1826.66,-300 1826.66,-300 1826.66,-300 3250,-300 3250,-300 3250,-300 3250,-276.19 3250,-276.19"/>
<polygon fill="black" stroke="black" points="3253.5,-276.19 3250,-266.19 3246.5,-276.19 3253.5,-276.19"/>
</g>
<!-- CaslModule  -->
<g id="node14" class="node">
<title>CaslModule </title>
<polygon fill="#fb8072" stroke="black" points="3186.94,-266 3099.06,-266 3099.06,-230 3186.94,-230 3186.94,-266"/>
<text text-anchor="middle" x="3143" y="-243.8" font-family="Times,serif" font-size="14.00">CaslModule </text>
</g>
<!-- AuthModule&#45;&gt;CaslModule  -->
<g id="edge13" class="edge">
<title>AuthModule&#45;&gt;CaslModule </title>
<path fill="none" stroke="black" stroke-dasharray="5,2" d="M1819.24,-305.84C1819.24,-300.96 1819.24,-297 1819.24,-297 1819.24,-297 3143,-297 3143,-297 3143,-297 3143,-276.25 3143,-276.25"/>
<polygon fill="black" stroke="black" points="3146.5,-276.25 3143,-266.25 3139.5,-276.25 3146.5,-276.25"/>
</g>
<!-- JwtGuard  -->
<g id="node15" class="node">
<title>JwtGuard </title>
<polygon fill="#fb8072" stroke="black" points="3080.92,-266 3007.08,-266 3007.08,-230 3080.92,-230 3080.92,-266"/>
<text text-anchor="middle" x="3044" y="-243.8" font-family="Times,serif" font-size="14.00">JwtGuard </text>
</g>
<!-- AuthModule&#45;&gt;JwtGuard  -->
<g id="edge14" class="edge">
<title>AuthModule&#45;&gt;JwtGuard </title>
<path fill="none" stroke="black" stroke-dasharray="5,2" d="M1811.82,-305.86C1811.82,-299.54 1811.82,-294 1811.82,-294 1811.82,-294 3044,-294 3044,-294 3044,-294 3044,-276.18 3044,-276.18"/>
<polygon fill="black" stroke="black" points="3047.5,-276.18 3044,-266.18 3040.5,-276.18 3047.5,-276.18"/>
</g>
<!-- AuxiliaryModule -->
<g id="node4" class="node">
<title>AuxiliaryModule</title>
<polygon fill="#8dd3c7" stroke="black" points="1917.7,-266 1914.7,-270 1893.7,-270 1890.7,-266 1804.3,-266 1804.3,-230 1917.7,-230 1917.7,-266"/>
<text text-anchor="middle" x="1861" y="-243.8" font-family="Times,serif" font-size="14.00">AuxiliaryModule</text>
</g>
<!-- AuxiliaryModule&#45;&gt;AppModule -->
<g id="edge3" class="edge">
<title>AuxiliaryModule&#45;&gt;AppModule</title>
<path fill="none" stroke="black" d="M1872.92,-266.21C1872.92,-303.06 1872.92,-383 1872.92,-383 1872.92,-383 1778.82,-383 1778.82,-383"/>
<polygon fill="black" stroke="black" points="1778.82,-379.5 1768.82,-383 1778.81,-386.5 1778.82,-379.5"/>
</g>
<!-- ProfessorService  -->
<g id="node19" class="node">
<title>ProfessorService </title>
<polygon fill="#fb8072" stroke="black" points="773.35,-190 658.65,-190 658.65,-154 773.35,-154 773.35,-190"/>
<text text-anchor="middle" x="716" y="-167.8" font-family="Times,serif" font-size="14.00">ProfessorService </text>
</g>
<!-- AuxiliaryModule&#45;&gt;ProfessorService  -->
<g id="edge18" class="edge">
<title>AuxiliaryModule&#45;&gt;ProfessorService </title>
<path fill="none" stroke="black" stroke-dasharray="5,2" d="M1858.84,-229.97C1858.84,-223.15 1858.84,-217 1858.84,-217 1858.84,-217 765.98,-217 765.98,-217 765.98,-217 765.98,-200.04 765.98,-200.04"/>
<polygon fill="black" stroke="black" points="769.48,-200.04 765.98,-190.04 762.48,-200.04 769.48,-200.04"/>
</g>
<!-- StudentService  -->
<g id="node20" class="node">
<title>StudentService </title>
<polygon fill="#fb8072" stroke="black" points="641.26,-190 536.74,-190 536.74,-154 641.26,-154 641.26,-190"/>
<text text-anchor="middle" x="589" y="-167.8" font-family="Times,serif" font-size="14.00">StudentService </text>
</g>
<!-- AuxiliaryModule&#45;&gt;StudentService  -->
<g id="edge19" class="edge">
<title>AuxiliaryModule&#45;&gt;StudentService </title>
<path fill="none" stroke="black" stroke-dasharray="5,2" d="M1845.23,-229.79C1845.23,-224.45 1845.23,-220 1845.23,-220 1845.23,-220 623.07,-220 623.07,-220 623.07,-220 623.07,-200.15 623.07,-200.15"/>
<polygon fill="black" stroke="black" points="626.57,-200.15 623.07,-190.15 619.57,-200.15 626.57,-200.15"/>
</g>
<!-- CoreModule -->
<g id="node5" class="node">
<title>CoreModule</title>
<polygon fill="#8dd3c7" stroke="black" points="1459.26,-266 1456.26,-270 1435.26,-270 1432.26,-266 1372.74,-266 1372.74,-230 1459.26,-230 1459.26,-266"/>
<text text-anchor="middle" x="1416" y="-243.8" font-family="Times,serif" font-size="14.00">CoreModule</text>
</g>
<!-- CoreModule&#45;&gt;AppModule -->
<g id="edge4" class="edge">
<title>CoreModule&#45;&gt;AppModule</title>
<path fill="none" stroke="black" d="M1416,-266.03C1416,-305.28 1416,-395 1416,-395 1416,-395 1675.06,-395 1675.06,-395"/>
<polygon fill="black" stroke="black" points="1675.06,-398.5 1685.06,-395 1675.06,-391.5 1675.06,-398.5"/>
</g>
<!-- PayloadInterceptor  -->
<g id="node25" class="node">
<title>PayloadInterceptor </title>
<polygon fill="#fb8072" stroke="black" points="605.01,-342 478.99,-342 478.99,-306 605.01,-306 605.01,-342"/>
<text text-anchor="middle" x="542" y="-319.8" font-family="Times,serif" font-size="14.00">PayloadInterceptor </text>
</g>
<!-- CoreModule&#45;&gt;PayloadInterceptor  -->
<g id="edge24" class="edge">
<title>CoreModule&#45;&gt;PayloadInterceptor </title>
<path fill="none" stroke="black" stroke-dasharray="5,2" d="M1372.64,-254C1200.01,-254 570.94,-254 570.94,-254 570.94,-254 570.94,-295.97 570.94,-295.97"/>
<polygon fill="black" stroke="black" points="567.44,-295.97 570.94,-305.97 574.44,-295.97 567.44,-295.97"/>
</g>
<!-- ExamModule -->
<g id="node6" class="node">
<title>ExamModule</title>
<polygon fill="#8dd3c7" stroke="black" points="2028.21,-266 2025.21,-270 2004.21,-270 2001.21,-266 1935.79,-266 1935.79,-230 2028.21,-230 2028.21,-266"/>
<text text-anchor="middle" x="1982" y="-243.8" font-family="Times,serif" font-size="14.00">ExamModule</text>
</g>
<!-- QuestionGroupModule -->
<g id="node9" class="node">
<title>QuestionGroupModule</title>
<polygon fill="#8dd3c7" stroke="black" points="2027.86,-342 2024.86,-346 2003.86,-346 2000.86,-342 1882.14,-342 1882.14,-306 2027.86,-306 2027.86,-342"/>
<text text-anchor="middle" x="1955" y="-319.8" font-family="Times,serif" font-size="14.00">QuestionGroupModule</text>
</g>
<!-- ExamModule&#45;&gt;QuestionGroupModule -->
<g id="edge43" class="edge">
<title>ExamModule&#45;&gt;QuestionGroupModule</title>
<path fill="none" stroke="black" d="M1997.25,-266.01C1997.25,-266.01 1997.25,-295.85 1997.25,-295.85"/>
<polygon fill="black" stroke="black" points="1993.75,-295.85 1997.25,-305.85 2000.75,-295.85 1993.75,-295.85"/>
</g>
<!-- ExamModule&#45;&gt;AppModule -->
<g id="edge5" class="edge">
<title>ExamModule&#45;&gt;AppModule</title>
<path fill="none" stroke="black" d="M1966.57,-266.19C1966.57,-274.28 1966.57,-282 1966.57,-282 1966.57,-282 1745.89,-282 1745.89,-282 1745.89,-282 1745.89,-360.85 1745.89,-360.85"/>
<polygon fill="black" stroke="black" points="1742.39,-360.85 1745.89,-370.85 1749.39,-360.85 1742.39,-360.85"/>
</g>
<!-- ExamAgreementService  -->
<g id="node27" class="node">
<title>ExamAgreementService </title>
<polygon fill="#fb8072" stroke="black" points="2060.33,-190 1903.67,-190 1903.67,-154 2060.33,-154 2060.33,-190"/>
<text text-anchor="middle" x="1982" y="-167.8" font-family="Times,serif" font-size="14.00">ExamAgreementService </text>
</g>
<!-- ExamModule&#45;&gt;ExamAgreementService  -->
<g id="edge26" class="edge">
<title>ExamModule&#45;&gt;ExamAgreementService </title>
<path fill="none" stroke="black" stroke-dasharray="5,2" d="M2016.58,-229.99C2016.58,-229.99 2016.58,-200.15 2016.58,-200.15"/>
<polygon fill="black" stroke="black" points="2020.08,-200.15 2016.58,-190.15 2013.08,-200.15 2020.08,-200.15"/>
</g>
<!-- ExamService  -->
<g id="node28" class="node">
<title>ExamService </title>
<polygon fill="#fb8072" stroke="black" points="1886.14,-190 1791.86,-190 1791.86,-154 1886.14,-154 1886.14,-190"/>
<text text-anchor="middle" x="1839" y="-167.8" font-family="Times,serif" font-size="14.00">ExamService </text>
</g>
<!-- ExamModule&#45;&gt;ExamService  -->
<g id="edge27" class="edge">
<title>ExamModule&#45;&gt;ExamService </title>
<path fill="none" stroke="black" stroke-dasharray="5,2" d="M2005.05,-229.88C2005.05,-215.22 2005.05,-197 2005.05,-197 2005.05,-197 1872.46,-197 1872.46,-197 1872.46,-197 1872.46,-196.32 1872.46,-196.32"/>
<polygon fill="black" stroke="black" points="1875.96,-200.17 1872.46,-190.17 1868.96,-200.17 1875.96,-200.17"/>
</g>
<!-- InfraModule -->
<g id="node7" class="node">
<title>InfraModule</title>
<polygon fill="#8dd3c7" stroke="black" points="1564.25,-266 1561.25,-270 1540.25,-270 1537.25,-266 1477.75,-266 1477.75,-230 1564.25,-230 1564.25,-266"/>
<text text-anchor="middle" x="1521" y="-243.8" font-family="Times,serif" font-size="14.00">InfraModule</text>
</g>
<!-- InfraModule&#45;&gt;AppModule -->
<g id="edge6" class="edge">
<title>InfraModule&#45;&gt;AppModule</title>
<path fill="none" stroke="black" d="M1535.46,-266.21C1535.46,-303.06 1535.46,-383 1535.46,-383 1535.46,-383 1674.97,-383 1674.97,-383"/>
<polygon fill="black" stroke="black" points="1674.97,-386.5 1684.97,-383 1674.97,-379.5 1674.97,-386.5"/>
</g>
<!-- UploaderService  -->
<g id="node42" class="node">
<title>UploaderService </title>
<polygon fill="#fb8072" stroke="black" points="758.57,-342 645.43,-342 645.43,-306 758.57,-306 758.57,-342"/>
<text text-anchor="middle" x="702" y="-319.8" font-family="Times,serif" font-size="14.00">UploaderService </text>
</g>
<!-- InfraModule&#45;&gt;UploaderService  -->
<g id="edge40" class="edge">
<title>InfraModule&#45;&gt;UploaderService </title>
<path fill="none" stroke="black" stroke-dasharray="5,2" d="M1506.54,-266.17C1506.54,-268.45 1506.54,-270 1506.54,-270 1506.54,-270 708.8,-270 708.8,-270 708.8,-270 708.8,-295.72 708.8,-295.72"/>
<polygon fill="black" stroke="black" points="705.3,-295.72 708.8,-305.72 712.3,-295.72 705.3,-295.72"/>
</g>
<!-- LoggerModule -->
<g id="node8" class="node">
<title>LoggerModule</title>
<polygon fill="#8dd3c7" stroke="black" points="1681.98,-266 1678.98,-270 1657.98,-270 1654.98,-266 1582.02,-266 1582.02,-230 1681.98,-230 1681.98,-266"/>
<text text-anchor="middle" x="1632" y="-243.8" font-family="Times,serif" font-size="14.00">LoggerModule</text>
</g>
<!-- LoggerModule&#45;&gt;AppModule -->
<g id="edge7" class="edge">
<title>LoggerModule&#45;&gt;AppModule</title>
<path fill="none" stroke="black" d="M1682.04,-248C1688.32,-248 1692.59,-248 1692.59,-248 1692.59,-248 1692.59,-360.86 1692.59,-360.86"/>
<polygon fill="black" stroke="black" points="1689.09,-360.86 1692.59,-370.86 1696.09,-360.86 1689.09,-360.86"/>
</g>
<!-- CustomLogger  -->
<g id="node43" class="node">
<title>CustomLogger </title>
<polygon fill="#fb8072" stroke="black" points="1064.99,-342 961.01,-342 961.01,-306 1064.99,-306 1064.99,-342"/>
<text text-anchor="middle" x="1013" y="-319.8" font-family="Times,serif" font-size="14.00">CustomLogger </text>
</g>
<!-- LoggerModule&#45;&gt;CustomLogger  -->
<g id="edge41" class="edge">
<title>LoggerModule&#45;&gt;CustomLogger </title>
<path fill="none" stroke="black" stroke-dasharray="5,2" d="M1648.66,-266.21C1648.66,-271.55 1648.66,-276 1648.66,-276 1648.66,-276 1057.11,-276 1057.11,-276 1057.11,-276 1057.11,-295.85 1057.11,-295.85"/>
<polygon fill="black" stroke="black" points="1053.61,-295.85 1057.11,-305.85 1060.61,-295.85 1053.61,-295.85"/>
</g>
<!-- QuestionGroupModule&#45;&gt;AppModule -->
<g id="edge8" class="edge">
<title>QuestionGroupModule&#45;&gt;AppModule</title>
<path fill="none" stroke="black" d="M1955,-342.28C1955,-363.32 1955,-395 1955,-395 1955,-395 1778.82,-395 1778.82,-395"/>
<polygon fill="black" stroke="black" points="1778.82,-391.5 1768.82,-395 1778.82,-398.5 1778.82,-391.5"/>
</g>
<!-- UserModule -->
<g id="node10" class="node">
<title>UserModule</title>
<polygon fill="#8dd3c7" stroke="black" points="1785.98,-266 1782.98,-270 1761.98,-270 1758.98,-266 1700.02,-266 1700.02,-230 1785.98,-230 1785.98,-266"/>
<text text-anchor="middle" x="1743" y="-243.8" font-family="Times,serif" font-size="14.00">UserModule</text>
</g>
<!-- UserModule&#45;&gt;AuthModule -->
<g id="edge11" class="edge">
<title>UserModule&#45;&gt;AuthModule</title>
<path fill="none" stroke="black" d="M1781.11,-266.01C1781.11,-266.01 1781.11,-295.85 1781.11,-295.85"/>
<polygon fill="black" stroke="black" points="1777.61,-295.85 1781.11,-305.85 1784.61,-295.85 1777.61,-295.85"/>
</g>
<!-- UserModule&#45;&gt;AppModule -->
<g id="edge9" class="edge">
<title>UserModule&#45;&gt;AppModule</title>
<path fill="none" stroke="black" d="M1734.42,-266.14C1734.42,-266.14 1734.42,-360.93 1734.42,-360.93"/>
<polygon fill="black" stroke="black" points="1730.92,-360.92 1734.42,-370.93 1737.92,-360.93 1730.92,-360.92"/>
</g>
<!-- UserService  -->
<g id="node47" class="node">
<title>UserService </title>
<polygon fill="#fb8072" stroke="black" points="1332.9,-342 1245.1,-342 1245.1,-306 1332.9,-306 1332.9,-342"/>
<text text-anchor="middle" x="1289" y="-319.8" font-family="Times,serif" font-size="14.00">UserService </text>
</g>
<!-- UserModule&#45;&gt;UserService  -->
<g id="edge46" class="edge">
<title>UserModule&#45;&gt;UserService </title>
<path fill="none" stroke="black" stroke-dasharray="5,2" d="M1722.95,-266.03C1722.95,-286.77 1722.95,-318 1722.95,-318 1722.95,-318 1343,-318 1343,-318"/>
<polygon fill="black" stroke="black" points="1343,-314.5 1333,-318 1343,-321.5 1343,-314.5"/>
</g>
<!-- CaslModule -->
<g id="node12" class="node">
<title>CaslModule</title>
<polygon fill="#8dd3c7" stroke="black" points="3403.44,-266 3400.44,-270 3379.44,-270 3376.44,-266 3318.56,-266 3318.56,-230 3403.44,-230 3403.44,-266"/>
<text text-anchor="middle" x="3361" y="-243.8" font-family="Times,serif" font-size="14.00">CaslModule</text>
</g>
<!-- CaslModule&#45;&gt;AuthModule -->
<g id="edge10" class="edge">
<title>CaslModule&#45;&gt;AuthModule</title>
<path fill="none" stroke="black" d="M3361,-266.01C3361,-282.05 3361,-303 3361,-303 3361,-303 1856.35,-303 1856.35,-303 1856.35,-303 1856.35,-303.29 1856.35,-303.29"/>
<polygon fill="black" stroke="black" points="1852.85,-295.92 1856.35,-305.92 1859.85,-295.92 1852.85,-295.92"/>
</g>
<!-- CaslAbilityFactory  -->
<g id="node23" class="node">
<title>CaslAbilityFactory </title>
<polygon fill="#fb8072" stroke="black" points="3510.32,-190 3383.68,-190 3383.68,-154 3510.32,-154 3510.32,-190"/>
<text text-anchor="middle" x="3447" y="-167.8" font-family="Times,serif" font-size="14.00">CaslAbilityFactory </text>
</g>
<!-- CaslModule&#45;&gt;CaslAbilityFactory  -->
<g id="edge22" class="edge">
<title>CaslModule&#45;&gt;CaslAbilityFactory </title>
<path fill="none" stroke="black" stroke-dasharray="5,2" d="M3393.4,-229.99C3393.4,-229.99 3393.4,-200.15 3393.4,-200.15"/>
<polygon fill="black" stroke="black" points="3396.9,-200.15 3393.4,-190.15 3389.9,-200.15 3396.9,-200.15"/>
</g>
<!-- AuthService -->
<g id="node16" class="node">
<title>AuthService</title>
<ellipse fill="#fdb462" stroke="black" cx="2924" cy="-248" rx="59.11" ry="18"/>
<text text-anchor="middle" x="2924" y="-243.8" font-family="Times,serif" font-size="14.00">AuthService</text>
</g>
<!-- AuthService&#45;&gt;AuthModule -->
<g id="edge15" class="edge">
<title>AuthService&#45;&gt;AuthModule</title>
<path fill="none" stroke="black" d="M2924,-266.49C2924,-278.14 2924,-291 2924,-291 2924,-291 1848.93,-291 1848.93,-291 1848.93,-291 1848.93,-295.96 1848.93,-295.96"/>
<polygon fill="black" stroke="black" points="1845.43,-295.96 1848.93,-305.96 1852.43,-295.96 1845.43,-295.96"/>
</g>
<!-- JwtGuard -->
<g id="node17" class="node">
<title>JwtGuard</title>
<ellipse fill="#fdb462" stroke="black" cx="2798" cy="-248" rx="48.65" ry="18"/>
<text text-anchor="middle" x="2798" y="-243.8" font-family="Times,serif" font-size="14.00">JwtGuard</text>
</g>
<!-- JwtGuard&#45;&gt;AuthModule -->
<g id="edge16" class="edge">
<title>JwtGuard&#45;&gt;AuthModule</title>
<path fill="none" stroke="black" d="M2798,-266.13C2798,-276.71 2798,-288 2798,-288 2798,-288 1841.51,-288 1841.51,-288 1841.51,-288 1841.51,-295.58 1841.51,-295.58"/>
<polygon fill="black" stroke="black" points="1838.01,-295.58 1841.51,-305.58 1845.01,-295.58 1838.01,-295.58"/>
</g>
<!-- JwtStrategy -->
<g id="node18" class="node">
<title>JwtStrategy</title>
<ellipse fill="#fdb462" stroke="black" cx="2675" cy="-248" rx="56.76" ry="18"/>
<text text-anchor="middle" x="2675" y="-243.8" font-family="Times,serif" font-size="14.00">JwtStrategy</text>
</g>
<!-- JwtStrategy&#45;&gt;AuthModule -->
<g id="edge17" class="edge">
<title>JwtStrategy&#45;&gt;AuthModule</title>
<path fill="none" stroke="black" d="M2675,-266.07C2675,-275.46 2675,-285 2675,-285 2675,-285 1834.09,-285 1834.09,-285 1834.09,-285 1834.09,-295.87 1834.09,-295.87"/>
<polygon fill="black" stroke="black" points="1830.59,-295.87 1834.09,-305.87 1837.59,-295.87 1830.59,-295.87"/>
</g>
<!-- ProfessorService -->
<g id="node21" class="node">
<title>ProfessorService</title>
<ellipse fill="#fdb462" stroke="black" cx="437" cy="-172" rx="76.42" ry="18"/>
<text text-anchor="middle" x="437" y="-167.8" font-family="Times,serif" font-size="14.00">ProfessorService</text>
</g>
<!-- ProfessorService&#45;&gt;AuxiliaryModule -->
<g id="edge20" class="edge">
<title>ProfessorService&#45;&gt;AuxiliaryModule</title>
<path fill="none" stroke="black" d="M496.23,-183.54C496.23,-198.86 496.23,-224 496.23,-224 496.23,-224 1831.62,-224 1831.62,-224 1831.62,-224 1831.62,-224.58 1831.62,-224.58"/>
<polygon fill="black" stroke="black" points="1828.12,-219.81 1831.62,-229.81 1835.12,-219.81 1828.12,-219.81"/>
</g>
<!-- StudentService -->
<g id="node22" class="node">
<title>StudentService</title>
<ellipse fill="#fdb462" stroke="black" cx="273" cy="-172" rx="69.5" ry="18"/>
<text text-anchor="middle" x="273" y="-167.8" font-family="Times,serif" font-size="14.00">StudentService</text>
</g>
<!-- StudentService&#45;&gt;AuxiliaryModule -->
<g id="edge21" class="edge">
<title>StudentService&#45;&gt;AuxiliaryModule</title>
<path fill="none" stroke="black" d="M314,-186.74C314,-203.03 314,-227 314,-227 314,-227 1818.01,-227 1818.01,-227 1818.01,-227 1818.01,-227.29 1818.01,-227.29"/>
<polygon fill="black" stroke="black" points="1814.51,-219.92 1818.01,-229.92 1821.51,-219.92 1814.51,-219.92"/>
</g>
<!-- CaslAbilityFactory -->
<g id="node24" class="node">
<title>CaslAbilityFactory</title>
<ellipse fill="#fdb462" stroke="black" cx="3275" cy="-172" rx="85.13" ry="18"/>
<text text-anchor="middle" x="3275" y="-167.8" font-family="Times,serif" font-size="14.00">CaslAbilityFactory</text>
</g>
<!-- CaslAbilityFactory&#45;&gt;CaslModule -->
<g id="edge23" class="edge">
<title>CaslAbilityFactory&#45;&gt;CaslModule</title>
<path fill="none" stroke="black" d="M3339.42,-183.88C3339.42,-183.88 3339.42,-219.99 3339.42,-219.99"/>
<polygon fill="black" stroke="black" points="3335.92,-219.99 3339.42,-229.99 3342.92,-219.99 3335.92,-219.99"/>
</g>
<!-- PayloadInterceptor -->
<g id="node26" class="node">
<title>PayloadInterceptor</title>
<ellipse fill="#fdb462" stroke="black" cx="370" cy="-324" rx="84.51" ry="18"/>
<text text-anchor="middle" x="370" y="-319.8" font-family="Times,serif" font-size="14.00">PayloadInterceptor</text>
</g>
<!-- PayloadInterceptor&#45;&gt;CoreModule -->
<g id="edge25" class="edge">
<title>PayloadInterceptor&#45;&gt;CoreModule</title>
<path fill="none" stroke="black" d="M407.52,-307.8C407.52,-283.9 407.52,-242 407.52,-242 407.52,-242 1362.67,-242 1362.67,-242"/>
<polygon fill="black" stroke="black" points="1362.67,-245.5 1372.67,-242 1362.67,-238.5 1362.67,-245.5"/>
</g>
<!-- ExamAgreementService -->
<g id="node29" class="node">
<title>ExamAgreementService</title>
<ellipse fill="#fdb462" stroke="black" cx="1298" cy="-172" rx="105.34" ry="18"/>
<text text-anchor="middle" x="1298" y="-167.8" font-family="Times,serif" font-size="14.00">ExamAgreementService</text>
</g>
<!-- ExamAgreementService&#45;&gt;ExamModule -->
<g id="edge28" class="edge">
<title>ExamAgreementService&#45;&gt;ExamModule</title>
<path fill="none" stroke="black" d="M1388.02,-181.56C1388.02,-191.93 1388.02,-207 1388.02,-207 1388.02,-207 1970.47,-207 1970.47,-207 1970.47,-207 1970.47,-219.9 1970.47,-219.9"/>
<polygon fill="black" stroke="black" points="1966.97,-219.9 1970.47,-229.9 1973.97,-219.9 1966.97,-219.9"/>
</g>
<!-- ExamService -->
<g id="node30" class="node">
<title>ExamService</title>
<ellipse fill="#fdb462" stroke="black" cx="1112" cy="-172" rx="62.54" ry="18"/>
<text text-anchor="middle" x="1112" y="-167.8" font-family="Times,serif" font-size="14.00">ExamService</text>
</g>
<!-- ExamService&#45;&gt;ExamModule -->
<g id="edge29" class="edge">
<title>ExamService&#45;&gt;ExamModule</title>
<path fill="none" stroke="black" d="M1139.65,-188.34C1139.65,-198.64 1139.65,-210 1139.65,-210 1139.65,-210 1958.95,-210 1958.95,-210 1958.95,-210 1958.95,-219.89 1958.95,-219.89"/>
<polygon fill="black" stroke="black" points="1955.45,-219.89 1958.95,-229.89 1962.45,-219.89 1955.45,-219.89"/>
</g>
<!-- ExamTargetNodeFactory -->
<g id="node31" class="node">
<title>ExamTargetNodeFactory</title>
<ellipse fill="#fdb462" stroke="black" cx="922" cy="-172" rx="109.35" ry="18"/>
<text text-anchor="middle" x="922" y="-167.8" font-family="Times,serif" font-size="14.00">ExamTargetNodeFactory</text>
</g>
<!-- ExamTargetNodeFactory&#45;&gt;ExamModule -->
<g id="edge30" class="edge">
<title>ExamTargetNodeFactory&#45;&gt;ExamModule</title>
<path fill="none" stroke="black" d="M996.22,-185.29C996.22,-197.59 996.22,-214 996.22,-214 996.22,-214 1947.42,-214 1947.42,-214 1947.42,-214 1947.42,-219.81 1947.42,-219.81"/>
<polygon fill="black" stroke="black" points="1943.92,-219.81 1947.42,-229.81 1950.92,-219.81 1943.92,-219.81"/>
</g>
<!-- ExamTargetService -->
<g id="node32" class="node">
<title>ExamTargetService</title>
<ellipse fill="#fdb462" stroke="black" cx="1680" cy="-172" rx="87.94" ry="18"/>
<text text-anchor="middle" x="1680" y="-167.8" font-family="Times,serif" font-size="14.00">ExamTargetService</text>
</g>
<!-- ExamTargetService&#45;&gt;ExamModule -->
<g id="edge31" class="edge">
<title>ExamTargetService&#45;&gt;ExamModule</title>
<path fill="none" stroke="black" d="M1733.87,-186.33C1733.87,-193.22 1733.87,-200 1733.87,-200 1733.87,-200 1993.53,-200 1993.53,-200 1993.53,-200 1993.53,-219.85 1993.53,-219.85"/>
<polygon fill="black" stroke="black" points="1990.03,-219.85 1993.53,-229.85 1997.03,-219.85 1990.03,-219.85"/>
</g>
<!-- ExamTargetTree -->
<g id="node33" class="node">
<title>ExamTargetTree</title>
<ellipse fill="#fdb462" stroke="black" cx="1498" cy="-172" rx="76.4" ry="18"/>
<text text-anchor="middle" x="1498" y="-167.8" font-family="Times,serif" font-size="14.00">ExamTargetTree</text>
</g>
<!-- ExamTargetTree&#45;&gt;ExamModule -->
<g id="edge32" class="edge">
<title>ExamTargetTree&#45;&gt;ExamModule</title>
<path fill="none" stroke="black" d="M1569.41,-178.48C1569.41,-187.83 1569.41,-204 1569.41,-204 1569.41,-204 1982,-204 1982,-204 1982,-204 1982,-219.85 1982,-219.85"/>
<polygon fill="black" stroke="black" points="1978.5,-219.85 1982,-229.85 1985.5,-219.85 1978.5,-219.85"/>
</g>
<!-- FirebaseAdmin  -->
<g id="node34" class="node">
<title>FirebaseAdmin </title>
<polygon fill="#fb8072" stroke="black" points="3973.81,-266 3868.19,-266 3868.19,-230 3973.81,-230 3973.81,-266"/>
<text text-anchor="middle" x="3921" y="-243.8" font-family="Times,serif" font-size="14.00">FirebaseAdmin </text>
</g>
<!-- FirebaseAdminModule -->
<g id="node35" class="node">
<title>FirebaseAdminModule</title>
<polygon fill="#8dd3c7" stroke="black" points="3993.86,-190 3990.86,-194 3969.86,-194 3966.86,-190 3848.14,-190 3848.14,-154 3993.86,-154 3993.86,-190"/>
<text text-anchor="middle" x="3921" y="-167.8" font-family="Times,serif" font-size="14.00">FirebaseAdminModule</text>
</g>
<!-- FirebaseAdminModule&#45;&gt;FirebaseAdmin  -->
<g id="edge33" class="edge">
<title>FirebaseAdminModule&#45;&gt;FirebaseAdmin </title>
<path fill="none" stroke="black" stroke-dasharray="5,2" d="M3921,-190.01C3921,-190.01 3921,-219.85 3921,-219.85"/>
<polygon fill="black" stroke="black" points="3917.5,-219.85 3921,-229.85 3924.5,-219.85 3917.5,-219.85"/>
</g>
<!-- FirebaseAdmin -->
<g id="node36" class="node">
<title>FirebaseAdmin</title>
<ellipse fill="#fdb462" stroke="black" cx="3921" cy="-104" rx="70.64" ry="18"/>
<text text-anchor="middle" x="3921" y="-99.8" font-family="Times,serif" font-size="14.00">FirebaseAdmin</text>
</g>
<!-- FirebaseAdmin&#45;&gt;FirebaseAdminModule -->
<g id="edge34" class="edge">
<title>FirebaseAdmin&#45;&gt;FirebaseAdminModule</title>
<path fill="none" stroke="black" d="M3921,-122.22C3921,-122.22 3921,-143.73 3921,-143.73"/>
<polygon fill="black" stroke="black" points="3917.5,-143.73 3921,-153.73 3924.5,-143.73 3917.5,-143.73"/>
</g>
<!-- FirebaseAuthService  -->
<g id="node37" class="node">
<title>FirebaseAuthService </title>
<polygon fill="#fb8072" stroke="black" points="2476.4,-266 2339.6,-266 2339.6,-230 2476.4,-230 2476.4,-266"/>
<text text-anchor="middle" x="2408" y="-243.8" font-family="Times,serif" font-size="14.00">FirebaseAuthService </text>
</g>
<!-- FirebaseCloudMessagingService  -->
<g id="node38" class="node">
<title>FirebaseCloudMessagingService </title>
<polygon fill="#fb8072" stroke="black" points="2321.78,-266 2118.22,-266 2118.22,-230 2321.78,-230 2321.78,-266"/>
<text text-anchor="middle" x="2220" y="-243.8" font-family="Times,serif" font-size="14.00">FirebaseCloudMessagingService </text>
</g>
<!-- FirebaseModule -->
<g id="node39" class="node">
<title>FirebaseModule</title>
<polygon fill="#8dd3c7" stroke="black" points="2291.47,-190 2288.47,-194 2267.47,-194 2264.47,-190 2184.53,-190 2184.53,-154 2291.47,-154 2291.47,-190"/>
<text text-anchor="middle" x="2238" y="-167.8" font-family="Times,serif" font-size="14.00">FirebaseModule</text>
</g>
<!-- FirebaseModule&#45;&gt;InfraModule -->
<g id="edge39" class="edge">
<title>FirebaseModule&#45;&gt;InfraModule</title>
<path fill="none" stroke="black" d="M2220.17,-190.17C2220.17,-192.45 2220.17,-194 2220.17,-194 2220.17,-194 1521,-194 1521,-194 1521,-194 1521,-219.72 1521,-219.72"/>
<polygon fill="black" stroke="black" points="1517.5,-219.72 1521,-229.72 1524.5,-219.72 1517.5,-219.72"/>
</g>
<!-- FirebaseModule&#45;&gt;FirebaseAuthService  -->
<g id="edge35" class="edge">
<title>FirebaseModule&#45;&gt;FirebaseAuthService </title>
<path fill="none" stroke="black" stroke-dasharray="5,2" d="M2291.62,-178C2323.53,-178 2357.85,-178 2357.85,-178 2357.85,-178 2357.85,-219.97 2357.85,-219.97"/>
<polygon fill="black" stroke="black" points="2354.35,-219.97 2357.85,-229.97 2361.35,-219.97 2354.35,-219.97"/>
</g>
<!-- FirebaseModule&#45;&gt;FirebaseCloudMessagingService  -->
<g id="edge36" class="edge">
<title>FirebaseModule&#45;&gt;FirebaseCloudMessagingService </title>
<path fill="none" stroke="black" stroke-dasharray="5,2" d="M2255.83,-190.01C2255.83,-190.01 2255.83,-219.85 2255.83,-219.85"/>
<polygon fill="black" stroke="black" points="2252.33,-219.85 2255.83,-229.85 2259.33,-219.85 2252.33,-219.85"/>
</g>
<!-- FirebaseAuthService -->
<g id="node40" class="node">
<title>FirebaseAuthService</title>
<ellipse fill="#fdb462" stroke="black" cx="2486" cy="-104" rx="92.03" ry="18"/>
<text text-anchor="middle" x="2486" y="-99.8" font-family="Times,serif" font-size="14.00">FirebaseAuthService</text>
</g>
<!-- FirebaseAuthService&#45;&gt;FirebaseModule -->
<g id="edge37" class="edge">
<title>FirebaseAuthService&#45;&gt;FirebaseModule</title>
<path fill="none" stroke="black" d="M2435.22,-119.33C2435.22,-137.69 2435.22,-166 2435.22,-166 2435.22,-166 2301.63,-166 2301.63,-166"/>
<polygon fill="black" stroke="black" points="2301.63,-162.5 2291.63,-166 2301.63,-169.5 2301.63,-162.5"/>
</g>
<!-- FirebaseCloudMessagingService -->
<g id="node41" class="node">
<title>FirebaseCloudMessagingService</title>
<ellipse fill="#fdb462" stroke="black" cx="2238" cy="-104" rx="138.3" ry="18"/>
<text text-anchor="middle" x="2238" y="-99.8" font-family="Times,serif" font-size="14.00">FirebaseCloudMessagingService</text>
</g>
<!-- FirebaseCloudMessagingService&#45;&gt;FirebaseModule -->
<g id="edge38" class="edge">
<title>FirebaseCloudMessagingService&#45;&gt;FirebaseModule</title>
<path fill="none" stroke="black" d="M2238,-122.22C2238,-122.22 2238,-143.73 2238,-143.73"/>
<polygon fill="black" stroke="black" points="2234.5,-143.73 2238,-153.73 2241.5,-143.73 2234.5,-143.73"/>
</g>
<!-- CustomLogger -->
<g id="node44" class="node">
<title>CustomLogger</title>
<ellipse fill="#fdb462" stroke="black" cx="868" cy="-324" rx="68.94" ry="18"/>
<text text-anchor="middle" x="868" y="-319.8" font-family="Times,serif" font-size="14.00">CustomLogger</text>
</g>
<!-- CustomLogger&#45;&gt;LoggerModule -->
<g id="edge42" class="edge">
<title>CustomLogger&#45;&gt;LoggerModule</title>
<path fill="none" stroke="black" d="M874.9,-305.88C874.9,-291.22 874.9,-273 874.9,-273 874.9,-273 1615.34,-273 1615.34,-273 1615.34,-273 1615.34,-272.32 1615.34,-272.32"/>
<polygon fill="black" stroke="black" points="1618.84,-276.17 1615.34,-266.17 1611.84,-276.17 1618.84,-276.17"/>
</g>
<!-- QuestionGroupService -->
<g id="node45" class="node">
<title>QuestionGroupService</title>
<ellipse fill="#fdb462" stroke="black" cx="3710" cy="-248" rx="99.56" ry="18"/>
<text text-anchor="middle" x="3710" y="-243.8" font-family="Times,serif" font-size="14.00">QuestionGroupService</text>
</g>
<!-- QuestionGroupService&#45;&gt;QuestionGroupModule -->
<g id="edge44" class="edge">
<title>QuestionGroupService&#45;&gt;QuestionGroupModule</title>
<path fill="none" stroke="black" d="M3710,-266.2C3710,-290.36 3710,-330 3710,-330 3710,-330 2037.9,-330 2037.9,-330"/>
<polygon fill="black" stroke="black" points="2037.9,-326.5 2027.9,-330 2037.9,-333.5 2037.9,-326.5"/>
</g>
<!-- QuestionService -->
<g id="node46" class="node">
<title>QuestionService</title>
<ellipse fill="#fdb462" stroke="black" cx="3518" cy="-248" rx="74.72" ry="18"/>
<text text-anchor="middle" x="3518" y="-243.8" font-family="Times,serif" font-size="14.00">QuestionService</text>
</g>
<!-- QuestionService&#45;&gt;QuestionGroupModule -->
<g id="edge45" class="edge">
<title>QuestionService&#45;&gt;QuestionGroupModule</title>
<path fill="none" stroke="black" d="M3518,-266.03C3518,-286.77 3518,-318 3518,-318 3518,-318 2038.03,-318 2038.03,-318"/>
<polygon fill="black" stroke="black" points="2038.03,-314.5 2028.03,-318 2038.03,-321.5 2038.03,-314.5"/>
</g>
<!-- UserService -->
<g id="node48" class="node">
<title>UserService</title>
<ellipse fill="#fdb462" stroke="black" cx="1163" cy="-324" rx="58.44" ry="18"/>
<text text-anchor="middle" x="1163" y="-319.8" font-family="Times,serif" font-size="14.00">UserService</text>
</g>
<!-- UserService&#45;&gt;UserModule -->
<g id="edge47" class="edge">
<title>UserService&#45;&gt;UserModule</title>
<path fill="none" stroke="black" d="M1206.9,-312.18C1206.9,-298.84 1206.9,-279 1206.9,-279 1206.9,-279 1711.48,-279 1711.48,-279 1711.48,-279 1711.48,-276.03 1711.48,-276.03"/>
<polygon fill="black" stroke="black" points="1714.98,-276.03 1711.48,-266.03 1707.98,-276.03 1714.98,-276.03"/>
</g>
</g>
</svg>
