<?xml version="1.0" encoding="UTF-8" standalone="no"?>
<!DOCTYPE svg PUBLIC "-//W3C//DTD SVG 1.1//EN"
 "http://www.w3.org/Graphics/SVG/1.1/DTD/svg11.dtd">
<!-- Generated by graphviz version 2.47.0 (20210316.0004)
 -->
<!-- Title: dependencies Pages: 1 -->
<svg width="4478pt" height="431pt"
 viewBox="0.00 0.00 4478.00 431.00" xmlns="http://www.w3.org/2000/svg" xmlns:xlink="http://www.w3.org/1999/xlink">
<g id="graph0" class="graph" transform="scale(1 1) rotate(0) translate(4 427)">
<title>dependencies</title>
<polygon fill="white" stroke="transparent" points="-4,4 -4,-427 4474,-427 4474,4 -4,4"/>
<text text-anchor="start" x="2214.01" y="-42.4" font-family="sans-serif" font-weight="bold" font-size="14.00">Legend</text>
<polygon fill="#ffffb3" stroke="transparent" points="2001,-10 2001,-30 2021,-30 2021,-10 2001,-10"/>
<text text-anchor="start" x="2024.63" y="-15.4" font-family="sans-serif" font-size="14.00"> &#160;Declarations</text>
<polygon fill="#8dd3c7" stroke="transparent" points="2114,-10 2114,-30 2134,-30 2134,-10 2114,-10"/>
<text text-anchor="start" x="2137.73" y="-15.4" font-family="sans-serif" font-size="14.00"> &#160;Module</text>
<polygon fill="#80b1d3" stroke="transparent" points="2200,-10 2200,-30 2220,-30 2220,-10 2200,-10"/>
<text text-anchor="start" x="2223.78" y="-15.4" font-family="sans-serif" font-size="14.00"> &#160;Bootstrap</text>
<polygon fill="#fdb462" stroke="transparent" points="2297,-10 2297,-30 2317,-30 2317,-10 2297,-10"/>
<text text-anchor="start" x="2320.67" y="-15.4" font-family="sans-serif" font-size="14.00"> &#160;Providers</text>
<polygon fill="#fb8072" stroke="transparent" points="2393,-10 2393,-30 2413,-30 2413,-10 2393,-10"/>
<text text-anchor="start" x="2416.73" y="-15.4" font-family="sans-serif" font-size="14.00"> &#160;Exports</text>
<g id="clust1" class="cluster">
<title>cluster_AnswerModule</title>
<polygon fill="none" stroke="black" stroke-dasharray="1,5" points="1391,-290 1391,-415 1733,-415 1733,-290 1391,-290"/>
</g>
<g id="clust3" class="cluster">
<title>cluster_AnswerModule_imports</title>
<polygon fill="none" stroke="black" points="1563,-298 1563,-350 1725,-350 1725,-298 1563,-298"/>
</g>
<g id="clust6" class="cluster">
<title>cluster_AnswerModule_providers</title>
<polygon fill="none" stroke="black" points="1399,-298 1399,-350 1555,-350 1555,-298 1399,-298"/>
</g>
<g id="clust7" class="cluster">
<title>cluster_AppModule</title>
<polygon fill="none" stroke="black" stroke-dasharray="1,5" points="1895,-214 1895,-415 2581,-415 2581,-214 1895,-214"/>
</g>
<g id="clust9" class="cluster">
<title>cluster_AppModule_imports</title>
<polygon fill="none" stroke="black" points="1903,-222 1903,-350 2573,-350 2573,-222 1903,-222"/>
</g>
<g id="clust13" class="cluster">
<title>cluster_AuthModule</title>
<polygon fill="none" stroke="black" stroke-dasharray="1,5" points="3356,-214 3356,-282 4173,-282 4173,-214 3356,-214"/>
</g>
<g id="clust15" class="cluster">
<title>cluster_AuthModule_imports</title>
<polygon fill="none" stroke="black" points="4065,-222 4065,-274 4165,-274 4165,-222 4065,-222"/>
</g>
<g id="clust16" class="cluster">
<title>cluster_AuthModule_exports</title>
<polygon fill="none" stroke="black" points="3753,-222 3753,-274 4057,-274 4057,-222 3753,-222"/>
</g>
<g id="clust18" class="cluster">
<title>cluster_AuthModule_providers</title>
<polygon fill="none" stroke="black" points="3364,-222 3364,-274 3745,-274 3745,-222 3364,-222"/>
</g>
<g id="clust19" class="cluster">
<title>cluster_AuxiliaryModule</title>
<polygon fill="none" stroke="black" stroke-dasharray="1,5" points="8,-138 8,-206 609,-206 609,-138 8,-138"/>
</g>
<g id="clust22" class="cluster">
<title>cluster_AuxiliaryModule_exports</title>
<polygon fill="none" stroke="black" points="349,-146 349,-198 601,-198 601,-146 349,-146"/>
</g>
<g id="clust24" class="cluster">
<title>cluster_AuxiliaryModule_providers</title>
<polygon fill="none" stroke="black" points="16,-146 16,-198 341,-198 341,-146 16,-146"/>
</g>
<g id="clust25" class="cluster">
<title>cluster_CaslModule</title>
<polygon fill="none" stroke="black" stroke-dasharray="1,5" points="3928,-138 3928,-206 4280,-206 4280,-138 3928,-138"/>
</g>
<g id="clust28" class="cluster">
<title>cluster_CaslModule_exports</title>
<polygon fill="none" stroke="black" points="4130,-146 4130,-198 4272,-198 4272,-146 4130,-146"/>
</g>
<g id="clust30" class="cluster">
<title>cluster_CaslModule_providers</title>
<polygon fill="none" stroke="black" points="3936,-146 3936,-198 4122,-198 4122,-146 3936,-146"/>
</g>
<g id="clust31" class="cluster">
<title>cluster_CoreModule</title>
<polygon fill="none" stroke="black" stroke-dasharray="1,5" points="617,-138 617,-206 969,-206 969,-138 617,-138"/>
</g>
<g id="clust34" class="cluster">
<title>cluster_CoreModule_exports</title>
<polygon fill="none" stroke="black" points="819,-146 819,-198 961,-198 961,-146 819,-146"/>
</g>
<g id="clust36" class="cluster">
<title>cluster_CoreModule_providers</title>
<polygon fill="none" stroke="black" points="625,-146 625,-198 811,-198 811,-146 625,-146"/>
</g>
<g id="clust37" class="cluster">
<title>cluster_ExamModule</title>
<polygon fill="none" stroke="black" stroke-dasharray="1,5" points="977,-138 977,-206 2256,-206 2256,-138 977,-138"/>
</g>
<g id="clust40" class="cluster">
<title>cluster_ExamModule_exports</title>
<polygon fill="none" stroke="black" points="1964,-146 1964,-198 2248,-198 2248,-146 1964,-146"/>
</g>
<g id="clust42" class="cluster">
<title>cluster_ExamModule_providers</title>
<polygon fill="none" stroke="black" points="985,-146 985,-198 1956,-198 1956,-146 985,-146"/>
</g>
<g id="clust43" class="cluster">
<title>cluster_FirebaseAdminModule</title>
<polygon fill="none" stroke="black" stroke-dasharray="1,5" points="4288,-70 4288,-282 4462,-282 4462,-70 4288,-70"/>
</g>
<g id="clust46" class="cluster">
<title>cluster_FirebaseAdminModule_exports</title>
<polygon fill="none" stroke="black" points="4314,-222 4314,-274 4436,-274 4436,-222 4314,-222"/>
</g>
<g id="clust48" class="cluster">
<title>cluster_FirebaseAdminModule_providers</title>
<polygon fill="none" stroke="black" points="4296,-78 4296,-130 4454,-130 4454,-78 4296,-78"/>
</g>
<g id="clust49" class="cluster">
<title>cluster_FirebaseModule</title>
<polygon fill="none" stroke="black" stroke-dasharray="1,5" points="2838,-70 2838,-282 3348,-282 3348,-70 2838,-70"/>
</g>
<g id="clust52" class="cluster">
<title>cluster_FirebaseModule_exports</title>
<polygon fill="none" stroke="black" points="2846,-222 2846,-274 3220,-274 3220,-222 2846,-222"/>
</g>
<g id="clust54" class="cluster">
<title>cluster_FirebaseModule_providers</title>
<polygon fill="none" stroke="black" points="2846,-78 2846,-130 3340,-130 3340,-78 2846,-78"/>
</g>
<g id="clust55" class="cluster">
<title>cluster_InfraModule</title>
<polygon fill="none" stroke="black" stroke-dasharray="1,5" points="1741,-290 1741,-358 1887,-358 1887,-290 1741,-290"/>
</g>
<g id="clust58" class="cluster">
<title>cluster_InfraModule_exports</title>
<polygon fill="none" stroke="black" points="1749,-298 1749,-350 1879,-350 1879,-298 1749,-298"/>
</g>
<g id="clust61" class="cluster">
<title>cluster_LoggerModule</title>
<polygon fill="none" stroke="black" stroke-dasharray="1,5" points="2264,-138 2264,-206 2562,-206 2562,-138 2264,-138"/>
</g>
<g id="clust64" class="cluster">
<title>cluster_LoggerModule_exports</title>
<polygon fill="none" stroke="black" points="2434,-146 2434,-198 2554,-198 2554,-146 2434,-146"/>
</g>
<g id="clust66" class="cluster">
<title>cluster_LoggerModule_providers</title>
<polygon fill="none" stroke="black" points="2272,-146 2272,-198 2426,-198 2426,-146 2272,-146"/>
</g>
<g id="clust67" class="cluster">
<title>cluster_QuestionGroupModule</title>
<polygon fill="none" stroke="black" stroke-dasharray="1,5" points="1424,-214 1424,-282 1823,-282 1823,-214 1424,-214"/>
</g>
<g id="clust72" class="cluster">
<title>cluster_QuestionGroupModule_providers</title>
<polygon fill="none" stroke="black" points="1432,-222 1432,-274 1815,-274 1815,-222 1432,-222"/>
</g>
<g id="clust73" class="cluster">
<title>cluster_UserModule</title>
<polygon fill="none" stroke="black" stroke-dasharray="1,5" points="2570,-138 2570,-206 2830,-206 2830,-138 2570,-138"/>
</g>
<g id="clust76" class="cluster">
<title>cluster_UserModule_exports</title>
<polygon fill="none" stroke="black" points="2718,-146 2718,-198 2822,-198 2822,-146 2718,-146"/>
</g>
<g id="clust78" class="cluster">
<title>cluster_UserModule_providers</title>
<polygon fill="none" stroke="black" points="2578,-146 2578,-198 2710,-198 2710,-146 2578,-146"/>
</g>
<!-- QuestionGroupModule -->
<g id="node1" class="node">
<title>QuestionGroupModule</title>
<polygon fill="#8dd3c7" stroke="black" points="1716.86,-342 1713.86,-346 1692.86,-346 1689.86,-342 1571.14,-342 1571.14,-306 1716.86,-306 1716.86,-342"/>
<text text-anchor="middle" x="1644" y="-319.8" font-family="Times,serif" font-size="14.00">QuestionGroupModule</text>
</g>
<!-- AnswerModule -->
<g id="node2" class="node">
<title>AnswerModule</title>
<polygon fill="#8dd3c7" stroke="black" points="1611.58,-407 1608.58,-411 1587.58,-411 1584.58,-407 1508.42,-407 1508.42,-371 1611.58,-371 1611.58,-407"/>
<text text-anchor="middle" x="1560" y="-384.8" font-family="Times,serif" font-size="14.00">AnswerModule</text>
</g>
<!-- QuestionGroupModule&#45;&gt;AnswerModule -->
<g id="edge1" class="edge">
<title>QuestionGroupModule&#45;&gt;AnswerModule</title>
<path fill="none" stroke="black" d="M1591.3,-342.11C1591.3,-342.11 1591.3,-360.99 1591.3,-360.99"/>
<polygon fill="black" stroke="black" points="1587.8,-360.99 1591.3,-370.99 1594.8,-360.99 1587.8,-360.99"/>
</g>
<!-- AppModule -->
<g id="node11" class="node">
<title>AppModule</title>
<polygon fill="#8dd3c7" stroke="black" points="2305.66,-407 2302.66,-411 2281.66,-411 2278.66,-407 2222.34,-407 2222.34,-371 2305.66,-371 2305.66,-407"/>
<text text-anchor="middle" x="2264" y="-384.8" font-family="Times,serif" font-size="14.00">AppModule</text>
</g>
<!-- QuestionGroupModule&#45;&gt;AppModule -->
<g id="edge9" class="edge">
<title>QuestionGroupModule&#45;&gt;AppModule</title>
<path fill="none" stroke="black" d="M1664.24,-342.29C1664.24,-364.21 1664.24,-398 1664.24,-398 1664.24,-398 2212.3,-398 2212.3,-398"/>
<polygon fill="black" stroke="black" points="2212.3,-401.5 2222.3,-398 2212.3,-394.5 2212.3,-401.5"/>
</g>
<!-- AnswerService -->
<g id="node3" class="node">
<title>AnswerService</title>
<ellipse fill="#fdb462" stroke="black" cx="1477" cy="-324" rx="70.04" ry="18"/>
<text text-anchor="middle" x="1477" y="-319.8" font-family="Times,serif" font-size="14.00">AnswerService</text>
</g>
<!-- AnswerService&#45;&gt;AnswerModule -->
<g id="edge2" class="edge">
<title>AnswerService&#45;&gt;AnswerModule</title>
<path fill="none" stroke="black" d="M1527.74,-336.53C1527.74,-336.53 1527.74,-360.85 1527.74,-360.85"/>
<polygon fill="black" stroke="black" points="1524.24,-360.85 1527.74,-370.85 1531.24,-360.85 1524.24,-360.85"/>
</g>
<!-- AuthModule -->
<g id="node4" class="node">
<title>AuthModule</title>
<polygon fill="#8dd3c7" stroke="black" points="2564.55,-342 2561.55,-346 2540.55,-346 2537.55,-342 2477.45,-342 2477.45,-306 2564.55,-306 2564.55,-342"/>
<text text-anchor="middle" x="2521" y="-319.8" font-family="Times,serif" font-size="14.00">AuthModule</text>
</g>
<!-- AuthModule&#45;&gt;AppModule -->
<g id="edge3" class="edge">
<title>AuthModule&#45;&gt;AppModule</title>
<path fill="none" stroke="black" d="M2477.2,-330C2410.1,-330 2289.56,-330 2289.56,-330 2289.56,-330 2289.56,-360.98 2289.56,-360.98"/>
<polygon fill="black" stroke="black" points="2286.06,-360.98 2289.56,-370.98 2293.06,-360.98 2286.06,-360.98"/>
</g>
<!-- AuthService  -->
<g id="node13" class="node">
<title>AuthService </title>
<polygon fill="#fb8072" stroke="black" points="4048.98,-266 3959.02,-266 3959.02,-230 4048.98,-230 4048.98,-266"/>
<text text-anchor="middle" x="4004" y="-243.8" font-family="Times,serif" font-size="14.00">AuthService </text>
</g>
<!-- AuthModule&#45;&gt;AuthService  -->
<g id="edge13" class="edge">
<title>AuthModule&#45;&gt;AuthService </title>
<path fill="none" stroke="black" stroke-dasharray="5,2" d="M2564.58,-333C2809.54,-333 4004,-333 4004,-333 4004,-333 4004,-276.03 4004,-276.03"/>
<polygon fill="black" stroke="black" points="4007.5,-276.03 4004,-266.03 4000.5,-276.03 4007.5,-276.03"/>
</g>
<!-- CaslModule  -->
<g id="node14" class="node">
<title>CaslModule </title>
<polygon fill="#fb8072" stroke="black" points="3940.94,-266 3853.06,-266 3853.06,-230 3940.94,-230 3940.94,-266"/>
<text text-anchor="middle" x="3897" y="-243.8" font-family="Times,serif" font-size="14.00">CaslModule </text>
</g>
<!-- AuthModule&#45;&gt;CaslModule  -->
<g id="edge14" class="edge">
<title>AuthModule&#45;&gt;CaslModule </title>
<path fill="none" stroke="black" stroke-dasharray="5,2" d="M2564.84,-329C2799.55,-329 3897,-329 3897,-329 3897,-329 3897,-276.38 3897,-276.38"/>
<polygon fill="black" stroke="black" points="3900.5,-276.38 3897,-266.38 3893.5,-276.38 3900.5,-276.38"/>
</g>
<!-- JwtGuard  -->
<g id="node15" class="node">
<title>JwtGuard </title>
<polygon fill="#fb8072" stroke="black" points="3834.92,-266 3761.08,-266 3761.08,-230 3834.92,-230 3834.92,-266"/>
<text text-anchor="middle" x="3798" y="-243.8" font-family="Times,serif" font-size="14.00">JwtGuard </text>
</g>
<!-- AuthModule&#45;&gt;JwtGuard  -->
<g id="edge15" class="edge">
<title>AuthModule&#45;&gt;JwtGuard </title>
<path fill="none" stroke="black" stroke-dasharray="5,2" d="M2564.59,-324C2788.4,-324 3798,-324 3798,-324 3798,-324 3798,-276.01 3798,-276.01"/>
<polygon fill="black" stroke="black" points="3801.5,-276.01 3798,-266.01 3794.5,-276.01 3801.5,-276.01"/>
</g>
<!-- AuxiliaryModule -->
<g id="node5" class="node">
<title>AuxiliaryModule</title>
<polygon fill="#8dd3c7" stroke="black" points="2024.7,-266 2021.7,-270 2000.7,-270 1997.7,-266 1911.3,-266 1911.3,-230 2024.7,-230 2024.7,-266"/>
<text text-anchor="middle" x="1968" y="-243.8" font-family="Times,serif" font-size="14.00">AuxiliaryModule</text>
</g>
<!-- AuxiliaryModule&#45;&gt;AppModule -->
<g id="edge4" class="edge">
<title>AuxiliaryModule&#45;&gt;AppModule</title>
<path fill="none" stroke="black" d="M1968,-266.14C1968,-304.23 1968,-389 1968,-389 1968,-389 2212.22,-389 2212.22,-389"/>
<polygon fill="black" stroke="black" points="2212.22,-392.5 2222.22,-389 2212.22,-385.5 2212.22,-392.5"/>
</g>
<!-- ProfessorService  -->
<g id="node19" class="node">
<title>ProfessorService </title>
<polygon fill="#fb8072" stroke="black" points="471.35,-190 356.65,-190 356.65,-154 471.35,-154 471.35,-190"/>
<text text-anchor="middle" x="414" y="-167.8" font-family="Times,serif" font-size="14.00">ProfessorService </text>
</g>
<!-- AuxiliaryModule&#45;&gt;ProfessorService  -->
<g id="edge19" class="edge">
<title>AuxiliaryModule&#45;&gt;ProfessorService </title>
<path fill="none" stroke="black" stroke-dasharray="5,2" d="M1929.79,-229.76C1929.79,-222.57 1929.79,-216 1929.79,-216 1929.79,-216 414,-216 414,-216 414,-216 414,-200.15 414,-200.15"/>
<polygon fill="black" stroke="black" points="417.5,-200.15 414,-190.15 410.5,-200.15 417.5,-200.15"/>
</g>
<!-- StudentService  -->
<g id="node20" class="node">
<title>StudentService </title>
<polygon fill="#fb8072" stroke="black" points="593.26,-190 488.74,-190 488.74,-154 593.26,-154 593.26,-190"/>
<text text-anchor="middle" x="541" y="-167.8" font-family="Times,serif" font-size="14.00">StudentService </text>
</g>
<!-- AuxiliaryModule&#45;&gt;StudentService  -->
<g id="edge20" class="edge">
<title>AuxiliaryModule&#45;&gt;StudentService </title>
<path fill="none" stroke="black" stroke-dasharray="5,2" d="M1935.92,-229.68C1935.92,-221.21 1935.92,-213 1935.92,-213 1935.92,-213 541,-213 541,-213 541,-213 541,-200.1 541,-200.1"/>
<polygon fill="black" stroke="black" points="544.5,-200.1 541,-190.1 537.5,-200.1 544.5,-200.1"/>
</g>
<!-- CoreModule -->
<g id="node6" class="node">
<title>CoreModule</title>
<polygon fill="#8dd3c7" stroke="black" points="2129.26,-266 2126.26,-270 2105.26,-270 2102.26,-266 2042.74,-266 2042.74,-230 2129.26,-230 2129.26,-266"/>
<text text-anchor="middle" x="2086" y="-243.8" font-family="Times,serif" font-size="14.00">CoreModule</text>
</g>
<!-- CoreModule&#45;&gt;AppModule -->
<g id="edge5" class="edge">
<title>CoreModule&#45;&gt;AppModule</title>
<path fill="none" stroke="black" d="M2086,-266.08C2086,-302.23 2086,-380 2086,-380 2086,-380 2212.27,-380 2212.27,-380"/>
<polygon fill="black" stroke="black" points="2212.27,-383.5 2222.27,-380 2212.27,-376.5 2212.27,-383.5"/>
</g>
<!-- PayloadInterceptor  -->
<g id="node25" class="node">
<title>PayloadInterceptor </title>
<polygon fill="#fb8072" stroke="black" points="953.01,-190 826.99,-190 826.99,-154 953.01,-154 953.01,-190"/>
<text text-anchor="middle" x="890" y="-167.8" font-family="Times,serif" font-size="14.00">PayloadInterceptor </text>
</g>
<!-- CoreModule&#45;&gt;PayloadInterceptor  -->
<g id="edge25" class="edge">
<title>CoreModule&#45;&gt;PayloadInterceptor </title>
<path fill="none" stroke="black" stroke-dasharray="5,2" d="M2099.65,-229.87C2099.65,-219.29 2099.65,-208 2099.65,-208 2099.65,-208 890,-208 890,-208 890,-208 890,-200.42 890,-200.42"/>
<polygon fill="black" stroke="black" points="893.5,-200.42 890,-190.42 886.5,-200.42 893.5,-200.42"/>
</g>
<!-- ExamModule -->
<g id="node7" class="node">
<title>ExamModule</title>
<polygon fill="#8dd3c7" stroke="black" points="2239.21,-266 2236.21,-270 2215.21,-270 2212.21,-266 2146.79,-266 2146.79,-230 2239.21,-230 2239.21,-266"/>
<text text-anchor="middle" x="2193" y="-243.8" font-family="Times,serif" font-size="14.00">ExamModule</text>
</g>
<!-- ExamModule&#45;&gt;QuestionGroupModule -->
<g id="edge44" class="edge">
<title>ExamModule&#45;&gt;QuestionGroupModule</title>
<path fill="none" stroke="black" d="M2184.53,-266.11C2184.53,-275.9 2184.53,-286 2184.53,-286 2184.53,-286 1680.44,-286 1680.44,-286 1680.44,-286 1680.44,-295.89 1680.44,-295.89"/>
<polygon fill="black" stroke="black" points="1676.94,-295.89 1680.44,-305.89 1683.94,-295.89 1676.94,-295.89"/>
</g>
<!-- ExamModule&#45;&gt;AppModule -->
<g id="edge6" class="edge">
<title>ExamModule&#45;&gt;AppModule</title>
<path fill="none" stroke="black" d="M2230.64,-266.14C2230.64,-266.14 2230.64,-360.93 2230.64,-360.93"/>
<polygon fill="black" stroke="black" points="2227.14,-360.92 2230.64,-370.93 2234.14,-360.93 2227.14,-360.92"/>
</g>
<!-- ExamAgreementService  -->
<g id="node27" class="node">
<title>ExamAgreementService </title>
<polygon fill="#fb8072" stroke="black" points="2128.33,-190 1971.67,-190 1971.67,-154 2128.33,-154 2128.33,-190"/>
<text text-anchor="middle" x="2050" y="-167.8" font-family="Times,serif" font-size="14.00">ExamAgreementService </text>
</g>
<!-- ExamModule&#45;&gt;ExamAgreementService  -->
<g id="edge27" class="edge">
<title>ExamModule&#45;&gt;ExamAgreementService </title>
<path fill="none" stroke="black" stroke-dasharray="5,2" d="M2146.8,-248C2141.34,-248 2137.66,-248 2137.66,-248 2137.66,-248 2137.66,-172 2137.66,-172 2137.66,-172 2136.72,-172 2136.72,-172"/>
<polygon fill="black" stroke="black" points="2138.28,-168.5 2128.28,-172 2138.28,-175.5 2138.28,-168.5"/>
</g>
<!-- ExamService  -->
<g id="node28" class="node">
<title>ExamService </title>
<polygon fill="#fb8072" stroke="black" points="2240.14,-190 2145.86,-190 2145.86,-154 2240.14,-154 2240.14,-190"/>
<text text-anchor="middle" x="2193" y="-167.8" font-family="Times,serif" font-size="14.00">ExamService </text>
</g>
<!-- ExamModule&#45;&gt;ExamService  -->
<g id="edge28" class="edge">
<title>ExamModule&#45;&gt;ExamService </title>
<path fill="none" stroke="black" stroke-dasharray="5,2" d="M2225.93,-229.99C2225.93,-229.99 2225.93,-200.15 2225.93,-200.15"/>
<polygon fill="black" stroke="black" points="2229.43,-200.15 2225.93,-190.15 2222.43,-200.15 2229.43,-200.15"/>
</g>
<!-- InfraModule -->
<g id="node8" class="node">
<title>InfraModule</title>
<polygon fill="#8dd3c7" stroke="black" points="2461.25,-266 2458.25,-270 2437.25,-270 2434.25,-266 2374.75,-266 2374.75,-230 2461.25,-230 2461.25,-266"/>
<text text-anchor="middle" x="2418" y="-243.8" font-family="Times,serif" font-size="14.00">InfraModule</text>
</g>
<!-- InfraModule&#45;&gt;AppModule -->
<g id="edge7" class="edge">
<title>InfraModule&#45;&gt;AppModule</title>
<path fill="none" stroke="black" d="M2432.46,-266.21C2432.46,-303.06 2432.46,-383 2432.46,-383 2432.46,-383 2316.07,-383 2316.07,-383"/>
<polygon fill="black" stroke="black" points="2316.07,-379.5 2306.07,-383 2316.07,-386.5 2316.07,-379.5"/>
</g>
<!-- UploaderService  -->
<g id="node42" class="node">
<title>UploaderService </title>
<polygon fill="#fb8072" stroke="black" points="1870.57,-342 1757.43,-342 1757.43,-306 1870.57,-306 1870.57,-342"/>
<text text-anchor="middle" x="1814" y="-319.8" font-family="Times,serif" font-size="14.00">UploaderService </text>
</g>
<!-- InfraModule&#45;&gt;UploaderService  -->
<g id="edge41" class="edge">
<title>InfraModule&#45;&gt;UploaderService </title>
<path fill="none" stroke="black" stroke-dasharray="5,2" d="M2403.54,-266.03C2403.54,-286.77 2403.54,-318 2403.54,-318 2403.54,-318 1880.8,-318 1880.8,-318"/>
<polygon fill="black" stroke="black" points="1880.8,-314.5 1870.8,-318 1880.8,-321.5 1880.8,-314.5"/>
</g>
<!-- LoggerModule -->
<g id="node9" class="node">
<title>LoggerModule</title>
<polygon fill="#8dd3c7" stroke="black" points="2356.98,-266 2353.98,-270 2332.98,-270 2329.98,-266 2257.02,-266 2257.02,-230 2356.98,-230 2356.98,-266"/>
<text text-anchor="middle" x="2307" y="-243.8" font-family="Times,serif" font-size="14.00">LoggerModule</text>
</g>
<!-- LoggerModule&#45;&gt;AppModule -->
<g id="edge8" class="edge">
<title>LoggerModule&#45;&gt;AppModule</title>
<path fill="none" stroke="black" d="M2273.28,-266.14C2273.28,-266.14 2273.28,-360.93 2273.28,-360.93"/>
<polygon fill="black" stroke="black" points="2269.78,-360.92 2273.28,-370.93 2276.78,-360.93 2269.78,-360.92"/>
</g>
<!-- CustomLogger  -->
<g id="node43" class="node">
<title>CustomLogger </title>
<polygon fill="#fb8072" stroke="black" points="2545.99,-190 2442.01,-190 2442.01,-154 2545.99,-154 2545.99,-190"/>
<text text-anchor="middle" x="2494" y="-167.8" font-family="Times,serif" font-size="14.00">CustomLogger </text>
</g>
<!-- LoggerModule&#45;&gt;CustomLogger  -->
<g id="edge42" class="edge">
<title>LoggerModule&#45;&gt;CustomLogger </title>
<path fill="none" stroke="black" stroke-dasharray="5,2" d="M2331.34,-229.88C2331.34,-227.03 2331.34,-225 2331.34,-225 2331.34,-225 2448.63,-225 2448.63,-225 2448.63,-225 2448.63,-200.24 2448.63,-200.24"/>
<polygon fill="black" stroke="black" points="2452.13,-200.24 2448.63,-190.24 2445.13,-200.24 2452.13,-200.24"/>
</g>
<!-- UserModule -->
<g id="node10" class="node">
<title>UserModule</title>
<polygon fill="#8dd3c7" stroke="black" points="2564.98,-266 2561.98,-270 2540.98,-270 2537.98,-266 2479.02,-266 2479.02,-230 2564.98,-230 2564.98,-266"/>
<text text-anchor="middle" x="2522" y="-243.8" font-family="Times,serif" font-size="14.00">UserModule</text>
</g>
<!-- UserModule&#45;&gt;AuthModule -->
<g id="edge12" class="edge">
<title>UserModule&#45;&gt;AuthModule</title>
<path fill="none" stroke="black" d="M2521.89,-266.01C2521.89,-266.01 2521.89,-295.85 2521.89,-295.85"/>
<polygon fill="black" stroke="black" points="2518.39,-295.85 2521.89,-305.85 2525.39,-295.85 2518.39,-295.85"/>
</g>
<!-- UserModule&#45;&gt;AppModule -->
<g id="edge10" class="edge">
<title>UserModule&#45;&gt;AppModule</title>
<path fill="none" stroke="black" d="M2478.97,-248C2473.24,-248 2469.3,-248 2469.3,-248 2469.3,-248 2469.3,-395 2469.3,-395 2469.3,-395 2316.04,-395 2316.04,-395"/>
<polygon fill="black" stroke="black" points="2316.04,-391.5 2306.04,-395 2316.04,-398.5 2316.04,-391.5"/>
</g>
<!-- UserService  -->
<g id="node47" class="node">
<title>UserService </title>
<polygon fill="#fb8072" stroke="black" points="2813.9,-190 2726.1,-190 2726.1,-154 2813.9,-154 2813.9,-190"/>
<text text-anchor="middle" x="2770" y="-167.8" font-family="Times,serif" font-size="14.00">UserService </text>
</g>
<!-- UserModule&#45;&gt;UserService  -->
<g id="edge47" class="edge">
<title>UserModule&#45;&gt;UserService </title>
<path fill="none" stroke="black" stroke-dasharray="5,2" d="M2565.2,-248C2636.25,-248 2770,-248 2770,-248 2770,-248 2770,-200.01 2770,-200.01"/>
<polygon fill="black" stroke="black" points="2773.5,-200.01 2770,-190.01 2766.5,-200.01 2773.5,-200.01"/>
</g>
<!-- CaslModule -->
<g id="node12" class="node">
<title>CaslModule</title>
<polygon fill="#8dd3c7" stroke="black" points="4157.44,-266 4154.44,-270 4133.44,-270 4130.44,-266 4072.56,-266 4072.56,-230 4157.44,-230 4157.44,-266"/>
<text text-anchor="middle" x="4115" y="-243.8" font-family="Times,serif" font-size="14.00">CaslModule</text>
</g>
<!-- CaslModule&#45;&gt;AuthModule -->
<g id="edge11" class="edge">
<title>CaslModule&#45;&gt;AuthModule</title>
<path fill="none" stroke="black" d="M4115,-266.21C4115,-292.51 4115,-338 4115,-338 4115,-338 2574.88,-338 2574.88,-338"/>
<polygon fill="black" stroke="black" points="2574.88,-334.5 2564.88,-338 2574.88,-341.5 2574.88,-334.5"/>
</g>
<!-- CaslAbilityFactory  -->
<g id="node23" class="node">
<title>CaslAbilityFactory </title>
<polygon fill="#fb8072" stroke="black" points="4264.32,-190 4137.68,-190 4137.68,-154 4264.32,-154 4264.32,-190"/>
<text text-anchor="middle" x="4201" y="-167.8" font-family="Times,serif" font-size="14.00">CaslAbilityFactory </text>
</g>
<!-- CaslModule&#45;&gt;CaslAbilityFactory  -->
<g id="edge23" class="edge">
<title>CaslModule&#45;&gt;CaslAbilityFactory </title>
<path fill="none" stroke="black" stroke-dasharray="5,2" d="M4147.4,-229.99C4147.4,-229.99 4147.4,-200.15 4147.4,-200.15"/>
<polygon fill="black" stroke="black" points="4150.9,-200.15 4147.4,-190.15 4143.9,-200.15 4150.9,-200.15"/>
</g>
<!-- AuthService -->
<g id="node16" class="node">
<title>AuthService</title>
<ellipse fill="#fdb462" stroke="black" cx="3678" cy="-248" rx="59.11" ry="18"/>
<text text-anchor="middle" x="3678" y="-243.8" font-family="Times,serif" font-size="14.00">AuthService</text>
</g>
<!-- AuthService&#45;&gt;AuthModule -->
<g id="edge16" class="edge">
<title>AuthService&#45;&gt;AuthModule</title>
<path fill="none" stroke="black" d="M3678,-266.17C3678,-287.5 3678,-320 3678,-320 3678,-320 2574.59,-320 2574.59,-320"/>
<polygon fill="black" stroke="black" points="2574.59,-316.5 2564.59,-320 2574.59,-323.5 2574.59,-316.5"/>
</g>
<!-- JwtGuard -->
<g id="node17" class="node">
<title>JwtGuard</title>
<ellipse fill="#fdb462" stroke="black" cx="3552" cy="-248" rx="48.65" ry="18"/>
<text text-anchor="middle" x="3552" y="-243.8" font-family="Times,serif" font-size="14.00">JwtGuard</text>
</g>
<!-- JwtGuard&#45;&gt;AuthModule -->
<g id="edge17" class="edge">
<title>JwtGuard&#45;&gt;AuthModule</title>
<path fill="none" stroke="black" d="M3552,-266.31C3552,-286.15 3552,-315 3552,-315 3552,-315 2574.64,-315 2574.64,-315"/>
<polygon fill="black" stroke="black" points="2574.64,-311.5 2564.64,-315 2574.64,-318.5 2574.64,-311.5"/>
</g>
<!-- JwtStrategy -->
<g id="node18" class="node">
<title>JwtStrategy</title>
<ellipse fill="#fdb462" stroke="black" cx="3429" cy="-248" rx="56.76" ry="18"/>
<text text-anchor="middle" x="3429" y="-243.8" font-family="Times,serif" font-size="14.00">JwtStrategy</text>
</g>
<!-- JwtStrategy&#45;&gt;AuthModule -->
<g id="edge18" class="edge">
<title>JwtStrategy&#45;&gt;AuthModule</title>
<path fill="none" stroke="black" d="M3429,-266.22C3429,-284.83 3429,-311 3429,-311 3429,-311 2574.79,-311 2574.79,-311"/>
<polygon fill="black" stroke="black" points="2574.79,-307.5 2564.79,-311 2574.79,-314.5 2574.79,-307.5"/>
</g>
<!-- ProfessorService -->
<g id="node21" class="node">
<title>ProfessorService</title>
<ellipse fill="#fdb462" stroke="black" cx="100" cy="-172" rx="76.42" ry="18"/>
<text text-anchor="middle" x="100" y="-167.8" font-family="Times,serif" font-size="14.00">ProfessorService</text>
</g>
<!-- ProfessorService&#45;&gt;AuxiliaryModule -->
<g id="edge21" class="edge">
<title>ProfessorService&#45;&gt;AuxiliaryModule</title>
<path fill="none" stroke="black" d="M100,-190.05C100,-204.37 100,-222 100,-222 100,-222 1917.53,-222 1917.53,-222 1917.53,-222 1917.53,-222.79 1917.53,-222.79"/>
<polygon fill="black" stroke="black" points="1914.03,-219.94 1917.53,-229.94 1921.03,-219.94 1914.03,-219.94"/>
</g>
<!-- StudentService -->
<g id="node22" class="node">
<title>StudentService</title>
<ellipse fill="#fdb462" stroke="black" cx="264" cy="-172" rx="69.5" ry="18"/>
<text text-anchor="middle" x="264" y="-167.8" font-family="Times,serif" font-size="14.00">StudentService</text>
</g>
<!-- StudentService&#45;&gt;AuxiliaryModule -->
<g id="edge22" class="edge">
<title>StudentService&#45;&gt;AuxiliaryModule</title>
<path fill="none" stroke="black" d="M264,-190.04C264,-203.29 264,-219 264,-219 264,-219 1923.66,-219 1923.66,-219 1923.66,-219 1923.66,-220.08 1923.66,-220.08"/>
<polygon fill="black" stroke="black" points="1920.16,-219.8 1923.66,-229.8 1927.16,-219.8 1920.16,-219.8"/>
</g>
<!-- CaslAbilityFactory -->
<g id="node24" class="node">
<title>CaslAbilityFactory</title>
<ellipse fill="#fdb462" stroke="black" cx="4029" cy="-172" rx="85.13" ry="18"/>
<text text-anchor="middle" x="4029" y="-167.8" font-family="Times,serif" font-size="14.00">CaslAbilityFactory</text>
</g>
<!-- CaslAbilityFactory&#45;&gt;CaslModule -->
<g id="edge24" class="edge">
<title>CaslAbilityFactory&#45;&gt;CaslModule</title>
<path fill="none" stroke="black" d="M4093.42,-183.88C4093.42,-183.88 4093.42,-219.99 4093.42,-219.99"/>
<polygon fill="black" stroke="black" points="4089.92,-219.99 4093.42,-229.99 4096.92,-219.99 4089.92,-219.99"/>
</g>
<!-- PayloadInterceptor -->
<g id="node26" class="node">
<title>PayloadInterceptor</title>
<ellipse fill="#fdb462" stroke="black" cx="718" cy="-172" rx="84.51" ry="18"/>
<text text-anchor="middle" x="718" y="-167.8" font-family="Times,serif" font-size="14.00">PayloadInterceptor</text>
</g>
<!-- PayloadInterceptor&#45;&gt;CoreModule -->
<g id="edge26" class="edge">
<title>PayloadInterceptor&#45;&gt;CoreModule</title>
<path fill="none" stroke="black" d="M718,-190.11C718,-199.9 718,-210 718,-210 718,-210 2071.13,-210 2071.13,-210 2071.13,-210 2071.13,-219.89 2071.13,-219.89"/>
<polygon fill="black" stroke="black" points="2067.63,-219.89 2071.13,-229.89 2074.63,-219.89 2067.63,-219.89"/>
</g>
<!-- ExamAgreementService -->
<g id="node29" class="node">
<title>ExamAgreementService</title>
<ellipse fill="#fdb462" stroke="black" cx="1242" cy="-172" rx="105.34" ry="18"/>
<text text-anchor="middle" x="1242" y="-167.8" font-family="Times,serif" font-size="14.00">ExamAgreementService</text>
</g>
<!-- ExamAgreementService&#45;&gt;ExamModule -->
<g id="edge29" class="edge">
<title>ExamAgreementService&#45;&gt;ExamModule</title>
<path fill="none" stroke="black" d="M1242,-190.14C1242,-196.46 1242,-202 1242,-202 1242,-202 2173.24,-202 2173.24,-202 2173.24,-202 2173.24,-219.82 2173.24,-219.82"/>
<polygon fill="black" stroke="black" points="2169.74,-219.82 2173.24,-229.82 2176.74,-219.82 2169.74,-219.82"/>
</g>
<!-- ExamService -->
<g id="node30" class="node">
<title>ExamService</title>
<ellipse fill="#fdb462" stroke="black" cx="1056" cy="-172" rx="62.54" ry="18"/>
<text text-anchor="middle" x="1056" y="-167.8" font-family="Times,serif" font-size="14.00">ExamService</text>
</g>
<!-- ExamService&#45;&gt;ExamModule -->
<g id="edge30" class="edge">
<title>ExamService&#45;&gt;ExamModule</title>
<path fill="none" stroke="black" d="M1056,-190.04C1056,-197.75 1056,-205 1056,-205 1056,-205 2160.07,-205 2160.07,-205 2160.07,-205 2160.07,-219.51 2160.07,-219.51"/>
<polygon fill="black" stroke="black" points="2156.57,-219.51 2160.07,-229.51 2163.57,-219.51 2156.57,-219.51"/>
</g>
<!-- ExamTargetNodeFactory -->
<g id="node31" class="node">
<title>ExamTargetNodeFactory</title>
<ellipse fill="#fdb462" stroke="black" cx="1839" cy="-172" rx="109.35" ry="18"/>
<text text-anchor="middle" x="1839" y="-167.8" font-family="Times,serif" font-size="14.00">ExamTargetNodeFactory</text>
</g>
<!-- ExamTargetNodeFactory&#45;&gt;ExamModule -->
<g id="edge31" class="edge">
<title>ExamTargetNodeFactory&#45;&gt;ExamModule</title>
<path fill="none" stroke="black" d="M1942.05,-178.19C1942.05,-184.38 1942.05,-193 1942.05,-193 1942.05,-193 2212.76,-193 2212.76,-193 2212.76,-193 2212.76,-219.99 2212.76,-219.99"/>
<polygon fill="black" stroke="black" points="2209.26,-219.99 2212.76,-229.99 2216.26,-219.99 2209.26,-219.99"/>
</g>
<!-- ExamTargetService -->
<g id="node32" class="node">
<title>ExamTargetService</title>
<ellipse fill="#fdb462" stroke="black" cx="1624" cy="-172" rx="87.94" ry="18"/>
<text text-anchor="middle" x="1624" y="-167.8" font-family="Times,serif" font-size="14.00">ExamTargetService</text>
</g>
<!-- ExamTargetService&#45;&gt;ExamModule -->
<g id="edge32" class="edge">
<title>ExamTargetService&#45;&gt;ExamModule</title>
<path fill="none" stroke="black" d="M1659.59,-188.67C1659.59,-192.76 1659.59,-196 1659.59,-196 1659.59,-196 2199.59,-196 2199.59,-196 2199.59,-196 2199.59,-219.81 2199.59,-219.81"/>
<polygon fill="black" stroke="black" points="2196.09,-219.81 2199.59,-229.81 2203.09,-219.81 2196.09,-219.81"/>
</g>
<!-- ExamTargetTree -->
<g id="node33" class="node">
<title>ExamTargetTree</title>
<ellipse fill="#fdb462" stroke="black" cx="1442" cy="-172" rx="76.4" ry="18"/>
<text text-anchor="middle" x="1442" y="-167.8" font-family="Times,serif" font-size="14.00">ExamTargetTree</text>
</g>
<!-- ExamTargetTree&#45;&gt;ExamModule -->
<g id="edge33" class="edge">
<title>ExamTargetTree&#45;&gt;ExamModule</title>
<path fill="none" stroke="black" d="M1479.3,-188.02C1479.3,-193.83 1479.3,-199 1479.3,-199 1479.3,-199 2186.41,-199 2186.41,-199 2186.41,-199 2186.41,-219.75 2186.41,-219.75"/>
<polygon fill="black" stroke="black" points="2182.91,-219.75 2186.41,-229.75 2189.91,-219.75 2182.91,-219.75"/>
</g>
<!-- FirebaseAdmin  -->
<g id="node34" class="node">
<title>FirebaseAdmin </title>
<polygon fill="#fb8072" stroke="black" points="4427.81,-266 4322.19,-266 4322.19,-230 4427.81,-230 4427.81,-266"/>
<text text-anchor="middle" x="4375" y="-243.8" font-family="Times,serif" font-size="14.00">FirebaseAdmin </text>
</g>
<!-- FirebaseAdminModule -->
<g id="node35" class="node">
<title>FirebaseAdminModule</title>
<polygon fill="#8dd3c7" stroke="black" points="4447.86,-190 4444.86,-194 4423.86,-194 4420.86,-190 4302.14,-190 4302.14,-154 4447.86,-154 4447.86,-190"/>
<text text-anchor="middle" x="4375" y="-167.8" font-family="Times,serif" font-size="14.00">FirebaseAdminModule</text>
</g>
<!-- FirebaseAdminModule&#45;&gt;FirebaseAdmin  -->
<g id="edge34" class="edge">
<title>FirebaseAdminModule&#45;&gt;FirebaseAdmin </title>
<path fill="none" stroke="black" stroke-dasharray="5,2" d="M4375,-190.01C4375,-190.01 4375,-219.85 4375,-219.85"/>
<polygon fill="black" stroke="black" points="4371.5,-219.85 4375,-229.85 4378.5,-219.85 4371.5,-219.85"/>
</g>
<!-- FirebaseAdmin -->
<g id="node36" class="node">
<title>FirebaseAdmin</title>
<ellipse fill="#fdb462" stroke="black" cx="4375" cy="-104" rx="70.64" ry="18"/>
<text text-anchor="middle" x="4375" y="-99.8" font-family="Times,serif" font-size="14.00">FirebaseAdmin</text>
</g>
<!-- FirebaseAdmin&#45;&gt;FirebaseAdminModule -->
<g id="edge35" class="edge">
<title>FirebaseAdmin&#45;&gt;FirebaseAdminModule</title>
<path fill="none" stroke="black" d="M4375,-122.22C4375,-122.22 4375,-143.73 4375,-143.73"/>
<polygon fill="black" stroke="black" points="4371.5,-143.73 4375,-153.73 4378.5,-143.73 4371.5,-143.73"/>
</g>
<!-- FirebaseAuthService  -->
<g id="node37" class="node">
<title>FirebaseAuthService </title>
<polygon fill="#fb8072" stroke="black" points="3212.4,-266 3075.6,-266 3075.6,-230 3212.4,-230 3212.4,-266"/>
<text text-anchor="middle" x="3144" y="-243.8" font-family="Times,serif" font-size="14.00">FirebaseAuthService </text>
</g>
<!-- FirebaseCloudMessagingService  -->
<g id="node38" class="node">
<title>FirebaseCloudMessagingService </title>
<polygon fill="#fb8072" stroke="black" points="3057.78,-266 2854.22,-266 2854.22,-230 3057.78,-230 3057.78,-266"/>
<text text-anchor="middle" x="2956" y="-243.8" font-family="Times,serif" font-size="14.00">FirebaseCloudMessagingService </text>
</g>
<!-- FirebaseModule -->
<g id="node39" class="node">
<title>FirebaseModule</title>
<polygon fill="#8dd3c7" stroke="black" points="3009.47,-190 3006.47,-194 2985.47,-194 2982.47,-190 2902.53,-190 2902.53,-154 3009.47,-154 3009.47,-190"/>
<text text-anchor="middle" x="2956" y="-167.8" font-family="Times,serif" font-size="14.00">FirebaseModule</text>
</g>
<!-- FirebaseModule&#45;&gt;InfraModule -->
<g id="edge40" class="edge">
<title>FirebaseModule&#45;&gt;InfraModule</title>
<path fill="none" stroke="black" d="M2938.17,-190.03C2938.17,-206.4 2938.17,-228 2938.17,-228 2938.17,-228 2455,-228 2455,-228 2455,-228 2455,-228.18 2455,-228.18"/>
<polygon fill="black" stroke="black" points="2451.5,-219.85 2455,-229.85 2458.5,-219.85 2451.5,-219.85"/>
</g>
<!-- FirebaseModule&#45;&gt;FirebaseAuthService  -->
<g id="edge36" class="edge">
<title>FirebaseModule&#45;&gt;FirebaseAuthService </title>
<path fill="none" stroke="black" stroke-dasharray="5,2" d="M3009.62,-178C3065.19,-178 3144,-178 3144,-178 3144,-178 3144,-219.97 3144,-219.97"/>
<polygon fill="black" stroke="black" points="3140.5,-219.97 3144,-229.97 3147.5,-219.97 3140.5,-219.97"/>
</g>
<!-- FirebaseModule&#45;&gt;FirebaseCloudMessagingService  -->
<g id="edge37" class="edge">
<title>FirebaseModule&#45;&gt;FirebaseCloudMessagingService </title>
<path fill="none" stroke="black" stroke-dasharray="5,2" d="M2973.83,-190.01C2973.83,-190.01 2973.83,-219.85 2973.83,-219.85"/>
<polygon fill="black" stroke="black" points="2970.33,-219.85 2973.83,-229.85 2977.33,-219.85 2970.33,-219.85"/>
</g>
<!-- FirebaseAuthService -->
<g id="node40" class="node">
<title>FirebaseAuthService</title>
<ellipse fill="#fdb462" stroke="black" cx="2946" cy="-104" rx="92.03" ry="18"/>
<text text-anchor="middle" x="2946" y="-99.8" font-family="Times,serif" font-size="14.00">FirebaseAuthService</text>
</g>
<!-- FirebaseAuthService&#45;&gt;FirebaseModule -->
<g id="edge38" class="edge">
<title>FirebaseAuthService&#45;&gt;FirebaseModule</title>
<path fill="none" stroke="black" d="M2956,-122.22C2956,-122.22 2956,-143.73 2956,-143.73"/>
<polygon fill="black" stroke="black" points="2952.5,-143.73 2956,-153.73 2959.5,-143.73 2952.5,-143.73"/>
</g>
<!-- FirebaseCloudMessagingService -->
<g id="node41" class="node">
<title>FirebaseCloudMessagingService</title>
<ellipse fill="#fdb462" stroke="black" cx="3194" cy="-104" rx="138.3" ry="18"/>
<text text-anchor="middle" x="3194" y="-99.8" font-family="Times,serif" font-size="14.00">FirebaseCloudMessagingService</text>
</g>
<!-- FirebaseCloudMessagingService&#45;&gt;FirebaseModule -->
<g id="edge39" class="edge">
<title>FirebaseCloudMessagingService&#45;&gt;FirebaseModule</title>
<path fill="none" stroke="black" d="M3066.72,-111.11C3066.72,-127.4 3066.72,-166 3066.72,-166 3066.72,-166 3019.74,-166 3019.74,-166"/>
<polygon fill="black" stroke="black" points="3019.74,-162.5 3009.74,-166 3019.74,-169.5 3019.74,-162.5"/>
</g>
<!-- CustomLogger -->
<g id="node44" class="node">
<title>CustomLogger</title>
<ellipse fill="#fdb462" stroke="black" cx="2349" cy="-172" rx="68.94" ry="18"/>
<text text-anchor="middle" x="2349" y="-167.8" font-family="Times,serif" font-size="14.00">CustomLogger</text>
</g>
<!-- CustomLogger&#45;&gt;LoggerModule -->
<g id="edge43" class="edge">
<title>CustomLogger&#45;&gt;LoggerModule</title>
<path fill="none" stroke="black" d="M2305.68,-186.3C2305.68,-186.3 2305.68,-219.73 2305.68,-219.73"/>
<polygon fill="black" stroke="black" points="2302.18,-219.73 2305.68,-229.73 2309.18,-219.73 2302.18,-219.73"/>
</g>
<!-- QuestionGroupService -->
<g id="node45" class="node">
<title>QuestionGroupService</title>
<ellipse fill="#fdb462" stroke="black" cx="1707" cy="-248" rx="99.56" ry="18"/>
<text text-anchor="middle" x="1707" y="-243.8" font-family="Times,serif" font-size="14.00">QuestionGroupService</text>
</g>
<!-- QuestionGroupService&#45;&gt;QuestionGroupModule -->
<g id="edge45" class="edge">
<title>QuestionGroupService&#45;&gt;QuestionGroupModule</title>
<path fill="none" stroke="black" d="M1643.96,-261.94C1643.96,-261.94 1643.96,-295.84 1643.96,-295.84"/>
<polygon fill="black" stroke="black" points="1640.46,-295.84 1643.96,-305.84 1647.46,-295.84 1640.46,-295.84"/>
</g>
<!-- QuestionService -->
<g id="node46" class="node">
<title>QuestionService</title>
<ellipse fill="#fdb462" stroke="black" cx="1515" cy="-248" rx="74.72" ry="18"/>
<text text-anchor="middle" x="1515" y="-243.8" font-family="Times,serif" font-size="14.00">QuestionService</text>
</g>
<!-- QuestionService&#45;&gt;QuestionGroupModule -->
<g id="edge46" class="edge">
<title>QuestionService&#45;&gt;QuestionGroupModule</title>
<path fill="none" stroke="black" d="M1580.46,-257.02C1580.46,-257.02 1580.46,-295.74 1580.46,-295.74"/>
<polygon fill="black" stroke="black" points="1576.96,-295.74 1580.46,-305.74 1583.96,-295.74 1576.96,-295.74"/>
</g>
<!-- UserService -->
<g id="node48" class="node">
<title>UserService</title>
<ellipse fill="#fdb462" stroke="black" cx="2644" cy="-172" rx="58.44" ry="18"/>
<text text-anchor="middle" x="2644" y="-167.8" font-family="Times,serif" font-size="14.00">UserService</text>
</g>
<!-- UserService&#45;&gt;UserModule -->
<g id="edge48" class="edge">
<title>UserService&#45;&gt;UserModule</title>
<path fill="none" stroke="black" d="M2585.37,-172C2568.89,-172 2555.37,-172 2555.37,-172 2555.37,-172 2555.37,-219.99 2555.37,-219.99"/>
<polygon fill="black" stroke="black" points="2551.87,-219.99 2555.37,-229.99 2558.87,-219.99 2551.87,-219.99"/>
</g>
</g>
</svg>
