<?xml version="1.0" encoding="UTF-8" standalone="no"?>
<!DOCTYPE svg PUBLIC "-//W3C//DTD SVG 1.1//EN"
 "http://www.w3.org/Graphics/SVG/1.1/DTD/svg11.dtd">
<!-- Generated by graphviz version 2.47.0 (20210316.0004)
 -->
<!-- Title: dependencies Pages: 1 -->
<svg width="3731pt" height="431pt"
 viewBox="0.00 0.00 3731.00 431.00" xmlns="http://www.w3.org/2000/svg" xmlns:xlink="http://www.w3.org/1999/xlink">
<g id="graph0" class="graph" transform="scale(1 1) rotate(0) translate(4 427)">
<title>dependencies</title>
<polygon fill="white" stroke="transparent" points="-4,4 -4,-427 3727,-427 3727,4 -4,4"/>
<text text-anchor="start" x="1840.51" y="-42.4" font-family="sans-serif" font-weight="bold" font-size="14.00">Legend</text>
<polygon fill="#ffffb3" stroke="transparent" points="1627.5,-10 1627.5,-30 1647.5,-30 1647.5,-10 1627.5,-10"/>
<text text-anchor="start" x="1651.13" y="-15.4" font-family="sans-serif" font-size="14.00"> &#160;Declarations</text>
<polygon fill="#8dd3c7" stroke="transparent" points="1740.5,-10 1740.5,-30 1760.5,-30 1760.5,-10 1740.5,-10"/>
<text text-anchor="start" x="1764.23" y="-15.4" font-family="sans-serif" font-size="14.00"> &#160;Module</text>
<polygon fill="#80b1d3" stroke="transparent" points="1826.5,-10 1826.5,-30 1846.5,-30 1846.5,-10 1826.5,-10"/>
<text text-anchor="start" x="1850.28" y="-15.4" font-family="sans-serif" font-size="14.00"> &#160;Bootstrap</text>
<polygon fill="#fdb462" stroke="transparent" points="1923.5,-10 1923.5,-30 1943.5,-30 1943.5,-10 1923.5,-10"/>
<text text-anchor="start" x="1947.17" y="-15.4" font-family="sans-serif" font-size="14.00"> &#160;Providers</text>
<polygon fill="#fb8072" stroke="transparent" points="2019.5,-10 2019.5,-30 2039.5,-30 2039.5,-10 2019.5,-10"/>
<text text-anchor="start" x="2043.23" y="-15.4" font-family="sans-serif" font-size="14.00"> &#160;Exports</text>
<g id="clust1" class="cluster">
<title>cluster_AnswerModule</title>
<polygon fill="none" stroke="black" stroke-dasharray="1,5" points="65,-70 65,-198 237,-198 237,-70 65,-70"/>
</g>
<g id="clust6" class="cluster">
<title>cluster_AnswerModule_providers</title>
<polygon fill="none" stroke="black" points="73,-78 73,-130 229,-130 229,-78 73,-78"/>
</g>
<g id="clust7" class="cluster">
<title>cluster_AppModule</title>
<polygon fill="none" stroke="black" stroke-dasharray="1,5" points="1096,-214 1096,-415 1783,-415 1783,-214 1096,-214"/>
</g>
<g id="clust9" class="cluster">
<title>cluster_AppModule_imports</title>
<polygon fill="none" stroke="black" points="1104,-222 1104,-350 1775,-350 1775,-222 1104,-222"/>
</g>
<g id="clust13" class="cluster">
<title>cluster_AuthModule</title>
<polygon fill="none" stroke="black" stroke-dasharray="1,5" points="2309,-214 2309,-282 3126,-282 3126,-214 2309,-214"/>
</g>
<g id="clust15" class="cluster">
<title>cluster_AuthModule_imports</title>
<polygon fill="none" stroke="black" points="3018,-222 3018,-274 3118,-274 3118,-222 3018,-222"/>
</g>
<g id="clust16" class="cluster">
<title>cluster_AuthModule_exports</title>
<polygon fill="none" stroke="black" points="2706,-222 2706,-274 3010,-274 3010,-222 2706,-222"/>
</g>
<g id="clust18" class="cluster">
<title>cluster_AuthModule_providers</title>
<polygon fill="none" stroke="black" points="2317,-222 2317,-274 2698,-274 2698,-222 2317,-222"/>
</g>
<g id="clust19" class="cluster">
<title>cluster_AuxiliaryModule</title>
<polygon fill="none" stroke="black" stroke-dasharray="1,5" points="302,-138 302,-206 903,-206 903,-138 302,-138"/>
</g>
<g id="clust22" class="cluster">
<title>cluster_AuxiliaryModule_exports</title>
<polygon fill="none" stroke="black" points="643,-146 643,-198 895,-198 895,-146 643,-146"/>
</g>
<g id="clust24" class="cluster">
<title>cluster_AuxiliaryModule_providers</title>
<polygon fill="none" stroke="black" points="310,-146 310,-198 635,-198 635,-146 310,-146"/>
</g>
<g id="clust25" class="cluster">
<title>cluster_CaslModule</title>
<polygon fill="none" stroke="black" stroke-dasharray="1,5" points="2881,-138 2881,-206 3233,-206 3233,-138 2881,-138"/>
</g>
<g id="clust28" class="cluster">
<title>cluster_CaslModule_exports</title>
<polygon fill="none" stroke="black" points="3083,-146 3083,-198 3225,-198 3225,-146 3083,-146"/>
</g>
<g id="clust30" class="cluster">
<title>cluster_CaslModule_providers</title>
<polygon fill="none" stroke="black" points="2889,-146 2889,-198 3075,-198 3075,-146 2889,-146"/>
</g>
<g id="clust31" class="cluster">
<title>cluster_CoreModule</title>
<polygon fill="none" stroke="black" stroke-dasharray="1,5" points="8,-290 8,-358 360,-358 360,-290 8,-290"/>
</g>
<g id="clust34" class="cluster">
<title>cluster_CoreModule_exports</title>
<polygon fill="none" stroke="black" points="210,-298 210,-350 352,-350 352,-298 210,-298"/>
</g>
<g id="clust36" class="cluster">
<title>cluster_CoreModule_providers</title>
<polygon fill="none" stroke="black" points="16,-298 16,-350 202,-350 202,-298 16,-298"/>
</g>
<g id="clust37" class="cluster">
<title>cluster_ExamModule</title>
<polygon fill="none" stroke="black" stroke-dasharray="1,5" points="911,-138 911,-206 1783,-206 1783,-138 911,-138"/>
</g>
<g id="clust40" class="cluster">
<title>cluster_ExamModule_exports</title>
<polygon fill="none" stroke="black" points="1491,-146 1491,-198 1775,-198 1775,-146 1491,-146"/>
</g>
<g id="clust42" class="cluster">
<title>cluster_ExamModule_providers</title>
<polygon fill="none" stroke="black" points="919,-146 919,-198 1483,-198 1483,-146 919,-146"/>
</g>
<g id="clust43" class="cluster">
<title>cluster_FirebaseAdminModule</title>
<polygon fill="none" stroke="black" stroke-dasharray="1,5" points="3541,-70 3541,-282 3715,-282 3715,-70 3541,-70"/>
</g>
<g id="clust46" class="cluster">
<title>cluster_FirebaseAdminModule_exports</title>
<polygon fill="none" stroke="black" points="3567,-222 3567,-274 3689,-274 3689,-222 3567,-222"/>
</g>
<g id="clust48" class="cluster">
<title>cluster_FirebaseAdminModule_providers</title>
<polygon fill="none" stroke="black" points="3549,-78 3549,-130 3707,-130 3707,-78 3549,-78"/>
</g>
<g id="clust49" class="cluster">
<title>cluster_FirebaseModule</title>
<polygon fill="none" stroke="black" stroke-dasharray="1,5" points="1791,-70 1791,-282 2301,-282 2301,-70 1791,-70"/>
</g>
<g id="clust52" class="cluster">
<title>cluster_FirebaseModule_exports</title>
<polygon fill="none" stroke="black" points="1817,-222 1817,-274 2191,-274 2191,-222 1817,-222"/>
</g>
<g id="clust54" class="cluster">
<title>cluster_FirebaseModule_providers</title>
<polygon fill="none" stroke="black" points="1799,-78 1799,-130 2293,-130 2293,-78 1799,-78"/>
</g>
<g id="clust55" class="cluster">
<title>cluster_InfraModule</title>
<polygon fill="none" stroke="black" stroke-dasharray="1,5" points="368,-290 368,-358 514,-358 514,-290 368,-290"/>
</g>
<g id="clust58" class="cluster">
<title>cluster_InfraModule_exports</title>
<polygon fill="none" stroke="black" points="376,-298 376,-350 506,-350 506,-298 376,-298"/>
</g>
<g id="clust61" class="cluster">
<title>cluster_LoggerModule</title>
<polygon fill="none" stroke="black" stroke-dasharray="1,5" points="522,-290 522,-358 820,-358 820,-290 522,-290"/>
</g>
<g id="clust64" class="cluster">
<title>cluster_LoggerModule_exports</title>
<polygon fill="none" stroke="black" points="692,-298 692,-350 812,-350 812,-298 692,-298"/>
</g>
<g id="clust66" class="cluster">
<title>cluster_LoggerModule_providers</title>
<polygon fill="none" stroke="black" points="530,-298 530,-350 684,-350 684,-298 530,-298"/>
</g>
<g id="clust67" class="cluster">
<title>cluster_QuestionGroupModule</title>
<polygon fill="none" stroke="black" stroke-dasharray="1,5" points="3134,-214 3134,-282 3533,-282 3533,-214 3134,-214"/>
</g>
<g id="clust72" class="cluster">
<title>cluster_QuestionGroupModule_providers</title>
<polygon fill="none" stroke="black" points="3142,-222 3142,-274 3525,-274 3525,-222 3142,-222"/>
</g>
<g id="clust73" class="cluster">
<title>cluster_UserModule</title>
<polygon fill="none" stroke="black" stroke-dasharray="1,5" points="828,-290 828,-358 1088,-358 1088,-290 828,-290"/>
</g>
<g id="clust76" class="cluster">
<title>cluster_UserModule_exports</title>
<polygon fill="none" stroke="black" points="976,-298 976,-350 1080,-350 1080,-298 976,-298"/>
</g>
<g id="clust78" class="cluster">
<title>cluster_UserModule_providers</title>
<polygon fill="none" stroke="black" points="836,-298 836,-350 968,-350 968,-298 836,-298"/>
</g>
<!-- AnswerService -->
<g id="node1" class="node">
<title>AnswerService</title>
<ellipse fill="#fdb462" stroke="black" cx="151" cy="-104" rx="70.04" ry="18"/>
<text text-anchor="middle" x="151" y="-99.8" font-family="Times,serif" font-size="14.00">AnswerService</text>
</g>
<!-- AnswerModule -->
<g id="node2" class="node">
<title>AnswerModule</title>
<polygon fill="#8dd3c7" stroke="black" points="202.58,-190 199.58,-194 178.58,-194 175.58,-190 99.42,-190 99.42,-154 202.58,-154 202.58,-190"/>
<text text-anchor="middle" x="151" y="-167.8" font-family="Times,serif" font-size="14.00">AnswerModule</text>
</g>
<!-- AnswerService&#45;&gt;AnswerModule -->
<g id="edge1" class="edge">
<title>AnswerService&#45;&gt;AnswerModule</title>
<path fill="none" stroke="black" d="M151,-122.22C151,-122.22 151,-143.73 151,-143.73"/>
<polygon fill="black" stroke="black" points="147.5,-143.73 151,-153.73 154.5,-143.73 147.5,-143.73"/>
</g>
<!-- AuthModule -->
<g id="node3" class="node">
<title>AuthModule</title>
<polygon fill="#8dd3c7" stroke="black" points="1602.55,-342 1599.55,-346 1578.55,-346 1575.55,-342 1515.45,-342 1515.45,-306 1602.55,-306 1602.55,-342"/>
<text text-anchor="middle" x="1559" y="-319.8" font-family="Times,serif" font-size="14.00">AuthModule</text>
</g>
<!-- AppModule -->
<g id="node11" class="node">
<title>AppModule</title>
<polygon fill="#8dd3c7" stroke="black" points="1507.66,-407 1504.66,-411 1483.66,-411 1480.66,-407 1424.34,-407 1424.34,-371 1507.66,-371 1507.66,-407"/>
<text text-anchor="middle" x="1466" y="-384.8" font-family="Times,serif" font-size="14.00">AppModule</text>
</g>
<!-- AuthModule&#45;&gt;AppModule -->
<g id="edge2" class="edge">
<title>AuthModule&#45;&gt;AppModule</title>
<path fill="none" stroke="black" d="M1515.15,-330C1504.63,-330 1496.36,-330 1496.36,-330 1496.36,-330 1496.36,-360.98 1496.36,-360.98"/>
<polygon fill="black" stroke="black" points="1492.86,-360.98 1496.36,-370.98 1499.86,-360.98 1492.86,-360.98"/>
</g>
<!-- AuthService  -->
<g id="node13" class="node">
<title>AuthService </title>
<polygon fill="#fb8072" stroke="black" points="3001.98,-266 2912.02,-266 2912.02,-230 3001.98,-230 3001.98,-266"/>
<text text-anchor="middle" x="2957" y="-243.8" font-family="Times,serif" font-size="14.00">AuthService </text>
</g>
<!-- AuthModule&#45;&gt;AuthService  -->
<g id="edge12" class="edge">
<title>AuthModule&#45;&gt;AuthService </title>
<path fill="none" stroke="black" stroke-dasharray="5,2" d="M1565.66,-305.81C1565.66,-302.46 1565.66,-300 1565.66,-300 1565.66,-300 2957,-300 2957,-300 2957,-300 2957,-276.19 2957,-276.19"/>
<polygon fill="black" stroke="black" points="2960.5,-276.19 2957,-266.19 2953.5,-276.19 2960.5,-276.19"/>
</g>
<!-- CaslModule  -->
<g id="node14" class="node">
<title>CaslModule </title>
<polygon fill="#fb8072" stroke="black" points="2893.94,-266 2806.06,-266 2806.06,-230 2893.94,-230 2893.94,-266"/>
<text text-anchor="middle" x="2850" y="-243.8" font-family="Times,serif" font-size="14.00">CaslModule </text>
</g>
<!-- AuthModule&#45;&gt;CaslModule  -->
<g id="edge13" class="edge">
<title>AuthModule&#45;&gt;CaslModule </title>
<path fill="none" stroke="black" stroke-dasharray="5,2" d="M1558.24,-305.84C1558.24,-300.96 1558.24,-297 1558.24,-297 1558.24,-297 2850,-297 2850,-297 2850,-297 2850,-276.25 2850,-276.25"/>
<polygon fill="black" stroke="black" points="2853.5,-276.25 2850,-266.25 2846.5,-276.25 2853.5,-276.25"/>
</g>
<!-- JwtGuard  -->
<g id="node15" class="node">
<title>JwtGuard </title>
<polygon fill="#fb8072" stroke="black" points="2787.92,-266 2714.08,-266 2714.08,-230 2787.92,-230 2787.92,-266"/>
<text text-anchor="middle" x="2751" y="-243.8" font-family="Times,serif" font-size="14.00">JwtGuard </text>
</g>
<!-- AuthModule&#45;&gt;JwtGuard  -->
<g id="edge14" class="edge">
<title>AuthModule&#45;&gt;JwtGuard </title>
<path fill="none" stroke="black" stroke-dasharray="5,2" d="M1550.82,-305.86C1550.82,-299.54 1550.82,-294 1550.82,-294 1550.82,-294 2751,-294 2751,-294 2751,-294 2751,-276.18 2751,-276.18"/>
<polygon fill="black" stroke="black" points="2754.5,-276.18 2751,-266.18 2747.5,-276.18 2754.5,-276.18"/>
</g>
<!-- AuxiliaryModule -->
<g id="node4" class="node">
<title>AuxiliaryModule</title>
<polygon fill="#8dd3c7" stroke="black" points="1656.7,-266 1653.7,-270 1632.7,-270 1629.7,-266 1543.3,-266 1543.3,-230 1656.7,-230 1656.7,-266"/>
<text text-anchor="middle" x="1600" y="-243.8" font-family="Times,serif" font-size="14.00">AuxiliaryModule</text>
</g>
<!-- AuxiliaryModule&#45;&gt;AppModule -->
<g id="edge3" class="edge">
<title>AuxiliaryModule&#45;&gt;AppModule</title>
<path fill="none" stroke="black" d="M1611.92,-266.21C1611.92,-303.06 1611.92,-383 1611.92,-383 1611.92,-383 1517.82,-383 1517.82,-383"/>
<polygon fill="black" stroke="black" points="1517.82,-379.5 1507.82,-383 1517.81,-386.5 1517.82,-379.5"/>
</g>
<!-- ProfessorService  -->
<g id="node19" class="node">
<title>ProfessorService </title>
<polygon fill="#fb8072" stroke="black" points="887.35,-190 772.65,-190 772.65,-154 887.35,-154 887.35,-190"/>
<text text-anchor="middle" x="830" y="-167.8" font-family="Times,serif" font-size="14.00">ProfessorService </text>
</g>
<!-- AuxiliaryModule&#45;&gt;ProfessorService  -->
<g id="edge18" class="edge">
<title>AuxiliaryModule&#45;&gt;ProfessorService </title>
<path fill="none" stroke="black" stroke-dasharray="5,2" d="M1576.51,-229.81C1576.51,-221.72 1576.51,-214 1576.51,-214 1576.51,-214 865.48,-214 865.48,-214 865.48,-214 865.48,-200.06 865.48,-200.06"/>
<polygon fill="black" stroke="black" points="868.98,-200.06 865.48,-190.06 861.98,-200.06 868.98,-200.06"/>
</g>
<!-- StudentService  -->
<g id="node20" class="node">
<title>StudentService </title>
<polygon fill="#fb8072" stroke="black" points="755.26,-190 650.74,-190 650.74,-154 755.26,-154 755.26,-190"/>
<text text-anchor="middle" x="703" y="-167.8" font-family="Times,serif" font-size="14.00">StudentService </text>
</g>
<!-- AuxiliaryModule&#45;&gt;StudentService  -->
<g id="edge19" class="edge">
<title>AuxiliaryModule&#45;&gt;StudentService </title>
<path fill="none" stroke="black" stroke-dasharray="5,2" d="M1568.23,-229.86C1568.23,-223.54 1568.23,-218 1568.23,-218 1568.23,-218 727.69,-218 727.69,-218 727.69,-218 727.69,-200.18 727.69,-200.18"/>
<polygon fill="black" stroke="black" points="731.19,-200.18 727.69,-190.18 724.19,-200.18 731.19,-200.18"/>
</g>
<!-- CoreModule -->
<g id="node5" class="node">
<title>CoreModule</title>
<polygon fill="#8dd3c7" stroke="black" points="1198.26,-266 1195.26,-270 1174.26,-270 1171.26,-266 1111.74,-266 1111.74,-230 1198.26,-230 1198.26,-266"/>
<text text-anchor="middle" x="1155" y="-243.8" font-family="Times,serif" font-size="14.00">CoreModule</text>
</g>
<!-- CoreModule&#45;&gt;AppModule -->
<g id="edge4" class="edge">
<title>CoreModule&#45;&gt;AppModule</title>
<path fill="none" stroke="black" d="M1155,-266.03C1155,-305.28 1155,-395 1155,-395 1155,-395 1414.06,-395 1414.06,-395"/>
<polygon fill="black" stroke="black" points="1414.06,-398.5 1424.06,-395 1414.06,-391.5 1414.06,-398.5"/>
</g>
<!-- PayloadInterceptor  -->
<g id="node25" class="node">
<title>PayloadInterceptor </title>
<polygon fill="#fb8072" stroke="black" points="344.01,-342 217.99,-342 217.99,-306 344.01,-306 344.01,-342"/>
<text text-anchor="middle" x="281" y="-319.8" font-family="Times,serif" font-size="14.00">PayloadInterceptor </text>
</g>
<!-- CoreModule&#45;&gt;PayloadInterceptor  -->
<g id="edge24" class="edge">
<title>CoreModule&#45;&gt;PayloadInterceptor </title>
<path fill="none" stroke="black" stroke-dasharray="5,2" d="M1111.56,-254C941.56,-254 330.75,-254 330.75,-254 330.75,-254 330.75,-295.97 330.75,-295.97"/>
<polygon fill="black" stroke="black" points="327.25,-295.97 330.75,-305.97 334.25,-295.97 327.25,-295.97"/>
</g>
<!-- ExamModule -->
<g id="node6" class="node">
<title>ExamModule</title>
<polygon fill="#8dd3c7" stroke="black" points="1767.21,-266 1764.21,-270 1743.21,-270 1740.21,-266 1674.79,-266 1674.79,-230 1767.21,-230 1767.21,-266"/>
<text text-anchor="middle" x="1721" y="-243.8" font-family="Times,serif" font-size="14.00">ExamModule</text>
</g>
<!-- QuestionGroupModule -->
<g id="node9" class="node">
<title>QuestionGroupModule</title>
<polygon fill="#8dd3c7" stroke="black" points="1766.86,-342 1763.86,-346 1742.86,-346 1739.86,-342 1621.14,-342 1621.14,-306 1766.86,-306 1766.86,-342"/>
<text text-anchor="middle" x="1694" y="-319.8" font-family="Times,serif" font-size="14.00">QuestionGroupModule</text>
</g>
<!-- ExamModule&#45;&gt;QuestionGroupModule -->
<g id="edge41" class="edge">
<title>ExamModule&#45;&gt;QuestionGroupModule</title>
<path fill="none" stroke="black" d="M1736.25,-266.01C1736.25,-266.01 1736.25,-295.85 1736.25,-295.85"/>
<polygon fill="black" stroke="black" points="1732.75,-295.85 1736.25,-305.85 1739.75,-295.85 1732.75,-295.85"/>
</g>
<!-- ExamModule&#45;&gt;AppModule -->
<g id="edge5" class="edge">
<title>ExamModule&#45;&gt;AppModule</title>
<path fill="none" stroke="black" d="M1705.57,-266.19C1705.57,-274.28 1705.57,-282 1705.57,-282 1705.57,-282 1484.89,-282 1484.89,-282 1484.89,-282 1484.89,-360.85 1484.89,-360.85"/>
<polygon fill="black" stroke="black" points="1481.39,-360.85 1484.89,-370.85 1488.39,-360.85 1481.39,-360.85"/>
</g>
<!-- ExamAgreementService  -->
<g id="node27" class="node">
<title>ExamAgreementService </title>
<polygon fill="#fb8072" stroke="black" points="1767.33,-190 1610.67,-190 1610.67,-154 1767.33,-154 1767.33,-190"/>
<text text-anchor="middle" x="1689" y="-167.8" font-family="Times,serif" font-size="14.00">ExamAgreementService </text>
</g>
<!-- ExamModule&#45;&gt;ExamAgreementService  -->
<g id="edge26" class="edge">
<title>ExamModule&#45;&gt;ExamAgreementService </title>
<path fill="none" stroke="black" stroke-dasharray="5,2" d="M1751.74,-229.99C1751.74,-229.99 1751.74,-200.15 1751.74,-200.15"/>
<polygon fill="black" stroke="black" points="1755.24,-200.15 1751.74,-190.15 1748.24,-200.15 1755.24,-200.15"/>
</g>
<!-- ExamService  -->
<g id="node28" class="node">
<title>ExamService </title>
<polygon fill="#fb8072" stroke="black" points="1593.14,-190 1498.86,-190 1498.86,-154 1593.14,-154 1593.14,-190"/>
<text text-anchor="middle" x="1546" y="-167.8" font-family="Times,serif" font-size="14.00">ExamService </text>
</g>
<!-- ExamModule&#45;&gt;ExamService  -->
<g id="edge27" class="edge">
<title>ExamModule&#45;&gt;ExamService </title>
<path fill="none" stroke="black" stroke-dasharray="5,2" d="M1736.37,-229.95C1736.37,-215.63 1736.37,-198 1736.37,-198 1736.37,-198 1584.79,-198 1584.79,-198 1584.79,-198 1584.79,-197.21 1584.79,-197.21"/>
<polygon fill="black" stroke="black" points="1588.29,-200.06 1584.79,-190.06 1581.29,-200.06 1588.29,-200.06"/>
</g>
<!-- InfraModule -->
<g id="node7" class="node">
<title>InfraModule</title>
<polygon fill="#8dd3c7" stroke="black" points="1303.25,-266 1300.25,-270 1279.25,-270 1276.25,-266 1216.75,-266 1216.75,-230 1303.25,-230 1303.25,-266"/>
<text text-anchor="middle" x="1260" y="-243.8" font-family="Times,serif" font-size="14.00">InfraModule</text>
</g>
<!-- InfraModule&#45;&gt;AppModule -->
<g id="edge6" class="edge">
<title>InfraModule&#45;&gt;AppModule</title>
<path fill="none" stroke="black" d="M1274.46,-266.21C1274.46,-303.06 1274.46,-383 1274.46,-383 1274.46,-383 1413.97,-383 1413.97,-383"/>
<polygon fill="black" stroke="black" points="1413.97,-386.5 1423.97,-383 1413.97,-379.5 1413.97,-386.5"/>
</g>
<!-- UploaderService  -->
<g id="node40" class="node">
<title>UploaderService </title>
<polygon fill="#fb8072" stroke="black" points="497.57,-342 384.43,-342 384.43,-306 497.57,-306 497.57,-342"/>
<text text-anchor="middle" x="441" y="-319.8" font-family="Times,serif" font-size="14.00">UploaderService </text>
</g>
<!-- InfraModule&#45;&gt;UploaderService  -->
<g id="edge38" class="edge">
<title>InfraModule&#45;&gt;UploaderService </title>
<path fill="none" stroke="black" stroke-dasharray="5,2" d="M1245.54,-266.17C1245.54,-268.45 1245.54,-270 1245.54,-270 1245.54,-270 486.16,-270 486.16,-270 486.16,-270 486.16,-295.72 486.16,-295.72"/>
<polygon fill="black" stroke="black" points="482.66,-295.72 486.16,-305.72 489.66,-295.72 482.66,-295.72"/>
</g>
<!-- LoggerModule -->
<g id="node8" class="node">
<title>LoggerModule</title>
<polygon fill="#8dd3c7" stroke="black" points="1420.98,-266 1417.98,-270 1396.98,-270 1393.98,-266 1321.02,-266 1321.02,-230 1420.98,-230 1420.98,-266"/>
<text text-anchor="middle" x="1371" y="-243.8" font-family="Times,serif" font-size="14.00">LoggerModule</text>
</g>
<!-- LoggerModule&#45;&gt;AppModule -->
<g id="edge7" class="edge">
<title>LoggerModule&#45;&gt;AppModule</title>
<path fill="none" stroke="black" d="M1421.04,-248C1427.32,-248 1431.59,-248 1431.59,-248 1431.59,-248 1431.59,-360.86 1431.59,-360.86"/>
<polygon fill="black" stroke="black" points="1428.09,-360.86 1431.59,-370.86 1435.09,-360.86 1428.09,-360.86"/>
</g>
<!-- CustomLogger  -->
<g id="node41" class="node">
<title>CustomLogger </title>
<polygon fill="#fb8072" stroke="black" points="803.99,-342 700.01,-342 700.01,-306 803.99,-306 803.99,-342"/>
<text text-anchor="middle" x="752" y="-319.8" font-family="Times,serif" font-size="14.00">CustomLogger </text>
</g>
<!-- LoggerModule&#45;&gt;CustomLogger  -->
<g id="edge39" class="edge">
<title>LoggerModule&#45;&gt;CustomLogger </title>
<path fill="none" stroke="black" stroke-dasharray="5,2" d="M1387.66,-266.21C1387.66,-271.55 1387.66,-276 1387.66,-276 1387.66,-276 788.29,-276 788.29,-276 788.29,-276 788.29,-295.85 788.29,-295.85"/>
<polygon fill="black" stroke="black" points="784.79,-295.85 788.29,-305.85 791.79,-295.85 784.79,-295.85"/>
</g>
<!-- QuestionGroupModule&#45;&gt;AppModule -->
<g id="edge8" class="edge">
<title>QuestionGroupModule&#45;&gt;AppModule</title>
<path fill="none" stroke="black" d="M1694,-342.28C1694,-363.32 1694,-395 1694,-395 1694,-395 1517.82,-395 1517.82,-395"/>
<polygon fill="black" stroke="black" points="1517.82,-391.5 1507.82,-395 1517.82,-398.5 1517.82,-391.5"/>
</g>
<!-- UserModule -->
<g id="node10" class="node">
<title>UserModule</title>
<polygon fill="#8dd3c7" stroke="black" points="1524.98,-266 1521.98,-270 1500.98,-270 1497.98,-266 1439.02,-266 1439.02,-230 1524.98,-230 1524.98,-266"/>
<text text-anchor="middle" x="1482" y="-243.8" font-family="Times,serif" font-size="14.00">UserModule</text>
</g>
<!-- UserModule&#45;&gt;AuthModule -->
<g id="edge11" class="edge">
<title>UserModule&#45;&gt;AuthModule</title>
<path fill="none" stroke="black" d="M1520.11,-266.01C1520.11,-266.01 1520.11,-295.85 1520.11,-295.85"/>
<polygon fill="black" stroke="black" points="1516.61,-295.85 1520.11,-305.85 1523.61,-295.85 1516.61,-295.85"/>
</g>
<!-- UserModule&#45;&gt;AppModule -->
<g id="edge9" class="edge">
<title>UserModule&#45;&gt;AppModule</title>
<path fill="none" stroke="black" d="M1473.42,-266.14C1473.42,-266.14 1473.42,-360.93 1473.42,-360.93"/>
<polygon fill="black" stroke="black" points="1469.92,-360.92 1473.42,-370.93 1476.92,-360.93 1469.92,-360.92"/>
</g>
<!-- UserService  -->
<g id="node45" class="node">
<title>UserService </title>
<polygon fill="#fb8072" stroke="black" points="1071.9,-342 984.1,-342 984.1,-306 1071.9,-306 1071.9,-342"/>
<text text-anchor="middle" x="1028" y="-319.8" font-family="Times,serif" font-size="14.00">UserService </text>
</g>
<!-- UserModule&#45;&gt;UserService  -->
<g id="edge44" class="edge">
<title>UserModule&#45;&gt;UserService </title>
<path fill="none" stroke="black" stroke-dasharray="5,2" d="M1461.95,-266.03C1461.95,-286.77 1461.95,-318 1461.95,-318 1461.95,-318 1082,-318 1082,-318"/>
<polygon fill="black" stroke="black" points="1082,-314.5 1072,-318 1082,-321.5 1082,-314.5"/>
</g>
<!-- CaslModule -->
<g id="node12" class="node">
<title>CaslModule</title>
<polygon fill="#8dd3c7" stroke="black" points="3110.44,-266 3107.44,-270 3086.44,-270 3083.44,-266 3025.56,-266 3025.56,-230 3110.44,-230 3110.44,-266"/>
<text text-anchor="middle" x="3068" y="-243.8" font-family="Times,serif" font-size="14.00">CaslModule</text>
</g>
<!-- CaslModule&#45;&gt;AuthModule -->
<g id="edge10" class="edge">
<title>CaslModule&#45;&gt;AuthModule</title>
<path fill="none" stroke="black" d="M3068,-266.01C3068,-282.05 3068,-303 3068,-303 3068,-303 1595.35,-303 1595.35,-303 1595.35,-303 1595.35,-303.29 1595.35,-303.29"/>
<polygon fill="black" stroke="black" points="1591.85,-295.92 1595.35,-305.92 1598.85,-295.92 1591.85,-295.92"/>
</g>
<!-- CaslAbilityFactory  -->
<g id="node23" class="node">
<title>CaslAbilityFactory </title>
<polygon fill="#fb8072" stroke="black" points="3217.32,-190 3090.68,-190 3090.68,-154 3217.32,-154 3217.32,-190"/>
<text text-anchor="middle" x="3154" y="-167.8" font-family="Times,serif" font-size="14.00">CaslAbilityFactory </text>
</g>
<!-- CaslModule&#45;&gt;CaslAbilityFactory  -->
<g id="edge22" class="edge">
<title>CaslModule&#45;&gt;CaslAbilityFactory </title>
<path fill="none" stroke="black" stroke-dasharray="5,2" d="M3100.4,-229.99C3100.4,-229.99 3100.4,-200.15 3100.4,-200.15"/>
<polygon fill="black" stroke="black" points="3103.9,-200.15 3100.4,-190.15 3096.9,-200.15 3103.9,-200.15"/>
</g>
<!-- AuthService -->
<g id="node16" class="node">
<title>AuthService</title>
<ellipse fill="#fdb462" stroke="black" cx="2631" cy="-248" rx="59.11" ry="18"/>
<text text-anchor="middle" x="2631" y="-243.8" font-family="Times,serif" font-size="14.00">AuthService</text>
</g>
<!-- AuthService&#45;&gt;AuthModule -->
<g id="edge15" class="edge">
<title>AuthService&#45;&gt;AuthModule</title>
<path fill="none" stroke="black" d="M2631,-266.49C2631,-278.14 2631,-291 2631,-291 2631,-291 1587.93,-291 1587.93,-291 1587.93,-291 1587.93,-295.96 1587.93,-295.96"/>
<polygon fill="black" stroke="black" points="1584.43,-295.96 1587.93,-305.96 1591.43,-295.96 1584.43,-295.96"/>
</g>
<!-- JwtGuard -->
<g id="node17" class="node">
<title>JwtGuard</title>
<ellipse fill="#fdb462" stroke="black" cx="2505" cy="-248" rx="48.65" ry="18"/>
<text text-anchor="middle" x="2505" y="-243.8" font-family="Times,serif" font-size="14.00">JwtGuard</text>
</g>
<!-- JwtGuard&#45;&gt;AuthModule -->
<g id="edge16" class="edge">
<title>JwtGuard&#45;&gt;AuthModule</title>
<path fill="none" stroke="black" d="M2505,-266.13C2505,-276.71 2505,-288 2505,-288 2505,-288 1580.51,-288 1580.51,-288 1580.51,-288 1580.51,-295.58 1580.51,-295.58"/>
<polygon fill="black" stroke="black" points="1577.01,-295.58 1580.51,-305.58 1584.01,-295.58 1577.01,-295.58"/>
</g>
<!-- JwtStrategy -->
<g id="node18" class="node">
<title>JwtStrategy</title>
<ellipse fill="#fdb462" stroke="black" cx="2382" cy="-248" rx="56.76" ry="18"/>
<text text-anchor="middle" x="2382" y="-243.8" font-family="Times,serif" font-size="14.00">JwtStrategy</text>
</g>
<!-- JwtStrategy&#45;&gt;AuthModule -->
<g id="edge17" class="edge">
<title>JwtStrategy&#45;&gt;AuthModule</title>
<path fill="none" stroke="black" d="M2382,-266.07C2382,-275.46 2382,-285 2382,-285 2382,-285 1573.09,-285 1573.09,-285 1573.09,-285 1573.09,-295.87 1573.09,-295.87"/>
<polygon fill="black" stroke="black" points="1569.59,-295.87 1573.09,-305.87 1576.59,-295.87 1569.59,-295.87"/>
</g>
<!-- ProfessorService -->
<g id="node21" class="node">
<title>ProfessorService</title>
<ellipse fill="#fdb462" stroke="black" cx="551" cy="-172" rx="76.42" ry="18"/>
<text text-anchor="middle" x="551" y="-167.8" font-family="Times,serif" font-size="14.00">ProfessorService</text>
</g>
<!-- ProfessorService&#45;&gt;AuxiliaryModule -->
<g id="edge20" class="edge">
<title>ProfessorService&#45;&gt;AuxiliaryModule</title>
<path fill="none" stroke="black" d="M582.74,-188.65C582.74,-203.19 582.74,-222 582.74,-222 582.74,-222 1559.95,-222 1559.95,-222 1559.95,-222 1559.95,-222.79 1559.95,-222.79"/>
<polygon fill="black" stroke="black" points="1556.45,-219.94 1559.95,-229.94 1563.45,-219.94 1556.45,-219.94"/>
</g>
<!-- StudentService -->
<g id="node22" class="node">
<title>StudentService</title>
<ellipse fill="#fdb462" stroke="black" cx="387" cy="-172" rx="69.5" ry="18"/>
<text text-anchor="middle" x="387" y="-167.8" font-family="Times,serif" font-size="14.00">StudentService</text>
</g>
<!-- StudentService&#45;&gt;AuxiliaryModule -->
<g id="edge21" class="edge">
<title>StudentService&#45;&gt;AuxiliaryModule</title>
<path fill="none" stroke="black" d="M420.36,-187.91C420.36,-203.84 420.36,-226 420.36,-226 420.36,-226 1551.68,-226 1551.68,-226 1551.68,-226 1551.68,-226.38 1551.68,-226.38"/>
<polygon fill="black" stroke="black" points="1548.18,-219.83 1551.68,-229.83 1555.18,-219.83 1548.18,-219.83"/>
</g>
<!-- CaslAbilityFactory -->
<g id="node24" class="node">
<title>CaslAbilityFactory</title>
<ellipse fill="#fdb462" stroke="black" cx="2982" cy="-172" rx="85.13" ry="18"/>
<text text-anchor="middle" x="2982" y="-167.8" font-family="Times,serif" font-size="14.00">CaslAbilityFactory</text>
</g>
<!-- CaslAbilityFactory&#45;&gt;CaslModule -->
<g id="edge23" class="edge">
<title>CaslAbilityFactory&#45;&gt;CaslModule</title>
<path fill="none" stroke="black" d="M3046.42,-183.88C3046.42,-183.88 3046.42,-219.99 3046.42,-219.99"/>
<polygon fill="black" stroke="black" points="3042.92,-219.99 3046.42,-229.99 3049.92,-219.99 3042.92,-219.99"/>
</g>
<!-- PayloadInterceptor -->
<g id="node26" class="node">
<title>PayloadInterceptor</title>
<ellipse fill="#fdb462" stroke="black" cx="109" cy="-324" rx="84.51" ry="18"/>
<text text-anchor="middle" x="109" y="-319.8" font-family="Times,serif" font-size="14.00">PayloadInterceptor</text>
</g>
<!-- PayloadInterceptor&#45;&gt;CoreModule -->
<g id="edge25" class="edge">
<title>PayloadInterceptor&#45;&gt;CoreModule</title>
<path fill="none" stroke="black" d="M146.48,-307.8C146.48,-283.9 146.48,-242 146.48,-242 146.48,-242 1101.67,-242 1101.67,-242"/>
<polygon fill="black" stroke="black" points="1101.67,-245.5 1111.67,-242 1101.67,-238.5 1101.67,-245.5"/>
</g>
<!-- ExamAgreementService -->
<g id="node29" class="node">
<title>ExamAgreementService</title>
<ellipse fill="#fdb462" stroke="black" cx="1176" cy="-172" rx="105.34" ry="18"/>
<text text-anchor="middle" x="1176" y="-167.8" font-family="Times,serif" font-size="14.00">ExamAgreementService</text>
</g>
<!-- ExamAgreementService&#45;&gt;ExamModule -->
<g id="edge28" class="edge">
<title>ExamAgreementService&#45;&gt;ExamModule</title>
<path fill="none" stroke="black" d="M1249.02,-185.05C1249.02,-194.64 1249.02,-206 1249.02,-206 1249.02,-206 1705.63,-206 1705.63,-206 1705.63,-206 1705.63,-219.94 1705.63,-219.94"/>
<polygon fill="black" stroke="black" points="1702.13,-219.94 1705.63,-229.94 1709.13,-219.94 1702.13,-219.94"/>
</g>
<!-- ExamService -->
<g id="node30" class="node">
<title>ExamService</title>
<ellipse fill="#fdb462" stroke="black" cx="990" cy="-172" rx="62.54" ry="18"/>
<text text-anchor="middle" x="990" y="-167.8" font-family="Times,serif" font-size="14.00">ExamService</text>
</g>
<!-- ExamService&#45;&gt;ExamModule -->
<g id="edge29" class="edge">
<title>ExamService&#45;&gt;ExamModule</title>
<path fill="none" stroke="black" d="M1018.28,-188.34C1018.28,-198.64 1018.28,-210 1018.28,-210 1018.28,-210 1690.26,-210 1690.26,-210 1690.26,-210 1690.26,-219.89 1690.26,-219.89"/>
<polygon fill="black" stroke="black" points="1686.76,-219.89 1690.26,-229.89 1693.76,-219.89 1686.76,-219.89"/>
</g>
<!-- ExamTargetService -->
<g id="node31" class="node">
<title>ExamTargetService</title>
<ellipse fill="#fdb462" stroke="black" cx="1387" cy="-172" rx="87.94" ry="18"/>
<text text-anchor="middle" x="1387" y="-167.8" font-family="Times,serif" font-size="14.00">ExamTargetService</text>
</g>
<!-- ExamTargetService&#45;&gt;ExamModule -->
<g id="edge30" class="edge">
<title>ExamTargetService&#45;&gt;ExamModule</title>
<path fill="none" stroke="black" d="M1456.87,-183.17C1456.87,-191.7 1456.87,-202 1456.87,-202 1456.87,-202 1721,-202 1721,-202 1721,-202 1721,-219.82 1721,-219.82"/>
<polygon fill="black" stroke="black" points="1717.5,-219.82 1721,-229.82 1724.5,-219.82 1717.5,-219.82"/>
</g>
<!-- FirebaseAdmin  -->
<g id="node32" class="node">
<title>FirebaseAdmin </title>
<polygon fill="#fb8072" stroke="black" points="3680.81,-266 3575.19,-266 3575.19,-230 3680.81,-230 3680.81,-266"/>
<text text-anchor="middle" x="3628" y="-243.8" font-family="Times,serif" font-size="14.00">FirebaseAdmin </text>
</g>
<!-- FirebaseAdminModule -->
<g id="node33" class="node">
<title>FirebaseAdminModule</title>
<polygon fill="#8dd3c7" stroke="black" points="3700.86,-190 3697.86,-194 3676.86,-194 3673.86,-190 3555.14,-190 3555.14,-154 3700.86,-154 3700.86,-190"/>
<text text-anchor="middle" x="3628" y="-167.8" font-family="Times,serif" font-size="14.00">FirebaseAdminModule</text>
</g>
<!-- FirebaseAdminModule&#45;&gt;FirebaseAdmin  -->
<g id="edge31" class="edge">
<title>FirebaseAdminModule&#45;&gt;FirebaseAdmin </title>
<path fill="none" stroke="black" stroke-dasharray="5,2" d="M3628,-190.01C3628,-190.01 3628,-219.85 3628,-219.85"/>
<polygon fill="black" stroke="black" points="3624.5,-219.85 3628,-229.85 3631.5,-219.85 3624.5,-219.85"/>
</g>
<!-- FirebaseAdmin -->
<g id="node34" class="node">
<title>FirebaseAdmin</title>
<ellipse fill="#fdb462" stroke="black" cx="3628" cy="-104" rx="70.64" ry="18"/>
<text text-anchor="middle" x="3628" y="-99.8" font-family="Times,serif" font-size="14.00">FirebaseAdmin</text>
</g>
<!-- FirebaseAdmin&#45;&gt;FirebaseAdminModule -->
<g id="edge32" class="edge">
<title>FirebaseAdmin&#45;&gt;FirebaseAdminModule</title>
<path fill="none" stroke="black" d="M3628,-122.22C3628,-122.22 3628,-143.73 3628,-143.73"/>
<polygon fill="black" stroke="black" points="3624.5,-143.73 3628,-153.73 3631.5,-143.73 3624.5,-143.73"/>
</g>
<!-- FirebaseAuthService  -->
<g id="node35" class="node">
<title>FirebaseAuthService </title>
<polygon fill="#fb8072" stroke="black" points="2183.4,-266 2046.6,-266 2046.6,-230 2183.4,-230 2183.4,-266"/>
<text text-anchor="middle" x="2115" y="-243.8" font-family="Times,serif" font-size="14.00">FirebaseAuthService </text>
</g>
<!-- FirebaseCloudMessagingService  -->
<g id="node36" class="node">
<title>FirebaseCloudMessagingService </title>
<polygon fill="#fb8072" stroke="black" points="2028.78,-266 1825.22,-266 1825.22,-230 2028.78,-230 2028.78,-266"/>
<text text-anchor="middle" x="1927" y="-243.8" font-family="Times,serif" font-size="14.00">FirebaseCloudMessagingService </text>
</g>
<!-- FirebaseModule -->
<g id="node37" class="node">
<title>FirebaseModule</title>
<polygon fill="#8dd3c7" stroke="black" points="1998.47,-190 1995.47,-194 1974.47,-194 1971.47,-190 1891.53,-190 1891.53,-154 1998.47,-154 1998.47,-190"/>
<text text-anchor="middle" x="1945" y="-167.8" font-family="Times,serif" font-size="14.00">FirebaseModule</text>
</g>
<!-- FirebaseModule&#45;&gt;InfraModule -->
<g id="edge37" class="edge">
<title>FirebaseModule&#45;&gt;InfraModule</title>
<path fill="none" stroke="black" d="M1927.17,-190.17C1927.17,-192.45 1927.17,-194 1927.17,-194 1927.17,-194 1290.35,-194 1290.35,-194 1290.35,-194 1290.35,-219.72 1290.35,-219.72"/>
<polygon fill="black" stroke="black" points="1286.85,-219.72 1290.35,-229.72 1293.85,-219.72 1286.85,-219.72"/>
</g>
<!-- FirebaseModule&#45;&gt;FirebaseAuthService  -->
<g id="edge33" class="edge">
<title>FirebaseModule&#45;&gt;FirebaseAuthService </title>
<path fill="none" stroke="black" stroke-dasharray="5,2" d="M1998.62,-178C2030.53,-178 2064.85,-178 2064.85,-178 2064.85,-178 2064.85,-219.97 2064.85,-219.97"/>
<polygon fill="black" stroke="black" points="2061.35,-219.97 2064.85,-229.97 2068.35,-219.97 2061.35,-219.97"/>
</g>
<!-- FirebaseModule&#45;&gt;FirebaseCloudMessagingService  -->
<g id="edge34" class="edge">
<title>FirebaseModule&#45;&gt;FirebaseCloudMessagingService </title>
<path fill="none" stroke="black" stroke-dasharray="5,2" d="M1962.83,-190.01C1962.83,-190.01 1962.83,-219.85 1962.83,-219.85"/>
<polygon fill="black" stroke="black" points="1959.33,-219.85 1962.83,-229.85 1966.33,-219.85 1959.33,-219.85"/>
</g>
<!-- FirebaseAuthService -->
<g id="node38" class="node">
<title>FirebaseAuthService</title>
<ellipse fill="#fdb462" stroke="black" cx="2193" cy="-104" rx="92.03" ry="18"/>
<text text-anchor="middle" x="2193" y="-99.8" font-family="Times,serif" font-size="14.00">FirebaseAuthService</text>
</g>
<!-- FirebaseAuthService&#45;&gt;FirebaseModule -->
<g id="edge35" class="edge">
<title>FirebaseAuthService&#45;&gt;FirebaseModule</title>
<path fill="none" stroke="black" d="M2142.22,-119.33C2142.22,-137.69 2142.22,-166 2142.22,-166 2142.22,-166 2008.63,-166 2008.63,-166"/>
<polygon fill="black" stroke="black" points="2008.63,-162.5 1998.63,-166 2008.63,-169.5 2008.63,-162.5"/>
</g>
<!-- FirebaseCloudMessagingService -->
<g id="node39" class="node">
<title>FirebaseCloudMessagingService</title>
<ellipse fill="#fdb462" stroke="black" cx="1945" cy="-104" rx="138.3" ry="18"/>
<text text-anchor="middle" x="1945" y="-99.8" font-family="Times,serif" font-size="14.00">FirebaseCloudMessagingService</text>
</g>
<!-- FirebaseCloudMessagingService&#45;&gt;FirebaseModule -->
<g id="edge36" class="edge">
<title>FirebaseCloudMessagingService&#45;&gt;FirebaseModule</title>
<path fill="none" stroke="black" d="M1945,-122.22C1945,-122.22 1945,-143.73 1945,-143.73"/>
<polygon fill="black" stroke="black" points="1941.5,-143.73 1945,-153.73 1948.5,-143.73 1941.5,-143.73"/>
</g>
<!-- CustomLogger -->
<g id="node42" class="node">
<title>CustomLogger</title>
<ellipse fill="#fdb462" stroke="black" cx="607" cy="-324" rx="68.94" ry="18"/>
<text text-anchor="middle" x="607" y="-319.8" font-family="Times,serif" font-size="14.00">CustomLogger</text>
</g>
<!-- CustomLogger&#45;&gt;LoggerModule -->
<g id="edge40" class="edge">
<title>CustomLogger&#45;&gt;LoggerModule</title>
<path fill="none" stroke="black" d="M663.42,-313.18C663.42,-298.21 663.42,-273 663.42,-273 663.42,-273 1354.34,-273 1354.34,-273 1354.34,-273 1354.34,-272.32 1354.34,-272.32"/>
<polygon fill="black" stroke="black" points="1357.84,-276.17 1354.34,-266.17 1350.84,-276.17 1357.84,-276.17"/>
</g>
<!-- QuestionGroupService -->
<g id="node43" class="node">
<title>QuestionGroupService</title>
<ellipse fill="#fdb462" stroke="black" cx="3417" cy="-248" rx="99.56" ry="18"/>
<text text-anchor="middle" x="3417" y="-243.8" font-family="Times,serif" font-size="14.00">QuestionGroupService</text>
</g>
<!-- QuestionGroupService&#45;&gt;QuestionGroupModule -->
<g id="edge42" class="edge">
<title>QuestionGroupService&#45;&gt;QuestionGroupModule</title>
<path fill="none" stroke="black" d="M3417,-266.2C3417,-290.36 3417,-330 3417,-330 3417,-330 1776.93,-330 1776.93,-330"/>
<polygon fill="black" stroke="black" points="1776.93,-326.5 1766.93,-330 1776.93,-333.5 1776.93,-326.5"/>
</g>
<!-- QuestionService -->
<g id="node44" class="node">
<title>QuestionService</title>
<ellipse fill="#fdb462" stroke="black" cx="3225" cy="-248" rx="74.72" ry="18"/>
<text text-anchor="middle" x="3225" y="-243.8" font-family="Times,serif" font-size="14.00">QuestionService</text>
</g>
<!-- QuestionService&#45;&gt;QuestionGroupModule -->
<g id="edge43" class="edge">
<title>QuestionService&#45;&gt;QuestionGroupModule</title>
<path fill="none" stroke="black" d="M3225,-266.03C3225,-286.77 3225,-318 3225,-318 3225,-318 1777.07,-318 1777.07,-318"/>
<polygon fill="black" stroke="black" points="1777.07,-314.5 1767.07,-318 1777.07,-321.5 1777.07,-314.5"/>
</g>
<!-- UserService -->
<g id="node46" class="node">
<title>UserService</title>
<ellipse fill="#fdb462" stroke="black" cx="902" cy="-324" rx="58.44" ry="18"/>
<text text-anchor="middle" x="902" y="-319.8" font-family="Times,serif" font-size="14.00">UserService</text>
</g>
<!-- UserService&#45;&gt;UserModule -->
<g id="edge45" class="edge">
<title>UserService&#45;&gt;UserModule</title>
<path fill="none" stroke="black" d="M943.85,-311.23C943.85,-297.92 943.85,-279 943.85,-279 943.85,-279 1450.48,-279 1450.48,-279 1450.48,-279 1450.48,-276.03 1450.48,-276.03"/>
<polygon fill="black" stroke="black" points="1453.98,-276.03 1450.48,-266.03 1446.98,-276.03 1453.98,-276.03"/>
</g>
</g>
</svg>
