<?xml version="1.0" encoding="UTF-8" standalone="no"?>
<!DOCTYPE svg PUBLIC "-//W3C//DTD SVG 1.1//EN"
 "http://www.w3.org/Graphics/SVG/1.1/DTD/svg11.dtd">
<!-- Generated by graphviz version 2.47.0 (20210316.0004)
 -->
<!-- Title: dependencies Pages: 1 -->
<svg width="3775pt" height="431pt"
 viewBox="0.00 0.00 3775.00 431.00" xmlns="http://www.w3.org/2000/svg" xmlns:xlink="http://www.w3.org/1999/xlink">
<g id="graph0" class="graph" transform="scale(1 1) rotate(0) translate(4 427)">
<title>dependencies</title>
<polygon fill="white" stroke="transparent" points="-4,4 -4,-427 3771,-427 3771,4 -4,4"/>
<text text-anchor="start" x="1862.51" y="-42.4" font-family="sans-serif" font-weight="bold" font-size="14.00">Legend</text>
<polygon fill="#ffffb3" stroke="transparent" points="1649.5,-10 1649.5,-30 1669.5,-30 1669.5,-10 1649.5,-10"/>
<text text-anchor="start" x="1673.13" y="-15.4" font-family="sans-serif" font-size="14.00"> &#160;Declarations</text>
<polygon fill="#8dd3c7" stroke="transparent" points="1762.5,-10 1762.5,-30 1782.5,-30 1782.5,-10 1762.5,-10"/>
<text text-anchor="start" x="1786.23" y="-15.4" font-family="sans-serif" font-size="14.00"> &#160;Module</text>
<polygon fill="#80b1d3" stroke="transparent" points="1848.5,-10 1848.5,-30 1868.5,-30 1868.5,-10 1848.5,-10"/>
<text text-anchor="start" x="1872.28" y="-15.4" font-family="sans-serif" font-size="14.00"> &#160;Bootstrap</text>
<polygon fill="#fdb462" stroke="transparent" points="1945.5,-10 1945.5,-30 1965.5,-30 1965.5,-10 1945.5,-10"/>
<text text-anchor="start" x="1969.17" y="-15.4" font-family="sans-serif" font-size="14.00"> &#160;Providers</text>
<polygon fill="#fb8072" stroke="transparent" points="2041.5,-10 2041.5,-30 2061.5,-30 2061.5,-10 2041.5,-10"/>
<text text-anchor="start" x="2065.23" y="-15.4" font-family="sans-serif" font-size="14.00"> &#160;Exports</text>
<g id="clust1" class="cluster">
<title>cluster_AnswerModule</title>
<polygon fill="none" stroke="black" stroke-dasharray="1,5" points="775,-214 775,-350 947,-350 947,-214 775,-214"/>
</g>
<g id="clust6" class="cluster">
<title>cluster_AnswerModule_providers</title>
<polygon fill="none" stroke="black" points="783,-222 783,-274 939,-274 939,-222 783,-222"/>
</g>
<g id="clust7" class="cluster">
<title>cluster_AppModule</title>
<polygon fill="none" stroke="black" stroke-dasharray="1,5" points="1109,-214 1109,-415 1795,-415 1795,-214 1109,-214"/>
</g>
<g id="clust9" class="cluster">
<title>cluster_AppModule_imports</title>
<polygon fill="none" stroke="black" points="1117,-222 1117,-350 1787,-350 1787,-222 1117,-222"/>
</g>
<g id="clust13" class="cluster">
<title>cluster_AuthModule</title>
<polygon fill="none" stroke="black" stroke-dasharray="1,5" points="2760,-214 2760,-282 3577,-282 3577,-214 2760,-214"/>
</g>
<g id="clust15" class="cluster">
<title>cluster_AuthModule_imports</title>
<polygon fill="none" stroke="black" points="3469,-222 3469,-274 3569,-274 3569,-222 3469,-222"/>
</g>
<g id="clust16" class="cluster">
<title>cluster_AuthModule_exports</title>
<polygon fill="none" stroke="black" points="3157,-222 3157,-274 3461,-274 3461,-222 3157,-222"/>
</g>
<g id="clust18" class="cluster">
<title>cluster_AuthModule_providers</title>
<polygon fill="none" stroke="black" points="2768,-222 2768,-274 3149,-274 3149,-222 2768,-222"/>
</g>
<g id="clust19" class="cluster">
<title>cluster_AuxiliaryModule</title>
<polygon fill="none" stroke="black" stroke-dasharray="1,5" points="8,-138 8,-206 609,-206 609,-138 8,-138"/>
</g>
<g id="clust22" class="cluster">
<title>cluster_AuxiliaryModule_exports</title>
<polygon fill="none" stroke="black" points="349,-146 349,-198 601,-198 601,-146 349,-146"/>
</g>
<g id="clust24" class="cluster">
<title>cluster_AuxiliaryModule_providers</title>
<polygon fill="none" stroke="black" points="16,-146 16,-198 341,-198 341,-146 16,-146"/>
</g>
<g id="clust25" class="cluster">
<title>cluster_CaslModule</title>
<polygon fill="none" stroke="black" stroke-dasharray="1,5" points="3326,-290 3326,-358 3678,-358 3678,-290 3326,-290"/>
</g>
<g id="clust28" class="cluster">
<title>cluster_CaslModule_exports</title>
<polygon fill="none" stroke="black" points="3528,-298 3528,-350 3670,-350 3670,-298 3528,-298"/>
</g>
<g id="clust30" class="cluster">
<title>cluster_CaslModule_providers</title>
<polygon fill="none" stroke="black" points="3334,-298 3334,-350 3520,-350 3520,-298 3334,-298"/>
</g>
<g id="clust31" class="cluster">
<title>cluster_CoreModule</title>
<polygon fill="none" stroke="black" stroke-dasharray="1,5" points="617,-138 617,-206 969,-206 969,-138 617,-138"/>
</g>
<g id="clust34" class="cluster">
<title>cluster_CoreModule_exports</title>
<polygon fill="none" stroke="black" points="819,-146 819,-198 961,-198 961,-146 819,-146"/>
</g>
<g id="clust36" class="cluster">
<title>cluster_CoreModule_providers</title>
<polygon fill="none" stroke="black" points="625,-146 625,-198 811,-198 811,-146 625,-146"/>
</g>
<g id="clust37" class="cluster">
<title>cluster_ExamModule</title>
<polygon fill="none" stroke="black" stroke-dasharray="1,5" points="977,-138 977,-206 1253,-206 1253,-138 977,-138"/>
</g>
<g id="clust40" class="cluster">
<title>cluster_ExamModule_exports</title>
<polygon fill="none" stroke="black" points="1135,-146 1135,-198 1245,-198 1245,-146 1135,-146"/>
</g>
<g id="clust42" class="cluster">
<title>cluster_ExamModule_providers</title>
<polygon fill="none" stroke="black" points="985,-146 985,-198 1127,-198 1127,-146 985,-146"/>
</g>
<g id="clust43" class="cluster">
<title>cluster_FirebaseAdminModule</title>
<polygon fill="none" stroke="black" stroke-dasharray="1,5" points="3585,-70 3585,-282 3759,-282 3759,-70 3585,-70"/>
</g>
<g id="clust46" class="cluster">
<title>cluster_FirebaseAdminModule_exports</title>
<polygon fill="none" stroke="black" points="3611,-222 3611,-274 3733,-274 3733,-222 3611,-222"/>
</g>
<g id="clust48" class="cluster">
<title>cluster_FirebaseAdminModule_providers</title>
<polygon fill="none" stroke="black" points="3593,-78 3593,-130 3751,-130 3751,-78 3593,-78"/>
</g>
<g id="clust49" class="cluster">
<title>cluster_FirebaseModule</title>
<polygon fill="none" stroke="black" stroke-dasharray="1,5" points="1835,-70 1835,-282 2345,-282 2345,-70 1835,-70"/>
</g>
<g id="clust52" class="cluster">
<title>cluster_FirebaseModule_exports</title>
<polygon fill="none" stroke="black" points="1855,-222 1855,-274 2229,-274 2229,-222 1855,-222"/>
</g>
<g id="clust54" class="cluster">
<title>cluster_FirebaseModule_providers</title>
<polygon fill="none" stroke="black" points="1843,-78 1843,-130 2337,-130 2337,-78 1843,-78"/>
</g>
<g id="clust55" class="cluster">
<title>cluster_InfraModule</title>
<polygon fill="none" stroke="black" stroke-dasharray="1,5" points="955,-290 955,-358 1101,-358 1101,-290 955,-290"/>
</g>
<g id="clust58" class="cluster">
<title>cluster_InfraModule_exports</title>
<polygon fill="none" stroke="black" points="963,-298 963,-350 1093,-350 1093,-298 963,-298"/>
</g>
<g id="clust61" class="cluster">
<title>cluster_LoggerModule</title>
<polygon fill="none" stroke="black" stroke-dasharray="1,5" points="1261,-138 1261,-206 1559,-206 1559,-138 1261,-138"/>
</g>
<g id="clust64" class="cluster">
<title>cluster_LoggerModule_exports</title>
<polygon fill="none" stroke="black" points="1431,-146 1431,-198 1551,-198 1551,-146 1431,-146"/>
</g>
<g id="clust66" class="cluster">
<title>cluster_LoggerModule_providers</title>
<polygon fill="none" stroke="black" points="1269,-146 1269,-198 1423,-198 1423,-146 1269,-146"/>
</g>
<g id="clust67" class="cluster">
<title>cluster_QuestionGroupModule</title>
<polygon fill="none" stroke="black" stroke-dasharray="1,5" points="2353,-214 2353,-282 2752,-282 2752,-214 2353,-214"/>
</g>
<g id="clust72" class="cluster">
<title>cluster_QuestionGroupModule_providers</title>
<polygon fill="none" stroke="black" points="2361,-222 2361,-274 2744,-274 2744,-222 2361,-222"/>
</g>
<g id="clust73" class="cluster">
<title>cluster_UserModule</title>
<polygon fill="none" stroke="black" stroke-dasharray="1,5" points="1567,-138 1567,-206 1827,-206 1827,-138 1567,-138"/>
</g>
<g id="clust76" class="cluster">
<title>cluster_UserModule_exports</title>
<polygon fill="none" stroke="black" points="1715,-146 1715,-198 1819,-198 1819,-146 1715,-146"/>
</g>
<g id="clust78" class="cluster">
<title>cluster_UserModule_providers</title>
<polygon fill="none" stroke="black" points="1575,-146 1575,-198 1707,-198 1707,-146 1575,-146"/>
</g>
<!-- AnswerService -->
<g id="node1" class="node">
<title>AnswerService</title>
<ellipse fill="#fdb462" stroke="black" cx="861" cy="-248" rx="70.04" ry="18"/>
<text text-anchor="middle" x="861" y="-243.8" font-family="Times,serif" font-size="14.00">AnswerService</text>
</g>
<!-- AnswerModule -->
<g id="node2" class="node">
<title>AnswerModule</title>
<polygon fill="#8dd3c7" stroke="black" points="925.58,-342 922.58,-346 901.58,-346 898.58,-342 822.42,-342 822.42,-306 925.58,-306 925.58,-342"/>
<text text-anchor="middle" x="874" y="-319.8" font-family="Times,serif" font-size="14.00">AnswerModule</text>
</g>
<!-- AnswerService&#45;&gt;AnswerModule -->
<g id="edge1" class="edge">
<title>AnswerService&#45;&gt;AnswerModule</title>
<path fill="none" stroke="black" d="M874,-266.01C874,-266.01 874,-295.85 874,-295.85"/>
<polygon fill="black" stroke="black" points="870.5,-295.85 874,-305.85 877.5,-295.85 870.5,-295.85"/>
</g>
<!-- AppModule -->
<g id="node11" class="node">
<title>AppModule</title>
<polygon fill="#8dd3c7" stroke="black" points="1509.66,-407 1506.66,-411 1485.66,-411 1482.66,-407 1426.34,-407 1426.34,-371 1509.66,-371 1509.66,-407"/>
<text text-anchor="middle" x="1468" y="-384.8" font-family="Times,serif" font-size="14.00">AppModule</text>
</g>
<!-- AnswerModule&#45;&gt;AppModule -->
<g id="edge2" class="edge">
<title>AnswerModule&#45;&gt;AppModule</title>
<path fill="none" stroke="black" d="M874,-342.29C874,-364.21 874,-398 874,-398 874,-398 1416.23,-398 1416.23,-398"/>
<polygon fill="black" stroke="black" points="1416.23,-401.5 1426.23,-398 1416.23,-394.5 1416.23,-401.5"/>
</g>
<!-- AuthModule -->
<g id="node3" class="node">
<title>AuthModule</title>
<polygon fill="#8dd3c7" stroke="black" points="1778.55,-342 1775.55,-346 1754.55,-346 1751.55,-342 1691.45,-342 1691.45,-306 1778.55,-306 1778.55,-342"/>
<text text-anchor="middle" x="1735" y="-319.8" font-family="Times,serif" font-size="14.00">AuthModule</text>
</g>
<!-- AuthModule&#45;&gt;AppModule -->
<g id="edge3" class="edge">
<title>AuthModule&#45;&gt;AppModule</title>
<path fill="none" stroke="black" d="M1735,-342.28C1735,-363.32 1735,-395 1735,-395 1735,-395 1519.72,-395 1519.72,-395"/>
<polygon fill="black" stroke="black" points="1519.72,-391.5 1509.72,-395 1519.72,-398.5 1519.72,-391.5"/>
</g>
<!-- AuthService  -->
<g id="node13" class="node">
<title>AuthService </title>
<polygon fill="#fb8072" stroke="black" points="3452.98,-266 3363.02,-266 3363.02,-230 3452.98,-230 3452.98,-266"/>
<text text-anchor="middle" x="3408" y="-243.8" font-family="Times,serif" font-size="14.00">AuthService </text>
</g>
<!-- AuthModule&#45;&gt;AuthService  -->
<g id="edge13" class="edge">
<title>AuthModule&#45;&gt;AuthService </title>
<path fill="none" stroke="black" stroke-dasharray="5,2" d="M1757.33,-305.8C1757.33,-299.97 1757.33,-295 1757.33,-295 1757.33,-295 3408,-295 3408,-295 3408,-295 3408,-276.04 3408,-276.04"/>
<polygon fill="black" stroke="black" points="3411.5,-276.04 3408,-266.04 3404.5,-276.04 3411.5,-276.04"/>
</g>
<!-- CaslModule  -->
<g id="node14" class="node">
<title>CaslModule </title>
<polygon fill="#fb8072" stroke="black" points="3344.94,-266 3257.06,-266 3257.06,-230 3344.94,-230 3344.94,-266"/>
<text text-anchor="middle" x="3301" y="-243.8" font-family="Times,serif" font-size="14.00">CaslModule </text>
</g>
<!-- AuthModule&#45;&gt;CaslModule  -->
<g id="edge14" class="edge">
<title>AuthModule&#45;&gt;CaslModule </title>
<path fill="none" stroke="black" stroke-dasharray="5,2" d="M1778.89,-336C2032.53,-336 3299.48,-336 3299.48,-336 3299.48,-336 3299.48,-276.23 3299.48,-276.23"/>
<polygon fill="black" stroke="black" points="3302.98,-276.23 3299.48,-266.23 3295.98,-276.23 3302.98,-276.23"/>
</g>
<!-- JwtGuard  -->
<g id="node15" class="node">
<title>JwtGuard </title>
<polygon fill="#fb8072" stroke="black" points="3238.92,-266 3165.08,-266 3165.08,-230 3238.92,-230 3238.92,-266"/>
<text text-anchor="middle" x="3202" y="-243.8" font-family="Times,serif" font-size="14.00">JwtGuard </text>
</g>
<!-- AuthModule&#45;&gt;JwtGuard  -->
<g id="edge15" class="edge">
<title>AuthModule&#45;&gt;JwtGuard </title>
<path fill="none" stroke="black" stroke-dasharray="5,2" d="M1778.9,-330C2023,-330 3202,-330 3202,-330 3202,-330 3202,-276.2 3202,-276.2"/>
<polygon fill="black" stroke="black" points="3205.5,-276.2 3202,-266.2 3198.5,-276.2 3205.5,-276.2"/>
</g>
<!-- AuxiliaryModule -->
<g id="node4" class="node">
<title>AuxiliaryModule</title>
<polygon fill="#8dd3c7" stroke="black" points="1238.7,-266 1235.7,-270 1214.7,-270 1211.7,-266 1125.3,-266 1125.3,-230 1238.7,-230 1238.7,-266"/>
<text text-anchor="middle" x="1182" y="-243.8" font-family="Times,serif" font-size="14.00">AuxiliaryModule</text>
</g>
<!-- AuxiliaryModule&#45;&gt;AppModule -->
<g id="edge4" class="edge">
<title>AuxiliaryModule&#45;&gt;AppModule</title>
<path fill="none" stroke="black" d="M1182,-266.14C1182,-304.23 1182,-389 1182,-389 1182,-389 1416.11,-389 1416.11,-389"/>
<polygon fill="black" stroke="black" points="1416.11,-392.5 1426.11,-389 1416.11,-385.5 1416.11,-392.5"/>
</g>
<!-- ProfessorService  -->
<g id="node19" class="node">
<title>ProfessorService </title>
<polygon fill="#fb8072" stroke="black" points="593.35,-190 478.65,-190 478.65,-154 593.35,-154 593.35,-190"/>
<text text-anchor="middle" x="536" y="-167.8" font-family="Times,serif" font-size="14.00">ProfessorService </text>
</g>
<!-- AuxiliaryModule&#45;&gt;ProfessorService  -->
<g id="edge19" class="edge">
<title>AuxiliaryModule&#45;&gt;ProfessorService </title>
<path fill="none" stroke="black" stroke-dasharray="5,2" d="M1139.43,-229.76C1139.43,-222.57 1139.43,-216 1139.43,-216 1139.43,-216 536,-216 536,-216 536,-216 536,-200.15 536,-200.15"/>
<polygon fill="black" stroke="black" points="539.5,-200.15 536,-190.15 532.5,-200.15 539.5,-200.15"/>
</g>
<!-- StudentService  -->
<g id="node20" class="node">
<title>StudentService </title>
<polygon fill="#fb8072" stroke="black" points="461.26,-190 356.74,-190 356.74,-154 461.26,-154 461.26,-190"/>
<text text-anchor="middle" x="409" y="-167.8" font-family="Times,serif" font-size="14.00">StudentService </text>
</g>
<!-- AuxiliaryModule&#45;&gt;StudentService  -->
<g id="edge20" class="edge">
<title>AuxiliaryModule&#45;&gt;StudentService </title>
<path fill="none" stroke="black" stroke-dasharray="5,2" d="M1135.92,-229.79C1135.92,-224.45 1135.92,-220 1135.92,-220 1135.92,-220 409,-220 409,-220 409,-220 409,-200.15 409,-200.15"/>
<polygon fill="black" stroke="black" points="412.5,-200.15 409,-190.15 405.5,-200.15 412.5,-200.15"/>
</g>
<!-- CoreModule -->
<g id="node5" class="node">
<title>CoreModule</title>
<polygon fill="#8dd3c7" stroke="black" points="1343.26,-266 1340.26,-270 1319.26,-270 1316.26,-266 1256.74,-266 1256.74,-230 1343.26,-230 1343.26,-266"/>
<text text-anchor="middle" x="1300" y="-243.8" font-family="Times,serif" font-size="14.00">CoreModule</text>
</g>
<!-- CoreModule&#45;&gt;AppModule -->
<g id="edge5" class="edge">
<title>CoreModule&#45;&gt;AppModule</title>
<path fill="none" stroke="black" d="M1300,-266.08C1300,-302.23 1300,-380 1300,-380 1300,-380 1416.04,-380 1416.04,-380"/>
<polygon fill="black" stroke="black" points="1416.04,-383.5 1426.04,-380 1416.04,-376.5 1416.04,-383.5"/>
</g>
<!-- PayloadInterceptor  -->
<g id="node25" class="node">
<title>PayloadInterceptor </title>
<polygon fill="#fb8072" stroke="black" points="953.01,-190 826.99,-190 826.99,-154 953.01,-154 953.01,-190"/>
<text text-anchor="middle" x="890" y="-167.8" font-family="Times,serif" font-size="14.00">PayloadInterceptor </text>
</g>
<!-- CoreModule&#45;&gt;PayloadInterceptor  -->
<g id="edge25" class="edge">
<title>CoreModule&#45;&gt;PayloadInterceptor </title>
<path fill="none" stroke="black" stroke-dasharray="5,2" d="M1270.23,-229.87C1270.23,-219.69 1270.23,-209 1270.23,-209 1270.23,-209 942.01,-209 942.01,-209 942.01,-209 942.01,-200.07 942.01,-200.07"/>
<polygon fill="black" stroke="black" points="945.51,-200.07 942.01,-190.07 938.51,-200.07 945.51,-200.07"/>
</g>
<!-- ExamModule -->
<g id="node6" class="node">
<title>ExamModule</title>
<polygon fill="#8dd3c7" stroke="black" points="1453.21,-266 1450.21,-270 1429.21,-270 1426.21,-266 1360.79,-266 1360.79,-230 1453.21,-230 1453.21,-266"/>
<text text-anchor="middle" x="1407" y="-243.8" font-family="Times,serif" font-size="14.00">ExamModule</text>
</g>
<!-- QuestionGroupModule -->
<g id="node9" class="node">
<title>QuestionGroupModule</title>
<polygon fill="#8dd3c7" stroke="black" points="1672.86,-342 1669.86,-346 1648.86,-346 1645.86,-342 1527.14,-342 1527.14,-306 1672.86,-306 1672.86,-342"/>
<text text-anchor="middle" x="1600" y="-319.8" font-family="Times,serif" font-size="14.00">QuestionGroupModule</text>
</g>
<!-- ExamModule&#45;&gt;QuestionGroupModule -->
<g id="edge39" class="edge">
<title>ExamModule&#45;&gt;QuestionGroupModule</title>
<path fill="none" stroke="black" d="M1444.13,-266.03C1444.13,-286.77 1444.13,-318 1444.13,-318 1444.13,-318 1517.08,-318 1517.08,-318"/>
<polygon fill="black" stroke="black" points="1517.08,-321.5 1527.08,-318 1517.08,-314.5 1517.08,-321.5"/>
</g>
<!-- ExamModule&#45;&gt;AppModule -->
<g id="edge6" class="edge">
<title>ExamModule&#45;&gt;AppModule</title>
<path fill="none" stroke="black" d="M1435.15,-266.14C1435.15,-266.14 1435.15,-360.93 1435.15,-360.93"/>
<polygon fill="black" stroke="black" points="1431.65,-360.92 1435.15,-370.93 1438.65,-360.93 1431.65,-360.92"/>
</g>
<!-- ExamService  -->
<g id="node27" class="node">
<title>ExamService </title>
<polygon fill="#fb8072" stroke="black" points="1237.14,-190 1142.86,-190 1142.86,-154 1237.14,-154 1237.14,-190"/>
<text text-anchor="middle" x="1190" y="-167.8" font-family="Times,serif" font-size="14.00">ExamService </text>
</g>
<!-- ExamModule&#45;&gt;ExamService  -->
<g id="edge27" class="edge">
<title>ExamModule&#45;&gt;ExamService </title>
<path fill="none" stroke="black" stroke-dasharray="5,2" d="M1387.93,-229.96C1387.93,-216.71 1387.93,-201 1387.93,-201 1387.93,-201 1190,-201 1190,-201 1190,-201 1190,-199.92 1190,-199.92"/>
<polygon fill="black" stroke="black" points="1193.5,-200.2 1190,-190.2 1186.5,-200.2 1193.5,-200.2"/>
</g>
<!-- InfraModule -->
<g id="node7" class="node">
<title>InfraModule</title>
<polygon fill="#8dd3c7" stroke="black" points="1675.25,-266 1672.25,-270 1651.25,-270 1648.25,-266 1588.75,-266 1588.75,-230 1675.25,-230 1675.25,-266"/>
<text text-anchor="middle" x="1632" y="-243.8" font-family="Times,serif" font-size="14.00">InfraModule</text>
</g>
<!-- InfraModule&#45;&gt;AppModule -->
<g id="edge7" class="edge">
<title>InfraModule&#45;&gt;AppModule</title>
<path fill="none" stroke="black" d="M1622.35,-266.14C1622.35,-272.46 1622.35,-278 1622.35,-278 1622.35,-278 1490.42,-278 1490.42,-278 1490.42,-278 1490.42,-360.67 1490.42,-360.67"/>
<polygon fill="black" stroke="black" points="1486.92,-360.67 1490.42,-370.67 1493.92,-360.67 1486.92,-360.67"/>
</g>
<!-- UploaderService  -->
<g id="node37" class="node">
<title>UploaderService </title>
<polygon fill="#fb8072" stroke="black" points="1084.57,-342 971.43,-342 971.43,-306 1084.57,-306 1084.57,-342"/>
<text text-anchor="middle" x="1028" y="-319.8" font-family="Times,serif" font-size="14.00">UploaderService </text>
</g>
<!-- InfraModule&#45;&gt;UploaderService  -->
<g id="edge36" class="edge">
<title>InfraModule&#45;&gt;UploaderService </title>
<path fill="none" stroke="black" stroke-dasharray="5,2" d="M1605.49,-266.19C1605.49,-269.54 1605.49,-272 1605.49,-272 1605.49,-272 1039.13,-272 1039.13,-272 1039.13,-272 1039.13,-295.81 1039.13,-295.81"/>
<polygon fill="black" stroke="black" points="1035.63,-295.81 1039.13,-305.81 1042.63,-295.81 1035.63,-295.81"/>
</g>
<!-- LoggerModule -->
<g id="node8" class="node">
<title>LoggerModule</title>
<polygon fill="#8dd3c7" stroke="black" points="1570.98,-266 1567.98,-270 1546.98,-270 1543.98,-266 1471.02,-266 1471.02,-230 1570.98,-230 1570.98,-266"/>
<text text-anchor="middle" x="1521" y="-243.8" font-family="Times,serif" font-size="14.00">LoggerModule</text>
</g>
<!-- LoggerModule&#45;&gt;AppModule -->
<g id="edge8" class="edge">
<title>LoggerModule&#45;&gt;AppModule</title>
<path fill="none" stroke="black" d="M1480.72,-266.14C1480.72,-266.14 1480.72,-360.93 1480.72,-360.93"/>
<polygon fill="black" stroke="black" points="1477.22,-360.92 1480.72,-370.93 1484.22,-360.93 1477.22,-360.92"/>
</g>
<!-- CustomLogger  -->
<g id="node38" class="node">
<title>CustomLogger </title>
<polygon fill="#fb8072" stroke="black" points="1542.99,-190 1439.01,-190 1439.01,-154 1542.99,-154 1542.99,-190"/>
<text text-anchor="middle" x="1491" y="-167.8" font-family="Times,serif" font-size="14.00">CustomLogger </text>
</g>
<!-- LoggerModule&#45;&gt;CustomLogger  -->
<g id="edge37" class="edge">
<title>LoggerModule&#45;&gt;CustomLogger </title>
<path fill="none" stroke="black" stroke-dasharray="5,2" d="M1518.83,-229.99C1518.83,-229.99 1518.83,-200.15 1518.83,-200.15"/>
<polygon fill="black" stroke="black" points="1522.33,-200.15 1518.83,-190.15 1515.33,-200.15 1522.33,-200.15"/>
</g>
<!-- QuestionGroupModule&#45;&gt;AppModule -->
<g id="edge9" class="edge">
<title>QuestionGroupModule&#45;&gt;AppModule</title>
<path fill="none" stroke="black" d="M1526.89,-330C1511.66,-330 1500.12,-330 1500.12,-330 1500.12,-330 1500.12,-360.98 1500.12,-360.98"/>
<polygon fill="black" stroke="black" points="1496.62,-360.98 1500.12,-370.98 1503.62,-360.98 1496.62,-360.98"/>
</g>
<!-- UserModule -->
<g id="node10" class="node">
<title>UserModule</title>
<polygon fill="#8dd3c7" stroke="black" points="1778.98,-266 1775.98,-270 1754.98,-270 1751.98,-266 1693.02,-266 1693.02,-230 1778.98,-230 1778.98,-266"/>
<text text-anchor="middle" x="1736" y="-243.8" font-family="Times,serif" font-size="14.00">UserModule</text>
</g>
<!-- UserModule&#45;&gt;AuthModule -->
<g id="edge12" class="edge">
<title>UserModule&#45;&gt;AuthModule</title>
<path fill="none" stroke="black" d="M1714.45,-266.01C1714.45,-266.01 1714.45,-295.85 1714.45,-295.85"/>
<polygon fill="black" stroke="black" points="1710.95,-295.85 1714.45,-305.85 1717.95,-295.85 1710.95,-295.85"/>
</g>
<!-- UserModule&#45;&gt;AppModule -->
<g id="edge10" class="edge">
<title>UserModule&#45;&gt;AppModule</title>
<path fill="none" stroke="black" d="M1692.94,-254C1685.8,-254 1680.66,-254 1680.66,-254 1680.66,-254 1680.66,-383 1680.66,-383 1680.66,-383 1519.76,-383 1519.76,-383"/>
<polygon fill="black" stroke="black" points="1519.76,-379.5 1509.76,-383 1519.76,-386.5 1519.76,-379.5"/>
</g>
<!-- UserService  -->
<g id="node42" class="node">
<title>UserService </title>
<polygon fill="#fb8072" stroke="black" points="1810.9,-190 1723.1,-190 1723.1,-154 1810.9,-154 1810.9,-190"/>
<text text-anchor="middle" x="1767" y="-167.8" font-family="Times,serif" font-size="14.00">UserService </text>
</g>
<!-- UserModule&#45;&gt;UserService  -->
<g id="edge42" class="edge">
<title>UserModule&#45;&gt;UserService </title>
<path fill="none" stroke="black" stroke-dasharray="5,2" d="M1751.02,-229.99C1751.02,-229.99 1751.02,-200.15 1751.02,-200.15"/>
<polygon fill="black" stroke="black" points="1754.52,-200.15 1751.02,-190.15 1747.52,-200.15 1754.52,-200.15"/>
</g>
<!-- CaslModule -->
<g id="node12" class="node">
<title>CaslModule</title>
<polygon fill="#8dd3c7" stroke="black" points="3561.44,-266 3558.44,-270 3537.44,-270 3534.44,-266 3476.56,-266 3476.56,-230 3561.44,-230 3561.44,-266"/>
<text text-anchor="middle" x="3519" y="-243.8" font-family="Times,serif" font-size="14.00">CaslModule</text>
</g>
<!-- CaslModule&#45;&gt;AuthModule -->
<g id="edge11" class="edge">
<title>CaslModule&#45;&gt;AuthModule</title>
<path fill="none" stroke="black" d="M3488.54,-266.24C3488.54,-281.57 3488.54,-301 3488.54,-301 3488.54,-301 1735.89,-301 1735.89,-301 1735.89,-301 1735.89,-301.49 1735.89,-301.49"/>
<polygon fill="black" stroke="black" points="1732.39,-295.88 1735.89,-305.88 1739.39,-295.88 1732.39,-295.88"/>
</g>
<!-- CaslAbilityFactory  -->
<g id="node23" class="node">
<title>CaslAbilityFactory </title>
<polygon fill="#fb8072" stroke="black" points="3662.32,-342 3535.68,-342 3535.68,-306 3662.32,-306 3662.32,-342"/>
<text text-anchor="middle" x="3599" y="-319.8" font-family="Times,serif" font-size="14.00">CaslAbilityFactory </text>
</g>
<!-- CaslModule&#45;&gt;CaslAbilityFactory  -->
<g id="edge23" class="edge">
<title>CaslModule&#45;&gt;CaslAbilityFactory </title>
<path fill="none" stroke="black" stroke-dasharray="5,2" d="M3548.4,-266.01C3548.4,-266.01 3548.4,-295.85 3548.4,-295.85"/>
<polygon fill="black" stroke="black" points="3544.9,-295.85 3548.4,-305.85 3551.9,-295.85 3544.9,-295.85"/>
</g>
<!-- AuthService -->
<g id="node16" class="node">
<title>AuthService</title>
<ellipse fill="#fdb462" stroke="black" cx="3082" cy="-248" rx="59.11" ry="18"/>
<text text-anchor="middle" x="3082" y="-243.8" font-family="Times,serif" font-size="14.00">AuthService</text>
</g>
<!-- AuthService&#45;&gt;AuthModule -->
<g id="edge16" class="edge">
<title>AuthService&#45;&gt;AuthModule</title>
<path fill="none" stroke="black" d="M3082,-266.01C3082,-288.49 3082,-324 3082,-324 3082,-324 1788.67,-324 1788.67,-324"/>
<polygon fill="black" stroke="black" points="1788.67,-320.5 1778.67,-324 1788.67,-327.5 1788.67,-320.5"/>
</g>
<!-- JwtGuard -->
<g id="node17" class="node">
<title>JwtGuard</title>
<ellipse fill="#fdb462" stroke="black" cx="2956" cy="-248" rx="48.65" ry="18"/>
<text text-anchor="middle" x="2956" y="-243.8" font-family="Times,serif" font-size="14.00">JwtGuard</text>
</g>
<!-- JwtGuard&#45;&gt;AuthModule -->
<g id="edge17" class="edge">
<title>JwtGuard&#45;&gt;AuthModule</title>
<path fill="none" stroke="black" d="M2956,-266.03C2956,-286.77 2956,-318 2956,-318 2956,-318 1788.82,-318 1788.82,-318"/>
<polygon fill="black" stroke="black" points="1788.82,-314.5 1778.82,-318 1788.82,-321.5 1788.82,-314.5"/>
</g>
<!-- JwtStrategy -->
<g id="node18" class="node">
<title>JwtStrategy</title>
<ellipse fill="#fdb462" stroke="black" cx="2833" cy="-248" rx="56.76" ry="18"/>
<text text-anchor="middle" x="2833" y="-243.8" font-family="Times,serif" font-size="14.00">JwtStrategy</text>
</g>
<!-- JwtStrategy&#45;&gt;AuthModule -->
<g id="edge18" class="edge">
<title>JwtStrategy&#45;&gt;AuthModule</title>
<path fill="none" stroke="black" d="M2833,-266.17C2833,-285.09 2833,-312 2833,-312 2833,-312 1788.72,-312 1788.72,-312"/>
<polygon fill="black" stroke="black" points="1788.72,-308.5 1778.72,-312 1788.72,-315.5 1788.72,-308.5"/>
</g>
<!-- ProfessorService -->
<g id="node21" class="node">
<title>ProfessorService</title>
<ellipse fill="#fdb462" stroke="black" cx="257" cy="-172" rx="76.42" ry="18"/>
<text text-anchor="middle" x="257" y="-167.8" font-family="Times,serif" font-size="14.00">ProfessorService</text>
</g>
<!-- ProfessorService&#45;&gt;AuxiliaryModule -->
<g id="edge21" class="edge">
<title>ProfessorService&#45;&gt;AuxiliaryModule</title>
<path fill="none" stroke="black" d="M257,-190.12C257,-204.78 257,-223 257,-223 257,-223 1132.41,-223 1132.41,-223 1132.41,-223 1132.41,-223.68 1132.41,-223.68"/>
<polygon fill="black" stroke="black" points="1128.91,-219.83 1132.41,-229.83 1135.91,-219.83 1128.91,-219.83"/>
</g>
<!-- StudentService -->
<g id="node22" class="node">
<title>StudentService</title>
<ellipse fill="#fdb462" stroke="black" cx="93" cy="-172" rx="69.5" ry="18"/>
<text text-anchor="middle" x="93" y="-167.8" font-family="Times,serif" font-size="14.00">StudentService</text>
</g>
<!-- StudentService&#45;&gt;AuxiliaryModule -->
<g id="edge22" class="edge">
<title>StudentService&#45;&gt;AuxiliaryModule</title>
<path fill="none" stroke="black" d="M93,-190.01C93,-206.05 93,-227 93,-227 93,-227 1128.91,-227 1128.91,-227 1128.91,-227 1128.91,-227.29 1128.91,-227.29"/>
<polygon fill="black" stroke="black" points="1125.41,-219.92 1128.91,-229.92 1132.41,-219.92 1125.41,-219.92"/>
</g>
<!-- CaslAbilityFactory -->
<g id="node24" class="node">
<title>CaslAbilityFactory</title>
<ellipse fill="#fdb462" stroke="black" cx="3427" cy="-324" rx="85.13" ry="18"/>
<text text-anchor="middle" x="3427" y="-319.8" font-family="Times,serif" font-size="14.00">CaslAbilityFactory</text>
</g>
<!-- CaslAbilityFactory&#45;&gt;CaslModule -->
<g id="edge24" class="edge">
<title>CaslAbilityFactory&#45;&gt;CaslModule</title>
<path fill="none" stroke="black" d="M3500.3,-314.68C3500.3,-314.68 3500.3,-276.11 3500.3,-276.11"/>
<polygon fill="black" stroke="black" points="3503.8,-276.11 3500.3,-266.11 3496.8,-276.11 3503.8,-276.11"/>
</g>
<!-- PayloadInterceptor -->
<g id="node26" class="node">
<title>PayloadInterceptor</title>
<ellipse fill="#fdb462" stroke="black" cx="718" cy="-172" rx="84.51" ry="18"/>
<text text-anchor="middle" x="718" y="-167.8" font-family="Times,serif" font-size="14.00">PayloadInterceptor</text>
</g>
<!-- PayloadInterceptor&#45;&gt;CoreModule -->
<g id="edge26" class="edge">
<title>PayloadInterceptor&#45;&gt;CoreModule</title>
<path fill="none" stroke="black" d="M796.74,-178.61C796.74,-189.97 796.74,-212 796.74,-212 796.74,-212 1263.42,-212 1263.42,-212 1263.42,-212 1263.42,-219.58 1263.42,-219.58"/>
<polygon fill="black" stroke="black" points="1259.92,-219.58 1263.42,-229.58 1266.92,-219.58 1259.92,-219.58"/>
</g>
<!-- ExamService -->
<g id="node28" class="node">
<title>ExamService</title>
<ellipse fill="#fdb462" stroke="black" cx="1056" cy="-172" rx="62.54" ry="18"/>
<text text-anchor="middle" x="1056" y="-167.8" font-family="Times,serif" font-size="14.00">ExamService</text>
</g>
<!-- ExamService&#45;&gt;ExamModule -->
<g id="edge28" class="edge">
<title>ExamService&#45;&gt;ExamModule</title>
<path fill="none" stroke="black" d="M1101.65,-184.66C1101.65,-193.97 1101.65,-205 1101.65,-205 1101.65,-205 1374.42,-205 1374.42,-205 1374.42,-205 1374.42,-219.51 1374.42,-219.51"/>
<polygon fill="black" stroke="black" points="1370.92,-219.51 1374.42,-229.51 1377.92,-219.51 1370.92,-219.51"/>
</g>
<!-- FirebaseAdmin  -->
<g id="node29" class="node">
<title>FirebaseAdmin </title>
<polygon fill="#fb8072" stroke="black" points="3724.81,-266 3619.19,-266 3619.19,-230 3724.81,-230 3724.81,-266"/>
<text text-anchor="middle" x="3672" y="-243.8" font-family="Times,serif" font-size="14.00">FirebaseAdmin </text>
</g>
<!-- FirebaseAdminModule -->
<g id="node30" class="node">
<title>FirebaseAdminModule</title>
<polygon fill="#8dd3c7" stroke="black" points="3744.86,-190 3741.86,-194 3720.86,-194 3717.86,-190 3599.14,-190 3599.14,-154 3744.86,-154 3744.86,-190"/>
<text text-anchor="middle" x="3672" y="-167.8" font-family="Times,serif" font-size="14.00">FirebaseAdminModule</text>
</g>
<!-- FirebaseAdminModule&#45;&gt;FirebaseAdmin  -->
<g id="edge29" class="edge">
<title>FirebaseAdminModule&#45;&gt;FirebaseAdmin </title>
<path fill="none" stroke="black" stroke-dasharray="5,2" d="M3672,-190.01C3672,-190.01 3672,-219.85 3672,-219.85"/>
<polygon fill="black" stroke="black" points="3668.5,-219.85 3672,-229.85 3675.5,-219.85 3668.5,-219.85"/>
</g>
<!-- FirebaseAdmin -->
<g id="node31" class="node">
<title>FirebaseAdmin</title>
<ellipse fill="#fdb462" stroke="black" cx="3672" cy="-104" rx="70.64" ry="18"/>
<text text-anchor="middle" x="3672" y="-99.8" font-family="Times,serif" font-size="14.00">FirebaseAdmin</text>
</g>
<!-- FirebaseAdmin&#45;&gt;FirebaseAdminModule -->
<g id="edge30" class="edge">
<title>FirebaseAdmin&#45;&gt;FirebaseAdminModule</title>
<path fill="none" stroke="black" d="M3672,-122.22C3672,-122.22 3672,-143.73 3672,-143.73"/>
<polygon fill="black" stroke="black" points="3668.5,-143.73 3672,-153.73 3675.5,-143.73 3668.5,-143.73"/>
</g>
<!-- FirebaseAuthService  -->
<g id="node32" class="node">
<title>FirebaseAuthService </title>
<polygon fill="#fb8072" stroke="black" points="1999.4,-266 1862.6,-266 1862.6,-230 1999.4,-230 1999.4,-266"/>
<text text-anchor="middle" x="1931" y="-243.8" font-family="Times,serif" font-size="14.00">FirebaseAuthService </text>
</g>
<!-- FirebaseCloudMessagingService  -->
<g id="node33" class="node">
<title>FirebaseCloudMessagingService </title>
<polygon fill="#fb8072" stroke="black" points="2220.78,-266 2017.22,-266 2017.22,-230 2220.78,-230 2220.78,-266"/>
<text text-anchor="middle" x="2119" y="-243.8" font-family="Times,serif" font-size="14.00">FirebaseCloudMessagingService </text>
</g>
<!-- FirebaseModule -->
<g id="node34" class="node">
<title>FirebaseModule</title>
<polygon fill="#8dd3c7" stroke="black" points="1996.47,-190 1993.47,-194 1972.47,-194 1969.47,-190 1889.53,-190 1889.53,-154 1996.47,-154 1996.47,-190"/>
<text text-anchor="middle" x="1943" y="-167.8" font-family="Times,serif" font-size="14.00">FirebaseModule</text>
</g>
<!-- FirebaseModule&#45;&gt;InfraModule -->
<g id="edge35" class="edge">
<title>FirebaseModule&#45;&gt;InfraModule</title>
<path fill="none" stroke="black" d="M1925.17,-190.17C1925.17,-192.45 1925.17,-194 1925.17,-194 1925.17,-194 1632,-194 1632,-194 1632,-194 1632,-219.72 1632,-219.72"/>
<polygon fill="black" stroke="black" points="1628.5,-219.72 1632,-229.72 1635.5,-219.72 1628.5,-219.72"/>
</g>
<!-- FirebaseModule&#45;&gt;FirebaseAuthService  -->
<g id="edge31" class="edge">
<title>FirebaseModule&#45;&gt;FirebaseAuthService </title>
<path fill="none" stroke="black" stroke-dasharray="5,2" d="M1960.83,-190.01C1960.83,-190.01 1960.83,-219.85 1960.83,-219.85"/>
<polygon fill="black" stroke="black" points="1957.33,-219.85 1960.83,-229.85 1964.33,-219.85 1957.33,-219.85"/>
</g>
<!-- FirebaseModule&#45;&gt;FirebaseCloudMessagingService  -->
<g id="edge32" class="edge">
<title>FirebaseModule&#45;&gt;FirebaseCloudMessagingService </title>
<path fill="none" stroke="black" stroke-dasharray="5,2" d="M1996.54,-178C2012.62,-178 2026.06,-178 2026.06,-178 2026.06,-178 2026.06,-219.97 2026.06,-219.97"/>
<polygon fill="black" stroke="black" points="2022.56,-219.97 2026.06,-229.97 2029.56,-219.97 2022.56,-219.97"/>
</g>
<!-- FirebaseAuthService -->
<g id="node35" class="node">
<title>FirebaseAuthService</title>
<ellipse fill="#fdb462" stroke="black" cx="1943" cy="-104" rx="92.03" ry="18"/>
<text text-anchor="middle" x="1943" y="-99.8" font-family="Times,serif" font-size="14.00">FirebaseAuthService</text>
</g>
<!-- FirebaseAuthService&#45;&gt;FirebaseModule -->
<g id="edge33" class="edge">
<title>FirebaseAuthService&#45;&gt;FirebaseModule</title>
<path fill="none" stroke="black" d="M1943,-122.22C1943,-122.22 1943,-143.73 1943,-143.73"/>
<polygon fill="black" stroke="black" points="1939.5,-143.73 1943,-153.73 1946.5,-143.73 1939.5,-143.73"/>
</g>
<!-- FirebaseCloudMessagingService -->
<g id="node36" class="node">
<title>FirebaseCloudMessagingService</title>
<ellipse fill="#fdb462" stroke="black" cx="2191" cy="-104" rx="138.3" ry="18"/>
<text text-anchor="middle" x="2191" y="-99.8" font-family="Times,serif" font-size="14.00">FirebaseCloudMessagingService</text>
</g>
<!-- FirebaseCloudMessagingService&#45;&gt;FirebaseModule -->
<g id="edge34" class="edge">
<title>FirebaseCloudMessagingService&#45;&gt;FirebaseModule</title>
<path fill="none" stroke="black" d="M2136.87,-120.61C2136.87,-138.98 2136.87,-166 2136.87,-166 2136.87,-166 2006.49,-166 2006.49,-166"/>
<polygon fill="black" stroke="black" points="2006.49,-162.5 1996.49,-166 2006.49,-169.5 2006.49,-162.5"/>
</g>
<!-- CustomLogger -->
<g id="node39" class="node">
<title>CustomLogger</title>
<ellipse fill="#fdb462" stroke="black" cx="1346" cy="-172" rx="68.94" ry="18"/>
<text text-anchor="middle" x="1346" y="-167.8" font-family="Times,serif" font-size="14.00">CustomLogger</text>
</g>
<!-- CustomLogger&#45;&gt;LoggerModule -->
<g id="edge38" class="edge">
<title>CustomLogger&#45;&gt;LoggerModule</title>
<path fill="none" stroke="black" d="M1401.45,-182.88C1401.45,-190 1401.45,-198 1401.45,-198 1401.45,-198 1494.92,-198 1494.92,-198 1494.92,-198 1494.92,-219.95 1494.92,-219.95"/>
<polygon fill="black" stroke="black" points="1491.42,-219.95 1494.92,-229.95 1498.42,-219.95 1491.42,-219.95"/>
</g>
<!-- QuestionGroupService -->
<g id="node40" class="node">
<title>QuestionGroupService</title>
<ellipse fill="#fdb462" stroke="black" cx="2469" cy="-248" rx="99.56" ry="18"/>
<text text-anchor="middle" x="2469" y="-243.8" font-family="Times,serif" font-size="14.00">QuestionGroupService</text>
</g>
<!-- QuestionGroupService&#45;&gt;QuestionGroupModule -->
<g id="edge40" class="edge">
<title>QuestionGroupService&#45;&gt;QuestionGroupModule</title>
<path fill="none" stroke="black" d="M2469,-266C2469,-275 2469,-284 2469,-284 2469,-284 1639.21,-284 1639.21,-284 1639.21,-284 1639.21,-295.87 1639.21,-295.87"/>
<polygon fill="black" stroke="black" points="1635.71,-295.87 1639.21,-305.87 1642.71,-295.87 1635.71,-295.87"/>
</g>
<!-- QuestionService -->
<g id="node41" class="node">
<title>QuestionService</title>
<ellipse fill="#fdb462" stroke="black" cx="2661" cy="-248" rx="74.72" ry="18"/>
<text text-anchor="middle" x="2661" y="-243.8" font-family="Times,serif" font-size="14.00">QuestionService</text>
</g>
<!-- QuestionService&#45;&gt;QuestionGroupModule -->
<g id="edge41" class="edge">
<title>QuestionService&#45;&gt;QuestionGroupModule</title>
<path fill="none" stroke="black" d="M2661,-266.1C2661,-277.09 2661,-289 2661,-289 2661,-289 1656.07,-289 1656.07,-289 1656.07,-289 1656.07,-295.68 1656.07,-295.68"/>
<polygon fill="black" stroke="black" points="1652.57,-295.68 1656.07,-305.68 1659.57,-295.68 1652.57,-295.68"/>
</g>
<!-- UserService -->
<g id="node43" class="node">
<title>UserService</title>
<ellipse fill="#fdb462" stroke="black" cx="1641" cy="-172" rx="58.44" ry="18"/>
<text text-anchor="middle" x="1641" y="-167.8" font-family="Times,serif" font-size="14.00">UserService</text>
</g>
<!-- UserService&#45;&gt;UserModule -->
<g id="edge43" class="edge">
<title>UserService&#45;&gt;UserModule</title>
<path fill="none" stroke="black" d="M1685.94,-183.56C1685.94,-203.44 1685.94,-242 1685.94,-242 1685.94,-242 1686.64,-242 1686.64,-242"/>
<polygon fill="black" stroke="black" points="1682.9,-245.5 1692.9,-242 1682.9,-238.5 1682.9,-245.5"/>
</g>
</g>
</svg>
