<?xml version="1.0" encoding="UTF-8" standalone="no"?>
<!DOCTYPE svg PUBLIC "-//W3C//DTD SVG 1.1//EN"
 "http://www.w3.org/Graphics/SVG/1.1/DTD/svg11.dtd">
<!-- Generated by graphviz version 2.47.0 (20210316.0004)
 -->
<!-- Title: dependencies Pages: 1 -->
<svg width="560pt" height="284pt"
 viewBox="0.00 0.00 560.00 284.00" xmlns="http://www.w3.org/2000/svg" xmlns:xlink="http://www.w3.org/1999/xlink">
<g id="graph0" class="graph" transform="scale(1 1) rotate(0) translate(4 280)">
<title>dependencies</title>
<polygon fill="white" stroke="transparent" points="-4,4 -4,-280 556,-280 556,4 -4,4"/>
<text text-anchor="start" x="255.01" y="-42.4" font-family="sans-serif" font-weight="bold" font-size="14.00">Legend</text>
<polygon fill="#ffffb3" stroke="transparent" points="42,-10 42,-30 62,-30 62,-10 42,-10"/>
<text text-anchor="start" x="65.63" y="-15.4" font-family="sans-serif" font-size="14.00"> &#160;Declarations</text>
<polygon fill="#8dd3c7" stroke="transparent" points="155,-10 155,-30 175,-30 175,-10 155,-10"/>
<text text-anchor="start" x="178.73" y="-15.4" font-family="sans-serif" font-size="14.00"> &#160;Module</text>
<polygon fill="#80b1d3" stroke="transparent" points="241,-10 241,-30 261,-30 261,-10 241,-10"/>
<text text-anchor="start" x="264.78" y="-15.4" font-family="sans-serif" font-size="14.00"> &#160;Bootstrap</text>
<polygon fill="#fdb462" stroke="transparent" points="338,-10 338,-30 358,-30 358,-10 338,-10"/>
<text text-anchor="start" x="361.67" y="-15.4" font-family="sans-serif" font-size="14.00"> &#160;Providers</text>
<polygon fill="#fb8072" stroke="transparent" points="434,-10 434,-30 454,-30 454,-10 434,-10"/>
<text text-anchor="start" x="457.73" y="-15.4" font-family="sans-serif" font-size="14.00"> &#160;Exports</text>
<g id="clust1" class="cluster">
<title>cluster_InfraModule</title>
<polygon fill="none" stroke="black" stroke-dasharray="1,5" points="8,-70 8,-268 544,-268 544,-70 8,-70"/>
</g>
<g id="clust3" class="cluster">
<title>cluster_InfraModule_imports</title>
<polygon fill="none" stroke="black" points="394,-78 394,-130 516,-130 516,-78 394,-78"/>
</g>
<g id="clust4" class="cluster">
<title>cluster_InfraModule_exports</title>
<polygon fill="none" stroke="black" points="16,-208 16,-260 536,-260 536,-208 16,-208"/>
</g>
<g id="clust6" class="cluster">
<title>cluster_InfraModule_providers</title>
<polygon fill="none" stroke="black" points="35,-78 35,-130 386,-130 386,-78 35,-78"/>
</g>
<!-- FirebaseModule -->
<g id="node1" class="node">
<title>FirebaseModule</title>
<polygon fill="#8dd3c7" stroke="black" points="508.47,-122 505.47,-126 484.47,-126 481.47,-122 401.53,-122 401.53,-86 508.47,-86 508.47,-122"/>
<text text-anchor="middle" x="455" y="-99.8" font-family="Times,serif" font-size="14.00">FirebaseModule</text>
</g>
<!-- InfraModule -->
<g id="node2" class="node">
<title>InfraModule</title>
<polygon fill="#8dd3c7" stroke="black" points="339.25,-187 336.25,-191 315.25,-191 312.25,-187 252.75,-187 252.75,-151 339.25,-151 339.25,-187"/>
<text text-anchor="middle" x="296" y="-164.8" font-family="Times,serif" font-size="14.00">InfraModule</text>
</g>
<!-- FirebaseModule&#45;&gt;InfraModule -->
<g id="edge1" class="edge">
<title>FirebaseModule&#45;&gt;InfraModule</title>
<path fill="none" stroke="black" d="M406.49,-122.02C406.49,-139.37 406.49,-163 406.49,-163 406.49,-163 349.35,-163 349.35,-163"/>
<polygon fill="black" stroke="black" points="349.35,-159.5 339.35,-163 349.35,-166.5 349.35,-159.5"/>
</g>
<!-- MailerService  -->
<g id="node3" class="node">
<title>MailerService </title>
<polygon fill="#fb8072" stroke="black" points="528.29,-252 429.71,-252 429.71,-216 528.29,-216 528.29,-252"/>
<text text-anchor="middle" x="479" y="-229.8" font-family="Times,serif" font-size="14.00">MailerService </text>
</g>
<!-- InfraModule&#45;&gt;MailerService  -->
<g id="edge2" class="edge">
<title>InfraModule&#45;&gt;MailerService </title>
<path fill="none" stroke="black" stroke-dasharray="5,2" d="M339.67,-175C390.93,-175 469.04,-175 469.04,-175 469.04,-175 469.04,-205.98 469.04,-205.98"/>
<polygon fill="black" stroke="black" points="465.54,-205.98 469.04,-215.98 472.54,-205.98 465.54,-205.98"/>
</g>
<!-- SendEmailService  -->
<g id="node4" class="node">
<title>SendEmailService </title>
<polygon fill="#fb8072" stroke="black" points="411.41,-252 288.59,-252 288.59,-216 411.41,-216 411.41,-252"/>
<text text-anchor="middle" x="350" y="-229.8" font-family="Times,serif" font-size="14.00">SendEmailService </text>
</g>
<!-- InfraModule&#45;&gt;SendEmailService  -->
<g id="edge3" class="edge">
<title>InfraModule&#45;&gt;SendEmailService </title>
<path fill="none" stroke="black" stroke-dasharray="5,2" d="M313.96,-187.11C313.96,-187.11 313.96,-205.99 313.96,-205.99"/>
<polygon fill="black" stroke="black" points="310.46,-205.99 313.96,-215.99 317.46,-205.99 310.46,-205.99"/>
</g>
<!-- TemplateService  -->
<g id="node5" class="node">
<title>TemplateService </title>
<polygon fill="#fb8072" stroke="black" points="270.35,-252 155.65,-252 155.65,-216 270.35,-216 270.35,-252"/>
<text text-anchor="middle" x="213" y="-229.8" font-family="Times,serif" font-size="14.00">TemplateService </text>
</g>
<!-- InfraModule&#45;&gt;TemplateService  -->
<g id="edge4" class="edge">
<title>InfraModule&#45;&gt;TemplateService </title>
<path fill="none" stroke="black" stroke-dasharray="5,2" d="M261.4,-187.11C261.4,-187.11 261.4,-205.99 261.4,-205.99"/>
<polygon fill="black" stroke="black" points="257.9,-205.99 261.4,-215.99 264.9,-205.99 257.9,-205.99"/>
</g>
<!-- UploaderService  -->
<g id="node6" class="node">
<title>UploaderService </title>
<polygon fill="#fb8072" stroke="black" points="137.57,-252 24.43,-252 24.43,-216 137.57,-216 137.57,-252"/>
<text text-anchor="middle" x="81" y="-229.8" font-family="Times,serif" font-size="14.00">UploaderService </text>
</g>
<!-- InfraModule&#45;&gt;UploaderService  -->
<g id="edge5" class="edge">
<title>InfraModule&#45;&gt;UploaderService </title>
<path fill="none" stroke="black" stroke-dasharray="5,2" d="M252.6,-175C192.21,-175 90.16,-175 90.16,-175 90.16,-175 90.16,-205.98 90.16,-205.98"/>
<polygon fill="black" stroke="black" points="86.66,-205.98 90.16,-215.98 93.66,-205.98 86.66,-205.98"/>
</g>
<!-- SendEmailService -->
<g id="node7" class="node">
<title>SendEmailService</title>
<ellipse fill="#fdb462" stroke="black" cx="296" cy="-104" rx="82.24" ry="18"/>
<text text-anchor="middle" x="296" y="-99.8" font-family="Times,serif" font-size="14.00">SendEmailService</text>
</g>
<!-- SendEmailService&#45;&gt;InfraModule -->
<g id="edge6" class="edge">
<title>SendEmailService&#45;&gt;InfraModule</title>
<path fill="none" stroke="black" d="M296,-122.11C296,-122.11 296,-140.99 296,-140.99"/>
<polygon fill="black" stroke="black" points="292.5,-140.99 296,-150.99 299.5,-140.99 292.5,-140.99"/>
</g>
<!-- TemplateService -->
<g id="node8" class="node">
<title>TemplateService</title>
<ellipse fill="#fdb462" stroke="black" cx="119" cy="-104" rx="76.42" ry="18"/>
<text text-anchor="middle" x="119" y="-99.8" font-family="Times,serif" font-size="14.00">TemplateService</text>
</g>
<!-- TemplateService&#45;&gt;InfraModule -->
<g id="edge7" class="edge">
<title>TemplateService&#45;&gt;InfraModule</title>
<path fill="none" stroke="black" d="M175.64,-116.22C175.64,-133.51 175.64,-163 175.64,-163 175.64,-163 242.55,-163 242.55,-163"/>
<polygon fill="black" stroke="black" points="242.55,-166.5 252.55,-163 242.55,-159.5 242.55,-166.5"/>
</g>
</g>
</svg>
