<?xml version="1.0" encoding="UTF-8" standalone="no"?>
<!DOCTYPE svg PUBLIC "-//W3C//DTD SVG 1.1//EN"
 "http://www.w3.org/Graphics/SVG/1.1/DTD/svg11.dtd">
<!-- Generated by graphviz version 2.47.0 (20210316.0004)
 -->
<!-- Title: dependencies Pages: 1 -->
<svg width="560pt" height="284pt"
 viewBox="0.00 0.00 560.00 284.00" xmlns="http://www.w3.org/2000/svg" xmlns:xlink="http://www.w3.org/1999/xlink">
<g id="graph0" class="graph" transform="scale(1 1) rotate(0) translate(4 280)">
<title>dependencies</title>
<polygon fill="white" stroke="transparent" points="-4,4 -4,-280 556,-280 556,4 -4,4"/>
<text text-anchor="start" x="255.01" y="-42.4" font-family="sans-serif" font-weight="bold" font-size="14.00">Legend</text>
<polygon fill="#ffffb3" stroke="transparent" points="42,-10 42,-30 62,-30 62,-10 42,-10"/>
<text text-anchor="start" x="65.63" y="-15.4" font-family="sans-serif" font-size="14.00"> &#160;Declarations</text>
<polygon fill="#8dd3c7" stroke="transparent" points="155,-10 155,-30 175,-30 175,-10 155,-10"/>
<text text-anchor="start" x="178.73" y="-15.4" font-family="sans-serif" font-size="14.00"> &#160;Module</text>
<polygon fill="#80b1d3" stroke="transparent" points="241,-10 241,-30 261,-30 261,-10 241,-10"/>
<text text-anchor="start" x="264.78" y="-15.4" font-family="sans-serif" font-size="14.00"> &#160;Bootstrap</text>
<polygon fill="#fdb462" stroke="transparent" points="338,-10 338,-30 358,-30 358,-10 338,-10"/>
<text text-anchor="start" x="361.67" y="-15.4" font-family="sans-serif" font-size="14.00"> &#160;Providers</text>
<polygon fill="#fb8072" stroke="transparent" points="434,-10 434,-30 454,-30 454,-10 434,-10"/>
<text text-anchor="start" x="457.73" y="-15.4" font-family="sans-serif" font-size="14.00"> &#160;Exports</text>
<g id="clust1" class="cluster">
<title>cluster_InfraModule</title>
<polygon fill="none" stroke="black" stroke-dasharray="1,5" points="8,-70 8,-268 544,-268 544,-70 8,-70"/>
</g>
<g id="clust6" class="cluster">
<title>cluster_InfraModule_providers</title>
<polygon fill="none" stroke="black" points="165,-78 165,-130 516,-130 516,-78 165,-78"/>
</g>
<g id="clust3" class="cluster">
<title>cluster_InfraModule_imports</title>
<polygon fill="none" stroke="black" points="35,-78 35,-130 157,-130 157,-78 35,-78"/>
</g>
<g id="clust4" class="cluster">
<title>cluster_InfraModule_exports</title>
<polygon fill="none" stroke="black" points="16,-208 16,-260 536,-260 536,-208 16,-208"/>
</g>
<!-- FirebaseModule -->
<g id="node1" class="node">
<title>FirebaseModule</title>
<polygon fill="#8dd3c7" stroke="black" points="149.47,-122 146.47,-126 125.47,-126 122.47,-122 42.53,-122 42.53,-86 149.47,-86 149.47,-122"/>
<text text-anchor="middle" x="96" y="-99.8" font-family="Times,serif" font-size="14.00">FirebaseModule</text>
</g>
<!-- InfraModule -->
<g id="node2" class="node">
<title>InfraModule</title>
<polygon fill="#8dd3c7" stroke="black" points="292.25,-187 289.25,-191 268.25,-191 265.25,-187 205.75,-187 205.75,-151 292.25,-151 292.25,-187"/>
<text text-anchor="middle" x="249" y="-164.8" font-family="Times,serif" font-size="14.00">InfraModule</text>
</g>
<!-- FirebaseModule&#45;&gt;InfraModule -->
<g id="edge1" class="edge">
<title>FirebaseModule&#45;&gt;InfraModule</title>
<path fill="none" stroke="black" d="M143.63,-122.02C143.63,-139.37 143.63,-163 143.63,-163 143.63,-163 195.54,-163 195.54,-163"/>
<polygon fill="black" stroke="black" points="195.54,-166.5 205.54,-163 195.54,-159.5 195.54,-166.5"/>
</g>
<!-- MailerService  -->
<g id="node3" class="node">
<title>MailerService </title>
<polygon fill="#fb8072" stroke="black" points="528.29,-252 429.71,-252 429.71,-216 528.29,-216 528.29,-252"/>
<text text-anchor="middle" x="479" y="-229.8" font-family="Times,serif" font-size="14.00">MailerService </text>
</g>
<!-- InfraModule&#45;&gt;MailerService  -->
<g id="edge2" class="edge">
<title>InfraModule&#45;&gt;MailerService </title>
<path fill="none" stroke="black" stroke-dasharray="5,2" d="M292.46,-175C356.57,-175 468.99,-175 468.99,-175 468.99,-175 468.99,-205.98 468.99,-205.98"/>
<polygon fill="black" stroke="black" points="465.49,-205.98 468.99,-215.98 472.49,-205.98 465.49,-205.98"/>
</g>
<!-- SendEmailService  -->
<g id="node4" class="node">
<title>SendEmailService </title>
<polygon fill="#fb8072" stroke="black" points="411.41,-252 288.59,-252 288.59,-216 411.41,-216 411.41,-252"/>
<text text-anchor="middle" x="350" y="-229.8" font-family="Times,serif" font-size="14.00">SendEmailService </text>
</g>
<!-- InfraModule&#45;&gt;SendEmailService  -->
<g id="edge3" class="edge">
<title>InfraModule&#45;&gt;SendEmailService </title>
<path fill="none" stroke="black" stroke-dasharray="5,2" d="M279.36,-187.11C279.36,-206.34 279.36,-234 279.36,-234 279.36,-234 280.25,-234 280.25,-234"/>
<polygon fill="black" stroke="black" points="278.3,-237.5 288.3,-234 278.3,-230.5 278.3,-237.5"/>
</g>
<!-- TemplateService  -->
<g id="node5" class="node">
<title>TemplateService </title>
<polygon fill="#fb8072" stroke="black" points="270.35,-252 155.65,-252 155.65,-216 270.35,-216 270.35,-252"/>
<text text-anchor="middle" x="213" y="-229.8" font-family="Times,serif" font-size="14.00">TemplateService </text>
</g>
<!-- InfraModule&#45;&gt;TemplateService  -->
<g id="edge4" class="edge">
<title>InfraModule&#45;&gt;TemplateService </title>
<path fill="none" stroke="black" stroke-dasharray="5,2" d="M237.9,-187.11C237.9,-187.11 237.9,-205.99 237.9,-205.99"/>
<polygon fill="black" stroke="black" points="234.4,-205.99 237.9,-215.99 241.4,-205.99 234.4,-205.99"/>
</g>
<!-- UploaderService  -->
<g id="node6" class="node">
<title>UploaderService </title>
<polygon fill="#fb8072" stroke="black" points="137.57,-252 24.43,-252 24.43,-216 137.57,-216 137.57,-252"/>
<text text-anchor="middle" x="81" y="-229.8" font-family="Times,serif" font-size="14.00">UploaderService </text>
</g>
<!-- InfraModule&#45;&gt;UploaderService  -->
<g id="edge5" class="edge">
<title>InfraModule&#45;&gt;UploaderService </title>
<path fill="none" stroke="black" stroke-dasharray="5,2" d="M205.59,-175C158.56,-175 90.15,-175 90.15,-175 90.15,-175 90.15,-205.98 90.15,-205.98"/>
<polygon fill="black" stroke="black" points="86.65,-205.98 90.15,-215.98 93.65,-205.98 86.65,-205.98"/>
</g>
<!-- SendEmailService -->
<g id="node7" class="node">
<title>SendEmailService</title>
<ellipse fill="#fdb462" stroke="black" cx="426" cy="-104" rx="82.24" ry="18"/>
<text text-anchor="middle" x="426" y="-99.8" font-family="Times,serif" font-size="14.00">SendEmailService</text>
</g>
<!-- SendEmailService&#45;&gt;InfraModule -->
<g id="edge6" class="edge">
<title>SendEmailService&#45;&gt;InfraModule</title>
<path fill="none" stroke="black" d="M377.54,-118.58C377.54,-136.06 377.54,-163 377.54,-163 377.54,-163 302.52,-163 302.52,-163"/>
<polygon fill="black" stroke="black" points="302.52,-159.5 292.52,-163 302.52,-166.5 302.52,-159.5"/>
</g>
<!-- TemplateService -->
<g id="node8" class="node">
<title>TemplateService</title>
<ellipse fill="#fdb462" stroke="black" cx="249" cy="-104" rx="76.42" ry="18"/>
<text text-anchor="middle" x="249" y="-99.8" font-family="Times,serif" font-size="14.00">TemplateService</text>
</g>
<!-- TemplateService&#45;&gt;InfraModule -->
<g id="edge7" class="edge">
<title>TemplateService&#45;&gt;InfraModule</title>
<path fill="none" stroke="black" d="M249,-122.11C249,-122.11 249,-140.99 249,-140.99"/>
<polygon fill="black" stroke="black" points="245.5,-140.99 249,-150.99 252.5,-140.99 245.5,-140.99"/>
</g>
</g>
</svg>
