<?xml version="1.0" encoding="UTF-8" standalone="no"?>
<!DOCTYPE svg PUBLIC "-//W3C//DTD SVG 1.1//EN"
 "http://www.w3.org/Graphics/SVG/1.1/DTD/svg11.dtd">
<!-- Generated by graphviz version 2.47.0 (20210316.0004)
 -->
<!-- Title: dependencies Pages: 1 -->
<svg width="534pt" height="284pt"
 viewBox="0.00 0.00 534.00 284.00" xmlns="http://www.w3.org/2000/svg" xmlns:xlink="http://www.w3.org/1999/xlink">
<g id="graph0" class="graph" transform="scale(1 1) rotate(0) translate(4 280)">
<title>dependencies</title>
<polygon fill="white" stroke="transparent" points="-4,4 -4,-280 530,-280 530,4 -4,4"/>
<text text-anchor="start" x="242.01" y="-42.4" font-family="sans-serif" font-weight="bold" font-size="14.00">Legend</text>
<polygon fill="#ffffb3" stroke="transparent" points="29,-10 29,-30 49,-30 49,-10 29,-10"/>
<text text-anchor="start" x="52.63" y="-15.4" font-family="sans-serif" font-size="14.00"> &#160;Declarations</text>
<polygon fill="#8dd3c7" stroke="transparent" points="142,-10 142,-30 162,-30 162,-10 142,-10"/>
<text text-anchor="start" x="165.73" y="-15.4" font-family="sans-serif" font-size="14.00"> &#160;Module</text>
<polygon fill="#80b1d3" stroke="transparent" points="228,-10 228,-30 248,-30 248,-10 228,-10"/>
<text text-anchor="start" x="251.78" y="-15.4" font-family="sans-serif" font-size="14.00"> &#160;Bootstrap</text>
<polygon fill="#fdb462" stroke="transparent" points="325,-10 325,-30 345,-30 345,-10 325,-10"/>
<text text-anchor="start" x="348.67" y="-15.4" font-family="sans-serif" font-size="14.00"> &#160;Providers</text>
<polygon fill="#fb8072" stroke="transparent" points="421,-10 421,-30 441,-30 441,-10 421,-10"/>
<text text-anchor="start" x="444.73" y="-15.4" font-family="sans-serif" font-size="14.00"> &#160;Exports</text>
<g id="clust1" class="cluster">
<title>cluster_FirebaseModule</title>
<polygon fill="none" stroke="black" stroke-dasharray="1,5" points="8,-70 8,-268 518,-268 518,-70 8,-70"/>
</g>
<g id="clust4" class="cluster">
<title>cluster_FirebaseModule_exports</title>
<polygon fill="none" stroke="black" points="55,-208 55,-260 429,-260 429,-208 55,-208"/>
</g>
<g id="clust6" class="cluster">
<title>cluster_FirebaseModule_providers</title>
<polygon fill="none" stroke="black" points="16,-78 16,-130 510,-130 510,-78 16,-78"/>
</g>
<!-- FirebaseAuthService  -->
<g id="node1" class="node">
<title>FirebaseAuthService </title>
<polygon fill="#fb8072" stroke="black" points="421.4,-252 284.6,-252 284.6,-216 421.4,-216 421.4,-252"/>
<text text-anchor="middle" x="353" y="-229.8" font-family="Times,serif" font-size="14.00">FirebaseAuthService </text>
</g>
<!-- FirebaseCloudMessagingService  -->
<g id="node2" class="node">
<title>FirebaseCloudMessagingService </title>
<polygon fill="#fb8072" stroke="black" points="266.78,-252 63.22,-252 63.22,-216 266.78,-216 266.78,-252"/>
<text text-anchor="middle" x="165" y="-229.8" font-family="Times,serif" font-size="14.00">FirebaseCloudMessagingService </text>
</g>
<!-- FirebaseModule -->
<g id="node3" class="node">
<title>FirebaseModule</title>
<polygon fill="#8dd3c7" stroke="black" points="257.47,-187 254.47,-191 233.47,-191 230.47,-187 150.53,-187 150.53,-151 257.47,-151 257.47,-187"/>
<text text-anchor="middle" x="204" y="-164.8" font-family="Times,serif" font-size="14.00">FirebaseModule</text>
</g>
<!-- FirebaseModule&#45;&gt;FirebaseAuthService  -->
<g id="edge1" class="edge">
<title>FirebaseModule&#45;&gt;FirebaseAuthService </title>
<path fill="none" stroke="black" stroke-dasharray="5,2" d="M257.69,-175C276.19,-175 292.35,-175 292.35,-175 292.35,-175 292.35,-205.98 292.35,-205.98"/>
<polygon fill="black" stroke="black" points="288.85,-205.98 292.35,-215.98 295.85,-205.98 288.85,-205.98"/>
</g>
<!-- FirebaseModule&#45;&gt;FirebaseCloudMessagingService  -->
<g id="edge2" class="edge">
<title>FirebaseModule&#45;&gt;FirebaseCloudMessagingService </title>
<path fill="none" stroke="black" stroke-dasharray="5,2" d="M204,-187.11C204,-187.11 204,-205.99 204,-205.99"/>
<polygon fill="black" stroke="black" points="200.5,-205.99 204,-215.99 207.5,-205.99 200.5,-205.99"/>
</g>
<!-- FirebaseAuthService -->
<g id="node4" class="node">
<title>FirebaseAuthService</title>
<ellipse fill="#fdb462" stroke="black" cx="410" cy="-104" rx="92.03" ry="18"/>
<text text-anchor="middle" x="410" y="-99.8" font-family="Times,serif" font-size="14.00">FirebaseAuthService</text>
</g>
<!-- FirebaseAuthService&#45;&gt;FirebaseModule -->
<g id="edge3" class="edge">
<title>FirebaseAuthService&#45;&gt;FirebaseModule</title>
<path fill="none" stroke="black" d="M369.72,-120.43C369.72,-137.89 369.72,-163 369.72,-163 369.72,-163 267.8,-163 267.8,-163"/>
<polygon fill="black" stroke="black" points="267.8,-159.5 257.8,-163 267.8,-166.5 267.8,-159.5"/>
</g>
<!-- FirebaseCloudMessagingService -->
<g id="node5" class="node">
<title>FirebaseCloudMessagingService</title>
<ellipse fill="#fdb462" stroke="black" cx="162" cy="-104" rx="138.3" ry="18"/>
<text text-anchor="middle" x="162" y="-99.8" font-family="Times,serif" font-size="14.00">FirebaseCloudMessagingService</text>
</g>
<!-- FirebaseCloudMessagingService&#45;&gt;FirebaseModule -->
<g id="edge4" class="edge">
<title>FirebaseCloudMessagingService&#45;&gt;FirebaseModule</title>
<path fill="none" stroke="black" d="M204,-121.42C204,-121.42 204,-140.62 204,-140.62"/>
<polygon fill="black" stroke="black" points="200.5,-140.62 204,-150.62 207.5,-140.62 200.5,-140.62"/>
</g>
</g>
</svg>
