<?xml version="1.0" encoding="UTF-8" standalone="no"?>
<!DOCTYPE svg PUBLIC "-//W3C//DTD SVG 1.1//EN"
 "http://www.w3.org/Graphics/SVG/1.1/DTD/svg11.dtd">
<!-- Generated by graphviz version 2.47.0 (20210316.0004)
 -->
<!-- Title: dependencies Pages: 1 -->
<svg width="1100pt" height="211pt"
 viewBox="0.00 0.00 1100.00 211.00" xmlns="http://www.w3.org/2000/svg" xmlns:xlink="http://www.w3.org/1999/xlink">
<g id="graph0" class="graph" transform="scale(1 1) rotate(0) translate(4 207)">
<title>dependencies</title>
<polygon fill="white" stroke="transparent" points="-4,4 -4,-207 1096,-207 1096,4 -4,4"/>
<text text-anchor="start" x="525.01" y="-42.4" font-family="sans-serif" font-weight="bold" font-size="14.00">Legend</text>
<polygon fill="#ffffb3" stroke="transparent" points="312,-10 312,-30 332,-30 332,-10 312,-10"/>
<text text-anchor="start" x="335.63" y="-15.4" font-family="sans-serif" font-size="14.00"> &#160;Declarations</text>
<polygon fill="#8dd3c7" stroke="transparent" points="425,-10 425,-30 445,-30 445,-10 425,-10"/>
<text text-anchor="start" x="448.73" y="-15.4" font-family="sans-serif" font-size="14.00"> &#160;Module</text>
<polygon fill="#80b1d3" stroke="transparent" points="511,-10 511,-30 531,-30 531,-10 511,-10"/>
<text text-anchor="start" x="534.78" y="-15.4" font-family="sans-serif" font-size="14.00"> &#160;Bootstrap</text>
<polygon fill="#fdb462" stroke="transparent" points="608,-10 608,-30 628,-30 628,-10 608,-10"/>
<text text-anchor="start" x="631.67" y="-15.4" font-family="sans-serif" font-size="14.00"> &#160;Providers</text>
<polygon fill="#fb8072" stroke="transparent" points="704,-10 704,-30 724,-30 724,-10 704,-10"/>
<text text-anchor="start" x="727.73" y="-15.4" font-family="sans-serif" font-size="14.00"> &#160;Exports</text>
<g id="clust1" class="cluster">
<title>cluster_AppModule</title>
<polygon fill="none" stroke="black" stroke-dasharray="1,5" points="8,-70 8,-195 1084,-195 1084,-70 8,-70"/>
</g>
<g id="clust3" class="cluster">
<title>cluster_AppModule_imports</title>
<polygon fill="none" stroke="black" points="16,-78 16,-130 1076,-130 1076,-78 16,-78"/>
</g>
<!-- AnswerModule -->
<g id="node1" class="node">
<title>AnswerModule</title>
<polygon fill="#8dd3c7" stroke="black" points="1067.58,-122 1064.58,-126 1043.58,-126 1040.58,-122 964.42,-122 964.42,-86 1067.58,-86 1067.58,-122"/>
<text text-anchor="middle" x="1016" y="-99.8" font-family="Times,serif" font-size="14.00">AnswerModule</text>
</g>
<!-- AppModule -->
<g id="node10" class="node">
<title>AppModule</title>
<polygon fill="#8dd3c7" stroke="black" points="601.66,-187 598.66,-191 577.66,-191 574.66,-187 518.34,-187 518.34,-151 601.66,-151 601.66,-187"/>
<text text-anchor="middle" x="560" y="-164.8" font-family="Times,serif" font-size="14.00">AppModule</text>
</g>
<!-- AnswerModule&#45;&gt;AppModule -->
<g id="edge1" class="edge">
<title>AnswerModule&#45;&gt;AppModule</title>
<path fill="none" stroke="black" d="M1016,-122.01C1016,-144.49 1016,-180 1016,-180 1016,-180 611.68,-180 611.68,-180"/>
<polygon fill="black" stroke="black" points="611.68,-176.5 601.68,-180 611.68,-183.5 611.68,-176.5"/>
</g>
<!-- AuthModule -->
<g id="node2" class="node">
<title>AuthModule</title>
<polygon fill="#8dd3c7" stroke="black" points="946.55,-122 943.55,-126 922.55,-126 919.55,-122 859.45,-122 859.45,-86 946.55,-86 946.55,-122"/>
<text text-anchor="middle" x="903" y="-99.8" font-family="Times,serif" font-size="14.00">AuthModule</text>
</g>
<!-- AuthModule&#45;&gt;AppModule -->
<g id="edge2" class="edge">
<title>AuthModule&#45;&gt;AppModule</title>
<path fill="none" stroke="black" d="M903,-122.13C903,-142.57 903,-173 903,-173 903,-173 611.72,-173 611.72,-173"/>
<polygon fill="black" stroke="black" points="611.72,-169.5 601.72,-173 611.72,-176.5 611.72,-169.5"/>
</g>
<!-- AuxiliaryModule -->
<g id="node3" class="node">
<title>AuxiliaryModule</title>
<polygon fill="#8dd3c7" stroke="black" points="841.7,-122 838.7,-126 817.7,-126 814.7,-122 728.3,-122 728.3,-86 841.7,-86 841.7,-122"/>
<text text-anchor="middle" x="785" y="-99.8" font-family="Times,serif" font-size="14.00">AuxiliaryModule</text>
</g>
<!-- AuxiliaryModule&#45;&gt;AppModule -->
<g id="edge3" class="edge">
<title>AuxiliaryModule&#45;&gt;AppModule</title>
<path fill="none" stroke="black" d="M785,-122.27C785,-140.56 785,-166 785,-166 785,-166 611.79,-166 611.79,-166"/>
<polygon fill="black" stroke="black" points="611.79,-162.5 601.79,-166 611.79,-169.5 611.79,-162.5"/>
</g>
<!-- CoreModule -->
<g id="node4" class="node">
<title>CoreModule</title>
<polygon fill="#8dd3c7" stroke="black" points="710.26,-122 707.26,-126 686.26,-126 683.26,-122 623.74,-122 623.74,-86 710.26,-86 710.26,-122"/>
<text text-anchor="middle" x="667" y="-99.8" font-family="Times,serif" font-size="14.00">CoreModule</text>
</g>
<!-- CoreModule&#45;&gt;AppModule -->
<g id="edge4" class="edge">
<title>CoreModule&#45;&gt;AppModule</title>
<path fill="none" stroke="black" d="M667,-122.01C667,-138.05 667,-159 667,-159 667,-159 611.68,-159 611.68,-159"/>
<polygon fill="black" stroke="black" points="611.68,-155.5 601.68,-159 611.68,-162.5 611.68,-155.5"/>
</g>
<!-- ExamModule -->
<g id="node5" class="node">
<title>ExamModule</title>
<polygon fill="#8dd3c7" stroke="black" points="606.21,-122 603.21,-126 582.21,-126 579.21,-122 513.79,-122 513.79,-86 606.21,-86 606.21,-122"/>
<text text-anchor="middle" x="560" y="-99.8" font-family="Times,serif" font-size="14.00">ExamModule</text>
</g>
<!-- ExamModule&#45;&gt;AppModule -->
<g id="edge5" class="edge">
<title>ExamModule&#45;&gt;AppModule</title>
<path fill="none" stroke="black" d="M560,-122.11C560,-122.11 560,-140.99 560,-140.99"/>
<polygon fill="black" stroke="black" points="556.5,-140.99 560,-150.99 563.5,-140.99 556.5,-140.99"/>
</g>
<!-- InfraModule -->
<g id="node6" class="node">
<title>InfraModule</title>
<polygon fill="#8dd3c7" stroke="black" points="496.25,-122 493.25,-126 472.25,-126 469.25,-122 409.75,-122 409.75,-86 496.25,-86 496.25,-122"/>
<text text-anchor="middle" x="453" y="-99.8" font-family="Times,serif" font-size="14.00">InfraModule</text>
</g>
<!-- InfraModule&#45;&gt;AppModule -->
<g id="edge6" class="edge">
<title>InfraModule&#45;&gt;AppModule</title>
<path fill="none" stroke="black" d="M453,-122.01C453,-138.05 453,-159 453,-159 453,-159 508.32,-159 508.32,-159"/>
<polygon fill="black" stroke="black" points="508.32,-162.5 518.32,-159 508.32,-155.5 508.32,-162.5"/>
</g>
<!-- LoggerModule -->
<g id="node7" class="node">
<title>LoggerModule</title>
<polygon fill="#8dd3c7" stroke="black" points="391.98,-122 388.98,-126 367.98,-126 364.98,-122 292.02,-122 292.02,-86 391.98,-86 391.98,-122"/>
<text text-anchor="middle" x="342" y="-99.8" font-family="Times,serif" font-size="14.00">LoggerModule</text>
</g>
<!-- LoggerModule&#45;&gt;AppModule -->
<g id="edge7" class="edge">
<title>LoggerModule&#45;&gt;AppModule</title>
<path fill="none" stroke="black" d="M342,-122.27C342,-140.56 342,-166 342,-166 342,-166 508.23,-166 508.23,-166"/>
<polygon fill="black" stroke="black" points="508.23,-169.5 518.23,-166 508.23,-162.5 508.23,-169.5"/>
</g>
<!-- QuestionGroupModule -->
<g id="node8" class="node">
<title>QuestionGroupModule</title>
<polygon fill="#8dd3c7" stroke="black" points="273.86,-122 270.86,-126 249.86,-126 246.86,-122 128.14,-122 128.14,-86 273.86,-86 273.86,-122"/>
<text text-anchor="middle" x="201" y="-99.8" font-family="Times,serif" font-size="14.00">QuestionGroupModule</text>
</g>
<!-- QuestionGroupModule&#45;&gt;AppModule -->
<g id="edge8" class="edge">
<title>QuestionGroupModule&#45;&gt;AppModule</title>
<path fill="none" stroke="black" d="M201,-122.13C201,-142.57 201,-173 201,-173 201,-173 508.12,-173 508.12,-173"/>
<polygon fill="black" stroke="black" points="508.12,-176.5 518.12,-173 508.12,-169.5 508.12,-176.5"/>
</g>
<!-- UserModule -->
<g id="node9" class="node">
<title>UserModule</title>
<polygon fill="#8dd3c7" stroke="black" points="109.98,-122 106.98,-126 85.98,-126 82.98,-122 24.02,-122 24.02,-86 109.98,-86 109.98,-122"/>
<text text-anchor="middle" x="67" y="-99.8" font-family="Times,serif" font-size="14.00">UserModule</text>
</g>
<!-- UserModule&#45;&gt;AppModule -->
<g id="edge9" class="edge">
<title>UserModule&#45;&gt;AppModule</title>
<path fill="none" stroke="black" d="M67,-122.01C67,-144.49 67,-180 67,-180 67,-180 507.97,-180 507.97,-180"/>
<polygon fill="black" stroke="black" points="507.97,-183.5 517.97,-180 507.97,-176.5 507.97,-183.5"/>
</g>
</g>
</svg>
