<?xml version="1.0" encoding="UTF-8" standalone="no"?>
<!DOCTYPE svg PUBLIC "-//W3C//DTD SVG 1.1//EN"
 "http://www.w3.org/Graphics/SVG/1.1/DTD/svg11.dtd">
<!-- Generated by graphviz version 2.47.0 (20210316.0004)
 -->
<!-- Title: dependencies Pages: 1 -->
<svg width="979pt" height="211pt"
 viewBox="0.00 0.00 979.00 211.00" xmlns="http://www.w3.org/2000/svg" xmlns:xlink="http://www.w3.org/1999/xlink">
<g id="graph0" class="graph" transform="scale(1 1) rotate(0) translate(4 207)">
<title>dependencies</title>
<polygon fill="white" stroke="transparent" points="-4,4 -4,-207 975,-207 975,4 -4,4"/>
<text text-anchor="start" x="464.51" y="-42.4" font-family="sans-serif" font-weight="bold" font-size="14.00">Legend</text>
<polygon fill="#ffffb3" stroke="transparent" points="251.5,-10 251.5,-30 271.5,-30 271.5,-10 251.5,-10"/>
<text text-anchor="start" x="275.13" y="-15.4" font-family="sans-serif" font-size="14.00"> &#160;Declarations</text>
<polygon fill="#8dd3c7" stroke="transparent" points="364.5,-10 364.5,-30 384.5,-30 384.5,-10 364.5,-10"/>
<text text-anchor="start" x="388.23" y="-15.4" font-family="sans-serif" font-size="14.00"> &#160;Module</text>
<polygon fill="#80b1d3" stroke="transparent" points="450.5,-10 450.5,-30 470.5,-30 470.5,-10 450.5,-10"/>
<text text-anchor="start" x="474.28" y="-15.4" font-family="sans-serif" font-size="14.00"> &#160;Bootstrap</text>
<polygon fill="#fdb462" stroke="transparent" points="547.5,-10 547.5,-30 567.5,-30 567.5,-10 547.5,-10"/>
<text text-anchor="start" x="571.17" y="-15.4" font-family="sans-serif" font-size="14.00"> &#160;Providers</text>
<polygon fill="#fb8072" stroke="transparent" points="643.5,-10 643.5,-30 663.5,-30 663.5,-10 643.5,-10"/>
<text text-anchor="start" x="667.23" y="-15.4" font-family="sans-serif" font-size="14.00"> &#160;Exports</text>
<g id="clust1" class="cluster">
<title>cluster_AppModule</title>
<polygon fill="none" stroke="black" stroke-dasharray="1,5" points="8,-70 8,-195 963,-195 963,-70 8,-70"/>
</g>
<g id="clust3" class="cluster">
<title>cluster_AppModule_imports</title>
<polygon fill="none" stroke="black" points="16,-78 16,-130 955,-130 955,-78 16,-78"/>
</g>
<!-- AuthModule -->
<g id="node1" class="node">
<title>AuthModule</title>
<polygon fill="#8dd3c7" stroke="black" points="946.55,-122 943.55,-126 922.55,-126 919.55,-122 859.45,-122 859.45,-86 946.55,-86 946.55,-122"/>
<text text-anchor="middle" x="903" y="-99.8" font-family="Times,serif" font-size="14.00">AuthModule</text>
</g>
<!-- AppModule -->
<g id="node9" class="node">
<title>AppModule</title>
<polygon fill="#8dd3c7" stroke="black" points="547.66,-187 544.66,-191 523.66,-191 520.66,-187 464.34,-187 464.34,-151 547.66,-151 547.66,-187"/>
<text text-anchor="middle" x="506" y="-164.8" font-family="Times,serif" font-size="14.00">AppModule</text>
</g>
<!-- AuthModule&#45;&gt;AppModule -->
<g id="edge1" class="edge">
<title>AuthModule&#45;&gt;AppModule</title>
<path fill="none" stroke="black" d="M903,-122.29C903,-144.21 903,-178 903,-178 903,-178 557.74,-178 557.74,-178"/>
<polygon fill="black" stroke="black" points="557.74,-174.5 547.74,-178 557.74,-181.5 557.74,-174.5"/>
</g>
<!-- AuxiliaryModule -->
<g id="node2" class="node">
<title>AuxiliaryModule</title>
<polygon fill="#8dd3c7" stroke="black" points="841.7,-122 838.7,-126 817.7,-126 814.7,-122 728.3,-122 728.3,-86 841.7,-86 841.7,-122"/>
<text text-anchor="middle" x="785" y="-99.8" font-family="Times,serif" font-size="14.00">AuxiliaryModule</text>
</g>
<!-- AuxiliaryModule&#45;&gt;AppModule -->
<g id="edge2" class="edge">
<title>AuxiliaryModule&#45;&gt;AppModule</title>
<path fill="none" stroke="black" d="M785,-122.11C785,-141.34 785,-169 785,-169 785,-169 557.77,-169 557.77,-169"/>
<polygon fill="black" stroke="black" points="557.77,-165.5 547.77,-169 557.77,-172.5 557.77,-165.5"/>
</g>
<!-- CoreModule -->
<g id="node3" class="node">
<title>CoreModule</title>
<polygon fill="#8dd3c7" stroke="black" points="710.26,-122 707.26,-126 686.26,-126 683.26,-122 623.74,-122 623.74,-86 710.26,-86 710.26,-122"/>
<text text-anchor="middle" x="667" y="-99.8" font-family="Times,serif" font-size="14.00">CoreModule</text>
</g>
<!-- CoreModule&#45;&gt;AppModule -->
<g id="edge3" class="edge">
<title>CoreModule&#45;&gt;AppModule</title>
<path fill="none" stroke="black" d="M667,-122.03C667,-138.4 667,-160 667,-160 667,-160 557.88,-160 557.88,-160"/>
<polygon fill="black" stroke="black" points="557.88,-156.5 547.88,-160 557.88,-163.5 557.88,-156.5"/>
</g>
<!-- ExamModule -->
<g id="node4" class="node">
<title>ExamModule</title>
<polygon fill="#8dd3c7" stroke="black" points="606.21,-122 603.21,-126 582.21,-126 579.21,-122 513.79,-122 513.79,-86 606.21,-86 606.21,-122"/>
<text text-anchor="middle" x="560" y="-99.8" font-family="Times,serif" font-size="14.00">ExamModule</text>
</g>
<!-- ExamModule&#45;&gt;AppModule -->
<g id="edge4" class="edge">
<title>ExamModule&#45;&gt;AppModule</title>
<path fill="none" stroke="black" d="M530.86,-122.11C530.86,-122.11 530.86,-140.99 530.86,-140.99"/>
<polygon fill="black" stroke="black" points="527.36,-140.99 530.86,-150.99 534.36,-140.99 527.36,-140.99"/>
</g>
<!-- InfraModule -->
<g id="node5" class="node">
<title>InfraModule</title>
<polygon fill="#8dd3c7" stroke="black" points="496.25,-122 493.25,-126 472.25,-126 469.25,-122 409.75,-122 409.75,-86 496.25,-86 496.25,-122"/>
<text text-anchor="middle" x="453" y="-99.8" font-family="Times,serif" font-size="14.00">InfraModule</text>
</g>
<!-- InfraModule&#45;&gt;AppModule -->
<g id="edge5" class="edge">
<title>InfraModule&#45;&gt;AppModule</title>
<path fill="none" stroke="black" d="M480.27,-122.11C480.27,-122.11 480.27,-140.99 480.27,-140.99"/>
<polygon fill="black" stroke="black" points="476.77,-140.99 480.27,-150.99 483.77,-140.99 476.77,-140.99"/>
</g>
<!-- LoggerModule -->
<g id="node6" class="node">
<title>LoggerModule</title>
<polygon fill="#8dd3c7" stroke="black" points="391.98,-122 388.98,-126 367.98,-126 364.98,-122 292.02,-122 292.02,-86 391.98,-86 391.98,-122"/>
<text text-anchor="middle" x="342" y="-99.8" font-family="Times,serif" font-size="14.00">LoggerModule</text>
</g>
<!-- LoggerModule&#45;&gt;AppModule -->
<g id="edge6" class="edge">
<title>LoggerModule&#45;&gt;AppModule</title>
<path fill="none" stroke="black" d="M342,-122.03C342,-138.4 342,-160 342,-160 342,-160 454.19,-160 454.19,-160"/>
<polygon fill="black" stroke="black" points="454.19,-163.5 464.19,-160 454.19,-156.5 454.19,-163.5"/>
</g>
<!-- QuestionGroupModule -->
<g id="node7" class="node">
<title>QuestionGroupModule</title>
<polygon fill="#8dd3c7" stroke="black" points="273.86,-122 270.86,-126 249.86,-126 246.86,-122 128.14,-122 128.14,-86 273.86,-86 273.86,-122"/>
<text text-anchor="middle" x="201" y="-99.8" font-family="Times,serif" font-size="14.00">QuestionGroupModule</text>
</g>
<!-- QuestionGroupModule&#45;&gt;AppModule -->
<g id="edge7" class="edge">
<title>QuestionGroupModule&#45;&gt;AppModule</title>
<path fill="none" stroke="black" d="M201,-122.11C201,-141.34 201,-169 201,-169 201,-169 454.23,-169 454.23,-169"/>
<polygon fill="black" stroke="black" points="454.23,-172.5 464.23,-169 454.23,-165.5 454.23,-172.5"/>
</g>
<!-- UserModule -->
<g id="node8" class="node">
<title>UserModule</title>
<polygon fill="#8dd3c7" stroke="black" points="109.98,-122 106.98,-126 85.98,-126 82.98,-122 24.02,-122 24.02,-86 109.98,-86 109.98,-122"/>
<text text-anchor="middle" x="67" y="-99.8" font-family="Times,serif" font-size="14.00">UserModule</text>
</g>
<!-- UserModule&#45;&gt;AppModule -->
<g id="edge8" class="edge">
<title>UserModule&#45;&gt;AppModule</title>
<path fill="none" stroke="black" d="M67,-122.29C67,-144.21 67,-178 67,-178 67,-178 454.3,-178 454.3,-178"/>
<polygon fill="black" stroke="black" points="454.3,-181.5 464.3,-178 454.3,-174.5 454.3,-181.5"/>
</g>
</g>
</svg>
