<?xml version="1.0" encoding="UTF-8" standalone="no"?>
<!DOCTYPE svg PUBLIC "-//W3C//DTD SVG 1.1//EN"
 "http://www.w3.org/Graphics/SVG/1.1/DTD/svg11.dtd">
<!-- Generated by graphviz version 2.47.0 (20210316.0004)
 -->
<!-- Title: dependencies Pages: 1 -->
<svg width="1244pt" height="211pt"
 viewBox="0.00 0.00 1244.00 211.00" xmlns="http://www.w3.org/2000/svg" xmlns:xlink="http://www.w3.org/1999/xlink">
<g id="graph0" class="graph" transform="scale(1 1) rotate(0) translate(4 207)">
<title>dependencies</title>
<polygon fill="white" stroke="transparent" points="-4,4 -4,-207 1240,-207 1240,4 -4,4"/>
<text text-anchor="start" x="597.01" y="-42.4" font-family="sans-serif" font-weight="bold" font-size="14.00">Legend</text>
<polygon fill="#ffffb3" stroke="transparent" points="384,-10 384,-30 404,-30 404,-10 384,-10"/>
<text text-anchor="start" x="407.63" y="-15.4" font-family="sans-serif" font-size="14.00"> &#160;Declarations</text>
<polygon fill="#8dd3c7" stroke="transparent" points="497,-10 497,-30 517,-30 517,-10 497,-10"/>
<text text-anchor="start" x="520.73" y="-15.4" font-family="sans-serif" font-size="14.00"> &#160;Module</text>
<polygon fill="#80b1d3" stroke="transparent" points="583,-10 583,-30 603,-30 603,-10 583,-10"/>
<text text-anchor="start" x="606.78" y="-15.4" font-family="sans-serif" font-size="14.00"> &#160;Bootstrap</text>
<polygon fill="#fdb462" stroke="transparent" points="680,-10 680,-30 700,-30 700,-10 680,-10"/>
<text text-anchor="start" x="703.67" y="-15.4" font-family="sans-serif" font-size="14.00"> &#160;Providers</text>
<polygon fill="#fb8072" stroke="transparent" points="776,-10 776,-30 796,-30 796,-10 776,-10"/>
<text text-anchor="start" x="799.73" y="-15.4" font-family="sans-serif" font-size="14.00"> &#160;Exports</text>
<g id="clust1" class="cluster">
<title>cluster_AppModule</title>
<polygon fill="none" stroke="black" stroke-dasharray="1,5" points="8,-70 8,-195 1228,-195 1228,-70 8,-70"/>
</g>
<g id="clust3" class="cluster">
<title>cluster_AppModule_imports</title>
<polygon fill="none" stroke="black" points="16,-78 16,-130 1220,-130 1220,-78 16,-78"/>
</g>
<!-- AnswerModule -->
<g id="node1" class="node">
<title>AnswerModule</title>
<polygon fill="#8dd3c7" stroke="black" points="1211.58,-122 1208.58,-126 1187.58,-126 1184.58,-122 1108.42,-122 1108.42,-86 1211.58,-86 1211.58,-122"/>
<text text-anchor="middle" x="1160" y="-99.8" font-family="Times,serif" font-size="14.00">AnswerModule</text>
</g>
<!-- AppModule -->
<g id="node11" class="node">
<title>AppModule</title>
<polygon fill="#8dd3c7" stroke="black" points="681.66,-187 678.66,-191 657.66,-191 654.66,-187 598.34,-187 598.34,-151 681.66,-151 681.66,-187"/>
<text text-anchor="middle" x="640" y="-164.8" font-family="Times,serif" font-size="14.00">AppModule</text>
</g>
<!-- AnswerModule&#45;&gt;AppModule -->
<g id="edge1" class="edge">
<title>AnswerModule&#45;&gt;AppModule</title>
<path fill="none" stroke="black" d="M1160,-122.01C1160,-144.49 1160,-180 1160,-180 1160,-180 691.67,-180 691.67,-180"/>
<polygon fill="black" stroke="black" points="691.67,-176.5 681.67,-180 691.67,-183.5 691.67,-176.5"/>
</g>
<!-- AuthModule -->
<g id="node2" class="node">
<title>AuthModule</title>
<polygon fill="#8dd3c7" stroke="black" points="1090.55,-122 1087.55,-126 1066.55,-126 1063.55,-122 1003.45,-122 1003.45,-86 1090.55,-86 1090.55,-122"/>
<text text-anchor="middle" x="1047" y="-99.8" font-family="Times,serif" font-size="14.00">AuthModule</text>
</g>
<!-- AuthModule&#45;&gt;AppModule -->
<g id="edge2" class="edge">
<title>AuthModule&#45;&gt;AppModule</title>
<path fill="none" stroke="black" d="M1047,-122.13C1047,-142.57 1047,-173 1047,-173 1047,-173 692.02,-173 692.02,-173"/>
<polygon fill="black" stroke="black" points="692.02,-169.5 682.02,-173 692.02,-176.5 692.02,-169.5"/>
</g>
<!-- AuxiliaryModule -->
<g id="node3" class="node">
<title>AuxiliaryModule</title>
<polygon fill="#8dd3c7" stroke="black" points="985.7,-122 982.7,-126 961.7,-126 958.7,-122 872.3,-122 872.3,-86 985.7,-86 985.7,-122"/>
<text text-anchor="middle" x="929" y="-99.8" font-family="Times,serif" font-size="14.00">AuxiliaryModule</text>
</g>
<!-- AuxiliaryModule&#45;&gt;AppModule -->
<g id="edge3" class="edge">
<title>AuxiliaryModule&#45;&gt;AppModule</title>
<path fill="none" stroke="black" d="M929,-122.27C929,-140.56 929,-166 929,-166 929,-166 691.71,-166 691.71,-166"/>
<polygon fill="black" stroke="black" points="691.71,-162.5 681.71,-166 691.71,-169.5 691.71,-162.5"/>
</g>
<!-- CoreModule -->
<g id="node4" class="node">
<title>CoreModule</title>
<polygon fill="#8dd3c7" stroke="black" points="854.26,-122 851.26,-126 830.26,-126 827.26,-122 767.74,-122 767.74,-86 854.26,-86 854.26,-122"/>
<text text-anchor="middle" x="811" y="-99.8" font-family="Times,serif" font-size="14.00">CoreModule</text>
</g>
<!-- CoreModule&#45;&gt;AppModule -->
<g id="edge4" class="edge">
<title>CoreModule&#45;&gt;AppModule</title>
<path fill="none" stroke="black" d="M811,-122.01C811,-138.05 811,-159 811,-159 811,-159 691.83,-159 691.83,-159"/>
<polygon fill="black" stroke="black" points="691.83,-155.5 681.83,-159 691.83,-162.5 691.83,-155.5"/>
</g>
<!-- ExamModule -->
<g id="node5" class="node">
<title>ExamModule</title>
<polygon fill="#8dd3c7" stroke="black" points="750.21,-122 747.21,-126 726.21,-126 723.21,-122 657.79,-122 657.79,-86 750.21,-86 750.21,-122"/>
<text text-anchor="middle" x="704" y="-99.8" font-family="Times,serif" font-size="14.00">ExamModule</text>
</g>
<!-- ExamModule&#45;&gt;AppModule -->
<g id="edge5" class="edge">
<title>ExamModule&#45;&gt;AppModule</title>
<path fill="none" stroke="black" d="M669.86,-122.11C669.86,-122.11 669.86,-140.99 669.86,-140.99"/>
<polygon fill="black" stroke="black" points="666.36,-140.99 669.86,-150.99 673.36,-140.99 666.36,-140.99"/>
</g>
<!-- ExportationModule -->
<g id="node6" class="node">
<title>ExportationModule</title>
<polygon fill="#8dd3c7" stroke="black" points="639.65,-122 636.65,-126 615.65,-126 612.65,-122 514.35,-122 514.35,-86 639.65,-86 639.65,-122"/>
<text text-anchor="middle" x="577" y="-99.8" font-family="Times,serif" font-size="14.00">ExportationModule</text>
</g>
<!-- ExportationModule&#45;&gt;AppModule -->
<g id="edge6" class="edge">
<title>ExportationModule&#45;&gt;AppModule</title>
<path fill="none" stroke="black" d="M619,-122.11C619,-122.11 619,-140.99 619,-140.99"/>
<polygon fill="black" stroke="black" points="615.5,-140.99 619,-150.99 622.5,-140.99 615.5,-140.99"/>
</g>
<!-- InfraModule -->
<g id="node7" class="node">
<title>InfraModule</title>
<polygon fill="#8dd3c7" stroke="black" points="496.25,-122 493.25,-126 472.25,-126 469.25,-122 409.75,-122 409.75,-86 496.25,-86 496.25,-122"/>
<text text-anchor="middle" x="453" y="-99.8" font-family="Times,serif" font-size="14.00">InfraModule</text>
</g>
<!-- InfraModule&#45;&gt;AppModule -->
<g id="edge7" class="edge">
<title>InfraModule&#45;&gt;AppModule</title>
<path fill="none" stroke="black" d="M453,-122.01C453,-138.05 453,-159 453,-159 453,-159 588.03,-159 588.03,-159"/>
<polygon fill="black" stroke="black" points="588.03,-162.5 598.03,-159 588.03,-155.5 588.03,-162.5"/>
</g>
<!-- LoggerModule -->
<g id="node8" class="node">
<title>LoggerModule</title>
<polygon fill="#8dd3c7" stroke="black" points="391.98,-122 388.98,-126 367.98,-126 364.98,-122 292.02,-122 292.02,-86 391.98,-86 391.98,-122"/>
<text text-anchor="middle" x="342" y="-99.8" font-family="Times,serif" font-size="14.00">LoggerModule</text>
</g>
<!-- LoggerModule&#45;&gt;AppModule -->
<g id="edge8" class="edge">
<title>LoggerModule&#45;&gt;AppModule</title>
<path fill="none" stroke="black" d="M342,-122.27C342,-140.56 342,-166 342,-166 342,-166 588.25,-166 588.25,-166"/>
<polygon fill="black" stroke="black" points="588.25,-169.5 598.25,-166 588.25,-162.5 588.25,-169.5"/>
</g>
<!-- QuestionGroupModule -->
<g id="node9" class="node">
<title>QuestionGroupModule</title>
<polygon fill="#8dd3c7" stroke="black" points="273.86,-122 270.86,-126 249.86,-126 246.86,-122 128.14,-122 128.14,-86 273.86,-86 273.86,-122"/>
<text text-anchor="middle" x="201" y="-99.8" font-family="Times,serif" font-size="14.00">QuestionGroupModule</text>
</g>
<!-- QuestionGroupModule&#45;&gt;AppModule -->
<g id="edge9" class="edge">
<title>QuestionGroupModule&#45;&gt;AppModule</title>
<path fill="none" stroke="black" d="M201,-122.13C201,-142.57 201,-173 201,-173 201,-173 588.3,-173 588.3,-173"/>
<polygon fill="black" stroke="black" points="588.3,-176.5 598.3,-173 588.3,-169.5 588.3,-176.5"/>
</g>
<!-- UserModule -->
<g id="node10" class="node">
<title>UserModule</title>
<polygon fill="#8dd3c7" stroke="black" points="109.98,-122 106.98,-126 85.98,-126 82.98,-122 24.02,-122 24.02,-86 109.98,-86 109.98,-122"/>
<text text-anchor="middle" x="67" y="-99.8" font-family="Times,serif" font-size="14.00">UserModule</text>
</g>
<!-- UserModule&#45;&gt;AppModule -->
<g id="edge10" class="edge">
<title>UserModule&#45;&gt;AppModule</title>
<path fill="none" stroke="black" d="M67,-122.01C67,-144.49 67,-180 67,-180 67,-180 588.33,-180 588.33,-180"/>
<polygon fill="black" stroke="black" points="588.33,-183.5 598.33,-180 588.33,-176.5 588.33,-183.5"/>
</g>
</g>
</svg>
