<?xml version="1.0" encoding="UTF-8" standalone="no"?>
<!DOCTYPE svg PUBLIC "-//W3C//DTD SVG 1.1//EN"
 "http://www.w3.org/Graphics/SVG/1.1/DTD/svg11.dtd">
<!-- Generated by graphviz version 2.47.0 (20210316.0004)
 -->
<!-- Title: dependencies Pages: 1 -->
<svg width="504pt" height="284pt"
 viewBox="0.00 0.00 504.00 284.00" xmlns="http://www.w3.org/2000/svg" xmlns:xlink="http://www.w3.org/1999/xlink">
<g id="graph0" class="graph" transform="scale(1 1) rotate(0) translate(4 280)">
<title>dependencies</title>
<polygon fill="white" stroke="transparent" points="-4,4 -4,-280 500,-280 500,4 -4,4"/>
<text text-anchor="start" x="227.01" y="-42.4" font-family="sans-serif" font-weight="bold" font-size="14.00">Legend</text>
<polygon fill="#ffffb3" stroke="transparent" points="14,-10 14,-30 34,-30 34,-10 14,-10"/>
<text text-anchor="start" x="37.63" y="-15.4" font-family="sans-serif" font-size="14.00"> &#160;Declarations</text>
<polygon fill="#8dd3c7" stroke="transparent" points="127,-10 127,-30 147,-30 147,-10 127,-10"/>
<text text-anchor="start" x="150.73" y="-15.4" font-family="sans-serif" font-size="14.00"> &#160;Module</text>
<polygon fill="#80b1d3" stroke="transparent" points="213,-10 213,-30 233,-30 233,-10 213,-10"/>
<text text-anchor="start" x="236.78" y="-15.4" font-family="sans-serif" font-size="14.00"> &#160;Bootstrap</text>
<polygon fill="#fdb462" stroke="transparent" points="310,-10 310,-30 330,-30 330,-10 310,-10"/>
<text text-anchor="start" x="333.67" y="-15.4" font-family="sans-serif" font-size="14.00"> &#160;Providers</text>
<polygon fill="#fb8072" stroke="transparent" points="406,-10 406,-30 426,-30 426,-10 406,-10"/>
<text text-anchor="start" x="429.73" y="-15.4" font-family="sans-serif" font-size="14.00"> &#160;Exports</text>
<g id="clust1" class="cluster">
<title>cluster_AuxiliaryModule</title>
<polygon fill="none" stroke="black" stroke-dasharray="1,5" points="77.5,-70 77.5,-268 418.5,-268 418.5,-70 77.5,-70"/>
</g>
<g id="clust4" class="cluster">
<title>cluster_AuxiliaryModule_exports</title>
<polygon fill="none" stroke="black" points="108.5,-208 108.5,-260 360.5,-260 360.5,-208 108.5,-208"/>
</g>
<g id="clust6" class="cluster">
<title>cluster_AuxiliaryModule_providers</title>
<polygon fill="none" stroke="black" points="85.5,-78 85.5,-130 410.5,-130 410.5,-78 85.5,-78"/>
</g>
<!-- ProfessorService  -->
<g id="node1" class="node">
<title>ProfessorService </title>
<polygon fill="#fb8072" stroke="black" points="352.85,-252 238.15,-252 238.15,-216 352.85,-216 352.85,-252"/>
<text text-anchor="middle" x="295.5" y="-229.8" font-family="Times,serif" font-size="14.00">ProfessorService </text>
</g>
<!-- StudentService  -->
<g id="node2" class="node">
<title>StudentService </title>
<polygon fill="#fb8072" stroke="black" points="220.76,-252 116.24,-252 116.24,-216 220.76,-216 220.76,-252"/>
<text text-anchor="middle" x="168.5" y="-229.8" font-family="Times,serif" font-size="14.00">StudentService </text>
</g>
<!-- AuxiliaryModule -->
<g id="node3" class="node">
<title>AuxiliaryModule</title>
<polygon fill="#8dd3c7" stroke="black" points="247.2,-187 244.2,-191 223.2,-191 220.2,-187 133.8,-187 133.8,-151 247.2,-151 247.2,-187"/>
<text text-anchor="middle" x="190.5" y="-164.8" font-family="Times,serif" font-size="14.00">AuxiliaryModule</text>
</g>
<!-- AuxiliaryModule&#45;&gt;ProfessorService  -->
<g id="edge1" class="edge">
<title>AuxiliaryModule&#45;&gt;ProfessorService </title>
<path fill="none" stroke="black" stroke-dasharray="5,2" d="M242.71,-187.11C242.71,-187.11 242.71,-205.99 242.71,-205.99"/>
<polygon fill="black" stroke="black" points="239.21,-205.99 242.71,-215.99 246.21,-205.99 239.21,-205.99"/>
</g>
<!-- AuxiliaryModule&#45;&gt;StudentService  -->
<g id="edge2" class="edge">
<title>AuxiliaryModule&#45;&gt;StudentService </title>
<path fill="none" stroke="black" stroke-dasharray="5,2" d="M177.26,-187.11C177.26,-187.11 177.26,-205.99 177.26,-205.99"/>
<polygon fill="black" stroke="black" points="173.76,-205.99 177.26,-215.99 180.76,-205.99 173.76,-205.99"/>
</g>
<!-- ProfessorService -->
<g id="node4" class="node">
<title>ProfessorService</title>
<ellipse fill="#fdb462" stroke="black" cx="326.5" cy="-104" rx="76.42" ry="18"/>
<text text-anchor="middle" x="326.5" y="-99.8" font-family="Times,serif" font-size="14.00">ProfessorService</text>
</g>
<!-- ProfessorService&#45;&gt;AuxiliaryModule -->
<g id="edge3" class="edge">
<title>ProfessorService&#45;&gt;AuxiliaryModule</title>
<path fill="none" stroke="black" d="M249.87,-104C243.56,-104 239.55,-104 239.55,-104 239.55,-104 239.55,-140.89 239.55,-140.89"/>
<polygon fill="black" stroke="black" points="236.05,-140.89 239.55,-150.89 243.05,-140.89 236.05,-140.89"/>
</g>
<!-- StudentService -->
<g id="node5" class="node">
<title>StudentService</title>
<ellipse fill="#fdb462" stroke="black" cx="162.5" cy="-104" rx="69.5" ry="18"/>
<text text-anchor="middle" x="162.5" y="-99.8" font-family="Times,serif" font-size="14.00">StudentService</text>
</g>
<!-- StudentService&#45;&gt;AuxiliaryModule -->
<g id="edge4" class="edge">
<title>StudentService&#45;&gt;AuxiliaryModule</title>
<path fill="none" stroke="black" d="M182.95,-121.42C182.95,-121.42 182.95,-140.62 182.95,-140.62"/>
<polygon fill="black" stroke="black" points="179.45,-140.62 182.95,-150.62 186.45,-140.62 179.45,-140.62"/>
</g>
</g>
</svg>
