<?xml version="1.0" encoding="UTF-8" standalone="no"?>
<!DOCTYPE svg PUBLIC "-//W3C//DTD SVG 1.1//EN"
 "http://www.w3.org/Graphics/SVG/1.1/DTD/svg11.dtd">
<!-- Generated by graphviz version 2.47.0 (20210316.0004)
 -->
<!-- Title: dependencies Pages: 1 -->
<svg width="660pt" height="284pt"
 viewBox="0.00 0.00 660.00 284.00" xmlns="http://www.w3.org/2000/svg" xmlns:xlink="http://www.w3.org/1999/xlink">
<g id="graph0" class="graph" transform="scale(1 1) rotate(0) translate(4 280)">
<title>dependencies</title>
<polygon fill="white" stroke="transparent" points="-4,4 -4,-280 656,-280 656,4 -4,4"/>
<text text-anchor="start" x="305.01" y="-42.4" font-family="sans-serif" font-weight="bold" font-size="14.00">Legend</text>
<polygon fill="#ffffb3" stroke="transparent" points="92,-10 92,-30 112,-30 112,-10 92,-10"/>
<text text-anchor="start" x="115.63" y="-15.4" font-family="sans-serif" font-size="14.00"> &#160;Declarations</text>
<polygon fill="#8dd3c7" stroke="transparent" points="205,-10 205,-30 225,-30 225,-10 205,-10"/>
<text text-anchor="start" x="228.73" y="-15.4" font-family="sans-serif" font-size="14.00"> &#160;Module</text>
<polygon fill="#80b1d3" stroke="transparent" points="291,-10 291,-30 311,-30 311,-10 291,-10"/>
<text text-anchor="start" x="314.78" y="-15.4" font-family="sans-serif" font-size="14.00"> &#160;Bootstrap</text>
<polygon fill="#fdb462" stroke="transparent" points="388,-10 388,-30 408,-30 408,-10 388,-10"/>
<text text-anchor="start" x="411.67" y="-15.4" font-family="sans-serif" font-size="14.00"> &#160;Providers</text>
<polygon fill="#fb8072" stroke="transparent" points="484,-10 484,-30 504,-30 504,-10 484,-10"/>
<text text-anchor="start" x="507.73" y="-15.4" font-family="sans-serif" font-size="14.00"> &#160;Exports</text>
<g id="clust1" class="cluster">
<title>cluster_AuxiliaryModule</title>
<polygon fill="none" stroke="black" stroke-dasharray="1,5" points="8,-70 8,-268 644,-268 644,-70 8,-70"/>
</g>
<g id="clust4" class="cluster">
<title>cluster_AuxiliaryModule_exports</title>
<polygon fill="none" stroke="black" points="64,-208 64,-260 546,-260 546,-208 64,-208"/>
</g>
<g id="clust6" class="cluster">
<title>cluster_AuxiliaryModule_providers</title>
<polygon fill="none" stroke="black" points="16,-78 16,-130 636,-130 636,-78 16,-78"/>
</g>
<!-- GradeService  -->
<g id="node1" class="node">
<title>GradeService </title>
<polygon fill="#fb8072" stroke="black" points="537.67,-252 442.33,-252 442.33,-216 537.67,-216 537.67,-252"/>
<text text-anchor="middle" x="490" y="-229.8" font-family="Times,serif" font-size="14.00">GradeService </text>
</g>
<!-- PeriodService  -->
<g id="node2" class="node">
<title>PeriodService </title>
<polygon fill="#fb8072" stroke="black" points="424.03,-252 325.97,-252 325.97,-216 424.03,-216 424.03,-252"/>
<text text-anchor="middle" x="375" y="-229.8" font-family="Times,serif" font-size="14.00">PeriodService </text>
</g>
<!-- ProfessorService  -->
<g id="node3" class="node">
<title>ProfessorService </title>
<polygon fill="#fb8072" stroke="black" points="308.35,-252 193.65,-252 193.65,-216 308.35,-216 308.35,-252"/>
<text text-anchor="middle" x="251" y="-229.8" font-family="Times,serif" font-size="14.00">ProfessorService </text>
</g>
<!-- StudentService  -->
<g id="node4" class="node">
<title>StudentService </title>
<polygon fill="#fb8072" stroke="black" points="176.26,-252 71.74,-252 71.74,-216 176.26,-216 176.26,-252"/>
<text text-anchor="middle" x="124" y="-229.8" font-family="Times,serif" font-size="14.00">StudentService </text>
</g>
<!-- AuxiliaryModule -->
<g id="node5" class="node">
<title>AuxiliaryModule</title>
<polygon fill="#8dd3c7" stroke="black" points="355.7,-187 352.7,-191 331.7,-191 328.7,-187 242.3,-187 242.3,-151 355.7,-151 355.7,-187"/>
<text text-anchor="middle" x="299" y="-164.8" font-family="Times,serif" font-size="14.00">AuxiliaryModule</text>
</g>
<!-- AuxiliaryModule&#45;&gt;GradeService  -->
<g id="edge1" class="edge">
<title>AuxiliaryModule&#45;&gt;GradeService </title>
<path fill="none" stroke="black" stroke-dasharray="5,2" d="M355.62,-175C402.75,-175 462.18,-175 462.18,-175 462.18,-175 462.18,-205.98 462.18,-205.98"/>
<polygon fill="black" stroke="black" points="458.68,-205.98 462.18,-215.98 465.68,-205.98 458.68,-205.98"/>
</g>
<!-- AuxiliaryModule&#45;&gt;PeriodService  -->
<g id="edge2" class="edge">
<title>AuxiliaryModule&#45;&gt;PeriodService </title>
<path fill="none" stroke="black" stroke-dasharray="5,2" d="M340.79,-187.11C340.79,-187.11 340.79,-205.99 340.79,-205.99"/>
<polygon fill="black" stroke="black" points="337.29,-205.99 340.79,-215.99 344.29,-205.99 337.29,-205.99"/>
</g>
<!-- AuxiliaryModule&#45;&gt;ProfessorService  -->
<g id="edge3" class="edge">
<title>AuxiliaryModule&#45;&gt;ProfessorService </title>
<path fill="none" stroke="black" stroke-dasharray="5,2" d="M275.29,-187.11C275.29,-187.11 275.29,-205.99 275.29,-205.99"/>
<polygon fill="black" stroke="black" points="271.79,-205.99 275.29,-215.99 278.79,-205.99 271.79,-205.99"/>
</g>
<!-- AuxiliaryModule&#45;&gt;StudentService  -->
<g id="edge4" class="edge">
<title>AuxiliaryModule&#45;&gt;StudentService </title>
<path fill="none" stroke="black" stroke-dasharray="5,2" d="M242.12,-175C207.27,-175 169.31,-175 169.31,-175 169.31,-175 169.31,-205.98 169.31,-205.98"/>
<polygon fill="black" stroke="black" points="165.81,-205.98 169.31,-215.98 172.81,-205.98 165.81,-205.98"/>
</g>
<!-- GradeService -->
<g id="node6" class="node">
<title>GradeService</title>
<ellipse fill="#fdb462" stroke="black" cx="564" cy="-104" rx="63.66" ry="18"/>
<text text-anchor="middle" x="564" y="-99.8" font-family="Times,serif" font-size="14.00">GradeService</text>
</g>
<!-- GradeService&#45;&gt;AuxiliaryModule -->
<g id="edge5" class="edge">
<title>GradeService&#45;&gt;AuxiliaryModule</title>
<path fill="none" stroke="black" d="M519.13,-116.8C519.13,-134.15 519.13,-163 519.13,-163 519.13,-163 365.69,-163 365.69,-163"/>
<polygon fill="black" stroke="black" points="365.69,-159.5 355.69,-163 365.69,-166.5 365.69,-159.5"/>
</g>
<!-- PeriodService -->
<g id="node7" class="node">
<title>PeriodService</title>
<ellipse fill="#fdb462" stroke="black" cx="417" cy="-104" rx="65.41" ry="18"/>
<text text-anchor="middle" x="417" y="-99.8" font-family="Times,serif" font-size="14.00">PeriodService</text>
</g>
<!-- PeriodService&#45;&gt;AuxiliaryModule -->
<g id="edge6" class="edge">
<title>PeriodService&#45;&gt;AuxiliaryModule</title>
<path fill="none" stroke="black" d="M351.75,-104C346.19,-104 342.63,-104 342.63,-104 342.63,-104 342.63,-140.89 342.63,-140.89"/>
<polygon fill="black" stroke="black" points="339.13,-140.89 342.63,-150.89 346.13,-140.89 339.13,-140.89"/>
</g>
<!-- ProfessorService -->
<g id="node8" class="node">
<title>ProfessorService</title>
<ellipse fill="#fdb462" stroke="black" cx="257" cy="-104" rx="76.42" ry="18"/>
<text text-anchor="middle" x="257" y="-99.8" font-family="Times,serif" font-size="14.00">ProfessorService</text>
</g>
<!-- ProfessorService&#45;&gt;AuxiliaryModule -->
<g id="edge7" class="edge">
<title>ProfessorService&#45;&gt;AuxiliaryModule</title>
<path fill="none" stroke="black" d="M287.93,-120.74C287.93,-120.74 287.93,-140.72 287.93,-140.72"/>
<polygon fill="black" stroke="black" points="284.43,-140.72 287.93,-150.72 291.43,-140.72 284.43,-140.72"/>
</g>
<!-- StudentService -->
<g id="node9" class="node">
<title>StudentService</title>
<ellipse fill="#fdb462" stroke="black" cx="93" cy="-104" rx="69.5" ry="18"/>
<text text-anchor="middle" x="93" y="-99.8" font-family="Times,serif" font-size="14.00">StudentService</text>
</g>
<!-- StudentService&#45;&gt;AuxiliaryModule -->
<g id="edge8" class="edge">
<title>StudentService&#45;&gt;AuxiliaryModule</title>
<path fill="none" stroke="black" d="M117.19,-121.07C117.19,-138.49 117.19,-163 117.19,-163 117.19,-163 231.97,-163 231.97,-163"/>
<polygon fill="black" stroke="black" points="231.97,-166.5 241.97,-163 231.97,-159.5 231.97,-166.5"/>
</g>
</g>
</svg>
